M48
;GenerationSoftware,Autodesk,EAGLE,9.7.0*%
;CreationDate,2022-07-20T17:32:20Z*%
FMAT,2
ICI,OFF
METRIC,TZ,000.000
T9C0.350
T8C1.016
T7C1.020
T6C1.300
T5C1.400
T4C2.540
T3C3.000
T2C3.400
T1C3.500
%
G90
M71
T1
X80940Y151270
T2
X-78740Y24130
X-52070Y158750
X102870Y24130
X102870Y158750
X-78740Y92710
T3
X100290Y118490
X103532Y149675
X94132Y143375
X76240Y154270
X80940Y157270
X100290Y132090
T4
X-78378Y83820
X-78378Y40640
X-42818Y40640
X-42818Y83820
T5
X100750Y80010
X100751Y69808
X95380Y38500
X95380Y42700
X95380Y46900
X95380Y51100
X95380Y55300
X95380Y59500
X100880Y38500
X100880Y42700
X100880Y46900
X100880Y51100
X100880Y55300
X100880Y59500
X95130Y102390
X95130Y106590
X95130Y110790
X100630Y102390
X100630Y106590
X100630Y110790
X99682Y141275
X99682Y145475
X99682Y149675
X95251Y69808
X100750Y84210
X100750Y88410
X100750Y92610
X95250Y92610
X95250Y123190
X95250Y127390
X100750Y123190
X100750Y127390
X95250Y80010
X95250Y84210
X95250Y88410
T6
X6270Y26670
X67310Y149860
X62310Y149860
X57310Y149860
X52310Y149860
X47310Y149860
X42310Y149860
X37310Y149860
X53340Y120650
X53340Y132850
X59340Y118650
X65340Y120650
X65340Y132850
X1270Y26670
X11270Y26670
X16270Y26670
X21270Y26670
X26270Y26670
X31270Y26670
X40640Y26670
X45640Y26670
X50640Y26670
X55640Y26670
X60640Y26670
X65640Y26670
X70640Y26670
T7
X79550Y29340
X82550Y25400
X82550Y28400
X85550Y29340
T8
X-35580Y152020
X-33040Y152020
X-30500Y152020
X-26436Y152020
X-23896Y152020
X-21356Y152020
X-18816Y152020
X-16276Y152020
X-13736Y152020
X-11196Y152020
X-8656Y152020
X-3576Y152020
X-1036Y152020
X1504Y152020
X4044Y152020
X6584Y152020
X9124Y152020
X11664Y152020
X14204Y152020
X-53360Y152020
X-50820Y152020
X21824Y134240
X24364Y149480
X24364Y152020
X24364Y113920
X24364Y116460
X24364Y119000
X24364Y121540
X24364Y124080
X24364Y126620
X24364Y129160
X24364Y131700
X21824Y108840
X21824Y111380
X24364Y108840
X-3576Y103760
X21824Y116460
X21824Y113920
X21824Y152020
X21824Y149480
X-42183Y80010
X-42183Y77470
X-42183Y74930
X-42183Y72390
X-42183Y69850
X-42183Y67310
X-42183Y64770
X-42183Y62230
X-42183Y59690
X-42183Y57150
X-42183Y54610
X-42183Y46990
X-42183Y44450
X-42183Y52070
X21824Y146940
X21824Y144400
X21824Y141860
X21824Y136780
X-44216Y103760
X-41676Y103760
X-39136Y103760
X-36596Y103760
X-34056Y103760
X-31516Y103760
X-28976Y103760
X-26436Y103760
X-21356Y103760
X-18816Y103760
X-16276Y103760
X21824Y121540
X21824Y124080
X21824Y126620
X21824Y129160
X21824Y139320
X-13736Y103760
X21824Y131700
X24364Y134240
X24364Y136780
X21824Y119000
X24364Y139320
X24364Y141860
X24364Y144400
X24364Y146940
X-11196Y103760
X24364Y111380
X-8656Y103760
X-6116Y103760
X1504Y103760
X4044Y103760
X6584Y103760
X9124Y103760
X11664Y103760
X14204Y103760
X16744Y103760
X19284Y103760
X-48280Y152020
X-45740Y152020
X-43200Y152020
X-40660Y152020
X-38120Y152020
X-42183Y49530
T9
X6350Y111760
X33020Y115570
X29210Y158750
X40640Y120650
X102870Y62230
X102870Y72390
X62230Y49530
X57150Y45720
X85090Y77470
X91440Y96520
X102870Y96520
X102870Y109220
X80010Y77470
X88900Y96520
X30480Y96520
X25400Y96520
X93980Y116840
X91440Y114300
X63500Y49530
X57150Y44450
X-22860Y97790
X59690Y76200
X1270Y52070
X33020Y93980
X13970Y97790
X11430Y80010
X2540Y96520
X-8890Y91440
X34290Y115570
X76200Y77470
X72390Y57150
X64770Y44450
X54610Y36830
X86360Y97790
X55880Y124460
X55880Y127000
X33701Y147320
X33701Y144780
X33701Y146050
X91440Y39370
X68580Y36830
X-29210Y113030
X-27568Y143138
X-40640Y38100
X-28106Y56046
X-27940Y113030
X-26670Y142240
X8890Y53340
X17780Y72390
X24130Y67310
X35560Y71120
X50800Y109855
X49530Y109855
X48260Y109855
X50800Y111125
X49530Y111125
X48260Y96012
X49530Y96012
X50800Y96012
X50800Y94742
X49530Y94742
X48260Y94742
X48260Y111125
X13970Y50800
X43942Y71060
X52070Y69536
X-481Y71909
X8890Y68580
X16029Y79529
X25400Y85090
X15240Y85090
X-25400Y90951
X0Y86360
X-5080Y78740
X38100Y115570
X53340Y113030
X39370Y115570
X7620Y106680
X-15240Y129540
X-5080Y99060
X-1270Y76200
X-17780Y97790
X3810Y85090
X6350Y85090
X-17099Y95250
X17780Y73660
X1270Y68580
X-7793Y74930
X-5080Y73660
X-7112Y72390
X-8890Y78740
X12610Y47126
X83820Y57150
X85090Y71120
X1270Y48260
X19050Y57150
X48260Y73660
X25400Y57150
X41910Y67310
X-25400Y54610
X-19050Y62230
X-25400Y45720
X2080Y39793
X102870Y78740
X104183Y62230
X48260Y40190
X104140Y43180
X-19050Y55880
X-21590Y33020
X27940Y97790
X39370Y97790
X46990Y97790
X80010Y97790
X93980Y90170
X12700Y57150
X0Y62955
X44450Y73660
X66040Y82550
X105410Y110490
X-22860Y137160
X-12700Y147320
X87630Y68580
X91440Y50800
X25400Y88900
X29210Y85090
X87630Y67310
X27940Y66040
X10160Y86360
X5080Y91440
X-6350Y96520
X92710Y60960
X1270Y59690
X22860Y58420
X30480Y58420
X39370Y58420
X48260Y58420
X52070Y58420
X27940Y83820
X87630Y66040
X23749Y88464
X19050Y36830
X21590Y36830
X-11430Y52070
X-20320Y95250
X-19050Y106680
X-8890Y97790
X49530Y35560
X52070Y44450
X90170Y101600
X57150Y115570
X3810Y38100
X104140Y80010
X104140Y87630
X39370Y101600
X68580Y101600
X77470Y110490
X80010Y114300
X90170Y117521
X39370Y99060
X69850Y100330
X80010Y110490
X88900Y114300
X30700Y63636
X82550Y57150
X84192Y72018
X96520Y73660
X26670Y72390
X34290Y74930
X27940Y71120
X91440Y109220
X26670Y80010
X80010Y99151
X31750Y78740
X-34290Y69850
X22860Y76200
X27940Y69850
X29210Y67310
X46990Y73660
X67310Y81280
X92549Y110651
X0Y64770
X27813Y76789
X54610Y98379
X10185Y76175
X39540Y73006
X39115Y77176
X6350Y100330
X58420Y74930
X53340Y73660
X-5080Y57150
X-3810Y78740
X-3810Y85090
X-3810Y88900
X-8890Y60960
X-50800Y67310
X-48260Y64770
X-53340Y69850
X-24496Y139334
X-29691Y95731
X-33020Y91440
X-22745Y138852
X71120Y77470
X-8890Y59690
X36830Y81280
X36830Y77470
X36830Y74930
X-17780Y92710
X-20320Y92710
X-35560Y90170
X-20909Y90170
X60960Y78740
X43002Y73838
X-52070Y36830
X10160Y62230
X17780Y62230
X-1270Y57150
X-1270Y62230
X44450Y60960
X43180Y57150
X17780Y43180
X13970Y41910
X24210Y63636
X-8890Y63500
X-26670Y110490
M30