M48
;GenerationSoftware,Autodesk,EAGLE,9.7.0*%
;CreationDate,2022-06-29T19:00:45Z*%
FMAT,2
ICI,OFF
METRIC,TZ,000.000
T9C0.350
T8C1.016
T7C1.300
T6C1.400
T5C2.540
T4C3.000
T3C3.400
T2C3.500
%
G90
M71
T2
X80940Y151270
T3
X-78740Y33020
X-52070Y158750
X102870Y33020
X102870Y158750
X-78740Y92710
X7620Y33020
X7620Y7620
X58420Y33020
X58420Y7620
T4
X103055Y146795
X100290Y132090
X93655Y140495
X100290Y118490
X80940Y157270
X76240Y154270
T5
X-78378Y83820
X-42818Y83820
X-42818Y40640
X-78378Y40640
T6
X100880Y60380
X100880Y64580
X95130Y102390
X95130Y106590
X95130Y110790
X100630Y102390
X100630Y106590
X97505Y148895
X97505Y144695
X97505Y140495
X101132Y74380
X95380Y84110
X95380Y47780
X95380Y92510
X100880Y84110
X100880Y88310
X100880Y92510
X95632Y74380
X95380Y43580
X95380Y51980
X95380Y88310
X95380Y56180
X95380Y60380
X95380Y64580
X100880Y43580
X100630Y110790
X100880Y47780
X100880Y51980
X100880Y56180
X95250Y123190
X95250Y127390
X100750Y123190
X100750Y127390
T7
X59340Y118650
X65340Y120650
X65340Y132850
X62310Y149860
X57310Y149860
X52310Y149860
X67310Y149860
X42310Y149860
X37310Y149860
X53340Y120650
X53340Y132850
X47310Y149860
T8
X-40660Y152020
X-38120Y152020
X-35580Y152020
X-33040Y152020
X-30500Y152020
X-26436Y152020
X-23896Y152020
X-21356Y152020
X-18816Y152020
X-16276Y152020
X-13736Y152020
X-11196Y152020
X-8656Y152020
X-3576Y152020
X-1036Y152020
X1504Y152020
X6584Y152020
X9124Y152020
X11664Y152020
X14204Y152020
X-53360Y152020
X-50820Y152020
X21824Y134240
X21824Y136780
X21824Y139320
X21824Y141860
X21824Y144400
X21824Y146940
X21824Y149480
X21824Y152020
X21824Y113920
X21824Y116460
X21824Y119000
X21824Y121540
X21824Y124080
X21824Y126620
X21824Y129160
X21824Y131700
X24364Y134240
X24364Y136780
X24364Y139320
X24364Y141860
X24364Y144400
X24364Y146940
X24364Y149480
X24364Y152020
X24364Y113920
X24364Y116460
X24364Y119000
X24364Y121540
X24364Y124080
X24364Y126620
X24364Y129160
X24364Y131700
X21824Y108840
X21824Y111380
X24364Y108840
X24364Y111380
X4044Y152020
X-44216Y103760
X-41676Y103760
X-39136Y103760
X-42183Y80010
X-42183Y77470
X-42183Y74930
X-42183Y72390
X-42183Y67310
X-42183Y64770
X-42183Y62230
X-42183Y59690
X-42183Y57150
X-42183Y54610
X-42183Y49530
X-42183Y46990
X-42183Y44450
X-42183Y52070
X-36596Y103760
X-34056Y103760
X-31516Y103760
X-28976Y103760
X-26436Y103760
X-21356Y103760
X-18816Y103760
X-16276Y103760
X-13736Y103760
X-11196Y103760
X-8656Y103760
X-6116Y103760
X-3576Y103760
X1504Y103760
X4044Y103760
X6584Y103760
X24130Y31750
X26670Y31750
X29210Y31750
X31750Y31750
X34290Y31750
X36830Y31750
X39370Y31750
X41910Y31750
X41910Y8890
X39370Y8890
X36830Y8890
X34290Y8890
X31750Y8890
X29210Y8890
X26670Y8890
X24130Y8890
X9124Y103760
X11664Y103760
X14204Y103760
X16744Y103760
X19284Y103760
X-48280Y152020
X-45740Y152020
X-43200Y152020
X-42183Y69850
T9
X44450Y60960
X43180Y57150
X17780Y43180
X13970Y41910
X24210Y63636
X-10160Y62230
X36830Y80010
X34290Y83820
X-31750Y109220
X-8890Y111760
X30480Y102870
X40640Y102870
X6350Y80010
X6350Y82550
X33020Y158750
X40640Y120650
X-34056Y95016
X102870Y62230
X102870Y72390
X97790Y81280
X63500Y49530
X57150Y45720
X-21590Y92710
X-12700Y91440
X85090Y77470
X91440Y96520
X102870Y96520
X102870Y109220
X80010Y77470
X88900Y96520
X36830Y96520
X36830Y101600
X40640Y116840
X64770Y49530
X57150Y44450
X-20320Y96520
X-22379Y93499
X43180Y34290
X-35560Y111760
X13861Y109365
X13970Y29210
X44450Y34290
X-34662Y110862
X13979Y107959
X13072Y30108
X45720Y34290
X-33764Y109964
X12174Y31006
X-21590Y97790
X-25400Y90170
X0Y53340
X8890Y53340
X2540Y60960
X-7620Y80010
X16510Y71120
X22860Y69850
X35560Y71120
X-2540Y72390
X50800Y109855
X49530Y109855
X48260Y109855
X50800Y111125
X49530Y111125
X48260Y96012
X49530Y96012
X50800Y96012
X50800Y94742
X49530Y94742
X48260Y94742
X48260Y111125
X3810Y77470
X13970Y54610
X16510Y78968
X21590Y78968
X-18945Y96520
X38100Y80010
X38100Y137160
X43942Y71060
X52070Y69536
X53340Y113030
X38100Y111760
X22860Y91440
X-22860Y139700
X22860Y105410
X-27940Y106680
X-10160Y90170
X0Y86360
X3810Y91440
X11430Y93980
X-1270Y105410
X-11430Y137160
X-20320Y144780
X-26670Y107950
X-22860Y99060
X-15240Y96520
X-10160Y93980
X12700Y72390
X0Y71120
X-7793Y73660
X-5080Y72390
X-7112Y72390
X-8890Y83820
X-15240Y97790
X-16510Y100919
X12610Y47126
X1270Y48260
X19050Y57150
X48260Y73660
X57150Y73660
X95250Y78740
X25400Y57150
X35560Y59690
X810Y41063
X59890Y40174
X102870Y78740
X104183Y62230
X38100Y40190
X24130Y99060
X27940Y97790
X39370Y97790
X46990Y97790
X80010Y97790
X85090Y97790
X12700Y57150
X-3810Y81280
X-6350Y82550
X0Y62955
X44450Y73660
X66040Y82550
X105410Y110490
X91440Y45720
X87630Y67310
X53340Y71120
X39370Y85090
X60960Y74930
X88900Y74930
X48260Y77379
X52912Y80222
X57150Y77470
X30480Y92710
X27940Y96520
X1270Y59690
X22860Y58420
X30480Y58420
X73660Y58420
X88900Y60960
X39370Y58420
X48260Y58420
X52070Y58420
X35560Y39370
X1270Y38100
X-11430Y77470
X1270Y82550
X1270Y85090
X6350Y87630
X19050Y36830
X21590Y36830
X7620Y57150
X5081Y54610
X49530Y26670
X102870Y36830
X102870Y39370
X52070Y44450
X90170Y101600
X57150Y115570
X3810Y36830
X21590Y93980
X31750Y99060
X31750Y101600
X21590Y95904
X69850Y115570
X46990Y113030
X39370Y107950
X19050Y100330
X19050Y93980
X30700Y63636
X39115Y77176
X26670Y72390
X34290Y74930
X19050Y72390
X11430Y80010
X-2529Y93980
X-6350Y97790
X27940Y71120
X91440Y109220
X44450Y80010
X26670Y80010
X80010Y99151
X31750Y80010
X40640Y78740
X22860Y76200
X27940Y69850
X29210Y67310
X46990Y73660
X48260Y76200
X54610Y81280
X67310Y81280
X10160Y76200
X29210Y77470
X43180Y81280
X54610Y98471
X8841Y71071
X30727Y81527
X92549Y110651
X39540Y71736
X53340Y76200
X50634Y78906
X-5080Y57150
X-6350Y59690
X-1270Y85090
X-1270Y96520
X-50800Y67310
X-48260Y64770
X33020Y109220
X-53340Y69850
X-25400Y144780
X-25400Y95250
X-24130Y107950
X-22860Y109220
X-27940Y91440
X-21590Y138430
X-29210Y69850
X71120Y77470
X21590Y99060
X10160Y62230
X17780Y62230
X-1270Y57150
X-1270Y59690
M30