G04 EAGLE Gerber X2 export*
%TF.Part,Single*%
%TF.FileFunction,Copper,L2,Bot,Mixed*%
%TF.FilePolarity,Positive*%
%TF.GenerationSoftware,Autodesk,EAGLE,9.7.0*%
%TF.CreationDate,2022-06-29T19:00:45Z*%
G75*
%MOMM*%
%FSLAX26Y26*%
%LPD*%
%INbottom layer*%
%AMOC8*
5,1,8,0,0,1.08239X$1,22.5*%
G01*
G04 Define Apertures*
%ADD10R,2.100000X2.100000*%
%ADD11C,2.100000*%
%ADD12C,4.016000*%
%ADD13R,1.524000X1.524000*%
%ADD14C,3.556000*%
%ADD15C,1.524000*%
%ADD16C,4.516000*%
%ADD17R,1.950000X1.950000*%
%ADD18C,1.950000*%
%ADD19C,4.416000*%
%ADD20R,0.640000X1.840000*%
%ADD21R,0.973900X0.798700*%
%ADD22R,0.798700X0.973900*%
%ADD23C,0.756400*%
%ADD24C,0.500000*%
%ADD25C,0.300000*%
G36*
X65593522Y406034D02*
X65618534Y423184D01*
X65634878Y448731D01*
X65640000Y476200D01*
X65640000Y25565688D01*
X68414313Y28340000D01*
X107473800Y28340000D01*
X107503522Y28346034D01*
X107528534Y28363184D01*
X107544878Y28388731D01*
X107550000Y28416200D01*
X107550000Y163353800D01*
X107543966Y163383522D01*
X107526816Y163408534D01*
X107501269Y163424878D01*
X107473800Y163430000D01*
X-56673800Y163430000D01*
X-56703522Y163423966D01*
X-56728534Y163406816D01*
X-56744878Y163381269D01*
X-56750000Y163353800D01*
X-56750000Y100164313D01*
X-59524313Y97390000D01*
X-83343800Y97390000D01*
X-83373522Y97383966D01*
X-83398534Y97366816D01*
X-83414878Y97341269D01*
X-83420000Y97313800D01*
X-83420000Y28416200D01*
X-83413966Y28386478D01*
X-83396816Y28361466D01*
X-83371269Y28345122D01*
X-83343800Y28340000D01*
X-2374313Y28340000D01*
X400000Y25565688D01*
X400000Y476200D01*
X406034Y446478D01*
X423184Y421466D01*
X448731Y405122D01*
X476200Y400000D01*
X65563800Y400000D01*
X65593522Y406034D01*
G37*
%LPC*%
G36*
X102400488Y156389600D02*
X101532941Y156748950D01*
X100868950Y157412941D01*
X100509600Y158280488D01*
X100509600Y159219513D01*
X100868950Y160087059D01*
X101532941Y160751050D01*
X102400488Y161110400D01*
X103339513Y161110400D01*
X104207059Y160751050D01*
X104871050Y160087059D01*
X105230400Y159219513D01*
X105230400Y158280488D01*
X104871050Y157412941D01*
X104207059Y156748950D01*
X103339513Y156389600D01*
X102400488Y156389600D01*
G37*
G36*
X-52539513Y156389600D02*
X-53407059Y156748950D01*
X-54071050Y157412941D01*
X-54430400Y158280488D01*
X-54430400Y159219513D01*
X-54071050Y160087059D01*
X-53407059Y160751050D01*
X-52539513Y161110400D01*
X-51600488Y161110400D01*
X-50732941Y160751050D01*
X-50068950Y160087059D01*
X-49709600Y159219513D01*
X-49709600Y158280488D01*
X-50068950Y157412941D01*
X-50732941Y156748950D01*
X-51600488Y156389600D01*
X-52539513Y156389600D01*
G37*
G36*
X-41485484Y151105600D02*
X-41574756Y151194872D01*
X-41574756Y152845128D01*
X-41485484Y152934400D01*
X-40205178Y152934400D01*
X-40175456Y152940434D01*
X-40151297Y152956719D01*
X-34055616Y159052400D01*
X32540456Y159052400D01*
X32570178Y159058434D01*
X32594338Y159074719D01*
X32800219Y159280600D01*
X33239781Y159280600D01*
X33550600Y158969781D01*
X33550600Y158530219D01*
X33239781Y158219400D01*
X32800219Y158219400D01*
X32594338Y158425281D01*
X32569053Y158442031D01*
X32540456Y158447600D01*
X-33773534Y158447600D01*
X-33803256Y158441566D01*
X-33827416Y158425281D01*
X-39723638Y152529059D01*
X-39740388Y152503775D01*
X-39745956Y152475178D01*
X-39745956Y151194872D01*
X-39835228Y151105600D01*
X-41485484Y151105600D01*
G37*
G36*
X52085747Y148732600D02*
X51671378Y148904238D01*
X51354238Y149221378D01*
X51182600Y149635747D01*
X51182600Y150084253D01*
X51232088Y150203731D01*
X51237884Y150233500D01*
X51231613Y150263172D01*
X51215569Y150286772D01*
X44347059Y157155281D01*
X44321775Y157172031D01*
X44293178Y157177600D01*
X-15083178Y157177600D01*
X-15112900Y157171566D01*
X-15137059Y157155281D01*
X-15951638Y156340703D01*
X-15968388Y156315419D01*
X-15973956Y156286822D01*
X-15973956Y153010600D01*
X-15967922Y152980878D01*
X-15950772Y152955866D01*
X-15925225Y152939522D01*
X-15897756Y152934400D01*
X-15451228Y152934400D01*
X-15361956Y152845128D01*
X-15361956Y151194872D01*
X-15451228Y151105600D01*
X-17101484Y151105600D01*
X-17190756Y151194872D01*
X-17190756Y152845128D01*
X-17101484Y152934400D01*
X-16654956Y152934400D01*
X-16625234Y152940434D01*
X-16600222Y152957584D01*
X-16583878Y152983131D01*
X-16578756Y153010600D01*
X-16578756Y156568903D01*
X-15365259Y157782400D01*
X44575259Y157782400D01*
X51552756Y150804903D01*
X51578041Y150788153D01*
X51607853Y150782594D01*
X51637472Y150789103D01*
X51660519Y150804903D01*
X51671378Y150815763D01*
X52085747Y150987400D01*
X52534253Y150987400D01*
X52948622Y150815763D01*
X53265763Y150498622D01*
X53437400Y150084253D01*
X53437400Y149635747D01*
X53265763Y149221378D01*
X52948622Y148904238D01*
X52534253Y148732600D01*
X52085747Y148732600D01*
G37*
G36*
X47085747Y148732600D02*
X46671378Y148904238D01*
X46354238Y149221378D01*
X46182600Y149635747D01*
X46182600Y150084253D01*
X46302384Y150373434D01*
X46308181Y150403200D01*
X46301909Y150432872D01*
X46285866Y150456475D01*
X40857059Y155885281D01*
X40831775Y155902031D01*
X40803178Y155907600D01*
X-12543178Y155907600D01*
X-12572900Y155901566D01*
X-12597059Y155885281D01*
X-13411638Y155070703D01*
X-13428388Y155045419D01*
X-13433956Y155016822D01*
X-13433956Y153010600D01*
X-13427922Y152980878D01*
X-13410772Y152955866D01*
X-13385225Y152939522D01*
X-13357756Y152934400D01*
X-12911228Y152934400D01*
X-12821956Y152845128D01*
X-12821956Y151194872D01*
X-12911228Y151105600D01*
X-14561484Y151105600D01*
X-14650756Y151194872D01*
X-14650756Y152845128D01*
X-14561484Y152934400D01*
X-14114956Y152934400D01*
X-14085234Y152940434D01*
X-14060222Y152957584D01*
X-14043878Y152983131D01*
X-14038756Y153010600D01*
X-14038756Y155298903D01*
X-12825259Y156512400D01*
X41085259Y156512400D01*
X46713525Y150884134D01*
X46738809Y150867384D01*
X46768622Y150861825D01*
X46796566Y150867616D01*
X47085747Y150987400D01*
X47534253Y150987400D01*
X47948622Y150815763D01*
X48265763Y150498622D01*
X48437400Y150084253D01*
X48437400Y149635747D01*
X48265763Y149221378D01*
X47948622Y148904238D01*
X47534253Y148732600D01*
X47085747Y148732600D01*
G37*
G36*
X42085747Y148732600D02*
X41671378Y148904238D01*
X41354238Y149221378D01*
X41182600Y149635747D01*
X41182600Y150084253D01*
X41302384Y150373434D01*
X41308181Y150403200D01*
X41301909Y150432872D01*
X41285866Y150456475D01*
X37127059Y154615281D01*
X37101775Y154632031D01*
X37073178Y154637600D01*
X-8119534Y154637600D01*
X-8149256Y154631566D01*
X-8173416Y154615281D01*
X-10259638Y152529059D01*
X-10276388Y152503775D01*
X-10281956Y152475178D01*
X-10281956Y151194872D01*
X-10371228Y151105600D01*
X-12021484Y151105600D01*
X-12110756Y151194872D01*
X-12110756Y152845128D01*
X-12021484Y152934400D01*
X-10741178Y152934400D01*
X-10711456Y152940434D01*
X-10687297Y152956719D01*
X-8401616Y155242400D01*
X37355259Y155242400D01*
X41713525Y150884134D01*
X41738809Y150867384D01*
X41768622Y150861825D01*
X41796566Y150867616D01*
X42085747Y150987400D01*
X42534253Y150987400D01*
X42948622Y150815763D01*
X43265763Y150498622D01*
X43437400Y150084253D01*
X43437400Y149635747D01*
X43265763Y149221378D01*
X42948622Y148904238D01*
X42534253Y148732600D01*
X42085747Y148732600D01*
G37*
G36*
X37085747Y148732600D02*
X36671378Y148904238D01*
X36354238Y149221378D01*
X36182600Y149635747D01*
X36182600Y150084253D01*
X36354238Y150498622D01*
X36640097Y150784481D01*
X36656847Y150809766D01*
X36662406Y150839578D01*
X36655897Y150869197D01*
X36640097Y150892244D01*
X34187059Y153345281D01*
X34161775Y153362031D01*
X34133178Y153367600D01*
X-6849534Y153367600D01*
X-6879256Y153361566D01*
X-6903416Y153345281D01*
X-7719638Y152529059D01*
X-7736388Y152503775D01*
X-7741956Y152475178D01*
X-7741956Y151194872D01*
X-7831228Y151105600D01*
X-9481484Y151105600D01*
X-9570756Y151194872D01*
X-9570756Y152845128D01*
X-9481484Y152934400D01*
X-8201178Y152934400D01*
X-8171456Y152940434D01*
X-8147297Y152956719D01*
X-7131616Y153972400D01*
X34415259Y153972400D01*
X37377941Y151009719D01*
X37403225Y150992969D01*
X37431822Y150987400D01*
X37534253Y150987400D01*
X37948622Y150815763D01*
X38265763Y150498622D01*
X38437400Y150084253D01*
X38437400Y149635747D01*
X38265763Y149221378D01*
X37948622Y148904238D01*
X37534253Y148732600D01*
X37085747Y148732600D01*
G37*
G36*
X80460541Y148859600D02*
X79574616Y149226563D01*
X78896563Y149904616D01*
X78529600Y150790541D01*
X78529600Y151749459D01*
X78896563Y152635384D01*
X79574616Y153313438D01*
X80460541Y153680400D01*
X81419459Y153680400D01*
X82305384Y153313438D01*
X82983438Y152635384D01*
X83350400Y151749459D01*
X83350400Y150790541D01*
X82983438Y149904616D01*
X82305384Y149226563D01*
X81419459Y148859600D01*
X80460541Y148859600D01*
G37*
G36*
X-36405484Y151105600D02*
X-36494756Y151194872D01*
X-36494756Y152845128D01*
X-36405484Y152934400D01*
X-34755228Y152934400D01*
X-34665956Y152845128D01*
X-34665956Y151194872D01*
X-34755228Y151105600D01*
X-36405484Y151105600D01*
G37*
G36*
X-38945484Y151105600D02*
X-39034756Y151194872D01*
X-39034756Y152845128D01*
X-38945484Y152934400D01*
X-37295228Y152934400D01*
X-37205956Y152845128D01*
X-37205956Y151194872D01*
X-37295228Y151105600D01*
X-38945484Y151105600D01*
G37*
G36*
X-23079781Y139169400D02*
X-23390600Y139480219D01*
X-23390600Y139771378D01*
X-23396634Y139801100D01*
X-23412919Y139825259D01*
X-25502941Y141915281D01*
X-25528225Y141932031D01*
X-25556822Y141937600D01*
X-38225259Y141937600D01*
X-43502756Y147215097D01*
X-43502756Y151029400D01*
X-43508791Y151059122D01*
X-43525941Y151084134D01*
X-43551488Y151100478D01*
X-43578956Y151105600D01*
X-44025484Y151105600D01*
X-44114756Y151194872D01*
X-44114756Y152845128D01*
X-44025484Y152934400D01*
X-42375228Y152934400D01*
X-42285956Y152845128D01*
X-42285956Y151194872D01*
X-42375228Y151105600D01*
X-42821756Y151105600D01*
X-42851478Y151099566D01*
X-42876491Y151082416D01*
X-42892834Y151056869D01*
X-42897956Y151029400D01*
X-42897956Y147497178D01*
X-42891922Y147467456D01*
X-42875638Y147443297D01*
X-37997059Y142564719D01*
X-37971775Y142547969D01*
X-37943178Y142542400D01*
X-25274741Y142542400D01*
X-22985259Y140252919D01*
X-22959975Y140236169D01*
X-22931378Y140230600D01*
X-22640219Y140230600D01*
X-22329400Y139919781D01*
X-22329400Y139480219D01*
X-22640219Y139169400D01*
X-23079781Y139169400D01*
G37*
G36*
X-49105484Y151105600D02*
X-49194756Y151194872D01*
X-49194756Y152845128D01*
X-49105484Y152934400D01*
X-47455228Y152934400D01*
X-47365956Y152845128D01*
X-47365956Y151194872D01*
X-47455228Y151105600D01*
X-49105484Y151105600D01*
G37*
G36*
X-51645484Y151105600D02*
X-51734756Y151194872D01*
X-51734756Y152845128D01*
X-51645484Y152934400D01*
X-49995228Y152934400D01*
X-49905956Y152845128D01*
X-49905956Y151194872D01*
X-49995228Y151105600D01*
X-51645484Y151105600D01*
G37*
G36*
X-54185484Y151105600D02*
X-54274756Y151194872D01*
X-54274756Y152845128D01*
X-54185484Y152934400D01*
X-52535228Y152934400D01*
X-52445956Y152845128D01*
X-52445956Y151194872D01*
X-52535228Y151105600D01*
X-54185484Y151105600D01*
G37*
G36*
X23538516Y151105600D02*
X23449244Y151194872D01*
X23449244Y152845128D01*
X23538516Y152934400D01*
X25188772Y152934400D01*
X25278044Y152845128D01*
X25278044Y151194872D01*
X25188772Y151105600D01*
X23538516Y151105600D01*
G37*
G36*
X20998516Y151105600D02*
X20909244Y151194872D01*
X20909244Y152845128D01*
X20998516Y152934400D01*
X22648772Y152934400D01*
X22738044Y152845128D01*
X22738044Y151194872D01*
X22648772Y151105600D01*
X20998516Y151105600D01*
G37*
G36*
X13378516Y151105600D02*
X13289244Y151194872D01*
X13289244Y152845128D01*
X13378516Y152934400D01*
X15028772Y152934400D01*
X15118044Y152845128D01*
X15118044Y151194872D01*
X15028772Y151105600D01*
X13378516Y151105600D01*
G37*
G36*
X10838516Y151105600D02*
X10749244Y151194872D01*
X10749244Y152845128D01*
X10838516Y152934400D01*
X12488772Y152934400D01*
X12578044Y152845128D01*
X12578044Y151194872D01*
X12488772Y151105600D01*
X10838516Y151105600D01*
G37*
G36*
X8298516Y151105600D02*
X8209244Y151194872D01*
X8209244Y152845128D01*
X8298516Y152934400D01*
X9948772Y152934400D01*
X10038044Y152845128D01*
X10038044Y151194872D01*
X9948772Y151105600D01*
X8298516Y151105600D01*
G37*
G36*
X5758516Y151105600D02*
X5669244Y151194872D01*
X5669244Y152845128D01*
X5758516Y152934400D01*
X7408772Y152934400D01*
X7498044Y152845128D01*
X7498044Y151194872D01*
X7408772Y151105600D01*
X5758516Y151105600D01*
G37*
G36*
X3218516Y151105600D02*
X3129244Y151194872D01*
X3129244Y152845128D01*
X3218516Y152934400D01*
X4868772Y152934400D01*
X4958044Y152845128D01*
X4958044Y151194872D01*
X4868772Y151105600D01*
X3218516Y151105600D01*
G37*
G36*
X678516Y151105600D02*
X589244Y151194872D01*
X589244Y152845128D01*
X678516Y152934400D01*
X2328772Y152934400D01*
X2418044Y152845128D01*
X2418044Y151194872D01*
X2328772Y151105600D01*
X678516Y151105600D01*
G37*
G36*
X-1861484Y151105600D02*
X-1950756Y151194872D01*
X-1950756Y152845128D01*
X-1861484Y152934400D01*
X-211228Y152934400D01*
X-121956Y152845128D01*
X-121956Y151194872D01*
X-211228Y151105600D01*
X-1861484Y151105600D01*
G37*
G36*
X-4401484Y151105600D02*
X-4490756Y151194872D01*
X-4490756Y152845128D01*
X-4401484Y152934400D01*
X-2751228Y152934400D01*
X-2661956Y152845128D01*
X-2661956Y151194872D01*
X-2751228Y151105600D01*
X-4401484Y151105600D01*
G37*
G36*
X-19641484Y151105600D02*
X-19730756Y151194872D01*
X-19730756Y152845128D01*
X-19641484Y152934400D01*
X-17991228Y152934400D01*
X-17901956Y152845128D01*
X-17901956Y151194872D01*
X-17991228Y151105600D01*
X-19641484Y151105600D01*
G37*
G36*
X-22181484Y151105600D02*
X-22270756Y151194872D01*
X-22270756Y152845128D01*
X-22181484Y152934400D01*
X-20531228Y152934400D01*
X-20441956Y152845128D01*
X-20441956Y151194872D01*
X-20531228Y151105600D01*
X-22181484Y151105600D01*
G37*
G36*
X-24721484Y151105600D02*
X-24810756Y151194872D01*
X-24810756Y152845128D01*
X-24721484Y152934400D01*
X-23071228Y152934400D01*
X-22981956Y152845128D01*
X-22981956Y151194872D01*
X-23071228Y151105600D01*
X-24721484Y151105600D01*
G37*
G36*
X-27261484Y151105600D02*
X-27350756Y151194872D01*
X-27350756Y152845128D01*
X-27261484Y152934400D01*
X-25611228Y152934400D01*
X-25521956Y152845128D01*
X-25521956Y151194872D01*
X-25611228Y151105600D01*
X-27261484Y151105600D01*
G37*
G36*
X-31325484Y151105600D02*
X-31414756Y151194872D01*
X-31414756Y152845128D01*
X-31325484Y152934400D01*
X-29675228Y152934400D01*
X-29585956Y152845128D01*
X-29585956Y151194872D01*
X-29675228Y151105600D01*
X-31325484Y151105600D01*
G37*
G36*
X-33865484Y151105600D02*
X-33954756Y151194872D01*
X-33954756Y152845128D01*
X-33865484Y152934400D01*
X-32215228Y152934400D01*
X-32125956Y152845128D01*
X-32125956Y151194872D01*
X-32215228Y151105600D01*
X-33865484Y151105600D01*
G37*
G36*
X66271872Y148732600D02*
X66182600Y148821872D01*
X66182600Y150898128D01*
X66271872Y150987400D01*
X68348128Y150987400D01*
X68437400Y150898128D01*
X68437400Y148821872D01*
X68348128Y148732600D01*
X66271872Y148732600D01*
G37*
G36*
X62085747Y148732600D02*
X61671378Y148904238D01*
X61354238Y149221378D01*
X61182600Y149635747D01*
X61182600Y150084253D01*
X61354238Y150498622D01*
X61671378Y150815763D01*
X62085747Y150987400D01*
X62534253Y150987400D01*
X62948622Y150815763D01*
X63265763Y150498622D01*
X63437400Y150084253D01*
X63437400Y149635747D01*
X63265763Y149221378D01*
X62948622Y148904238D01*
X62534253Y148732600D01*
X62085747Y148732600D01*
G37*
G36*
X-21809781Y137899400D02*
X-22120600Y138210219D01*
X-22120600Y138649781D01*
X-21914719Y138855663D01*
X-21897969Y138880947D01*
X-21892400Y138909544D01*
X-21892400Y146175259D01*
X-19175259Y148892400D01*
X20833044Y148892400D01*
X20862766Y148898434D01*
X20887778Y148915584D01*
X20904122Y148941131D01*
X20909244Y148968600D01*
X20909244Y149101400D01*
X20903209Y149131122D01*
X20886059Y149156134D01*
X20860513Y149172478D01*
X20833044Y149177600D01*
X-20543178Y149177600D01*
X-20572900Y149171566D01*
X-20597059Y149155281D01*
X-24847081Y144905259D01*
X-24863831Y144879975D01*
X-24869400Y144851378D01*
X-24869400Y144560219D01*
X-25180219Y144249400D01*
X-25619781Y144249400D01*
X-25930600Y144560219D01*
X-25930600Y144999781D01*
X-25619781Y145310600D01*
X-25328622Y145310600D01*
X-25298900Y145316634D01*
X-25274741Y145332919D01*
X-20825259Y149782400D01*
X20833044Y149782400D01*
X20862766Y149788434D01*
X20887778Y149805584D01*
X20904122Y149831131D01*
X20909244Y149858600D01*
X20909244Y150305128D01*
X20998516Y150394400D01*
X22648772Y150394400D01*
X22738044Y150305128D01*
X22738044Y149054366D01*
X22744078Y149024644D01*
X22761228Y148999631D01*
X22786775Y148983288D01*
X22816672Y148978203D01*
X22846188Y148985184D01*
X22868125Y149000484D01*
X23426925Y149559284D01*
X23443675Y149584569D01*
X23449244Y149613166D01*
X23449244Y150305128D01*
X23538516Y150394400D01*
X25188772Y150394400D01*
X25278044Y150305128D01*
X25278044Y148654872D01*
X25188772Y148565600D01*
X23538516Y148565600D01*
X23467419Y148636697D01*
X23442134Y148653447D01*
X23412322Y148659006D01*
X23382703Y148652497D01*
X23359656Y148636697D01*
X22836159Y148113200D01*
X20811128Y148113200D01*
X20659047Y148265281D01*
X20633763Y148282031D01*
X20605166Y148287600D01*
X-18893178Y148287600D01*
X-18922900Y148281566D01*
X-18947059Y148265281D01*
X-21265281Y145947059D01*
X-21282031Y145921775D01*
X-21287600Y145893178D01*
X-21287600Y138909544D01*
X-21281566Y138879822D01*
X-21265281Y138855663D01*
X-21059400Y138649781D01*
X-21059400Y138210219D01*
X-21370219Y137899400D01*
X-21809781Y137899400D01*
G37*
G36*
X96391672Y147692600D02*
X96302400Y147781872D01*
X96302400Y150008128D01*
X96391672Y150097400D01*
X98617928Y150097400D01*
X98707200Y150008128D01*
X98707200Y147781872D01*
X98617928Y147692600D01*
X96391672Y147692600D01*
G37*
G36*
X102625069Y144634600D02*
X101831031Y144963503D01*
X101223303Y145571231D01*
X100894400Y146365269D01*
X100894400Y147224731D01*
X101223303Y148018769D01*
X101831031Y148626497D01*
X102625069Y148955400D01*
X103484531Y148955400D01*
X104278569Y148626497D01*
X104886297Y148018769D01*
X105215200Y147224731D01*
X105215200Y146365269D01*
X104886297Y145571231D01*
X104278569Y144963503D01*
X103484531Y144634600D01*
X102625069Y144634600D01*
G37*
G36*
X23538516Y146025600D02*
X23449244Y146114872D01*
X23449244Y147765128D01*
X23538516Y147854400D01*
X25188772Y147854400D01*
X25278044Y147765128D01*
X25278044Y146114872D01*
X25188772Y146025600D01*
X23538516Y146025600D01*
G37*
G36*
X20998516Y146025600D02*
X20909244Y146114872D01*
X20909244Y147765128D01*
X20998516Y147854400D01*
X22648772Y147854400D01*
X22738044Y147765128D01*
X22738044Y146114872D01*
X22648772Y146025600D01*
X20998516Y146025600D01*
G37*
G36*
X97265628Y143492600D02*
X96823694Y143675656D01*
X96485456Y144013894D01*
X96302400Y144455828D01*
X96302400Y144934172D01*
X96485456Y145376106D01*
X96823694Y145714344D01*
X97265628Y145897400D01*
X97743972Y145897400D01*
X98185906Y145714344D01*
X98524144Y145376106D01*
X98707200Y144934172D01*
X98707200Y144455828D01*
X98524144Y144013894D01*
X98185906Y143675656D01*
X97743972Y143492600D01*
X97265628Y143492600D01*
G37*
G36*
X23538516Y143485600D02*
X23449244Y143574872D01*
X23449244Y145225128D01*
X23538516Y145314400D01*
X25188772Y145314400D01*
X25278044Y145225128D01*
X25278044Y143574872D01*
X25188772Y143485600D01*
X23538516Y143485600D01*
G37*
G36*
X20998516Y143485600D02*
X20909244Y143574872D01*
X20909244Y145225128D01*
X20998516Y145314400D01*
X22648772Y145314400D01*
X22738044Y145225128D01*
X22738044Y143574872D01*
X22648772Y143485600D01*
X20998516Y143485600D01*
G37*
G36*
X-11649781Y136629400D02*
X-11960600Y136940219D01*
X-11960600Y137231378D01*
X-11966634Y137261100D01*
X-11982919Y137285259D01*
X-19152941Y144455281D01*
X-19178225Y144472031D01*
X-19206822Y144477600D01*
X-19840456Y144477600D01*
X-19870178Y144471566D01*
X-19894338Y144455281D01*
X-20100219Y144249400D01*
X-20539781Y144249400D01*
X-20850600Y144560219D01*
X-20850600Y144999781D01*
X-20539781Y145310600D01*
X-20100219Y145310600D01*
X-19894338Y145104719D01*
X-19869053Y145087969D01*
X-19840456Y145082400D01*
X-18924741Y145082400D01*
X-11555259Y137712919D01*
X-11529975Y137696169D01*
X-11501378Y137690600D01*
X-11210219Y137690600D01*
X-10899400Y137379781D01*
X-10899400Y136940219D01*
X-11210219Y136629400D01*
X-11649781Y136629400D01*
G37*
G36*
X23538516Y140945600D02*
X23449244Y141034872D01*
X23449244Y142685128D01*
X23538516Y142774400D01*
X25188772Y142774400D01*
X25278044Y142685128D01*
X25278044Y141034872D01*
X25188772Y140945600D01*
X23538516Y140945600D01*
G37*
G36*
X20998516Y140945600D02*
X20909244Y141034872D01*
X20909244Y142685128D01*
X20998516Y142774400D01*
X22648772Y142774400D01*
X22738044Y142685128D01*
X22738044Y141034872D01*
X22648772Y140945600D01*
X20998516Y140945600D01*
G37*
G36*
X93225069Y138334600D02*
X92431031Y138663503D01*
X91823303Y139271231D01*
X91494400Y140065269D01*
X91494400Y140924731D01*
X91823303Y141718769D01*
X92431031Y142326497D01*
X93225069Y142655400D01*
X94084531Y142655400D01*
X94878569Y142326497D01*
X95486297Y141718769D01*
X95815200Y140924731D01*
X95815200Y140065269D01*
X95486297Y139271231D01*
X94878569Y138663503D01*
X94084531Y138334600D01*
X93225069Y138334600D01*
G37*
G36*
X59669863Y39642966D02*
X59359044Y39953784D01*
X59359044Y40393347D01*
X59669863Y40704166D01*
X60109425Y40704166D01*
X60315306Y40498284D01*
X60340591Y40481534D01*
X60369188Y40475966D01*
X100976744Y40475966D01*
X101006466Y40482000D01*
X101030625Y40498284D01*
X103815281Y43282941D01*
X103832031Y43308225D01*
X103837600Y43336822D01*
X103837600Y44013391D01*
X103831566Y44043113D01*
X103814416Y44068125D01*
X103788869Y44084469D01*
X103758972Y44089553D01*
X103729456Y44082572D01*
X103707519Y44067272D01*
X101247847Y41607600D01*
X70539941Y41607600D01*
X65819209Y46328331D01*
X65793925Y46345081D01*
X65765328Y46350650D01*
X65122722Y46350650D01*
X65033450Y46439922D01*
X65033450Y47540078D01*
X65122722Y47629350D01*
X66047678Y47629350D01*
X66136950Y47540078D01*
X66136950Y46897472D01*
X66142984Y46867750D01*
X66159269Y46843591D01*
X70768141Y42234719D01*
X70793425Y42217969D01*
X70822022Y42212400D01*
X100965766Y42212400D01*
X100995488Y42218434D01*
X101019647Y42234719D01*
X101032447Y42247519D01*
X101049197Y42272803D01*
X101054756Y42302616D01*
X101048247Y42332234D01*
X101030703Y42356972D01*
X101004897Y42372906D01*
X100978566Y42377600D01*
X100640828Y42377600D01*
X100198894Y42560656D01*
X99860656Y42898894D01*
X99677600Y43340828D01*
X99677600Y43819172D01*
X99860656Y44261106D01*
X100198894Y44599344D01*
X100640828Y44782400D01*
X101119172Y44782400D01*
X101561106Y44599344D01*
X101899344Y44261106D01*
X102082400Y43819172D01*
X102082400Y43481434D01*
X102088434Y43451713D01*
X102105584Y43426700D01*
X102131131Y43410356D01*
X102161028Y43405272D01*
X102190544Y43412253D01*
X102212481Y43427553D01*
X103177681Y44392753D01*
X103194431Y44418038D01*
X103200000Y44446634D01*
X103200000Y61440778D01*
X103193966Y61470500D01*
X103177681Y61494659D01*
X102995259Y61677081D01*
X102969975Y61693831D01*
X102941378Y61699400D01*
X102650219Y61699400D01*
X102339400Y62010219D01*
X102339400Y62245191D01*
X102333366Y62274913D01*
X102316216Y62299925D01*
X102290669Y62316269D01*
X102260772Y62321353D01*
X102231256Y62314372D01*
X102209319Y62299072D01*
X101463897Y61553650D01*
X101447147Y61528366D01*
X101441588Y61498553D01*
X101448097Y61468934D01*
X101465641Y61444197D01*
X101488619Y61429369D01*
X101561106Y61399344D01*
X101899344Y61061106D01*
X102082400Y60619172D01*
X102082400Y60140828D01*
X101899344Y59698894D01*
X101561106Y59360656D01*
X101119172Y59177600D01*
X100640828Y59177600D01*
X100198894Y59360656D01*
X99860656Y59698894D01*
X99677600Y60140828D01*
X99677600Y60619172D01*
X99860656Y61061106D01*
X100198894Y61399344D01*
X100620850Y61574125D01*
X100645572Y61590644D01*
X103815281Y64760353D01*
X103832031Y64785638D01*
X103837600Y64814234D01*
X103837600Y106211400D01*
X103831566Y106241122D01*
X103814416Y106266134D01*
X103788869Y106282478D01*
X103761400Y106287600D01*
X101857125Y106287600D01*
X101827403Y106281566D01*
X101802391Y106264416D01*
X101786725Y106240559D01*
X101649344Y105908894D01*
X101311106Y105570656D01*
X100869172Y105387600D01*
X100390828Y105387600D01*
X99948894Y105570656D01*
X99610656Y105908894D01*
X99427600Y106350828D01*
X99427600Y106829172D01*
X99610656Y107271106D01*
X99948894Y107609344D01*
X100390828Y107792400D01*
X100869172Y107792400D01*
X101311106Y107609344D01*
X101649344Y107271106D01*
X101786725Y106939441D01*
X101803675Y106914291D01*
X101829091Y106897744D01*
X101857125Y106892400D01*
X103309000Y106892400D01*
X103338722Y106898434D01*
X103363734Y106915584D01*
X103380078Y106941131D01*
X103385200Y106968600D01*
X103385200Y108800856D01*
X103379166Y108830578D01*
X103362016Y108855591D01*
X103336469Y108871934D01*
X103306572Y108877019D01*
X103277056Y108870038D01*
X103255119Y108854738D01*
X103089781Y108689400D01*
X102650219Y108689400D01*
X102444338Y108895281D01*
X102419053Y108912031D01*
X102390456Y108917600D01*
X97916822Y108917600D01*
X97887100Y108911566D01*
X97862941Y108895281D01*
X96211538Y107243878D01*
X96194788Y107218594D01*
X96189228Y107188781D01*
X96195019Y107160838D01*
X96332400Y106829172D01*
X96332400Y106350828D01*
X96149344Y105908894D01*
X95811106Y105570656D01*
X95369172Y105387600D01*
X94890828Y105387600D01*
X94448894Y105570656D01*
X94110656Y105908894D01*
X93927600Y106350828D01*
X93927600Y106829172D01*
X94110656Y107271106D01*
X94448894Y107609344D01*
X94890828Y107792400D01*
X95369172Y107792400D01*
X95700838Y107655019D01*
X95730603Y107649222D01*
X95760275Y107655494D01*
X95783878Y107671538D01*
X97634741Y109522400D01*
X100165153Y109522400D01*
X100194875Y109528434D01*
X100219888Y109545584D01*
X100236231Y109571131D01*
X100241316Y109601028D01*
X100234334Y109630544D01*
X100216397Y109654997D01*
X100194313Y109669000D01*
X99948894Y109770656D01*
X99610656Y110108894D01*
X99427600Y110550828D01*
X99427600Y111029172D01*
X99564981Y111360838D01*
X99570778Y111390603D01*
X99564506Y111420275D01*
X99548463Y111443878D01*
X98357059Y112635281D01*
X98331775Y112652031D01*
X98303178Y112657600D01*
X95014097Y112657600D01*
X94984375Y112651566D01*
X94960216Y112635281D01*
X93101556Y110776622D01*
X93084806Y110751338D01*
X93079238Y110722741D01*
X93079238Y110431581D01*
X92768419Y110120763D01*
X92328856Y110120763D01*
X92018038Y110431581D01*
X92018038Y110871144D01*
X92328856Y111181963D01*
X92620016Y111181963D01*
X92649738Y111187997D01*
X92673897Y111204281D01*
X94449534Y112979919D01*
X94466284Y113005203D01*
X94471844Y113035016D01*
X94465334Y113064634D01*
X94447791Y113089372D01*
X94421984Y113105306D01*
X94395653Y113110000D01*
X60452341Y113110000D01*
X57810681Y115751659D01*
X57785397Y115768409D01*
X57755584Y115773969D01*
X57725966Y115767459D01*
X57701228Y115749916D01*
X57685294Y115724109D01*
X57680600Y115697778D01*
X57680600Y115498622D01*
X57686634Y115468900D01*
X57702919Y115444741D01*
X71222941Y101924719D01*
X71248225Y101907969D01*
X71276822Y101902400D01*
X89690456Y101902400D01*
X89720178Y101908434D01*
X89744338Y101924719D01*
X89950219Y102130600D01*
X90389781Y102130600D01*
X90700600Y101819781D01*
X90700600Y101380219D01*
X90389781Y101069400D01*
X89950219Y101069400D01*
X89744338Y101275281D01*
X89719053Y101292031D01*
X89690456Y101297600D01*
X70994741Y101297600D01*
X57275259Y115017081D01*
X57249975Y115033831D01*
X57221378Y115039400D01*
X56930219Y115039400D01*
X56619400Y115350219D01*
X56619400Y115789781D01*
X56930219Y116100600D01*
X57277778Y116100600D01*
X57307500Y116106634D01*
X57332513Y116123784D01*
X57348856Y116149331D01*
X57353941Y116179228D01*
X57346959Y116208744D01*
X57331659Y116230681D01*
X57047059Y116515281D01*
X57021775Y116532031D01*
X56993178Y116537600D01*
X41119544Y116537600D01*
X41089822Y116531566D01*
X41065663Y116515281D01*
X40859781Y116309400D01*
X40420219Y116309400D01*
X40109400Y116620219D01*
X40109400Y117059781D01*
X40420219Y117370600D01*
X40859781Y117370600D01*
X41065663Y117164719D01*
X41090947Y117147969D01*
X41119544Y117142400D01*
X57275259Y117142400D01*
X60680541Y113737119D01*
X60705825Y113720369D01*
X60734422Y113714800D01*
X102213372Y113714800D01*
X102243094Y113720834D01*
X102268106Y113737984D01*
X102284450Y113763531D01*
X102289534Y113793428D01*
X102282553Y113822944D01*
X102267253Y113844881D01*
X101547453Y114564681D01*
X101522169Y114581431D01*
X101493572Y114587000D01*
X62975341Y114587000D01*
X59936475Y117625866D01*
X59911191Y117642616D01*
X59881378Y117648175D01*
X59853434Y117642384D01*
X59564253Y117522600D01*
X59115747Y117522600D01*
X58701378Y117694238D01*
X58384238Y118011378D01*
X58212600Y118425747D01*
X58212600Y118874253D01*
X58384238Y119288622D01*
X58701378Y119605763D01*
X59115747Y119777400D01*
X59564253Y119777400D01*
X59978622Y119605763D01*
X60295763Y119288622D01*
X60467400Y118874253D01*
X60467400Y118425747D01*
X60347616Y118136566D01*
X60341819Y118106800D01*
X60348091Y118077128D01*
X60364134Y118053525D01*
X63203541Y115214119D01*
X63228825Y115197369D01*
X63257422Y115191800D01*
X69293856Y115191800D01*
X69323578Y115197834D01*
X69348591Y115214984D01*
X69364934Y115240531D01*
X69370019Y115270428D01*
X69363038Y115299944D01*
X69347738Y115321881D01*
X69319400Y115350219D01*
X69319400Y115789781D01*
X69630219Y116100600D01*
X69921378Y116100600D01*
X69951100Y116106634D01*
X69975259Y116122919D01*
X91069341Y137217000D01*
X93767578Y137217000D01*
X93797300Y137223034D01*
X93821459Y137239319D01*
X96423263Y139841122D01*
X96440013Y139866406D01*
X96445572Y139896219D01*
X96439781Y139924163D01*
X96302400Y140255828D01*
X96302400Y140734172D01*
X96485456Y141176106D01*
X96823694Y141514344D01*
X97265628Y141697400D01*
X97743972Y141697400D01*
X98185906Y141514344D01*
X98524144Y141176106D01*
X98707200Y140734172D01*
X98707200Y140255828D01*
X98524144Y139813894D01*
X98185906Y139475656D01*
X97743972Y139292600D01*
X97265628Y139292600D01*
X96933963Y139429981D01*
X96904197Y139435778D01*
X96874525Y139429506D01*
X96850922Y139413463D01*
X94049659Y136612200D01*
X91351422Y136612200D01*
X91321700Y136606166D01*
X91297541Y136589881D01*
X70402919Y115695259D01*
X70386169Y115669975D01*
X70380600Y115641378D01*
X70380600Y115350219D01*
X70352263Y115321881D01*
X70335513Y115296597D01*
X70329953Y115266784D01*
X70336463Y115237166D01*
X70354006Y115212428D01*
X70379813Y115196494D01*
X70406144Y115191800D01*
X101775653Y115191800D01*
X104442400Y112525053D01*
X104442400Y64532153D01*
X102800928Y62890681D01*
X102784178Y62865397D01*
X102778619Y62835584D01*
X102785128Y62805966D01*
X102802672Y62781228D01*
X102828478Y62765294D01*
X102854809Y62760600D01*
X103089781Y62760600D01*
X103400600Y62449781D01*
X103400600Y62158622D01*
X103406634Y62128900D01*
X103422919Y62104741D01*
X103522319Y62005341D01*
X103547603Y61988591D01*
X103577416Y61983031D01*
X103607034Y61989541D01*
X103631772Y62007084D01*
X103647706Y62032891D01*
X103652400Y62059222D01*
X103652400Y62449781D01*
X103963219Y62760600D01*
X104402781Y62760600D01*
X104713600Y62449781D01*
X104713600Y62010219D01*
X104464719Y61761338D01*
X104447969Y61736053D01*
X104442400Y61707456D01*
X104442400Y43054741D01*
X101258825Y39871166D01*
X60369188Y39871166D01*
X60339466Y39865131D01*
X60315306Y39848847D01*
X60109425Y39642966D01*
X59669863Y39642966D01*
G37*
G36*
X23538516Y138405600D02*
X23449244Y138494872D01*
X23449244Y140145128D01*
X23538516Y140234400D01*
X25188772Y140234400D01*
X25278044Y140145128D01*
X25278044Y138494872D01*
X25188772Y138405600D01*
X23538516Y138405600D01*
G37*
G36*
X20998516Y138405600D02*
X20909244Y138494872D01*
X20909244Y140145128D01*
X20998516Y140234400D01*
X22648772Y140234400D01*
X22738044Y140145128D01*
X22738044Y138494872D01*
X22648772Y138405600D01*
X20998516Y138405600D01*
G37*
G36*
X23538516Y135865600D02*
X23449244Y135954872D01*
X23449244Y137605128D01*
X23538516Y137694400D01*
X25188772Y137694400D01*
X25278044Y137605128D01*
X25278044Y135954872D01*
X25188772Y135865600D01*
X23538516Y135865600D01*
G37*
G36*
X20998516Y135865600D02*
X20909244Y135954872D01*
X20909244Y137605128D01*
X20998516Y137694400D01*
X22648772Y137694400D01*
X22738044Y137605128D01*
X22738044Y135954872D01*
X22648772Y135865600D01*
X20998516Y135865600D01*
G37*
G36*
X23538516Y133325600D02*
X23449244Y133414872D01*
X23449244Y135065128D01*
X23538516Y135154400D01*
X25188772Y135154400D01*
X25278044Y135065128D01*
X25278044Y133414872D01*
X25188772Y133325600D01*
X23538516Y133325600D01*
G37*
G36*
X20998516Y133325600D02*
X20909244Y133414872D01*
X20909244Y135065128D01*
X20998516Y135154400D01*
X22648772Y135154400D01*
X22738044Y135065128D01*
X22738044Y133414872D01*
X22648772Y133325600D01*
X20998516Y133325600D01*
G37*
G36*
X99860269Y129929600D02*
X99066231Y130258503D01*
X98458503Y130866231D01*
X98129600Y131660269D01*
X98129600Y132519731D01*
X98458503Y133313769D01*
X99066231Y133921497D01*
X99860269Y134250400D01*
X100719731Y134250400D01*
X101513769Y133921497D01*
X102121497Y133313769D01*
X102450400Y132519731D01*
X102450400Y131660269D01*
X102121497Y130866231D01*
X101513769Y130258503D01*
X100719731Y129929600D01*
X99860269Y129929600D01*
G37*
G36*
X65115747Y131722600D02*
X64701378Y131894238D01*
X64384238Y132211378D01*
X64212600Y132625747D01*
X64212600Y133074253D01*
X64384238Y133488622D01*
X64701378Y133805763D01*
X65115747Y133977400D01*
X65564253Y133977400D01*
X65978622Y133805763D01*
X66295763Y133488622D01*
X66467400Y133074253D01*
X66467400Y132625747D01*
X66295763Y132211378D01*
X65978622Y131894238D01*
X65564253Y131722600D01*
X65115747Y131722600D01*
G37*
G36*
X53115747Y131722600D02*
X52701378Y131894238D01*
X52384238Y132211378D01*
X52212600Y132625747D01*
X52212600Y133074253D01*
X52384238Y133488622D01*
X52701378Y133805763D01*
X53115747Y133977400D01*
X53564253Y133977400D01*
X53978622Y133805763D01*
X54295763Y133488622D01*
X54467400Y133074253D01*
X54467400Y132625747D01*
X54295763Y132211378D01*
X53978622Y131894238D01*
X53564253Y131722600D01*
X53115747Y131722600D01*
G37*
G36*
X23538516Y130785600D02*
X23449244Y130874872D01*
X23449244Y132525128D01*
X23538516Y132614400D01*
X25188772Y132614400D01*
X25278044Y132525128D01*
X25278044Y130874872D01*
X25188772Y130785600D01*
X23538516Y130785600D01*
G37*
G36*
X20998516Y130785600D02*
X20909244Y130874872D01*
X20909244Y132525128D01*
X20998516Y132614400D01*
X22648772Y132614400D01*
X22738044Y132525128D01*
X22738044Y130874872D01*
X22648772Y130785600D01*
X20998516Y130785600D01*
G37*
G36*
X23538516Y128245600D02*
X23449244Y128334872D01*
X23449244Y129985128D01*
X23538516Y130074400D01*
X25188772Y130074400D01*
X25278044Y129985128D01*
X25278044Y128334872D01*
X25188772Y128245600D01*
X23538516Y128245600D01*
G37*
G36*
X20998516Y128245600D02*
X20909244Y128334872D01*
X20909244Y129985128D01*
X20998516Y130074400D01*
X22648772Y130074400D01*
X22738044Y129985128D01*
X22738044Y128334872D01*
X22648772Y128245600D01*
X20998516Y128245600D01*
G37*
G36*
X105190219Y109959400D02*
X104879400Y110270219D01*
X104879400Y110709781D01*
X105085281Y110915663D01*
X105102031Y110940947D01*
X105107600Y110969544D01*
X105107600Y122700178D01*
X105101566Y122729900D01*
X105085281Y122754059D01*
X101493681Y126345659D01*
X101468397Y126362409D01*
X101438584Y126367969D01*
X101410641Y126362178D01*
X100989172Y126187600D01*
X100510828Y126187600D01*
X100068894Y126370656D01*
X99730656Y126708894D01*
X99547600Y127150828D01*
X99547600Y127629172D01*
X99730656Y128071106D01*
X100068894Y128409344D01*
X100510828Y128592400D01*
X100989172Y128592400D01*
X101431106Y128409344D01*
X101769344Y128071106D01*
X101952400Y127629172D01*
X101952400Y127150828D01*
X101852216Y126908966D01*
X101846419Y126879200D01*
X101852691Y126849528D01*
X101868734Y126825925D01*
X105712400Y122982259D01*
X105712400Y110969544D01*
X105718434Y110939822D01*
X105734719Y110915663D01*
X105940600Y110709781D01*
X105940600Y110270219D01*
X105629781Y109959400D01*
X105190219Y109959400D01*
G37*
G36*
X95010828Y126187600D02*
X94568894Y126370656D01*
X94230656Y126708894D01*
X94047600Y127150828D01*
X94047600Y127629172D01*
X94230656Y128071106D01*
X94568894Y128409344D01*
X95010828Y128592400D01*
X95489172Y128592400D01*
X95931106Y128409344D01*
X96269344Y128071106D01*
X96452400Y127629172D01*
X96452400Y127150828D01*
X96269344Y126708894D01*
X95931106Y126370656D01*
X95489172Y126187600D01*
X95010828Y126187600D01*
G37*
G36*
X23538516Y125705600D02*
X23449244Y125794872D01*
X23449244Y127445128D01*
X23538516Y127534400D01*
X25188772Y127534400D01*
X25278044Y127445128D01*
X25278044Y125794872D01*
X25188772Y125705600D01*
X23538516Y125705600D01*
G37*
G36*
X20998516Y125705600D02*
X20909244Y125794872D01*
X20909244Y127445128D01*
X20998516Y127534400D01*
X22648772Y127534400D01*
X22738044Y127445128D01*
X22738044Y125794872D01*
X22648772Y125705600D01*
X20998516Y125705600D01*
G37*
G36*
X23538516Y123165600D02*
X23449244Y123254872D01*
X23449244Y124905128D01*
X23538516Y124994400D01*
X25188772Y124994400D01*
X25278044Y124905128D01*
X25278044Y123254872D01*
X25188772Y123165600D01*
X23538516Y123165600D01*
G37*
G36*
X20998516Y123165600D02*
X20909244Y123254872D01*
X20909244Y124905128D01*
X20998516Y124994400D01*
X22648772Y124994400D01*
X22738044Y124905128D01*
X22738044Y123254872D01*
X22648772Y123165600D01*
X20998516Y123165600D01*
G37*
G36*
X100510828Y121987600D02*
X100068894Y122170656D01*
X99730656Y122508894D01*
X99547600Y122950828D01*
X99547600Y123429172D01*
X99730656Y123871106D01*
X100068894Y124209344D01*
X100510828Y124392400D01*
X100989172Y124392400D01*
X101431106Y124209344D01*
X101769344Y123871106D01*
X101952400Y123429172D01*
X101952400Y122950828D01*
X101769344Y122508894D01*
X101431106Y122170656D01*
X100989172Y121987600D01*
X100510828Y121987600D01*
G37*
G36*
X94136872Y121987600D02*
X94047600Y122076872D01*
X94047600Y124303128D01*
X94136872Y124392400D01*
X96363128Y124392400D01*
X96452400Y124303128D01*
X96452400Y122076872D01*
X96363128Y121987600D01*
X94136872Y121987600D01*
G37*
G36*
X23538516Y120625600D02*
X23449244Y120714872D01*
X23449244Y122365128D01*
X23538516Y122454400D01*
X25188772Y122454400D01*
X25278044Y122365128D01*
X25278044Y120714872D01*
X25188772Y120625600D01*
X23538516Y120625600D01*
G37*
G36*
X20998516Y120625600D02*
X20909244Y120714872D01*
X20909244Y122365128D01*
X20998516Y122454400D01*
X22648772Y122454400D01*
X22738044Y122365128D01*
X22738044Y120714872D01*
X22648772Y120625600D01*
X20998516Y120625600D01*
G37*
G36*
X53115747Y119522600D02*
X52701378Y119694238D01*
X52384238Y120011378D01*
X52264453Y120300559D01*
X52247503Y120325709D01*
X52222088Y120342256D01*
X52194053Y120347600D01*
X41119544Y120347600D01*
X41089822Y120341566D01*
X41065663Y120325281D01*
X40859781Y120119400D01*
X40420219Y120119400D01*
X40109400Y120430219D01*
X40109400Y120869781D01*
X40420219Y121180600D01*
X40859781Y121180600D01*
X41065663Y120974719D01*
X41090947Y120957969D01*
X41119544Y120952400D01*
X52194053Y120952400D01*
X52223775Y120958434D01*
X52248788Y120975584D01*
X52264453Y120999441D01*
X52384238Y121288622D01*
X52701378Y121605763D01*
X53115747Y121777400D01*
X53564253Y121777400D01*
X53978622Y121605763D01*
X54295763Y121288622D01*
X54467400Y120874253D01*
X54467400Y120425747D01*
X54295763Y120011378D01*
X53978622Y119694238D01*
X53564253Y119522600D01*
X53115747Y119522600D01*
G37*
G36*
X99860269Y116329600D02*
X99066231Y116658503D01*
X98458503Y117266231D01*
X98129600Y118060269D01*
X98129600Y118919731D01*
X98458503Y119713769D01*
X99066231Y120321497D01*
X99860269Y120650400D01*
X100719731Y120650400D01*
X101513769Y120321497D01*
X102121497Y119713769D01*
X102450400Y118919731D01*
X102450400Y118060269D01*
X102121497Y117266231D01*
X101513769Y116658503D01*
X100719731Y116329600D01*
X99860269Y116329600D01*
G37*
G36*
X23538516Y118085600D02*
X23449244Y118174872D01*
X23449244Y119825128D01*
X23538516Y119914400D01*
X25188772Y119914400D01*
X25278044Y119825128D01*
X25278044Y118174872D01*
X25188772Y118085600D01*
X23538516Y118085600D01*
G37*
G36*
X20998516Y118085600D02*
X20909244Y118174872D01*
X20909244Y119825128D01*
X20998516Y119914400D01*
X22648772Y119914400D01*
X22738044Y119825128D01*
X22738044Y118174872D01*
X22648772Y118085600D01*
X20998516Y118085600D01*
G37*
G36*
X-42364888Y61315600D02*
X-42700969Y61454809D01*
X-42958191Y61712031D01*
X-43097400Y62048113D01*
X-43097400Y62411888D01*
X-43027594Y62580413D01*
X-43021797Y62610178D01*
X-43028069Y62639850D01*
X-43044113Y62663453D01*
X-47292400Y66911741D01*
X-47292400Y103063272D01*
X-34313353Y116042319D01*
X-34296603Y116067603D01*
X-34291044Y116097416D01*
X-34297553Y116127034D01*
X-34315097Y116151772D01*
X-34340903Y116167706D01*
X-34367234Y116172400D01*
X-48468378Y116172400D01*
X-48498100Y116166366D01*
X-48522259Y116150081D01*
X-49205281Y115467059D01*
X-49222031Y115441775D01*
X-49227600Y115413178D01*
X-49227600Y66196822D01*
X-49221566Y66167100D01*
X-49205281Y66142941D01*
X-48385259Y65322919D01*
X-48359975Y65306169D01*
X-48331378Y65300600D01*
X-48040219Y65300600D01*
X-47729400Y64989781D01*
X-47729400Y64550219D01*
X-48040219Y64239400D01*
X-48479781Y64239400D01*
X-48790600Y64550219D01*
X-48790600Y64841378D01*
X-48796634Y64871100D01*
X-48812919Y64895259D01*
X-49832400Y65914741D01*
X-49832400Y115695259D01*
X-49032941Y116494719D01*
X-49016191Y116520003D01*
X-49010631Y116549816D01*
X-49017141Y116579434D01*
X-49034684Y116604172D01*
X-49060491Y116620106D01*
X-49086822Y116624800D01*
X-50555978Y116624800D01*
X-50585700Y116618766D01*
X-50609859Y116602481D01*
X-51745281Y115467059D01*
X-51762031Y115441775D01*
X-51767600Y115413178D01*
X-51767600Y68736822D01*
X-51761566Y68707100D01*
X-51745281Y68682941D01*
X-50925259Y67862919D01*
X-50899975Y67846169D01*
X-50871378Y67840600D01*
X-50580219Y67840600D01*
X-50269400Y67529781D01*
X-50269400Y67090219D01*
X-50580219Y66779400D01*
X-51019781Y66779400D01*
X-51330600Y67090219D01*
X-51330600Y67381378D01*
X-51336634Y67411100D01*
X-51352919Y67435259D01*
X-52372400Y68454741D01*
X-52372400Y115695259D01*
X-51120541Y116947119D01*
X-51103791Y116972403D01*
X-51098231Y117002216D01*
X-51104741Y117031834D01*
X-51122284Y117056572D01*
X-51148091Y117072506D01*
X-51174422Y117077200D01*
X-52643578Y117077200D01*
X-52673300Y117071166D01*
X-52697459Y117054881D01*
X-54285281Y115467059D01*
X-54302031Y115441775D01*
X-54307600Y115413178D01*
X-54307600Y71276822D01*
X-54301566Y71247100D01*
X-54285281Y71222941D01*
X-53465259Y70402919D01*
X-53439975Y70386169D01*
X-53411378Y70380600D01*
X-53120219Y70380600D01*
X-52809400Y70069781D01*
X-52809400Y69630219D01*
X-53120219Y69319400D01*
X-53559781Y69319400D01*
X-53870600Y69630219D01*
X-53870600Y69921378D01*
X-53876634Y69951100D01*
X-53892919Y69975259D01*
X-54912400Y70994741D01*
X-54912400Y115695259D01*
X-52925659Y117682000D01*
X9546959Y117682000D01*
X11714241Y115514719D01*
X11739525Y115497969D01*
X11768122Y115492400D01*
X20867753Y115492400D01*
X20897475Y115498434D01*
X20922488Y115515584D01*
X20938831Y115541131D01*
X20943916Y115571028D01*
X20936934Y115600544D01*
X20921634Y115622481D01*
X20909244Y115634872D01*
X20909244Y117285128D01*
X20998516Y117374400D01*
X22648772Y117374400D01*
X22738044Y117285128D01*
X22738044Y115634872D01*
X22725653Y115622481D01*
X22708903Y115597197D01*
X22703344Y115567384D01*
X22709853Y115537766D01*
X22727397Y115513028D01*
X22753203Y115497094D01*
X22779534Y115492400D01*
X23407753Y115492400D01*
X23437475Y115498434D01*
X23462488Y115515584D01*
X23478831Y115541131D01*
X23483916Y115571028D01*
X23476934Y115600544D01*
X23461634Y115622481D01*
X23449244Y115634872D01*
X23449244Y117285128D01*
X23538516Y117374400D01*
X25188772Y117374400D01*
X25278044Y117285128D01*
X25278044Y115634872D01*
X25206959Y115563788D01*
X25190209Y115538503D01*
X25184650Y115508691D01*
X25191159Y115479072D01*
X25206959Y115456025D01*
X25370041Y115292941D01*
X25730453Y114932528D01*
X25730453Y112907472D01*
X25206959Y112383978D01*
X25190209Y112358694D01*
X25184650Y112328881D01*
X25191159Y112299263D01*
X25206959Y112276216D01*
X25278044Y112205128D01*
X25278044Y111758600D01*
X25284078Y111728878D01*
X25301228Y111703866D01*
X25326775Y111687522D01*
X25354244Y111682400D01*
X30985259Y111682400D01*
X32894741Y109772919D01*
X32920025Y109756169D01*
X32948622Y109750600D01*
X33239781Y109750600D01*
X33550600Y109439781D01*
X33550600Y109000219D01*
X33239781Y108689400D01*
X32800219Y108689400D01*
X32489400Y109000219D01*
X32489400Y109291378D01*
X32483366Y109321100D01*
X32467081Y109345259D01*
X30757059Y111055281D01*
X30731775Y111072031D01*
X30703178Y111077600D01*
X25354244Y111077600D01*
X25324522Y111071566D01*
X25299509Y111054416D01*
X25283166Y111028869D01*
X25278044Y111001400D01*
X25278044Y110554872D01*
X25188772Y110465600D01*
X23908466Y110465600D01*
X23878744Y110459566D01*
X23854584Y110443281D01*
X23424503Y110013200D01*
X14441059Y110013200D01*
X8756578Y115697681D01*
X8731294Y115714431D01*
X8702697Y115720000D01*
X8117747Y115720000D01*
X8088025Y115713966D01*
X8063013Y115696816D01*
X8046669Y115671269D01*
X8041584Y115641372D01*
X8048566Y115611856D01*
X8063866Y115589919D01*
X13735803Y109917981D01*
X13761088Y109901231D01*
X13789684Y109895663D01*
X14080844Y109895663D01*
X14391663Y109584844D01*
X14391663Y109145281D01*
X14080844Y108834463D01*
X13715222Y108834463D01*
X13685500Y108828428D01*
X13660488Y108811278D01*
X13644144Y108785731D01*
X13639059Y108755834D01*
X13646041Y108726319D01*
X13661341Y108704381D01*
X13853772Y108511950D01*
X13879056Y108495200D01*
X13907653Y108489631D01*
X14198813Y108489631D01*
X14509631Y108178813D01*
X14509631Y107739250D01*
X14198813Y107428431D01*
X13833191Y107428431D01*
X13803469Y107422397D01*
X13778456Y107405247D01*
X13762113Y107379700D01*
X13757028Y107349803D01*
X13764009Y107320288D01*
X13779309Y107298350D01*
X16380941Y104696719D01*
X16406225Y104679969D01*
X16434822Y104674400D01*
X17568772Y104674400D01*
X17658044Y104585128D01*
X17658044Y102934872D01*
X17568772Y102845600D01*
X15918516Y102845600D01*
X15829244Y102934872D01*
X15829244Y104361534D01*
X15823209Y104391256D01*
X15806925Y104415416D01*
X7517059Y112705281D01*
X7491775Y112722031D01*
X7463178Y112727600D01*
X-30541053Y112727600D01*
X-30570775Y112721566D01*
X-30594934Y112705281D01*
X-33211019Y110089197D01*
X-33227769Y110063913D01*
X-33233338Y110035316D01*
X-33233338Y109744156D01*
X-33544156Y109433338D01*
X-33983719Y109433338D01*
X-34294538Y109744156D01*
X-34294538Y110183719D01*
X-33983719Y110494538D01*
X-33692559Y110494538D01*
X-33662838Y110500572D01*
X-33638678Y110516856D01*
X-30823134Y113332400D01*
X7745259Y113332400D01*
X13318350Y107759309D01*
X13343634Y107742559D01*
X13373447Y107737000D01*
X13403066Y107743509D01*
X13427803Y107761053D01*
X13443738Y107786859D01*
X13448431Y107813191D01*
X13448431Y108030409D01*
X13442397Y108060131D01*
X13426113Y108084291D01*
X7535122Y113975281D01*
X7509838Y113992031D01*
X7481241Y113997600D01*
X-31067116Y113997600D01*
X-31096838Y113991566D01*
X-31120997Y113975281D01*
X-34109050Y110987228D01*
X-34125800Y110961944D01*
X-34131369Y110933347D01*
X-34131369Y110642188D01*
X-34442188Y110331369D01*
X-34881750Y110331369D01*
X-35192569Y110642188D01*
X-35192569Y111081750D01*
X-34881750Y111392569D01*
X-34590591Y111392569D01*
X-34560869Y111398603D01*
X-34536709Y111414888D01*
X-31349197Y114602400D01*
X7763322Y114602400D01*
X13200381Y109165341D01*
X13225666Y109148591D01*
X13255478Y109143031D01*
X13285097Y109149541D01*
X13309834Y109167084D01*
X13325769Y109192891D01*
X13330463Y109219222D01*
X13330463Y109436441D01*
X13324428Y109466163D01*
X13308144Y109490322D01*
X7553184Y115245281D01*
X7527900Y115262031D01*
X7499303Y115267600D01*
X-31593178Y115267600D01*
X-31622900Y115261566D01*
X-31647059Y115245281D01*
X-35007081Y111885259D01*
X-35023831Y111859975D01*
X-35029400Y111831378D01*
X-35029400Y111540219D01*
X-35340219Y111229400D01*
X-35779781Y111229400D01*
X-36090600Y111540219D01*
X-36090600Y111979781D01*
X-35779781Y112290600D01*
X-35488622Y112290600D01*
X-35458900Y112296634D01*
X-35434741Y112312919D01*
X-32157741Y115589919D01*
X-32140991Y115615203D01*
X-32135431Y115645016D01*
X-32141941Y115674634D01*
X-32159484Y115699372D01*
X-32185291Y115715306D01*
X-32211622Y115720000D01*
X-33748791Y115720000D01*
X-33778513Y115713966D01*
X-33802672Y115697681D01*
X-44695872Y104804481D01*
X-44712622Y104779197D01*
X-44718181Y104749384D01*
X-44711672Y104719766D01*
X-44694128Y104695028D01*
X-44668322Y104679094D01*
X-44641991Y104674400D01*
X-43391228Y104674400D01*
X-43301956Y104585128D01*
X-43301956Y102934872D01*
X-43391228Y102845600D01*
X-45041484Y102845600D01*
X-45130756Y102934872D01*
X-45130756Y104185634D01*
X-45136791Y104215356D01*
X-45153941Y104240369D01*
X-45179488Y104256713D01*
X-45209384Y104261797D01*
X-45238900Y104254816D01*
X-45260838Y104239516D01*
X-46665281Y102835072D01*
X-46682031Y102809788D01*
X-46687600Y102781191D01*
X-46687600Y67193822D01*
X-46681566Y67164100D01*
X-46665281Y67139941D01*
X-42616453Y63091113D01*
X-42591169Y63074363D01*
X-42561356Y63068803D01*
X-42533413Y63074594D01*
X-42364888Y63144400D01*
X-42001113Y63144400D01*
X-41665031Y63005191D01*
X-41407809Y62747969D01*
X-41268600Y62411888D01*
X-41268600Y62048113D01*
X-41407809Y61712031D01*
X-41665031Y61454809D01*
X-42001113Y61315600D01*
X-42364888Y61315600D01*
G37*
G36*
X39150219Y107419400D02*
X38839400Y107730219D01*
X38839400Y108169781D01*
X39150219Y108480600D01*
X39589781Y108480600D01*
X39795663Y108274719D01*
X39820947Y108257969D01*
X39849544Y108252400D01*
X41753178Y108252400D01*
X41782900Y108258434D01*
X41807059Y108274719D01*
X44759859Y111227519D01*
X44776609Y111252803D01*
X44782169Y111282616D01*
X44775659Y111312234D01*
X44758116Y111336972D01*
X44732309Y111352906D01*
X44705978Y111357600D01*
X38479544Y111357600D01*
X38449822Y111351566D01*
X38425663Y111335281D01*
X38319781Y111229400D01*
X37880219Y111229400D01*
X37569400Y111540219D01*
X37569400Y111979781D01*
X37880219Y112290600D01*
X38319781Y112290600D01*
X38425663Y112184719D01*
X38450947Y112167969D01*
X38479544Y112162400D01*
X44417819Y112162400D01*
X44447541Y112168434D01*
X44471700Y112184719D01*
X46499981Y114213000D01*
X52726081Y114213000D01*
X53356163Y113582919D01*
X53381447Y113566169D01*
X53410044Y113560600D01*
X53559781Y113560600D01*
X53870600Y113249781D01*
X53870600Y112810219D01*
X53559781Y112499400D01*
X53120219Y112499400D01*
X52809400Y112810219D01*
X52809400Y112959956D01*
X52803366Y112989678D01*
X52787081Y113013838D01*
X52415038Y113385881D01*
X52389753Y113402631D01*
X52361156Y113408200D01*
X47546144Y113408200D01*
X47516422Y113402166D01*
X47491409Y113385016D01*
X47475066Y113359469D01*
X47469981Y113329572D01*
X47476963Y113300056D01*
X47492263Y113278119D01*
X47520600Y113249781D01*
X47520600Y112810219D01*
X47209781Y112499400D01*
X46918622Y112499400D01*
X46888900Y112493366D01*
X46864741Y112477081D01*
X42035259Y107647600D01*
X39849544Y107647600D01*
X39819822Y107641566D01*
X39795663Y107625281D01*
X39589781Y107419400D01*
X39150219Y107419400D01*
G37*
G36*
X-31969781Y108689400D02*
X-32280600Y109000219D01*
X-32280600Y109439781D01*
X-31969781Y109750600D01*
X-31820044Y109750600D01*
X-31790322Y109756634D01*
X-31766163Y109772919D01*
X-29376681Y112162400D01*
X-9269544Y112162400D01*
X-9239822Y112168434D01*
X-9215663Y112184719D01*
X-9109781Y112290600D01*
X-8670219Y112290600D01*
X-8359400Y111979781D01*
X-8359400Y111540219D01*
X-8670219Y111229400D01*
X-9109781Y111229400D01*
X-9215663Y111335281D01*
X-9240947Y111352031D01*
X-9269544Y111357600D01*
X-29011756Y111357600D01*
X-29041478Y111351566D01*
X-29065638Y111335281D01*
X-31197081Y109203838D01*
X-31213831Y109178553D01*
X-31219400Y109149956D01*
X-31219400Y109000219D01*
X-31530219Y108689400D01*
X-31969781Y108689400D01*
G37*
G36*
X94890828Y109587600D02*
X94448894Y109770656D01*
X94110656Y110108894D01*
X93927600Y110550828D01*
X93927600Y111029172D01*
X94110656Y111471106D01*
X94448894Y111809344D01*
X94890828Y111992400D01*
X95369172Y111992400D01*
X95811106Y111809344D01*
X96149344Y111471106D01*
X96332400Y111029172D01*
X96332400Y110550828D01*
X96149344Y110108894D01*
X95811106Y109770656D01*
X95369172Y109587600D01*
X94890828Y109587600D01*
G37*
G36*
X-20539781Y95989400D02*
X-20850600Y96300219D01*
X-20850600Y96591378D01*
X-20856634Y96621100D01*
X-20872919Y96645259D01*
X-21012341Y96784681D01*
X-21037625Y96801431D01*
X-21066222Y96807000D01*
X-21997178Y96807000D01*
X-22573000Y97382822D01*
X-22573000Y98197178D01*
X-22504119Y98266059D01*
X-22487369Y98291344D01*
X-22481800Y98319941D01*
X-22481800Y98503856D01*
X-22487834Y98533578D01*
X-22504984Y98558591D01*
X-22530531Y98574934D01*
X-22560428Y98580019D01*
X-22589944Y98573038D01*
X-22611881Y98557738D01*
X-22640219Y98529400D01*
X-23079781Y98529400D01*
X-23390600Y98840219D01*
X-23390600Y99279781D01*
X-23184719Y99485663D01*
X-23167969Y99510947D01*
X-23162400Y99539544D01*
X-23162400Y102073384D01*
X-23168434Y102103106D01*
X-23184719Y102127266D01*
X-23614800Y102557347D01*
X-23614800Y104435578D01*
X-23620834Y104465300D01*
X-23637119Y104489459D01*
X-26544741Y107397081D01*
X-26570025Y107413831D01*
X-26598622Y107419400D01*
X-26889781Y107419400D01*
X-27200600Y107730219D01*
X-27200600Y108169781D01*
X-26889781Y108480600D01*
X-26450219Y108480600D01*
X-26139400Y108169781D01*
X-26139400Y107878622D01*
X-26133366Y107848900D01*
X-26117081Y107824741D01*
X-23010000Y104717659D01*
X-23010000Y102839428D01*
X-23003966Y102809706D01*
X-22987681Y102785547D01*
X-22611881Y102409747D01*
X-22586597Y102392997D01*
X-22556784Y102387438D01*
X-22527166Y102393947D01*
X-22502428Y102411491D01*
X-22486494Y102437297D01*
X-22481800Y102463628D01*
X-22481800Y102474566D01*
X-22487834Y102504288D01*
X-22504119Y102528447D01*
X-22723156Y102747484D01*
X-22723156Y104772516D01*
X-22368872Y105126800D01*
X-21062422Y105126800D01*
X-21032700Y105132834D01*
X-21008541Y105149119D01*
X-16000259Y110157400D01*
X7110259Y110157400D01*
X9426044Y107841616D01*
X9426044Y104750600D01*
X9432078Y104720878D01*
X9449228Y104695866D01*
X9474775Y104679522D01*
X9502244Y104674400D01*
X9948772Y104674400D01*
X10038044Y104585128D01*
X10038044Y102934872D01*
X9948772Y102845600D01*
X8298516Y102845600D01*
X8209244Y102934872D01*
X8209244Y104585128D01*
X8298516Y104674400D01*
X8745044Y104674400D01*
X8774766Y104680434D01*
X8799778Y104697584D01*
X8816122Y104723131D01*
X8821244Y104750600D01*
X8821244Y107559534D01*
X8815209Y107589256D01*
X8798925Y107613416D01*
X6882059Y109530281D01*
X6856775Y109547031D01*
X6828178Y109552600D01*
X-15718178Y109552600D01*
X-15747900Y109546566D01*
X-15772059Y109530281D01*
X-20525703Y104776638D01*
X-20542453Y104751353D01*
X-20548013Y104721541D01*
X-20541503Y104691922D01*
X-20525703Y104668875D01*
X-20441956Y104585128D01*
X-20441956Y102934872D01*
X-20531228Y102845600D01*
X-20977756Y102845600D01*
X-21007478Y102839566D01*
X-21032491Y102822416D01*
X-21048834Y102796869D01*
X-21053956Y102769400D01*
X-21053956Y97889334D01*
X-21059400Y97861378D01*
X-21059400Y97570219D01*
X-21087738Y97541881D01*
X-21104488Y97516597D01*
X-21110047Y97486784D01*
X-21103538Y97457166D01*
X-21085994Y97432428D01*
X-21060188Y97416494D01*
X-21033856Y97411800D01*
X-20784141Y97411800D01*
X-20445259Y97072919D01*
X-20419975Y97056169D01*
X-20391378Y97050600D01*
X-20100219Y97050600D01*
X-19789400Y96739781D01*
X-19789400Y96300219D01*
X-20100219Y95989400D01*
X-20539781Y95989400D01*
G37*
G36*
X23538516Y107925600D02*
X23449244Y108014872D01*
X23449244Y109665128D01*
X23538516Y109754400D01*
X25188772Y109754400D01*
X25278044Y109665128D01*
X25278044Y108014872D01*
X25188772Y107925600D01*
X23538516Y107925600D01*
G37*
G36*
X20998516Y107925600D02*
X20909244Y108014872D01*
X20909244Y109665128D01*
X20998516Y109754400D01*
X22648772Y109754400D01*
X22738044Y109665128D01*
X22738044Y108014872D01*
X22648772Y107925600D01*
X20998516Y107925600D01*
G37*
G36*
X94016872Y101187600D02*
X93927600Y101276872D01*
X93927600Y103133178D01*
X93921566Y103162900D01*
X93905281Y103187059D01*
X91137600Y105954741D01*
X91137600Y108740456D01*
X91131566Y108770178D01*
X91115281Y108794338D01*
X90909400Y109000219D01*
X90909400Y109439781D01*
X91220219Y109750600D01*
X91659781Y109750600D01*
X91970600Y109439781D01*
X91970600Y109000219D01*
X91764719Y108794338D01*
X91747969Y108769053D01*
X91742400Y108740456D01*
X91742400Y106236822D01*
X91748434Y106207100D01*
X91764719Y106182941D01*
X94332941Y103614719D01*
X94358225Y103597969D01*
X94386822Y103592400D01*
X96243128Y103592400D01*
X96332400Y103503128D01*
X96332400Y101276872D01*
X96243128Y101187600D01*
X94016872Y101187600D01*
G37*
G36*
X-24349781Y107419400D02*
X-24660600Y107730219D01*
X-24660600Y108169781D01*
X-24349781Y108480600D01*
X-24058622Y108480600D01*
X-24028900Y108486634D01*
X-24004741Y108502919D01*
X-23412919Y109094741D01*
X-23396169Y109120025D01*
X-23390600Y109148622D01*
X-23390600Y109439781D01*
X-23079781Y109750600D01*
X-22640219Y109750600D01*
X-22329400Y109439781D01*
X-22329400Y109000219D01*
X-22640219Y108689400D01*
X-22931378Y108689400D01*
X-22961100Y108683366D01*
X-22985259Y108667081D01*
X-23577081Y108075259D01*
X-23593831Y108049975D01*
X-23599400Y108021378D01*
X-23599400Y107730219D01*
X-23910219Y107419400D01*
X-24349781Y107419400D01*
G37*
G36*
X12480219Y71859400D02*
X12169400Y72170219D01*
X12169400Y72609781D01*
X12375281Y72815663D01*
X12392031Y72840947D01*
X12397600Y72869544D01*
X12397600Y77005697D01*
X12391566Y77035419D01*
X12375281Y77059578D01*
X7010681Y82424178D01*
X6985397Y82440928D01*
X6955584Y82446488D01*
X6925966Y82439978D01*
X6901228Y82422434D01*
X6885294Y82396628D01*
X6880600Y82370297D01*
X6880600Y82330219D01*
X6674719Y82124338D01*
X6657969Y82099053D01*
X6652400Y82070456D01*
X6652400Y80489544D01*
X6658434Y80459822D01*
X6674719Y80435663D01*
X6880600Y80229781D01*
X6880600Y79790219D01*
X6569781Y79479400D01*
X6130219Y79479400D01*
X5819400Y79790219D01*
X5819400Y80229781D01*
X6025281Y80435663D01*
X6042031Y80460947D01*
X6047600Y80489544D01*
X6047600Y82070456D01*
X6041566Y82100178D01*
X6025281Y82124338D01*
X5819400Y82330219D01*
X5819400Y82769781D01*
X6130219Y83080600D01*
X6170297Y83080600D01*
X6200019Y83086634D01*
X6225031Y83103784D01*
X6241375Y83129331D01*
X6246459Y83159228D01*
X6239478Y83188744D01*
X6224178Y83210681D01*
X5350178Y84084681D01*
X5324894Y84101431D01*
X5296297Y84107000D01*
X-8283200Y84107000D01*
X-8312922Y84100966D01*
X-8337934Y84083816D01*
X-8354278Y84058269D01*
X-8359400Y84030800D01*
X-8359400Y83600219D01*
X-8670219Y83289400D01*
X-9109781Y83289400D01*
X-9420600Y83600219D01*
X-9420600Y83891378D01*
X-9426634Y83921100D01*
X-9442919Y83945259D01*
X-13002400Y87504741D01*
X-13002400Y90960456D01*
X-13008434Y90990178D01*
X-13024719Y91014338D01*
X-13230600Y91220219D01*
X-13230600Y91659781D01*
X-12919781Y91970600D01*
X-12480219Y91970600D01*
X-12169400Y91659781D01*
X-12169400Y91220219D01*
X-12375281Y91014338D01*
X-12392031Y90989053D01*
X-12397600Y90960456D01*
X-12397600Y87786822D01*
X-12391566Y87757100D01*
X-12375281Y87732941D01*
X-9015259Y84372919D01*
X-8989975Y84356169D01*
X-8961378Y84350600D01*
X-8762222Y84350600D01*
X-8732500Y84356634D01*
X-8707488Y84373784D01*
X-8691144Y84399331D01*
X-8686059Y84429228D01*
X-8693041Y84458744D01*
X-8708341Y84480681D01*
X-9781800Y85554141D01*
X-9781800Y89613856D01*
X-9787834Y89643578D01*
X-9804984Y89668591D01*
X-9830531Y89684934D01*
X-9860428Y89690019D01*
X-9889944Y89683038D01*
X-9911881Y89667738D01*
X-9940219Y89639400D01*
X-10379781Y89639400D01*
X-10690600Y89950219D01*
X-10690600Y90389781D01*
X-10484719Y90595663D01*
X-10467969Y90620947D01*
X-10462400Y90649544D01*
X-10462400Y91283178D01*
X-10468434Y91312900D01*
X-10484719Y91337059D01*
X-14072941Y94925281D01*
X-14098225Y94942031D01*
X-14126822Y94947600D01*
X-21715259Y94947600D01*
X-24432400Y97664741D01*
X-24432400Y103248478D01*
X-24438434Y103278200D01*
X-24454719Y103302359D01*
X-25391875Y104239516D01*
X-25417159Y104256266D01*
X-25446972Y104261825D01*
X-25476591Y104255316D01*
X-25501328Y104237772D01*
X-25517263Y104211966D01*
X-25521956Y104185634D01*
X-25521956Y102934872D01*
X-25611228Y102845600D01*
X-27261484Y102845600D01*
X-27350756Y102934872D01*
X-27350756Y104585128D01*
X-27261484Y104674400D01*
X-26546022Y104674400D01*
X-26516300Y104680434D01*
X-26491288Y104697584D01*
X-26474944Y104723131D01*
X-26469859Y104753028D01*
X-26476841Y104782544D01*
X-26492141Y104804481D01*
X-27814741Y106127081D01*
X-27840025Y106143831D01*
X-27868622Y106149400D01*
X-28159781Y106149400D01*
X-28470600Y106460219D01*
X-28470600Y106899781D01*
X-28159781Y107210600D01*
X-27720219Y107210600D01*
X-27409400Y106899781D01*
X-27409400Y106608622D01*
X-27403366Y106578900D01*
X-27387081Y106554741D01*
X-25981459Y105149119D01*
X-25956175Y105132369D01*
X-25927578Y105126800D01*
X-25423841Y105126800D01*
X-23827600Y103530559D01*
X-23827600Y97946822D01*
X-23821566Y97917100D01*
X-23805281Y97892941D01*
X-21487059Y95574719D01*
X-21461775Y95557969D01*
X-21433178Y95552400D01*
X-13844741Y95552400D01*
X-9911881Y91619541D01*
X-9886597Y91602791D01*
X-9856784Y91597231D01*
X-9827166Y91603741D01*
X-9802428Y91621284D01*
X-9786494Y91647091D01*
X-9781800Y91673422D01*
X-9781800Y93423856D01*
X-9787834Y93453578D01*
X-9804984Y93478591D01*
X-9830531Y93494934D01*
X-9860428Y93500019D01*
X-9889944Y93493038D01*
X-9911881Y93477738D01*
X-9940219Y93449400D01*
X-10379781Y93449400D01*
X-10690600Y93760219D01*
X-10690600Y94051378D01*
X-10696634Y94081100D01*
X-10712919Y94105259D01*
X-12802941Y96195281D01*
X-12828225Y96212031D01*
X-12856822Y96217600D01*
X-14760456Y96217600D01*
X-14790178Y96211566D01*
X-14814338Y96195281D01*
X-15020219Y95989400D01*
X-15459781Y95989400D01*
X-15770600Y96300219D01*
X-15770600Y96739781D01*
X-15459781Y97050600D01*
X-15020219Y97050600D01*
X-14814338Y96844719D01*
X-14789053Y96827969D01*
X-14760456Y96822400D01*
X-12574741Y96822400D01*
X-10285259Y94532919D01*
X-10259975Y94516169D01*
X-10231378Y94510600D01*
X-9940219Y94510600D01*
X-9911881Y94482263D01*
X-9886597Y94465513D01*
X-9856784Y94459953D01*
X-9827166Y94466463D01*
X-9802428Y94484006D01*
X-9786494Y94509813D01*
X-9781800Y94536144D01*
X-9781800Y95682578D01*
X-9787834Y95712300D01*
X-9804119Y95736459D01*
X-15342941Y101275281D01*
X-15368225Y101292031D01*
X-15396822Y101297600D01*
X-15953856Y101297600D01*
X-15983578Y101291566D01*
X-16008591Y101274416D01*
X-16024934Y101248869D01*
X-16030019Y101218972D01*
X-16023038Y101189456D01*
X-16007738Y101167519D01*
X-15979400Y101139181D01*
X-15979400Y100848022D01*
X-15973366Y100818300D01*
X-15957081Y100794141D01*
X-14937600Y99774659D01*
X-14937600Y98269544D01*
X-14931566Y98239822D01*
X-14915281Y98215663D01*
X-14709400Y98009781D01*
X-14709400Y97570219D01*
X-15020219Y97259400D01*
X-15459781Y97259400D01*
X-15770600Y97570219D01*
X-15770600Y98009781D01*
X-15564719Y98215663D01*
X-15547969Y98240947D01*
X-15542400Y98269544D01*
X-15542400Y99492578D01*
X-15548434Y99522300D01*
X-15564719Y99546459D01*
X-16384741Y100366481D01*
X-16410025Y100383231D01*
X-16438622Y100388800D01*
X-16729781Y100388800D01*
X-17040600Y100699619D01*
X-17040600Y101139181D01*
X-16885781Y101294003D01*
X-16869031Y101319288D01*
X-16863472Y101349100D01*
X-16869981Y101378722D01*
X-16885781Y101401766D01*
X-18307297Y102823281D01*
X-18332581Y102840031D01*
X-18361178Y102845600D01*
X-19241991Y102845600D01*
X-19271713Y102839566D01*
X-19296725Y102822416D01*
X-19313069Y102796869D01*
X-19318153Y102766972D01*
X-19311172Y102737456D01*
X-19295872Y102715519D01*
X-18642963Y102062609D01*
X-18642963Y96999544D01*
X-18636928Y96969822D01*
X-18620644Y96945663D01*
X-18414763Y96739781D01*
X-18414763Y96300219D01*
X-18725581Y95989400D01*
X-19165144Y95989400D01*
X-19475963Y96300219D01*
X-19475963Y96739781D01*
X-19270081Y96945663D01*
X-19253331Y96970947D01*
X-19247763Y96999544D01*
X-19247763Y101780528D01*
X-19253797Y101810250D01*
X-19270081Y101834409D01*
X-20183156Y102747484D01*
X-20183156Y104772516D01*
X-16703272Y108252400D01*
X2518903Y108252400D01*
X6074584Y104696719D01*
X6099869Y104679969D01*
X6128466Y104674400D01*
X7408772Y104674400D01*
X7498044Y104585128D01*
X7498044Y102934872D01*
X7408772Y102845600D01*
X5758516Y102845600D01*
X5669244Y102934872D01*
X5669244Y104215178D01*
X5663209Y104244900D01*
X5646925Y104269059D01*
X2290703Y107625281D01*
X2265419Y107642031D01*
X2236822Y107647600D01*
X-16421191Y107647600D01*
X-16450913Y107641566D01*
X-16475072Y107625281D01*
X-19295872Y104804481D01*
X-19312622Y104779197D01*
X-19318181Y104749384D01*
X-19311672Y104719766D01*
X-19294128Y104695028D01*
X-19268322Y104679094D01*
X-19241991Y104674400D01*
X-17991228Y104674400D01*
X-17901956Y104585128D01*
X-17901956Y103304822D01*
X-17895922Y103275100D01*
X-17879638Y103250941D01*
X-16553416Y101924719D01*
X-16528131Y101907969D01*
X-16499534Y101902400D01*
X-15114741Y101902400D01*
X-9177000Y95964659D01*
X-9177000Y85836222D01*
X-9170966Y85806500D01*
X-9154681Y85782341D01*
X-8106459Y84734119D01*
X-8081175Y84717369D01*
X-8052578Y84711800D01*
X-1826144Y84711800D01*
X-1796422Y84717834D01*
X-1771409Y84734984D01*
X-1755066Y84760531D01*
X-1749981Y84790428D01*
X-1756963Y84819944D01*
X-1772263Y84841881D01*
X-1800600Y84870219D01*
X-1800600Y85309781D01*
X-1594719Y85515663D01*
X-1577969Y85540947D01*
X-1572400Y85569544D01*
X-1572400Y96040456D01*
X-1578434Y96070178D01*
X-1594719Y96094338D01*
X-1800600Y96300219D01*
X-1800600Y96739781D01*
X-1489781Y97050600D01*
X-1050219Y97050600D01*
X-739400Y96739781D01*
X-739400Y96300219D01*
X-945281Y96094338D01*
X-962031Y96069053D01*
X-967600Y96040456D01*
X-967600Y85569544D01*
X-961566Y85539822D01*
X-945281Y85515663D01*
X-739400Y85309781D01*
X-739400Y84870219D01*
X-767738Y84841881D01*
X-784488Y84816597D01*
X-790047Y84786784D01*
X-783538Y84757166D01*
X-765994Y84732428D01*
X-740188Y84716494D01*
X-713856Y84711800D01*
X713856Y84711800D01*
X743578Y84717834D01*
X768591Y84734984D01*
X784934Y84760531D01*
X790019Y84790428D01*
X783038Y84819944D01*
X767738Y84841881D01*
X739400Y84870219D01*
X739400Y85309781D01*
X1050219Y85620600D01*
X1341378Y85620600D01*
X1371100Y85626634D01*
X1395259Y85642919D01*
X3684741Y87932400D01*
X5870456Y87932400D01*
X5900178Y87938434D01*
X5924338Y87954719D01*
X6130219Y88160600D01*
X6569781Y88160600D01*
X6880600Y87849781D01*
X6880600Y87410219D01*
X6569781Y87099400D01*
X6130219Y87099400D01*
X5924338Y87305281D01*
X5899053Y87322031D01*
X5870456Y87327600D01*
X3966822Y87327600D01*
X3937100Y87321566D01*
X3912941Y87305281D01*
X1822919Y85215259D01*
X1806169Y85189975D01*
X1800600Y85161378D01*
X1800600Y84870219D01*
X1772263Y84841881D01*
X1755513Y84816597D01*
X1749953Y84786784D01*
X1756463Y84757166D01*
X1774006Y84732428D01*
X1799813Y84716494D01*
X1826144Y84711800D01*
X5578378Y84711800D01*
X13002400Y77287778D01*
X13002400Y72869544D01*
X13008434Y72839822D01*
X13024719Y72815663D01*
X13230600Y72609781D01*
X13230600Y72170219D01*
X12919781Y71859400D01*
X12480219Y71859400D01*
G37*
G36*
X22640219Y90909400D02*
X22329400Y91220219D01*
X22329400Y91659781D01*
X22535281Y91865663D01*
X22552031Y91890947D01*
X22557600Y91919544D01*
X22557600Y104930456D01*
X22551566Y104960178D01*
X22535281Y104984338D01*
X22329400Y105190219D01*
X22329400Y105629781D01*
X22640219Y105940600D01*
X23079781Y105940600D01*
X23390600Y105629781D01*
X23390600Y105190219D01*
X23184719Y104984338D01*
X23167969Y104959053D01*
X23162400Y104930456D01*
X23162400Y91919544D01*
X23168434Y91889822D01*
X23184719Y91865663D01*
X23390600Y91659781D01*
X23390600Y91220219D01*
X23079781Y90909400D01*
X22640219Y90909400D01*
G37*
G36*
X11210219Y93449400D02*
X10899400Y93760219D01*
X10899400Y94051378D01*
X10893366Y94081100D01*
X10877081Y94105259D01*
X2265644Y102716697D01*
X2265644Y102769400D01*
X2259609Y102799122D01*
X2242459Y102824134D01*
X2216913Y102840478D01*
X2189444Y102845600D01*
X678516Y102845600D01*
X589244Y102934872D01*
X589244Y104445800D01*
X583209Y104475522D01*
X566059Y104500534D01*
X540513Y104516878D01*
X513044Y104522000D01*
X460341Y104522000D01*
X-102941Y105085281D01*
X-128225Y105102031D01*
X-156822Y105107600D01*
X-790456Y105107600D01*
X-820178Y105101566D01*
X-844338Y105085281D01*
X-1050219Y104879400D01*
X-1489781Y104879400D01*
X-1800600Y105190219D01*
X-1800600Y105629781D01*
X-1489781Y105940600D01*
X-1050219Y105940600D01*
X-844338Y105734719D01*
X-819053Y105717969D01*
X-790456Y105712400D01*
X125259Y105712400D01*
X688541Y105149119D01*
X713825Y105132369D01*
X742422Y105126800D01*
X2516159Y105126800D01*
X2870444Y104772516D01*
X2870444Y102998778D01*
X2876478Y102969056D01*
X2892763Y102944897D01*
X11304741Y94532919D01*
X11330025Y94516169D01*
X11358622Y94510600D01*
X11649781Y94510600D01*
X11960600Y94199781D01*
X11960600Y93760219D01*
X11649781Y93449400D01*
X11210219Y93449400D01*
G37*
G36*
X-14561484Y102845600D02*
X-14650756Y102934872D01*
X-14650756Y104585128D01*
X-14561484Y104674400D01*
X-12911228Y104674400D01*
X-12821956Y104585128D01*
X-12821956Y102934872D01*
X-12911228Y102845600D01*
X-14561484Y102845600D01*
G37*
G36*
X-17101484Y102845600D02*
X-17190756Y102934872D01*
X-17190756Y104585128D01*
X-17101484Y104674400D01*
X-15451228Y104674400D01*
X-15361956Y104585128D01*
X-15361956Y102934872D01*
X-15451228Y102845600D01*
X-17101484Y102845600D01*
G37*
G36*
X-34881484Y102845600D02*
X-34970756Y102934872D01*
X-34970756Y104585128D01*
X-34881484Y104674400D01*
X-33231228Y104674400D01*
X-33141956Y104585128D01*
X-33141956Y102934872D01*
X-33231228Y102845600D01*
X-34881484Y102845600D01*
G37*
G36*
X-37421484Y102845600D02*
X-37510756Y102934872D01*
X-37510756Y104585128D01*
X-37421484Y104674400D01*
X-35771228Y104674400D01*
X-35681956Y104585128D01*
X-35681956Y102934872D01*
X-35771228Y102845600D01*
X-37421484Y102845600D01*
G37*
G36*
X-39961484Y102845600D02*
X-40050756Y102934872D01*
X-40050756Y104585128D01*
X-39961484Y104674400D01*
X-38311228Y104674400D01*
X-38221956Y104585128D01*
X-38221956Y102934872D01*
X-38311228Y102845600D01*
X-39961484Y102845600D01*
G37*
G36*
X-42501484Y102845600D02*
X-42590756Y102934872D01*
X-42590756Y104585128D01*
X-42501484Y104674400D01*
X-40851228Y104674400D01*
X-40761956Y104585128D01*
X-40761956Y102934872D01*
X-40851228Y102845600D01*
X-42501484Y102845600D01*
G37*
G36*
X18830219Y93449400D02*
X18519400Y93760219D01*
X18519400Y94199781D01*
X18725281Y94405663D01*
X18742031Y94430947D01*
X18747600Y94459544D01*
X18747600Y99850456D01*
X18741566Y99880178D01*
X18725281Y99904338D01*
X18519400Y100110219D01*
X18519400Y100549781D01*
X18830219Y100860600D01*
X19177778Y100860600D01*
X19207500Y100866634D01*
X19232513Y100883784D01*
X19248856Y100909331D01*
X19253941Y100939228D01*
X19246959Y100968744D01*
X19231659Y100990681D01*
X18981244Y101241097D01*
X18981244Y102769400D01*
X18975209Y102799122D01*
X18958059Y102824134D01*
X18932513Y102840478D01*
X18905044Y102845600D01*
X18458516Y102845600D01*
X18369244Y102934872D01*
X18369244Y104585128D01*
X18458516Y104674400D01*
X20108772Y104674400D01*
X20198044Y104585128D01*
X20198044Y102934872D01*
X20108772Y102845600D01*
X19662244Y102845600D01*
X19632522Y102839566D01*
X19607509Y102822416D01*
X19591166Y102796869D01*
X19586044Y102769400D01*
X19586044Y101523178D01*
X19592078Y101493456D01*
X19608363Y101469297D01*
X21464741Y99612919D01*
X21490025Y99596169D01*
X21518622Y99590600D01*
X21809781Y99590600D01*
X22120600Y99279781D01*
X22120600Y98840219D01*
X21809781Y98529400D01*
X21370219Y98529400D01*
X21059400Y98840219D01*
X21059400Y99131378D01*
X21053366Y99161100D01*
X21037081Y99185259D01*
X19710681Y100511659D01*
X19685397Y100528409D01*
X19655584Y100533969D01*
X19625966Y100527459D01*
X19601228Y100509916D01*
X19585294Y100484109D01*
X19580600Y100457778D01*
X19580600Y100110219D01*
X19374719Y99904338D01*
X19357969Y99879053D01*
X19352400Y99850456D01*
X19352400Y94459544D01*
X19358434Y94429822D01*
X19374719Y94405663D01*
X19580600Y94199781D01*
X19580600Y93760219D01*
X19269781Y93449400D01*
X18830219Y93449400D01*
G37*
G36*
X13378516Y102845600D02*
X13289244Y102934872D01*
X13289244Y104585128D01*
X13378516Y104674400D01*
X15028772Y104674400D01*
X15118044Y104585128D01*
X15118044Y102934872D01*
X15028772Y102845600D01*
X13378516Y102845600D01*
G37*
G36*
X10838516Y102845600D02*
X10749244Y102934872D01*
X10749244Y104585128D01*
X10838516Y104674400D01*
X12488772Y104674400D01*
X12578044Y104585128D01*
X12578044Y102934872D01*
X12488772Y102845600D01*
X10838516Y102845600D01*
G37*
G36*
X3218516Y102845600D02*
X3129244Y102934872D01*
X3129244Y104585128D01*
X3218516Y104674400D01*
X4868772Y104674400D01*
X4958044Y104585128D01*
X4958044Y102934872D01*
X4868772Y102845600D01*
X3218516Y102845600D01*
G37*
G36*
X-4401484Y102845600D02*
X-4490756Y102934872D01*
X-4490756Y104585128D01*
X-4401484Y104674400D01*
X-2751228Y104674400D01*
X-2661956Y104585128D01*
X-2661956Y102934872D01*
X-2751228Y102845600D01*
X-4401484Y102845600D01*
G37*
G36*
X27720219Y70589400D02*
X27514338Y70795281D01*
X27489053Y70812031D01*
X27460456Y70817600D01*
X26398384Y70817600D01*
X-5607297Y102823281D01*
X-5632581Y102840031D01*
X-5661178Y102845600D01*
X-6941484Y102845600D01*
X-7030756Y102934872D01*
X-7030756Y104585128D01*
X-6941484Y104674400D01*
X-5291228Y104674400D01*
X-5201956Y104585128D01*
X-5201956Y103304822D01*
X-5195922Y103275100D01*
X-5179638Y103250941D01*
X26626584Y71444719D01*
X26651869Y71427969D01*
X26680466Y71422400D01*
X27460456Y71422400D01*
X27490178Y71428434D01*
X27514338Y71444719D01*
X27720219Y71650600D01*
X28159781Y71650600D01*
X28470600Y71339781D01*
X28470600Y70900219D01*
X28159781Y70589400D01*
X27720219Y70589400D01*
G37*
G36*
X-9481484Y102845600D02*
X-9570756Y102934872D01*
X-9570756Y104585128D01*
X-9481484Y104674400D01*
X-7831228Y104674400D01*
X-7741956Y104585128D01*
X-7741956Y102934872D01*
X-7831228Y102845600D01*
X-9481484Y102845600D01*
G37*
G36*
X-12021484Y102845600D02*
X-12110756Y102934872D01*
X-12110756Y104585128D01*
X-12021484Y104674400D01*
X-10371228Y104674400D01*
X-10281956Y104585128D01*
X-10281956Y102934872D01*
X-10371228Y102845600D01*
X-12021484Y102845600D01*
G37*
G36*
X88680219Y95989400D02*
X88369400Y96300219D01*
X88369400Y96739781D01*
X88680219Y97050600D01*
X88971378Y97050600D01*
X89001100Y97056634D01*
X89025259Y97072919D01*
X90044741Y98092400D01*
X95873178Y98092400D01*
X95902900Y98098434D01*
X95927059Y98114719D01*
X99548463Y101736122D01*
X99565213Y101761406D01*
X99570772Y101791219D01*
X99564981Y101819163D01*
X99427600Y102150828D01*
X99427600Y102629172D01*
X99610656Y103071106D01*
X99948894Y103409344D01*
X100390828Y103592400D01*
X100869172Y103592400D01*
X101311106Y103409344D01*
X101649344Y103071106D01*
X101832400Y102629172D01*
X101832400Y102150828D01*
X101649344Y101708894D01*
X101311106Y101370656D01*
X100869172Y101187600D01*
X100390828Y101187600D01*
X100059163Y101324981D01*
X100029397Y101330778D01*
X99999725Y101324506D01*
X99976122Y101308463D01*
X96155259Y97487600D01*
X90326822Y97487600D01*
X90297100Y97481566D01*
X90272941Y97465281D01*
X89452919Y96645259D01*
X89436169Y96619975D01*
X89430600Y96591378D01*
X89430600Y96300219D01*
X89119781Y95989400D01*
X88680219Y95989400D01*
G37*
G36*
X30260219Y102339400D02*
X29949400Y102650219D01*
X29949400Y103089781D01*
X30260219Y103400600D01*
X30699781Y103400600D01*
X30805663Y103294719D01*
X30830947Y103277969D01*
X30859544Y103272400D01*
X40260456Y103272400D01*
X40290178Y103278434D01*
X40314338Y103294719D01*
X40420219Y103400600D01*
X40859781Y103400600D01*
X41170600Y103089781D01*
X41170600Y102650219D01*
X40859781Y102339400D01*
X40420219Y102339400D01*
X40314338Y102445281D01*
X40289053Y102462031D01*
X40260456Y102467600D01*
X30859544Y102467600D01*
X30829822Y102461566D01*
X30805663Y102445281D01*
X30699781Y102339400D01*
X30260219Y102339400D01*
G37*
G36*
X36610219Y95989400D02*
X36299400Y96300219D01*
X36299400Y96739781D01*
X36505281Y96945663D01*
X36522031Y96970947D01*
X36527600Y96999544D01*
X36527600Y101120456D01*
X36521566Y101150178D01*
X36505281Y101174338D01*
X36299400Y101380219D01*
X36299400Y101819781D01*
X36610219Y102130600D01*
X37049781Y102130600D01*
X37360600Y101819781D01*
X37360600Y101380219D01*
X37154719Y101174338D01*
X37137969Y101149053D01*
X37132400Y101120456D01*
X37132400Y96999544D01*
X37138434Y96969822D01*
X37154719Y96945663D01*
X37360600Y96739781D01*
X37360600Y96300219D01*
X37049781Y95989400D01*
X36610219Y95989400D01*
G37*
G36*
X31530219Y98529400D02*
X31219400Y98840219D01*
X31219400Y99279781D01*
X31425281Y99485663D01*
X31442031Y99510947D01*
X31447600Y99539544D01*
X31447600Y101120456D01*
X31441566Y101150178D01*
X31425281Y101174338D01*
X31219400Y101380219D01*
X31219400Y101819781D01*
X31530219Y102130600D01*
X31969781Y102130600D01*
X32280600Y101819781D01*
X32280600Y101380219D01*
X32074719Y101174338D01*
X32057969Y101149053D01*
X32052400Y101120456D01*
X32052400Y99539544D01*
X32058434Y99509822D01*
X32074719Y99485663D01*
X32280600Y99279781D01*
X32280600Y98840219D01*
X31969781Y98529400D01*
X31530219Y98529400D01*
G37*
G36*
X44230219Y79479400D02*
X43919400Y79790219D01*
X43919400Y80229781D01*
X44230219Y80540600D01*
X44521378Y80540600D01*
X44551100Y80546634D01*
X44575259Y80562919D01*
X48134741Y84122400D01*
X64521978Y84122400D01*
X64551700Y84128434D01*
X64575859Y84144719D01*
X79457081Y99025941D01*
X79473831Y99051225D01*
X79479400Y99079822D01*
X79479400Y99370981D01*
X79790219Y99681800D01*
X80229781Y99681800D01*
X80540600Y99370981D01*
X80540600Y98931419D01*
X80229781Y98620600D01*
X79938622Y98620600D01*
X79908900Y98614566D01*
X79884741Y98598281D01*
X79737141Y98450681D01*
X79720391Y98425397D01*
X79714831Y98395584D01*
X79721341Y98365966D01*
X79738884Y98341228D01*
X79764691Y98325294D01*
X79791022Y98320600D01*
X80229781Y98320600D01*
X80435663Y98114719D01*
X80460947Y98097969D01*
X80489544Y98092400D01*
X84610456Y98092400D01*
X84640178Y98098434D01*
X84664338Y98114719D01*
X84870219Y98320600D01*
X85309781Y98320600D01*
X85620600Y98009781D01*
X85620600Y97570219D01*
X85309781Y97259400D01*
X84870219Y97259400D01*
X84664338Y97465281D01*
X84639053Y97482031D01*
X84610456Y97487600D01*
X80489544Y97487600D01*
X80459822Y97481566D01*
X80435663Y97465281D01*
X80229781Y97259400D01*
X79790219Y97259400D01*
X79479400Y97570219D01*
X79479400Y98008978D01*
X79473366Y98038700D01*
X79456216Y98063713D01*
X79430669Y98080056D01*
X79400772Y98085141D01*
X79371256Y98078159D01*
X79349319Y98062859D01*
X64804059Y83517600D01*
X48416822Y83517600D01*
X48387100Y83511566D01*
X48362941Y83495281D01*
X45002919Y80135259D01*
X44986169Y80109975D01*
X44980600Y80081378D01*
X44980600Y79790219D01*
X44669781Y79479400D01*
X44230219Y79479400D01*
G37*
G36*
X27720219Y97259400D02*
X27409400Y97570219D01*
X27409400Y97861378D01*
X27403366Y97891100D01*
X27387081Y97915259D01*
X26567059Y98735281D01*
X26541775Y98752031D01*
X26513178Y98757600D01*
X24609544Y98757600D01*
X24579822Y98751566D01*
X24555663Y98735281D01*
X24349781Y98529400D01*
X23910219Y98529400D01*
X23599400Y98840219D01*
X23599400Y99279781D01*
X23910219Y99590600D01*
X24349781Y99590600D01*
X24555663Y99384719D01*
X24580947Y99367969D01*
X24609544Y99362400D01*
X26795259Y99362400D01*
X27814741Y98342919D01*
X27840025Y98326169D01*
X27868622Y98320600D01*
X28159781Y98320600D01*
X28470600Y98009781D01*
X28470600Y97570219D01*
X28159781Y97259400D01*
X27720219Y97259400D01*
G37*
G36*
X42960219Y80749400D02*
X42649400Y81060219D01*
X42649400Y81499781D01*
X42960219Y81810600D01*
X43251378Y81810600D01*
X43281100Y81816634D01*
X43305259Y81832919D01*
X54285281Y92812941D01*
X54302031Y92838225D01*
X54307600Y92866822D01*
X54307600Y97991056D01*
X54301566Y98020778D01*
X54285281Y98044938D01*
X54079400Y98250819D01*
X54079400Y98690381D01*
X54390219Y99001200D01*
X54829781Y99001200D01*
X55140600Y98690381D01*
X55140600Y98250819D01*
X54934719Y98044938D01*
X54917969Y98019653D01*
X54912400Y97991056D01*
X54912400Y92584741D01*
X43732919Y81405259D01*
X43716169Y81379975D01*
X43710600Y81351378D01*
X43710600Y81060219D01*
X43399781Y80749400D01*
X42960219Y80749400D01*
G37*
G36*
X39150219Y97259400D02*
X38839400Y97570219D01*
X38839400Y98009781D01*
X39150219Y98320600D01*
X39589781Y98320600D01*
X39795663Y98114719D01*
X39820947Y98097969D01*
X39849544Y98092400D01*
X46510456Y98092400D01*
X46540178Y98098434D01*
X46564338Y98114719D01*
X46770219Y98320600D01*
X47209781Y98320600D01*
X47520600Y98009781D01*
X47520600Y97570219D01*
X47209781Y97259400D01*
X46770219Y97259400D01*
X46564338Y97465281D01*
X46539053Y97482031D01*
X46510456Y97487600D01*
X39849544Y97487600D01*
X39819822Y97481566D01*
X39795663Y97465281D01*
X39589781Y97259400D01*
X39150219Y97259400D01*
G37*
G36*
X-2749181Y93449400D02*
X-3060000Y93760219D01*
X-3060000Y94051378D01*
X-3066034Y94081100D01*
X-3082319Y94105259D01*
X-6214141Y97237081D01*
X-6239425Y97253831D01*
X-6268022Y97259400D01*
X-6569781Y97259400D01*
X-6880600Y97570219D01*
X-6880600Y98009781D01*
X-6569781Y98320600D01*
X-6130219Y98320600D01*
X-5819400Y98009781D01*
X-5819400Y97729222D01*
X-5813366Y97699500D01*
X-5797081Y97675341D01*
X-2654659Y94532919D01*
X-2629375Y94516169D01*
X-2600778Y94510600D01*
X-2309619Y94510600D01*
X-1998800Y94199781D01*
X-1998800Y93760219D01*
X-2309619Y93449400D01*
X-2749181Y93449400D01*
G37*
G36*
X91220219Y95989400D02*
X90909400Y96300219D01*
X90909400Y96739781D01*
X91220219Y97050600D01*
X91659781Y97050600D01*
X91865663Y96844719D01*
X91890947Y96827969D01*
X91919544Y96822400D01*
X102390456Y96822400D01*
X102420178Y96828434D01*
X102444338Y96844719D01*
X102650219Y97050600D01*
X103089781Y97050600D01*
X103400600Y96739781D01*
X103400600Y96300219D01*
X103089781Y95989400D01*
X102650219Y95989400D01*
X102444338Y96195281D01*
X102419053Y96212031D01*
X102390456Y96217600D01*
X91919544Y96217600D01*
X91889822Y96211566D01*
X91865663Y96195281D01*
X91659781Y95989400D01*
X91220219Y95989400D01*
G37*
G36*
X30260219Y92179400D02*
X29949400Y92490219D01*
X29949400Y92781378D01*
X29943366Y92811100D01*
X29927081Y92835259D01*
X27637600Y95124741D01*
X27637600Y96040456D01*
X27631566Y96070178D01*
X27615281Y96094338D01*
X27409400Y96300219D01*
X27409400Y96739781D01*
X27720219Y97050600D01*
X28159781Y97050600D01*
X28470600Y96739781D01*
X28470600Y96300219D01*
X28264719Y96094338D01*
X28247969Y96069053D01*
X28242400Y96040456D01*
X28242400Y95406822D01*
X28248434Y95377100D01*
X28264719Y95352941D01*
X30354741Y93262919D01*
X30380025Y93246169D01*
X30408622Y93240600D01*
X30699781Y93240600D01*
X31010600Y92929781D01*
X31010600Y92490219D01*
X30699781Y92179400D01*
X30260219Y92179400D01*
G37*
G36*
X21370219Y93449400D02*
X21059400Y93760219D01*
X21059400Y94199781D01*
X21265281Y94405663D01*
X21282031Y94430947D01*
X21287600Y94459544D01*
X21287600Y95424656D01*
X21281566Y95454378D01*
X21265281Y95478538D01*
X21059400Y95684419D01*
X21059400Y96123981D01*
X21370219Y96434800D01*
X21809781Y96434800D01*
X22120600Y96123981D01*
X22120600Y95684419D01*
X21914719Y95478538D01*
X21897969Y95453253D01*
X21892400Y95424656D01*
X21892400Y94459544D01*
X21898434Y94429822D01*
X21914719Y94405663D01*
X22120600Y94199781D01*
X22120600Y93760219D01*
X21809781Y93449400D01*
X21370219Y93449400D01*
G37*
G36*
X-42364888Y58775600D02*
X-42700969Y58914809D01*
X-42958191Y59172031D01*
X-43097400Y59508113D01*
X-43097400Y59871888D01*
X-42958191Y60207969D01*
X-42700969Y60465191D01*
X-42364888Y60604400D01*
X-42001113Y60604400D01*
X-41665031Y60465191D01*
X-41407809Y60207969D01*
X-41338003Y60039441D01*
X-41321053Y60014291D01*
X-41295638Y59997744D01*
X-41267603Y59992400D01*
X-36986822Y59992400D01*
X-36957100Y59998434D01*
X-36932941Y60014719D01*
X-26994719Y69952941D01*
X-26977969Y69978225D01*
X-26972400Y70006822D01*
X-26972400Y94105259D01*
X-25952919Y95124741D01*
X-25936169Y95150025D01*
X-25930600Y95178622D01*
X-25930600Y95469781D01*
X-25619781Y95780600D01*
X-25180219Y95780600D01*
X-24869400Y95469781D01*
X-24869400Y95030219D01*
X-25180219Y94719400D01*
X-25471378Y94719400D01*
X-25501100Y94713366D01*
X-25525259Y94697081D01*
X-26345281Y93877059D01*
X-26362031Y93851775D01*
X-26367600Y93823178D01*
X-26367600Y69724741D01*
X-36704741Y59387600D01*
X-41267603Y59387600D01*
X-41297325Y59381566D01*
X-41322338Y59364416D01*
X-41338003Y59340559D01*
X-41407809Y59172031D01*
X-41665031Y58914809D01*
X-42001113Y58775600D01*
X-42364888Y58775600D01*
G37*
G36*
X-42364888Y79095600D02*
X-42700969Y79234809D01*
X-42958191Y79492031D01*
X-43097400Y79828113D01*
X-43097400Y80191888D01*
X-42958191Y80527969D01*
X-42700969Y80785191D01*
X-42364888Y80924400D01*
X-42001113Y80924400D01*
X-41832588Y80854594D01*
X-41802822Y80848797D01*
X-41773150Y80855069D01*
X-41749547Y80871113D01*
X-34381075Y88239584D01*
X-34364325Y88264869D01*
X-34358756Y88293466D01*
X-34358756Y94536813D01*
X-34364791Y94566534D01*
X-34381075Y94590694D01*
X-34586956Y94796575D01*
X-34586956Y95236138D01*
X-34276138Y95546956D01*
X-33836575Y95546956D01*
X-33525756Y95236138D01*
X-33525756Y94796575D01*
X-33731638Y94590694D01*
X-33748388Y94565409D01*
X-33753956Y94536813D01*
X-33753956Y88011384D01*
X-41321888Y80443453D01*
X-41338638Y80418169D01*
X-41344197Y80388356D01*
X-41338406Y80360413D01*
X-41268600Y80191888D01*
X-41268600Y79828113D01*
X-41407809Y79492031D01*
X-41665031Y79234809D01*
X-42001113Y79095600D01*
X-42364888Y79095600D01*
G37*
G36*
X-79209513Y90349600D02*
X-80077059Y90708950D01*
X-80741050Y91372941D01*
X-81100400Y92240488D01*
X-81100400Y93179513D01*
X-80741050Y94047059D01*
X-80077059Y94711050D01*
X-79209513Y95070400D01*
X-78270488Y95070400D01*
X-77402941Y94711050D01*
X-76738950Y94047059D01*
X-76379600Y93179513D01*
X-76379600Y92240488D01*
X-76738950Y91372941D01*
X-77402941Y90708950D01*
X-78270488Y90349600D01*
X-79209513Y90349600D01*
G37*
G36*
X4954741Y23827600D02*
X-16612941Y45395281D01*
X-16638225Y45412031D01*
X-16666822Y45417600D01*
X-22284653Y45417600D01*
X-24537038Y47669984D01*
X-24537038Y91768097D01*
X-22931656Y93373478D01*
X-22914906Y93398763D01*
X-22909338Y93427359D01*
X-22909338Y93718519D01*
X-22598519Y94029338D01*
X-22158956Y94029338D01*
X-21848138Y93718519D01*
X-21848138Y93316800D01*
X-21842103Y93287078D01*
X-21824953Y93262066D01*
X-21799406Y93245722D01*
X-21771938Y93240600D01*
X-21370219Y93240600D01*
X-21059400Y92929781D01*
X-21059400Y92490219D01*
X-21370219Y92179400D01*
X-21661378Y92179400D01*
X-21691100Y92173366D01*
X-21715259Y92157081D01*
X-22535281Y91337059D01*
X-22552031Y91311775D01*
X-22557600Y91283178D01*
X-22557600Y48521459D01*
X-22551566Y48491738D01*
X-22535281Y48467578D01*
X-21487059Y47419356D01*
X-21461775Y47402606D01*
X-21433178Y47397038D01*
X-15815347Y47397038D01*
X5856972Y25724719D01*
X5882256Y25707969D01*
X5910853Y25702400D01*
X50643178Y25702400D01*
X50672900Y25708434D01*
X50697059Y25724719D01*
X51745281Y26772941D01*
X51762031Y26798225D01*
X51767600Y26826822D01*
X51767600Y42561316D01*
X55228684Y46022400D01*
X56670456Y46022400D01*
X56700178Y46028434D01*
X56724338Y46044719D01*
X56930219Y46250600D01*
X57369781Y46250600D01*
X57680600Y45939781D01*
X57680600Y45500219D01*
X57369781Y45189400D01*
X56930219Y45189400D01*
X56724338Y45395281D01*
X56699053Y45412031D01*
X56670456Y45417600D01*
X55510766Y45417600D01*
X55481044Y45411566D01*
X55456884Y45395281D01*
X52394719Y42333116D01*
X52377969Y42307831D01*
X52372400Y42279234D01*
X52372400Y26544741D01*
X50925259Y25097600D01*
X5628772Y25097600D01*
X-16043547Y46769919D01*
X-16068831Y46786669D01*
X-16097428Y46792238D01*
X-21715259Y46792238D01*
X-23162400Y48239378D01*
X-23162400Y91565259D01*
X-22142919Y92584741D01*
X-22126169Y92610025D01*
X-22120600Y92638622D01*
X-22120600Y92891938D01*
X-22126634Y92921659D01*
X-22143784Y92946672D01*
X-22169331Y92963016D01*
X-22196800Y92968138D01*
X-22450116Y92968138D01*
X-22479838Y92962103D01*
X-22503997Y92945819D01*
X-23909919Y91539897D01*
X-23926669Y91514613D01*
X-23932238Y91486016D01*
X-23932238Y47952066D01*
X-23926203Y47922344D01*
X-23909919Y47898184D01*
X-22056453Y46044719D01*
X-22031169Y46027969D01*
X-22002572Y46022400D01*
X-16384741Y46022400D01*
X5182941Y24454719D01*
X5208225Y24437969D01*
X5236822Y24432400D01*
X51169234Y24432400D01*
X51198956Y24438434D01*
X51223116Y24454719D01*
X53015281Y26246884D01*
X53032031Y26272169D01*
X53037600Y26300766D01*
X53037600Y42035259D01*
X55754741Y44752400D01*
X56670456Y44752400D01*
X56700178Y44758434D01*
X56724338Y44774719D01*
X56930219Y44980600D01*
X57369781Y44980600D01*
X57680600Y44669781D01*
X57680600Y44230219D01*
X57369781Y43919400D01*
X56930219Y43919400D01*
X56724338Y44125281D01*
X56699053Y44142031D01*
X56670456Y44147600D01*
X56036822Y44147600D01*
X56007100Y44141566D01*
X55982941Y44125281D01*
X53664719Y41807059D01*
X53647969Y41781775D01*
X53642400Y41753178D01*
X53642400Y26018684D01*
X51451316Y23827600D01*
X4954741Y23827600D01*
G37*
G36*
X95140828Y91307600D02*
X94698894Y91490656D01*
X94360656Y91828894D01*
X94177600Y92270828D01*
X94177600Y92749172D01*
X94360656Y93191106D01*
X94698894Y93529344D01*
X95140828Y93712400D01*
X95619172Y93712400D01*
X96061106Y93529344D01*
X96399344Y93191106D01*
X96582400Y92749172D01*
X96582400Y92270828D01*
X96399344Y91828894D01*
X96061106Y91490656D01*
X95619172Y91307600D01*
X95140828Y91307600D01*
G37*
G36*
X100640828Y91307600D02*
X100198894Y91490656D01*
X99860656Y91828894D01*
X99677600Y92270828D01*
X99677600Y92749172D01*
X99860656Y93191106D01*
X100198894Y93529344D01*
X100640828Y93712400D01*
X101119172Y93712400D01*
X101561106Y93529344D01*
X101899344Y93191106D01*
X102082400Y92749172D01*
X102082400Y92270828D01*
X101899344Y91828894D01*
X101561106Y91490656D01*
X101119172Y91307600D01*
X100640828Y91307600D01*
G37*
G36*
X-219781Y85829400D02*
X-530600Y86140219D01*
X-530600Y86579781D01*
X-219781Y86890600D01*
X71378Y86890600D01*
X101100Y86896634D01*
X125259Y86912919D01*
X3485281Y90272941D01*
X3502031Y90298225D01*
X3507600Y90326822D01*
X3507600Y90960456D01*
X3501566Y90990178D01*
X3485281Y91014338D01*
X3279400Y91220219D01*
X3279400Y91659781D01*
X3590219Y91970600D01*
X4029781Y91970600D01*
X4340600Y91659781D01*
X4340600Y91220219D01*
X4134719Y91014338D01*
X4117969Y90989053D01*
X4112400Y90960456D01*
X4112400Y90044741D01*
X552919Y86485259D01*
X536169Y86459975D01*
X530600Y86431378D01*
X530600Y86140219D01*
X219781Y85829400D01*
X-219781Y85829400D01*
G37*
G36*
X-29429781Y69319400D02*
X-29740600Y69630219D01*
X-29740600Y70069781D01*
X-29534719Y70275663D01*
X-29517969Y70300947D01*
X-29512400Y70329544D01*
X-29512400Y90295259D01*
X-28492919Y91314741D01*
X-28476169Y91340025D01*
X-28470600Y91368622D01*
X-28470600Y91659781D01*
X-28159781Y91970600D01*
X-27720219Y91970600D01*
X-27409400Y91659781D01*
X-27409400Y91220219D01*
X-27720219Y90909400D01*
X-28011378Y90909400D01*
X-28041100Y90903366D01*
X-28065259Y90887081D01*
X-28885281Y90067059D01*
X-28902031Y90041775D01*
X-28907600Y90013178D01*
X-28907600Y70329544D01*
X-28901566Y70299822D01*
X-28885281Y70275663D01*
X-28679400Y70069781D01*
X-28679400Y69630219D01*
X-28990219Y69319400D01*
X-29429781Y69319400D01*
G37*
G36*
X30924872Y7975600D02*
X30835600Y8064872D01*
X30835600Y9715128D01*
X30924872Y9804400D01*
X31371400Y9804400D01*
X31401122Y9810434D01*
X31426134Y9827584D01*
X31442478Y9853131D01*
X31447600Y9880600D01*
X31447600Y20163178D01*
X31441566Y20192900D01*
X31425281Y20217059D01*
X29107059Y22535281D01*
X29081775Y22552031D01*
X29053178Y22557600D01*
X4954741Y22557600D01*
X-16612941Y44125281D01*
X-16638225Y44142031D01*
X-16666822Y44147600D01*
X-24255259Y44147600D01*
X-25702400Y45594741D01*
X-25702400Y89690456D01*
X-25708434Y89720178D01*
X-25724719Y89744338D01*
X-25930600Y89950219D01*
X-25930600Y90389781D01*
X-25619781Y90700600D01*
X-25180219Y90700600D01*
X-24869400Y90389781D01*
X-24869400Y89950219D01*
X-25075281Y89744338D01*
X-25092031Y89719053D01*
X-25097600Y89690456D01*
X-25097600Y45876822D01*
X-25091566Y45847100D01*
X-25075281Y45822941D01*
X-24027059Y44774719D01*
X-24001775Y44757969D01*
X-23973178Y44752400D01*
X-16384741Y44752400D01*
X5182941Y23184719D01*
X5208225Y23167969D01*
X5236822Y23162400D01*
X29335259Y23162400D01*
X32052400Y20445259D01*
X32052400Y9880600D01*
X32058434Y9850878D01*
X32075584Y9825866D01*
X32101131Y9809522D01*
X32128600Y9804400D01*
X32575128Y9804400D01*
X32664400Y9715128D01*
X32664400Y8064872D01*
X32575128Y7975600D01*
X30924872Y7975600D01*
G37*
G36*
X102650219Y78209400D02*
X102339400Y78520219D01*
X102339400Y78959781D01*
X102545281Y79165663D01*
X102562031Y79190947D01*
X102567600Y79219544D01*
X102567600Y87931400D01*
X102561566Y87961122D01*
X102544416Y87986134D01*
X102518869Y88002478D01*
X102491400Y88007600D01*
X102107125Y88007600D01*
X102077403Y88001566D01*
X102052391Y87984416D01*
X102036725Y87960559D01*
X101899344Y87628894D01*
X101561106Y87290656D01*
X101119172Y87107600D01*
X100640828Y87107600D01*
X100198894Y87290656D01*
X99860656Y87628894D01*
X99677600Y88070828D01*
X99677600Y88549172D01*
X99860656Y88991106D01*
X100198894Y89329344D01*
X100640828Y89512400D01*
X101119172Y89512400D01*
X101561106Y89329344D01*
X101899344Y88991106D01*
X102036725Y88659441D01*
X102053675Y88634291D01*
X102079091Y88617744D01*
X102107125Y88612400D01*
X102995259Y88612400D01*
X103172400Y88435259D01*
X103172400Y79219544D01*
X103178434Y79189822D01*
X103194719Y79165663D01*
X103400600Y78959781D01*
X103400600Y78520219D01*
X103089781Y78209400D01*
X102650219Y78209400D01*
G37*
G36*
X85442722Y45080650D02*
X85353450Y45169922D01*
X85353450Y46270078D01*
X85442722Y46359350D01*
X85526600Y46359350D01*
X85556322Y46365384D01*
X85581334Y46382534D01*
X85597678Y46408081D01*
X85602800Y46435550D01*
X85602800Y76497978D01*
X85596766Y76527700D01*
X85580481Y76551859D01*
X85215259Y76917081D01*
X85189975Y76933831D01*
X85161378Y76939400D01*
X84870219Y76939400D01*
X84559400Y77250219D01*
X84559400Y77689781D01*
X84627138Y77757519D01*
X84643888Y77782803D01*
X84649447Y77812616D01*
X84642938Y77842234D01*
X84625394Y77866972D01*
X84599588Y77882906D01*
X84573256Y77887600D01*
X80526744Y77887600D01*
X80497022Y77881566D01*
X80472009Y77864416D01*
X80455666Y77838869D01*
X80450581Y77808972D01*
X80457563Y77779456D01*
X80472863Y77757519D01*
X80540600Y77689781D01*
X80540600Y77250219D01*
X80334719Y77044338D01*
X80317969Y77019053D01*
X80312400Y76990456D01*
X80312400Y62499741D01*
X69074719Y51262059D01*
X69057969Y51236775D01*
X69052400Y51208178D01*
X69052400Y50211872D01*
X68963128Y50122600D01*
X68196872Y50122600D01*
X68107600Y50211872D01*
X68107600Y52178128D01*
X68196872Y52267400D01*
X68963128Y52267400D01*
X69040053Y52190475D01*
X69065338Y52173725D01*
X69095150Y52168166D01*
X69124769Y52174675D01*
X69147816Y52190475D01*
X79685281Y62727941D01*
X79702031Y62753225D01*
X79707600Y62781822D01*
X79707600Y76990456D01*
X79701566Y77020178D01*
X79685281Y77044338D01*
X79479400Y77250219D01*
X79479400Y77689781D01*
X79547138Y77757519D01*
X79563888Y77782803D01*
X79569447Y77812616D01*
X79562938Y77842234D01*
X79545394Y77866972D01*
X79519588Y77882906D01*
X79493256Y77887600D01*
X71636744Y77887600D01*
X71607022Y77881566D01*
X71582009Y77864416D01*
X71565666Y77838869D01*
X71560581Y77808972D01*
X71567563Y77779456D01*
X71582863Y77757519D01*
X71650600Y77689781D01*
X71650600Y77250219D01*
X71339781Y76939400D01*
X70900219Y76939400D01*
X70694338Y77145281D01*
X70669053Y77162031D01*
X70640456Y77167600D01*
X70006822Y77167600D01*
X69977100Y77161566D01*
X69952941Y77145281D01*
X60014719Y67207059D01*
X59997969Y67181775D01*
X59992400Y67153178D01*
X59992400Y66213150D01*
X59998434Y66183428D01*
X60015584Y66158416D01*
X60041131Y66142072D01*
X60068600Y66136950D01*
X60240078Y66136950D01*
X60329350Y66047678D01*
X60329350Y65963800D01*
X60335384Y65934078D01*
X60352534Y65909066D01*
X60378081Y65892722D01*
X60405550Y65887600D01*
X67864450Y65887600D01*
X67894172Y65893634D01*
X67919184Y65910784D01*
X67935528Y65936331D01*
X67940650Y65963800D01*
X67940650Y66047678D01*
X68029922Y66136950D01*
X69130078Y66136950D01*
X69219350Y66047678D01*
X69219350Y65122722D01*
X69130078Y65033450D01*
X68029922Y65033450D01*
X67940650Y65122722D01*
X67940650Y65206600D01*
X67934616Y65236322D01*
X67917466Y65261334D01*
X67891919Y65277678D01*
X67864450Y65282800D01*
X60405550Y65282800D01*
X60375828Y65276766D01*
X60350816Y65259616D01*
X60334472Y65234069D01*
X60329350Y65206600D01*
X60329350Y65122722D01*
X60240078Y65033450D01*
X59139922Y65033450D01*
X59050650Y65122722D01*
X59050650Y66047678D01*
X59139922Y66136950D01*
X59311400Y66136950D01*
X59341122Y66142984D01*
X59366134Y66160134D01*
X59382478Y66185681D01*
X59387600Y66213150D01*
X59387600Y67435259D01*
X69709859Y77757519D01*
X69726609Y77782803D01*
X69732169Y77812616D01*
X69725659Y77842234D01*
X69708116Y77866972D01*
X69682309Y77882906D01*
X69655978Y77887600D01*
X69119222Y77887600D01*
X69089500Y77881566D01*
X69065341Y77865281D01*
X59613275Y68413216D01*
X35936822Y68413216D01*
X35907100Y68407181D01*
X35882941Y68390897D01*
X31252919Y63760875D01*
X31236169Y63735591D01*
X31230600Y63706994D01*
X31230600Y63415834D01*
X30919781Y63105016D01*
X30480219Y63105016D01*
X30169400Y63415834D01*
X30169400Y63455919D01*
X30163366Y63485641D01*
X30146216Y63510653D01*
X30120669Y63526997D01*
X30090772Y63532081D01*
X30061256Y63525100D01*
X30039319Y63509800D01*
X18201072Y51671553D01*
X18184322Y51646269D01*
X18178763Y51616456D01*
X18185272Y51586838D01*
X18202816Y51562100D01*
X18228622Y51546166D01*
X18254953Y51541472D01*
X54099594Y51541472D01*
X54129316Y51547506D01*
X54153475Y51563791D01*
X56579484Y53989800D01*
X57720516Y53989800D01*
X59420597Y52289719D01*
X59445881Y52272969D01*
X59474478Y52267400D01*
X60073128Y52267400D01*
X60162400Y52178128D01*
X60162400Y50211872D01*
X60073128Y50122600D01*
X59306872Y50122600D01*
X59217600Y50211872D01*
X59217600Y51605834D01*
X59211566Y51635556D01*
X59195281Y51659716D01*
X57492316Y53362681D01*
X57467031Y53379431D01*
X57438434Y53385000D01*
X56861566Y53385000D01*
X56831844Y53378966D01*
X56807684Y53362681D01*
X54381675Y50936672D01*
X16227753Y50936672D01*
X16198031Y50930638D01*
X16173872Y50914353D01*
X12934719Y47675200D01*
X12917969Y47649916D01*
X12912400Y47621319D01*
X12912400Y47605159D01*
X12918434Y47575438D01*
X12934719Y47551278D01*
X13140600Y47345397D01*
X13140600Y46905834D01*
X12829781Y46595016D01*
X12390219Y46595016D01*
X12079400Y46905834D01*
X12079400Y47345397D01*
X12285281Y47551278D01*
X12302031Y47576563D01*
X12307600Y47605159D01*
X12307600Y47903400D01*
X15945672Y51541472D01*
X17184109Y51541472D01*
X17213831Y51547506D01*
X17237991Y51563791D01*
X36193306Y70519106D01*
X53006550Y70519106D01*
X53036272Y70525141D01*
X53061284Y70542291D01*
X53077628Y70567838D01*
X53082713Y70597734D01*
X53075731Y70627250D01*
X53060431Y70649188D01*
X52914338Y70795281D01*
X52889053Y70812031D01*
X52860456Y70817600D01*
X45594741Y70817600D01*
X42877600Y73534741D01*
X42877600Y78583178D01*
X42871566Y78612900D01*
X42855281Y78637059D01*
X40337600Y81154741D01*
X40337600Y83663178D01*
X40331566Y83692900D01*
X40315281Y83717059D01*
X39495259Y84537081D01*
X39469975Y84553831D01*
X39441378Y84559400D01*
X39150219Y84559400D01*
X38839400Y84870219D01*
X38839400Y85309781D01*
X39150219Y85620600D01*
X39589781Y85620600D01*
X39900600Y85309781D01*
X39900600Y85018622D01*
X39906634Y84988900D01*
X39922919Y84964741D01*
X40942400Y83945259D01*
X40942400Y81436822D01*
X40948434Y81407100D01*
X40964719Y81382941D01*
X43482400Y78865259D01*
X43482400Y73816822D01*
X43488434Y73787100D01*
X43504719Y73762941D01*
X43789319Y73478341D01*
X43814603Y73461591D01*
X43844416Y73456031D01*
X43874034Y73462541D01*
X43898772Y73480084D01*
X43914706Y73505891D01*
X43919400Y73532222D01*
X43919400Y73879781D01*
X44125281Y74085663D01*
X44142031Y74110947D01*
X44147600Y74139544D01*
X44147600Y75055259D01*
X51944741Y82852400D01*
X65560456Y82852400D01*
X65590178Y82858434D01*
X65614338Y82874719D01*
X65820219Y83080600D01*
X66259781Y83080600D01*
X66570600Y82769781D01*
X66570600Y82330219D01*
X66259781Y82019400D01*
X65820219Y82019400D01*
X65614338Y82225281D01*
X65589053Y82242031D01*
X65560456Y82247600D01*
X52226822Y82247600D01*
X52197100Y82241566D01*
X52172941Y82225281D01*
X47987141Y78039481D01*
X47970391Y78014197D01*
X47964831Y77984384D01*
X47971341Y77954766D01*
X47988884Y77930028D01*
X48014691Y77914094D01*
X48041022Y77909400D01*
X48479781Y77909400D01*
X48685663Y77703519D01*
X48710947Y77686769D01*
X48739544Y77681200D01*
X49746459Y77681200D01*
X52172941Y75254719D01*
X52198225Y75237969D01*
X52226822Y75232400D01*
X60480456Y75232400D01*
X60510178Y75238434D01*
X60534338Y75254719D01*
X60740219Y75460600D01*
X61179781Y75460600D01*
X61490600Y75149781D01*
X61490600Y74710219D01*
X61179781Y74399400D01*
X60740219Y74399400D01*
X60534338Y74605281D01*
X60509053Y74622031D01*
X60480456Y74627600D01*
X51944741Y74627600D01*
X49518259Y77054081D01*
X49492975Y77070831D01*
X49464378Y77076400D01*
X48739544Y77076400D01*
X48709822Y77070366D01*
X48685663Y77054081D01*
X48474863Y76843281D01*
X48458113Y76817997D01*
X48452553Y76788184D01*
X48459063Y76758566D01*
X48474863Y76735519D01*
X48790600Y76419781D01*
X48790600Y75980219D01*
X48479781Y75669400D01*
X48188622Y75669400D01*
X48158900Y75663366D01*
X48134741Y75647081D01*
X47314719Y74827059D01*
X47297969Y74801775D01*
X47292400Y74773178D01*
X47292400Y74139544D01*
X47298434Y74109822D01*
X47314719Y74085663D01*
X47520600Y73879781D01*
X47520600Y73440219D01*
X47209781Y73129400D01*
X46770219Y73129400D01*
X46459400Y73440219D01*
X46459400Y73879781D01*
X46665281Y74085663D01*
X46682031Y74110947D01*
X46687600Y74139544D01*
X46687600Y75055259D01*
X47707081Y76074741D01*
X47723831Y76100025D01*
X47729400Y76128622D01*
X47729400Y76419781D01*
X48045138Y76735519D01*
X48061888Y76760803D01*
X48067447Y76790616D01*
X48060938Y76820234D01*
X48045138Y76843281D01*
X47729400Y77159019D01*
X47729400Y77597778D01*
X47723366Y77627500D01*
X47706216Y77652513D01*
X47680669Y77668856D01*
X47650772Y77673941D01*
X47621256Y77666959D01*
X47599319Y77651659D01*
X44774719Y74827059D01*
X44757969Y74801775D01*
X44752400Y74773178D01*
X44752400Y74139544D01*
X44758434Y74109822D01*
X44774719Y74085663D01*
X44980600Y73879781D01*
X44980600Y73440219D01*
X44669781Y73129400D01*
X44322222Y73129400D01*
X44292500Y73123366D01*
X44267488Y73106216D01*
X44251144Y73080669D01*
X44246059Y73050772D01*
X44253041Y73021256D01*
X44268341Y72999319D01*
X45822941Y71444719D01*
X45848225Y71427969D01*
X45876822Y71422400D01*
X52860456Y71422400D01*
X52890178Y71428434D01*
X52914338Y71444719D01*
X53120219Y71650600D01*
X53559781Y71650600D01*
X53870600Y71339781D01*
X53870600Y70900219D01*
X53619569Y70649188D01*
X53602819Y70623903D01*
X53597259Y70594091D01*
X53603769Y70564472D01*
X53621313Y70539734D01*
X53647119Y70523800D01*
X53673450Y70519106D01*
X58079884Y70519106D01*
X58109606Y70525141D01*
X58133766Y70541425D01*
X76204741Y88612400D01*
X94152875Y88612400D01*
X94182597Y88618434D01*
X94207609Y88635584D01*
X94223275Y88659441D01*
X94360656Y88991106D01*
X94698894Y89329344D01*
X95140828Y89512400D01*
X95619172Y89512400D01*
X96061106Y89329344D01*
X96399344Y88991106D01*
X96582400Y88549172D01*
X96582400Y88070828D01*
X96399344Y87628894D01*
X96061106Y87290656D01*
X95619172Y87107600D01*
X95140828Y87107600D01*
X94698894Y87290656D01*
X94360656Y87628894D01*
X94223275Y87960559D01*
X94206325Y87985709D01*
X94180909Y88002256D01*
X94152875Y88007600D01*
X76486822Y88007600D01*
X76457100Y88001566D01*
X76432941Y87985281D01*
X58361966Y69914306D01*
X36475388Y69914306D01*
X36445666Y69908272D01*
X36421506Y69891988D01*
X35677616Y69148097D01*
X35660866Y69122813D01*
X35655306Y69093000D01*
X35661816Y69063381D01*
X35679359Y69038644D01*
X35705166Y69022709D01*
X35731497Y69018016D01*
X59331194Y69018016D01*
X59360916Y69024050D01*
X59385075Y69040334D01*
X68837141Y78492400D01*
X91947659Y78492400D01*
X94835341Y75604719D01*
X94860625Y75587969D01*
X94889222Y75582400D01*
X96745528Y75582400D01*
X96834800Y75493128D01*
X96834800Y73266872D01*
X96745528Y73177600D01*
X94519272Y73177600D01*
X94430000Y73266872D01*
X94430000Y75123178D01*
X94423966Y75152900D01*
X94407681Y75177059D01*
X91719459Y77865281D01*
X91694175Y77882031D01*
X91665578Y77887600D01*
X85606744Y77887600D01*
X85577022Y77881566D01*
X85552009Y77864416D01*
X85535666Y77838869D01*
X85530581Y77808972D01*
X85537563Y77779456D01*
X85552863Y77757519D01*
X85620600Y77689781D01*
X85620600Y77398622D01*
X85626634Y77368900D01*
X85642919Y77344741D01*
X86207600Y76780059D01*
X86207600Y46435550D01*
X86213634Y46405828D01*
X86230784Y46380816D01*
X86256331Y46364472D01*
X86283800Y46359350D01*
X86367678Y46359350D01*
X86456950Y46270078D01*
X86456950Y45169922D01*
X86367678Y45080650D01*
X85442722Y45080650D01*
G37*
G36*
X-43201981Y81889600D02*
X-43911484Y82183488D01*
X-44454513Y82726516D01*
X-44748400Y83436019D01*
X-44748400Y84203981D01*
X-44454513Y84913484D01*
X-43911484Y85456513D01*
X-43201981Y85750400D01*
X-42434019Y85750400D01*
X-41724516Y85456513D01*
X-41181488Y84913484D01*
X-40887600Y84203981D01*
X-40887600Y83436019D01*
X-41181488Y82726516D01*
X-41724516Y82183488D01*
X-42434019Y81889600D01*
X-43201981Y81889600D01*
G37*
G36*
X-78761981Y81889600D02*
X-79471484Y82183488D01*
X-80014513Y82726516D01*
X-80308400Y83436019D01*
X-80308400Y84203981D01*
X-80014513Y84913484D01*
X-79471484Y85456513D01*
X-78761981Y85750400D01*
X-77994019Y85750400D01*
X-77284516Y85456513D01*
X-76741488Y84913484D01*
X-76447600Y84203981D01*
X-76447600Y83436019D01*
X-76741488Y82726516D01*
X-77284516Y82183488D01*
X-77994019Y81889600D01*
X-78761981Y81889600D01*
G37*
G36*
X94266872Y82907600D02*
X94177600Y82996872D01*
X94177600Y85223128D01*
X94266872Y85312400D01*
X96493128Y85312400D01*
X96582400Y85223128D01*
X96582400Y82996872D01*
X96493128Y82907600D01*
X94266872Y82907600D01*
G37*
G36*
X95030219Y78209400D02*
X94719400Y78520219D01*
X94719400Y78959781D01*
X94925281Y79165663D01*
X94942031Y79190947D01*
X94947600Y79219544D01*
X94947600Y81145259D01*
X98214741Y84412400D01*
X99652875Y84412400D01*
X99682597Y84418434D01*
X99707609Y84435584D01*
X99723275Y84459441D01*
X99860656Y84791106D01*
X100198894Y85129344D01*
X100640828Y85312400D01*
X101119172Y85312400D01*
X101561106Y85129344D01*
X101899344Y84791106D01*
X102082400Y84349172D01*
X102082400Y83870828D01*
X101899344Y83428894D01*
X101561106Y83090656D01*
X101119172Y82907600D01*
X100640828Y82907600D01*
X100198894Y83090656D01*
X99860656Y83428894D01*
X99723275Y83760559D01*
X99706325Y83785709D01*
X99680909Y83802256D01*
X99652875Y83807600D01*
X98496822Y83807600D01*
X98467100Y83801566D01*
X98442941Y83785281D01*
X95574719Y80917059D01*
X95557969Y80891775D01*
X95552400Y80863178D01*
X95552400Y79219544D01*
X95558434Y79189822D01*
X95574719Y79165663D01*
X95780600Y78959781D01*
X95780600Y78520219D01*
X95469781Y78209400D01*
X95030219Y78209400D01*
G37*
G36*
X36610219Y79479400D02*
X36299400Y79790219D01*
X36299400Y80081378D01*
X36293366Y80111100D01*
X36277081Y80135259D01*
X33987600Y82424741D01*
X33987600Y83340456D01*
X33981566Y83370178D01*
X33965281Y83394338D01*
X33759400Y83600219D01*
X33759400Y84039781D01*
X34070219Y84350600D01*
X34509781Y84350600D01*
X34820600Y84039781D01*
X34820600Y83600219D01*
X34614719Y83394338D01*
X34597969Y83369053D01*
X34592400Y83340456D01*
X34592400Y82706822D01*
X34598434Y82677100D01*
X34614719Y82652941D01*
X36704741Y80562919D01*
X36730025Y80546169D01*
X36758622Y80540600D01*
X37049781Y80540600D01*
X37360600Y80229781D01*
X37360600Y79790219D01*
X37049781Y79479400D01*
X36610219Y79479400D01*
G37*
G36*
X-4029781Y80749400D02*
X-4340600Y81060219D01*
X-4340600Y81351378D01*
X-4346634Y81381100D01*
X-4362919Y81405259D01*
X-5182941Y82225281D01*
X-5208225Y82242031D01*
X-5236822Y82247600D01*
X-5870456Y82247600D01*
X-5900178Y82241566D01*
X-5924338Y82225281D01*
X-6130219Y82019400D01*
X-6569781Y82019400D01*
X-6880600Y82330219D01*
X-6880600Y82769781D01*
X-6569781Y83080600D01*
X-6130219Y83080600D01*
X-5924338Y82874719D01*
X-5899053Y82857969D01*
X-5870456Y82852400D01*
X-4954741Y82852400D01*
X-3935259Y81832919D01*
X-3909975Y81816169D01*
X-3881378Y81810600D01*
X-3590219Y81810600D01*
X-3279400Y81499781D01*
X-3279400Y81060219D01*
X-3590219Y80749400D01*
X-4029781Y80749400D01*
G37*
G36*
X-11649781Y76939400D02*
X-11960600Y77250219D01*
X-11960600Y77689781D01*
X-11649781Y78000600D01*
X-11210219Y78000600D01*
X-11004338Y77794719D01*
X-10979053Y77777969D01*
X-10950456Y77772400D01*
X-3966822Y77772400D01*
X-3937100Y77778434D01*
X-3912941Y77794719D01*
X717081Y82424741D01*
X733831Y82450025D01*
X739400Y82478622D01*
X739400Y82769781D01*
X1050219Y83080600D01*
X1489781Y83080600D01*
X1800600Y82769781D01*
X1800600Y82330219D01*
X1489781Y82019400D01*
X1198622Y82019400D01*
X1168900Y82013366D01*
X1144741Y81997081D01*
X-3684741Y77167600D01*
X-10950456Y77167600D01*
X-10980178Y77161566D01*
X-11004338Y77145281D01*
X-11210219Y76939400D01*
X-11649781Y76939400D01*
G37*
G36*
X28990219Y76939400D02*
X28679400Y77250219D01*
X28679400Y77689781D01*
X28885281Y77895663D01*
X28902031Y77920947D01*
X28907600Y77949544D01*
X28907600Y80135259D01*
X30174031Y81401691D01*
X30190781Y81426975D01*
X30196350Y81455572D01*
X30196350Y81746731D01*
X30507169Y82057550D01*
X30946731Y82057550D01*
X31257550Y81746731D01*
X31257550Y81307169D01*
X30946731Y80996350D01*
X30655572Y80996350D01*
X30625850Y80990316D01*
X30601691Y80974031D01*
X29534719Y79907059D01*
X29517969Y79881775D01*
X29512400Y79853178D01*
X29512400Y77949544D01*
X29518434Y77919822D01*
X29534719Y77895663D01*
X29740600Y77689781D01*
X29740600Y77250219D01*
X29429781Y76939400D01*
X28990219Y76939400D01*
G37*
G36*
X102650219Y71859400D02*
X102339400Y72170219D01*
X102339400Y72609781D01*
X102545281Y72815663D01*
X102562031Y72840947D01*
X102567600Y72869544D01*
X102567600Y76043178D01*
X102561566Y76072900D01*
X102545281Y76097059D01*
X97915259Y80727081D01*
X97889975Y80743831D01*
X97861378Y80749400D01*
X97570219Y80749400D01*
X97259400Y81060219D01*
X97259400Y81499781D01*
X97570219Y81810600D01*
X98009781Y81810600D01*
X98320600Y81499781D01*
X98320600Y81208622D01*
X98326634Y81178900D01*
X98342919Y81154741D01*
X103172400Y76325259D01*
X103172400Y72869544D01*
X103178434Y72839822D01*
X103194719Y72815663D01*
X103400600Y72609781D01*
X103400600Y72170219D01*
X103089781Y71859400D01*
X102650219Y71859400D01*
G37*
G36*
X54390219Y80749400D02*
X54079400Y81060219D01*
X54079400Y81499781D01*
X54390219Y81810600D01*
X54829781Y81810600D01*
X55035663Y81604719D01*
X55060947Y81587969D01*
X55089544Y81582400D01*
X66830456Y81582400D01*
X66860178Y81588434D01*
X66884338Y81604719D01*
X67090219Y81810600D01*
X67529781Y81810600D01*
X67840600Y81499781D01*
X67840600Y81060219D01*
X67529781Y80749400D01*
X67090219Y80749400D01*
X66884338Y80955281D01*
X66859053Y80972031D01*
X66830456Y80977600D01*
X55089544Y80977600D01*
X55059822Y80971566D01*
X55035663Y80955281D01*
X54829781Y80749400D01*
X54390219Y80749400D01*
G37*
G36*
X56930219Y76939400D02*
X56619400Y77250219D01*
X56619400Y77541378D01*
X56613366Y77571100D01*
X56597081Y77595259D01*
X54294828Y79897513D01*
X54269544Y79914263D01*
X54240947Y79919831D01*
X53391981Y79919831D01*
X53362259Y79913797D01*
X53338100Y79897513D01*
X53132219Y79691631D01*
X52692656Y79691631D01*
X52381838Y80002450D01*
X52381838Y80442013D01*
X52692656Y80752831D01*
X53132219Y80752831D01*
X53338100Y80546950D01*
X53363384Y80530200D01*
X53391981Y80524631D01*
X54523028Y80524631D01*
X57024741Y78022919D01*
X57050025Y78006169D01*
X57078622Y78000600D01*
X57369781Y78000600D01*
X57680600Y77689781D01*
X57680600Y77250219D01*
X57369781Y76939400D01*
X56930219Y76939400D01*
G37*
G36*
X22640219Y75669400D02*
X22329400Y75980219D01*
X22329400Y76419781D01*
X22640219Y76730600D01*
X23079781Y76730600D01*
X23285663Y76524719D01*
X23310947Y76507969D01*
X23339544Y76502400D01*
X25243178Y76502400D01*
X25272900Y76508434D01*
X25297059Y76524719D01*
X26345281Y77572941D01*
X26362031Y77598225D01*
X26367600Y77626822D01*
X26367600Y79530456D01*
X26361566Y79560178D01*
X26345281Y79584338D01*
X26139400Y79790219D01*
X26139400Y80229781D01*
X26450219Y80540600D01*
X26889781Y80540600D01*
X27200600Y80229781D01*
X27200600Y79790219D01*
X26994719Y79584338D01*
X26977969Y79559053D01*
X26972400Y79530456D01*
X26972400Y77344741D01*
X25525259Y75897600D01*
X23339544Y75897600D01*
X23309822Y75891566D01*
X23285663Y75875281D01*
X23079781Y75669400D01*
X22640219Y75669400D01*
G37*
G36*
X40420219Y78209400D02*
X40214338Y78415281D01*
X40189053Y78432031D01*
X40160456Y78437600D01*
X35434741Y78437600D01*
X34187059Y79685281D01*
X34161775Y79702031D01*
X34133178Y79707600D01*
X32229544Y79707600D01*
X32199822Y79701566D01*
X32175663Y79685281D01*
X31969781Y79479400D01*
X31530219Y79479400D01*
X31219400Y79790219D01*
X31219400Y80229781D01*
X31530219Y80540600D01*
X31969781Y80540600D01*
X32175663Y80334719D01*
X32200947Y80317969D01*
X32229544Y80312400D01*
X34415259Y80312400D01*
X35662941Y79064719D01*
X35688225Y79047969D01*
X35716822Y79042400D01*
X40160456Y79042400D01*
X40190178Y79048434D01*
X40214338Y79064719D01*
X40420219Y79270600D01*
X40859781Y79270600D01*
X41170600Y78959781D01*
X41170600Y78520219D01*
X40859781Y78209400D01*
X40420219Y78209400D01*
G37*
G36*
X18830219Y71859400D02*
X18519400Y72170219D01*
X18519400Y72461378D01*
X18513366Y72491100D01*
X18497081Y72515259D01*
X11555259Y79457081D01*
X11529975Y79473831D01*
X11501378Y79479400D01*
X11210219Y79479400D01*
X10899400Y79790219D01*
X10899400Y80229781D01*
X11210219Y80540600D01*
X11649781Y80540600D01*
X11960600Y80229781D01*
X11960600Y79938622D01*
X11966634Y79908900D01*
X11982919Y79884741D01*
X18924741Y72942919D01*
X18950025Y72926169D01*
X18978622Y72920600D01*
X19269781Y72920600D01*
X19580600Y72609781D01*
X19580600Y72170219D01*
X19269781Y71859400D01*
X18830219Y71859400D01*
G37*
G36*
X53120219Y75669400D02*
X52809400Y75980219D01*
X52809400Y76271378D01*
X52803366Y76301100D01*
X52787081Y76325259D01*
X50759103Y78353238D01*
X50733819Y78369988D01*
X50705222Y78375556D01*
X50414063Y78375556D01*
X50103244Y78686375D01*
X50103244Y79125938D01*
X50414063Y79436756D01*
X50853625Y79436756D01*
X51164444Y79125938D01*
X51164444Y78834778D01*
X51170478Y78805056D01*
X51186763Y78780897D01*
X53214741Y76752919D01*
X53240025Y76736169D01*
X53268622Y76730600D01*
X53559781Y76730600D01*
X53870600Y76419781D01*
X53870600Y75980219D01*
X53559781Y75669400D01*
X53120219Y75669400D01*
G37*
G36*
X39320219Y71205016D02*
X39009400Y71515834D01*
X39009400Y71955397D01*
X39215281Y72161278D01*
X39232031Y72186563D01*
X39237600Y72215159D01*
X39237600Y76568766D01*
X39231566Y76598488D01*
X39214416Y76623500D01*
X39188869Y76639844D01*
X39161400Y76644966D01*
X38895019Y76644966D01*
X38584200Y76955784D01*
X38584200Y77395347D01*
X38895019Y77706166D01*
X39334581Y77706166D01*
X39645400Y77395347D01*
X39645400Y77104188D01*
X39651434Y77074466D01*
X39667719Y77050306D01*
X39842400Y76875625D01*
X39842400Y72215159D01*
X39848434Y72185438D01*
X39864719Y72161278D01*
X40070600Y71955397D01*
X40070600Y71515834D01*
X39759781Y71205016D01*
X39320219Y71205016D01*
G37*
G36*
X8621056Y70540238D02*
X8310238Y70851056D01*
X8310238Y71290619D01*
X8565281Y71545663D01*
X8582031Y71570947D01*
X8587600Y71599544D01*
X8587600Y75055259D01*
X9607081Y76074741D01*
X9623831Y76100025D01*
X9629400Y76128622D01*
X9629400Y76419781D01*
X9940219Y76730600D01*
X10379781Y76730600D01*
X10690600Y76419781D01*
X10690600Y75980219D01*
X10379781Y75669400D01*
X10088622Y75669400D01*
X10058900Y75663366D01*
X10034741Y75647081D01*
X9214719Y74827059D01*
X9197969Y74801775D01*
X9192400Y74773178D01*
X9192400Y71501219D01*
X9198434Y71471497D01*
X9214719Y71447338D01*
X9371438Y71290619D01*
X9371438Y70851056D01*
X9060619Y70540238D01*
X8621056Y70540238D01*
G37*
G36*
X-42364888Y74015600D02*
X-42700969Y74154809D01*
X-42958191Y74412031D01*
X-43097400Y74748113D01*
X-43097400Y75111888D01*
X-42958191Y75447969D01*
X-42700969Y75705191D01*
X-42364888Y75844400D01*
X-42001113Y75844400D01*
X-41665031Y75705191D01*
X-41407809Y75447969D01*
X-41268600Y75111888D01*
X-41268600Y74748113D01*
X-41407809Y74412031D01*
X-41665031Y74154809D01*
X-42001113Y74015600D01*
X-42364888Y74015600D01*
G37*
G36*
X100893228Y73177600D02*
X100451294Y73360656D01*
X100113056Y73698894D01*
X99930000Y74140828D01*
X99930000Y74619172D01*
X100113056Y75061106D01*
X100451294Y75399344D01*
X100893228Y75582400D01*
X101371572Y75582400D01*
X101813506Y75399344D01*
X102151744Y75061106D01*
X102334800Y74619172D01*
X102334800Y74140828D01*
X102151744Y73698894D01*
X101813506Y73360656D01*
X101371572Y73177600D01*
X100893228Y73177600D01*
G37*
G36*
X95140828Y46577600D02*
X94698894Y46760656D01*
X94360656Y47098894D01*
X94177600Y47540828D01*
X94177600Y48019172D01*
X94360656Y48461106D01*
X94698894Y48799344D01*
X95030559Y48936725D01*
X95055709Y48953675D01*
X95072256Y48979091D01*
X95077600Y49007125D01*
X95077600Y49910591D01*
X95071566Y49940313D01*
X95055281Y49964472D01*
X93725200Y51294553D01*
X93725200Y53040272D01*
X95532447Y54847519D01*
X95549197Y54872803D01*
X95554756Y54902616D01*
X95548247Y54932234D01*
X95530703Y54956972D01*
X95504897Y54972906D01*
X95478566Y54977600D01*
X95140828Y54977600D01*
X94698894Y55160656D01*
X94360656Y55498894D01*
X94177600Y55940828D01*
X94177600Y56419172D01*
X94360656Y56861106D01*
X94698894Y57199344D01*
X95140828Y57382400D01*
X95619172Y57382400D01*
X96061106Y57199344D01*
X96399344Y56861106D01*
X96582400Y56419172D01*
X96582400Y56081434D01*
X96588434Y56051713D01*
X96605584Y56026700D01*
X96631131Y56010356D01*
X96661028Y56005272D01*
X96690544Y56012253D01*
X96712481Y56027553D01*
X97465281Y56780353D01*
X97482031Y56805638D01*
X97487600Y56834234D01*
X97487600Y67153178D01*
X97481566Y67182900D01*
X97465281Y67207059D01*
X90067059Y74605281D01*
X90041775Y74622031D01*
X90013178Y74627600D01*
X89379544Y74627600D01*
X89349822Y74621566D01*
X89325663Y74605281D01*
X89119781Y74399400D01*
X88680219Y74399400D01*
X88369400Y74710219D01*
X88369400Y75149781D01*
X88680219Y75460600D01*
X89119781Y75460600D01*
X89325663Y75254719D01*
X89350947Y75237969D01*
X89379544Y75232400D01*
X90295259Y75232400D01*
X98092400Y67435259D01*
X98092400Y56552153D01*
X94697828Y53157581D01*
X94681078Y53132297D01*
X94675519Y53102484D01*
X94682028Y53072866D01*
X94699572Y53048128D01*
X94725378Y53032194D01*
X94755353Y53027588D01*
X94780869Y53033300D01*
X95140828Y53182400D01*
X95619172Y53182400D01*
X96061106Y52999344D01*
X96399344Y52661106D01*
X96582400Y52219172D01*
X96582400Y51740828D01*
X96399344Y51298894D01*
X96061106Y50960656D01*
X95619172Y50777600D01*
X95281434Y50777600D01*
X95251713Y50771566D01*
X95226700Y50754416D01*
X95210356Y50728869D01*
X95205272Y50698972D01*
X95212253Y50669456D01*
X95227553Y50647519D01*
X95682400Y50192672D01*
X95682400Y49007125D01*
X95688434Y48977403D01*
X95705584Y48952391D01*
X95729441Y48936725D01*
X96061106Y48799344D01*
X96399344Y48461106D01*
X96582400Y48019172D01*
X96582400Y47540828D01*
X96399344Y47098894D01*
X96061106Y46760656D01*
X95619172Y46577600D01*
X95140828Y46577600D01*
G37*
G36*
X26450219Y71859400D02*
X26139400Y72170219D01*
X26139400Y72609781D01*
X26450219Y72920600D01*
X26741378Y72920600D01*
X26771100Y72926634D01*
X26795259Y72942919D01*
X27814741Y73962400D01*
X33911400Y73962400D01*
X33941122Y73968434D01*
X33966134Y73985584D01*
X33982478Y74011131D01*
X33987600Y74038600D01*
X33987600Y74450456D01*
X33981566Y74480178D01*
X33965281Y74504338D01*
X33759400Y74710219D01*
X33759400Y75149781D01*
X34070219Y75460600D01*
X34509781Y75460600D01*
X34820600Y75149781D01*
X34820600Y74710219D01*
X34614719Y74504338D01*
X34597969Y74479053D01*
X34592400Y74450456D01*
X34592400Y73534741D01*
X34415259Y73357600D01*
X28096822Y73357600D01*
X28067100Y73351566D01*
X28042941Y73335281D01*
X27222919Y72515259D01*
X27206169Y72489975D01*
X27200600Y72461378D01*
X27200600Y72170219D01*
X26889781Y71859400D01*
X26450219Y71859400D01*
G37*
G36*
X48040219Y73129400D02*
X47729400Y73440219D01*
X47729400Y73879781D01*
X48040219Y74190600D01*
X48479781Y74190600D01*
X48685663Y73984719D01*
X48710947Y73967969D01*
X48739544Y73962400D01*
X56670456Y73962400D01*
X56700178Y73968434D01*
X56724338Y73984719D01*
X56930219Y74190600D01*
X57369781Y74190600D01*
X57680600Y73879781D01*
X57680600Y73440219D01*
X57369781Y73129400D01*
X56930219Y73129400D01*
X56724338Y73335281D01*
X56699053Y73352031D01*
X56670456Y73357600D01*
X48739544Y73357600D01*
X48709822Y73351566D01*
X48685663Y73335281D01*
X48479781Y73129400D01*
X48040219Y73129400D01*
G37*
G36*
X-219781Y70589400D02*
X-530600Y70900219D01*
X-530600Y71191378D01*
X-536634Y71221100D01*
X-552919Y71245259D01*
X-2642941Y73335281D01*
X-2668225Y73352031D01*
X-2696822Y73357600D01*
X-7313056Y73357600D01*
X-7342778Y73351566D01*
X-7366938Y73335281D01*
X-7572819Y73129400D01*
X-8012381Y73129400D01*
X-8323200Y73440219D01*
X-8323200Y73879781D01*
X-8012381Y74190600D01*
X-7572819Y74190600D01*
X-7366938Y73984719D01*
X-7341653Y73967969D01*
X-7313056Y73962400D01*
X-2414741Y73962400D01*
X-125259Y71672919D01*
X-99975Y71656169D01*
X-71378Y71650600D01*
X219781Y71650600D01*
X530600Y71339781D01*
X530600Y70900219D01*
X219781Y70589400D01*
X-219781Y70589400D01*
G37*
G36*
X-42364888Y71475600D02*
X-42700969Y71614809D01*
X-42958191Y71872031D01*
X-43097400Y72208113D01*
X-43097400Y72571888D01*
X-42958191Y72907969D01*
X-42700969Y73165191D01*
X-42364888Y73304400D01*
X-42001113Y73304400D01*
X-41665031Y73165191D01*
X-41407809Y72907969D01*
X-41268600Y72571888D01*
X-41268600Y72208113D01*
X-41407809Y71872031D01*
X-41665031Y71614809D01*
X-42001113Y71475600D01*
X-42364888Y71475600D01*
G37*
G36*
X-7331781Y71859400D02*
X-7642600Y72170219D01*
X-7642600Y72609781D01*
X-7331781Y72920600D01*
X-6892219Y72920600D01*
X-6686338Y72714719D01*
X-6661053Y72697969D01*
X-6632456Y72692400D01*
X-5559544Y72692400D01*
X-5529822Y72698434D01*
X-5505663Y72714719D01*
X-5299781Y72920600D01*
X-4860219Y72920600D01*
X-4549400Y72609781D01*
X-4549400Y72170219D01*
X-4860219Y71859400D01*
X-5299781Y71859400D01*
X-5505663Y72065281D01*
X-5530947Y72082031D01*
X-5559544Y72087600D01*
X-6632456Y72087600D01*
X-6662178Y72081566D01*
X-6686338Y72065281D01*
X-6892219Y71859400D01*
X-7331781Y71859400D01*
G37*
G36*
X-42364888Y68935600D02*
X-42700969Y69074809D01*
X-42958191Y69332031D01*
X-43097400Y69668113D01*
X-43097400Y70031888D01*
X-42958191Y70367969D01*
X-42700969Y70625191D01*
X-42364888Y70764400D01*
X-42001113Y70764400D01*
X-41665031Y70625191D01*
X-41407809Y70367969D01*
X-41268600Y70031888D01*
X-41268600Y69668113D01*
X-41407809Y69332031D01*
X-41665031Y69074809D01*
X-42001113Y68935600D01*
X-42364888Y68935600D01*
G37*
G36*
X28990219Y66779400D02*
X28679400Y67090219D01*
X28679400Y67529781D01*
X28885281Y67735663D01*
X28902031Y67760947D01*
X28907600Y67789544D01*
X28907600Y68423178D01*
X28901566Y68452900D01*
X28885281Y68477059D01*
X28065259Y69297081D01*
X28039975Y69313831D01*
X28011378Y69319400D01*
X27720219Y69319400D01*
X27409400Y69630219D01*
X27409400Y70069781D01*
X27720219Y70380600D01*
X28159781Y70380600D01*
X28470600Y70069781D01*
X28470600Y69778622D01*
X28476634Y69748900D01*
X28492919Y69724741D01*
X29512400Y68705259D01*
X29512400Y67789544D01*
X29518434Y67759822D01*
X29534719Y67735663D01*
X29740600Y67529781D01*
X29740600Y67090219D01*
X29429781Y66779400D01*
X28990219Y66779400D01*
G37*
G36*
X-42364888Y66395600D02*
X-42700969Y66534809D01*
X-42958191Y66792031D01*
X-43097400Y67128113D01*
X-43097400Y67491888D01*
X-42958191Y67827969D01*
X-42700969Y68085191D01*
X-42364888Y68224400D01*
X-42001113Y68224400D01*
X-41665031Y68085191D01*
X-41407809Y67827969D01*
X-41268600Y67491888D01*
X-41268600Y67128113D01*
X-41407809Y66792031D01*
X-41665031Y66534809D01*
X-42001113Y66395600D01*
X-42364888Y66395600D01*
G37*
G36*
X91220219Y45189400D02*
X90909400Y45500219D01*
X90909400Y45791378D01*
X90903366Y45821100D01*
X90887081Y45845259D01*
X87327600Y49404741D01*
X87327600Y66830456D01*
X87321566Y66860178D01*
X87305281Y66884338D01*
X87099400Y67090219D01*
X87099400Y67529781D01*
X87410219Y67840600D01*
X87849781Y67840600D01*
X88160600Y67529781D01*
X88160600Y67090219D01*
X87954719Y66884338D01*
X87937969Y66859053D01*
X87932400Y66830456D01*
X87932400Y49686822D01*
X87938434Y49657100D01*
X87954719Y49632941D01*
X91314741Y46272919D01*
X91340025Y46256169D01*
X91368622Y46250600D01*
X91659781Y46250600D01*
X91970600Y45939781D01*
X91970600Y45500219D01*
X91659781Y45189400D01*
X91220219Y45189400D01*
G37*
G36*
X88680219Y60429400D02*
X88369400Y60740219D01*
X88369400Y61179781D01*
X88680219Y61490600D01*
X89119781Y61490600D01*
X89325663Y61284719D01*
X89350947Y61267969D01*
X89379544Y61262400D01*
X91603178Y61262400D01*
X91632900Y61268434D01*
X91657059Y61284719D01*
X94298463Y63926122D01*
X94315213Y63951406D01*
X94320772Y63981219D01*
X94314981Y64009163D01*
X94177600Y64340828D01*
X94177600Y64819172D01*
X94360656Y65261106D01*
X94698894Y65599344D01*
X95140828Y65782400D01*
X95619172Y65782400D01*
X96061106Y65599344D01*
X96399344Y65261106D01*
X96582400Y64819172D01*
X96582400Y64340828D01*
X96399344Y63898894D01*
X96061106Y63560656D01*
X95619172Y63377600D01*
X95140828Y63377600D01*
X94809163Y63514981D01*
X94779397Y63520778D01*
X94749725Y63514506D01*
X94726122Y63498463D01*
X91885259Y60657600D01*
X89379544Y60657600D01*
X89349822Y60651566D01*
X89325663Y60635281D01*
X89119781Y60429400D01*
X88680219Y60429400D01*
G37*
G36*
X100640828Y46577600D02*
X100198894Y46760656D01*
X99860656Y47098894D01*
X99677600Y47540828D01*
X99677600Y48019172D01*
X99814981Y48350838D01*
X99820778Y48380603D01*
X99814506Y48410275D01*
X99798463Y48433878D01*
X98757600Y49474741D01*
X98757600Y63137847D01*
X99724481Y64104728D01*
X99741231Y64130013D01*
X99746791Y64159825D01*
X99741000Y64187769D01*
X99677600Y64340828D01*
X99677600Y64819172D01*
X99860656Y65261106D01*
X100198894Y65599344D01*
X100640828Y65782400D01*
X101119172Y65782400D01*
X101561106Y65599344D01*
X101899344Y65261106D01*
X102082400Y64819172D01*
X102082400Y64340828D01*
X101899344Y63898894D01*
X101561106Y63560656D01*
X101119172Y63377600D01*
X100640828Y63377600D01*
X100198897Y63560656D01*
X100171197Y63588356D01*
X100145913Y63605106D01*
X100116100Y63610669D01*
X100086481Y63604163D01*
X100063431Y63588359D01*
X99384719Y62909647D01*
X99367969Y62884363D01*
X99362400Y62855766D01*
X99362400Y49756822D01*
X99368434Y49727100D01*
X99384719Y49702941D01*
X100226122Y48861538D01*
X100251406Y48844788D01*
X100281219Y48839228D01*
X100309163Y48845019D01*
X100640828Y48982400D01*
X101119172Y48982400D01*
X101561106Y48799344D01*
X101899344Y48461106D01*
X102082400Y48019172D01*
X102082400Y47540828D01*
X101899344Y47098894D01*
X101561106Y46760656D01*
X101119172Y46577600D01*
X100640828Y46577600D01*
G37*
G36*
X-42364888Y63855600D02*
X-42700969Y63994809D01*
X-42958191Y64252031D01*
X-43097400Y64588113D01*
X-43097400Y64951888D01*
X-42958191Y65287969D01*
X-42700969Y65545191D01*
X-42364888Y65684400D01*
X-42001113Y65684400D01*
X-41665031Y65545191D01*
X-41407809Y65287969D01*
X-41268600Y64951888D01*
X-41268600Y64588113D01*
X-41407809Y64252031D01*
X-41665031Y63994809D01*
X-42001113Y63855600D01*
X-42364888Y63855600D01*
G37*
G36*
X64550219Y48999400D02*
X64239400Y49310219D01*
X64239400Y49749781D01*
X64445281Y49955663D01*
X64462031Y49980947D01*
X64467600Y50009544D01*
X64467600Y58545259D01*
X64644741Y58722400D01*
X66278178Y58722400D01*
X66307900Y58728434D01*
X66332059Y58744719D01*
X68085281Y60497941D01*
X68102031Y60523225D01*
X68107600Y60551822D01*
X68107600Y61548128D01*
X68196872Y61637400D01*
X68201400Y61637400D01*
X68231122Y61643434D01*
X68256134Y61660584D01*
X68272478Y61686131D01*
X68277600Y61713600D01*
X68277600Y63326850D01*
X68271566Y63356572D01*
X68254416Y63381584D01*
X68228869Y63397928D01*
X68201400Y63403050D01*
X68029922Y63403050D01*
X67940650Y63492322D01*
X67940650Y64417278D01*
X68029922Y64506550D01*
X69130078Y64506550D01*
X69219350Y64417278D01*
X69219350Y63492322D01*
X69130078Y63403050D01*
X68958600Y63403050D01*
X68928878Y63397016D01*
X68903866Y63379866D01*
X68887522Y63354319D01*
X68882400Y63326850D01*
X68882400Y61713600D01*
X68888434Y61683878D01*
X68905584Y61658866D01*
X68931131Y61642522D01*
X68958600Y61637400D01*
X68963128Y61637400D01*
X69052400Y61548128D01*
X69052400Y59581872D01*
X68963128Y59492600D01*
X68196872Y59492600D01*
X68119947Y59569525D01*
X68094663Y59586275D01*
X68064850Y59591834D01*
X68035231Y59585325D01*
X68012184Y59569525D01*
X66560259Y58117600D01*
X65148600Y58117600D01*
X65118878Y58111566D01*
X65093866Y58094416D01*
X65077522Y58068869D01*
X65072400Y58041400D01*
X65072400Y50009544D01*
X65078434Y49979822D01*
X65094719Y49955663D01*
X65300600Y49749781D01*
X65300600Y49310219D01*
X64989781Y48999400D01*
X64550219Y48999400D01*
G37*
G36*
X63280219Y48999400D02*
X62969400Y49310219D01*
X62969400Y49749781D01*
X63175281Y49955663D01*
X63192031Y49980947D01*
X63197600Y50009544D01*
X63197600Y58041400D01*
X63191566Y58071122D01*
X63174416Y58096134D01*
X63148869Y58112478D01*
X63121400Y58117600D01*
X61709741Y58117600D01*
X60257816Y59569525D01*
X60232531Y59586275D01*
X60202719Y59591834D01*
X60173100Y59585325D01*
X60150053Y59569525D01*
X60073128Y59492600D01*
X59306872Y59492600D01*
X59217600Y59581872D01*
X59217600Y61548128D01*
X59306872Y61637400D01*
X59311400Y61637400D01*
X59341122Y61643434D01*
X59366134Y61660584D01*
X59382478Y61686131D01*
X59387600Y61713600D01*
X59387600Y63326850D01*
X59381566Y63356572D01*
X59364416Y63381584D01*
X59338869Y63397928D01*
X59311400Y63403050D01*
X59139922Y63403050D01*
X59050650Y63492322D01*
X59050650Y64417278D01*
X59139922Y64506550D01*
X60240078Y64506550D01*
X60329350Y64417278D01*
X60329350Y63492322D01*
X60240078Y63403050D01*
X60068600Y63403050D01*
X60038878Y63397016D01*
X60013866Y63379866D01*
X59997522Y63354319D01*
X59992400Y63326850D01*
X59992400Y61713600D01*
X59998434Y61683878D01*
X60015584Y61658866D01*
X60041131Y61642522D01*
X60068600Y61637400D01*
X60073128Y61637400D01*
X60162400Y61548128D01*
X60162400Y60551822D01*
X60168434Y60522100D01*
X60184719Y60497941D01*
X61937941Y58744719D01*
X61963225Y58727969D01*
X61991822Y58722400D01*
X63625259Y58722400D01*
X63802400Y58545259D01*
X63802400Y50009544D01*
X63808434Y49979822D01*
X63824719Y49955663D01*
X64030600Y49749781D01*
X64030600Y49310219D01*
X63719781Y48999400D01*
X63280219Y48999400D01*
G37*
G36*
X12480219Y56619400D02*
X12169400Y56930219D01*
X12169400Y57221378D01*
X12163366Y57251100D01*
X12147081Y57275259D01*
X11327059Y58095281D01*
X11301775Y58112031D01*
X11273178Y58117600D01*
X1452222Y58117600D01*
X-302400Y59872222D01*
X-302400Y62475475D01*
X-308434Y62505197D01*
X-324719Y62529356D01*
X-530600Y62735238D01*
X-530600Y63174800D01*
X-502266Y63203134D01*
X-485516Y63228419D01*
X-479956Y63258231D01*
X-486466Y63287850D01*
X-504009Y63312588D01*
X-529816Y63328522D01*
X-556147Y63333216D01*
X-8597563Y63333216D01*
X-8627284Y63327181D01*
X-8651444Y63310897D01*
X-9607081Y62355259D01*
X-9623831Y62329975D01*
X-9629400Y62301378D01*
X-9629400Y62010219D01*
X-9940219Y61699400D01*
X-10379781Y61699400D01*
X-10690600Y62010219D01*
X-10690600Y62449781D01*
X-10379781Y62760600D01*
X-10088622Y62760600D01*
X-10058900Y62766634D01*
X-10034741Y62782919D01*
X-8879644Y63938016D01*
X23730456Y63938016D01*
X23760178Y63944050D01*
X23784338Y63960334D01*
X23990219Y64166216D01*
X24429781Y64166216D01*
X24740600Y63855397D01*
X24740600Y63415834D01*
X24429781Y63105016D01*
X23990219Y63105016D01*
X23784338Y63310897D01*
X23759053Y63327647D01*
X23730456Y63333216D01*
X556147Y63333216D01*
X526425Y63327181D01*
X501413Y63310031D01*
X485069Y63284484D01*
X479984Y63254588D01*
X486966Y63225072D01*
X502266Y63203134D01*
X530600Y63174800D01*
X530600Y62735238D01*
X324719Y62529356D01*
X307969Y62504072D01*
X302400Y62475475D01*
X302400Y60154303D01*
X308434Y60124581D01*
X324719Y60100422D01*
X609319Y59815822D01*
X634603Y59799072D01*
X664416Y59793513D01*
X694034Y59800022D01*
X718772Y59817566D01*
X734706Y59843372D01*
X739400Y59869703D01*
X739400Y59909781D01*
X1050219Y60220600D01*
X1489781Y60220600D01*
X1695663Y60014719D01*
X1720947Y59997969D01*
X1749544Y59992400D01*
X21715259Y59992400D01*
X22734741Y58972919D01*
X22760025Y58956169D01*
X22788622Y58950600D01*
X23079781Y58950600D01*
X23390600Y58639781D01*
X23390600Y58200219D01*
X23079781Y57889400D01*
X22640219Y57889400D01*
X22329400Y58200219D01*
X22329400Y58491378D01*
X22323366Y58521100D01*
X22307081Y58545259D01*
X21487059Y59365281D01*
X21461775Y59382031D01*
X21433178Y59387600D01*
X1749544Y59387600D01*
X1719822Y59381566D01*
X1695663Y59365281D01*
X1489781Y59159400D01*
X1449703Y59159400D01*
X1419981Y59153366D01*
X1394969Y59136216D01*
X1378625Y59110669D01*
X1373541Y59080772D01*
X1380522Y59051256D01*
X1395822Y59029319D01*
X1680422Y58744719D01*
X1705706Y58727969D01*
X1734303Y58722400D01*
X11555259Y58722400D01*
X12574741Y57702919D01*
X12600025Y57686169D01*
X12628622Y57680600D01*
X12919781Y57680600D01*
X13230600Y57369781D01*
X13230600Y56930219D01*
X12919781Y56619400D01*
X12480219Y56619400D01*
G37*
G36*
X9940219Y61699400D02*
X9629400Y62010219D01*
X9629400Y62449781D01*
X9940219Y62760600D01*
X10379781Y62760600D01*
X10585663Y62554719D01*
X10610947Y62537969D01*
X10639544Y62532400D01*
X17300456Y62532400D01*
X17330178Y62538434D01*
X17354338Y62554719D01*
X17560219Y62760600D01*
X17999781Y62760600D01*
X18310600Y62449781D01*
X18310600Y62010219D01*
X17999781Y61699400D01*
X17560219Y61699400D01*
X17354338Y61905281D01*
X17329053Y61922031D01*
X17300456Y61927600D01*
X10639544Y61927600D01*
X10609822Y61921566D01*
X10585663Y61905281D01*
X10379781Y61699400D01*
X9940219Y61699400D01*
G37*
G36*
X95140828Y59177600D02*
X94698894Y59360656D01*
X94360656Y59698894D01*
X94177600Y60140828D01*
X94177600Y60619172D01*
X94360656Y61061106D01*
X94698894Y61399344D01*
X95140828Y61582400D01*
X95619172Y61582400D01*
X96061106Y61399344D01*
X96399344Y61061106D01*
X96582400Y60619172D01*
X96582400Y60140828D01*
X96399344Y59698894D01*
X96061106Y59360656D01*
X95619172Y59177600D01*
X95140828Y59177600D01*
G37*
G36*
X42960219Y56619400D02*
X42649400Y56930219D01*
X42649400Y57369781D01*
X42960219Y57680600D01*
X43251378Y57680600D01*
X43281100Y57686634D01*
X43305259Y57702919D01*
X44125281Y58522941D01*
X44142031Y58548225D01*
X44147600Y58576822D01*
X44147600Y60480456D01*
X44141566Y60510178D01*
X44125281Y60534338D01*
X43919400Y60740219D01*
X43919400Y61179781D01*
X44230219Y61490600D01*
X44669781Y61490600D01*
X44980600Y61179781D01*
X44980600Y60740219D01*
X44774719Y60534338D01*
X44757969Y60509053D01*
X44752400Y60480456D01*
X44752400Y58294741D01*
X43732919Y57275259D01*
X43716169Y57249975D01*
X43710600Y57221378D01*
X43710600Y56930219D01*
X43399781Y56619400D01*
X42960219Y56619400D01*
G37*
G36*
X-1489781Y56619400D02*
X-1800600Y56930219D01*
X-1800600Y57369781D01*
X-1594719Y57575663D01*
X-1577969Y57600947D01*
X-1572400Y57629544D01*
X-1572400Y59210456D01*
X-1578434Y59240178D01*
X-1594719Y59264338D01*
X-1800600Y59470219D01*
X-1800600Y59909781D01*
X-1489781Y60220600D01*
X-1050219Y60220600D01*
X-739400Y59909781D01*
X-739400Y59470219D01*
X-945281Y59264338D01*
X-962031Y59239053D01*
X-967600Y59210456D01*
X-967600Y57629544D01*
X-961566Y57599822D01*
X-945281Y57575663D01*
X-739400Y57369781D01*
X-739400Y56930219D01*
X-1050219Y56619400D01*
X-1489781Y56619400D01*
G37*
G36*
X-5299781Y56619400D02*
X-5610600Y56930219D01*
X-5610600Y57369781D01*
X-5404719Y57575663D01*
X-5387969Y57600947D01*
X-5382400Y57629544D01*
X-5382400Y58263178D01*
X-5388434Y58292900D01*
X-5404719Y58317059D01*
X-6224741Y59137081D01*
X-6250025Y59153831D01*
X-6278622Y59159400D01*
X-6569781Y59159400D01*
X-6880600Y59470219D01*
X-6880600Y59909781D01*
X-6569781Y60220600D01*
X-6130219Y60220600D01*
X-5819400Y59909781D01*
X-5819400Y59618622D01*
X-5813366Y59588900D01*
X-5797081Y59564741D01*
X-4777600Y58545259D01*
X-4777600Y57629544D01*
X-4771566Y57599822D01*
X-4755281Y57575663D01*
X-4549400Y57369781D01*
X-4549400Y56930219D01*
X-4860219Y56619400D01*
X-5299781Y56619400D01*
G37*
G36*
X25180219Y56619400D02*
X24869400Y56930219D01*
X24869400Y57369781D01*
X25180219Y57680600D01*
X25471378Y57680600D01*
X25501100Y57686634D01*
X25525259Y57702919D01*
X27814741Y59992400D01*
X35080456Y59992400D01*
X35110178Y59998434D01*
X35134338Y60014719D01*
X35340219Y60220600D01*
X35779781Y60220600D01*
X36090600Y59909781D01*
X36090600Y59470219D01*
X35779781Y59159400D01*
X35340219Y59159400D01*
X35134338Y59365281D01*
X35109053Y59382031D01*
X35080456Y59387600D01*
X28096822Y59387600D01*
X28067100Y59381566D01*
X28042941Y59365281D01*
X25952919Y57275259D01*
X25936169Y57249975D01*
X25930600Y57221378D01*
X25930600Y56930219D01*
X25619781Y56619400D01*
X25180219Y56619400D01*
G37*
G36*
X30260219Y57889400D02*
X29949400Y58200219D01*
X29949400Y58639781D01*
X30260219Y58950600D01*
X30699781Y58950600D01*
X30905663Y58744719D01*
X30930947Y58727969D01*
X30959544Y58722400D01*
X38890456Y58722400D01*
X38920178Y58728434D01*
X38944338Y58744719D01*
X39150219Y58950600D01*
X39589781Y58950600D01*
X39900600Y58639781D01*
X39900600Y58200219D01*
X39589781Y57889400D01*
X39150219Y57889400D01*
X38944338Y58095281D01*
X38919053Y58112031D01*
X38890456Y58117600D01*
X30959544Y58117600D01*
X30929822Y58111566D01*
X30905663Y58095281D01*
X30699781Y57889400D01*
X30260219Y57889400D01*
G37*
G36*
X48040219Y57889400D02*
X47729400Y58200219D01*
X47729400Y58639781D01*
X48040219Y58950600D01*
X48479781Y58950600D01*
X48685663Y58744719D01*
X48710947Y58727969D01*
X48739544Y58722400D01*
X51590456Y58722400D01*
X51620178Y58728434D01*
X51644338Y58744719D01*
X51850219Y58950600D01*
X52289781Y58950600D01*
X52600600Y58639781D01*
X52600600Y58200219D01*
X52289781Y57889400D01*
X51850219Y57889400D01*
X51644338Y58095281D01*
X51619053Y58112031D01*
X51590456Y58117600D01*
X48739544Y58117600D01*
X48709822Y58111566D01*
X48685663Y58095281D01*
X48479781Y57889400D01*
X48040219Y57889400D01*
G37*
G36*
X73440219Y57889400D02*
X73129400Y58200219D01*
X73129400Y58639781D01*
X73440219Y58950600D01*
X73879781Y58950600D01*
X74190600Y58639781D01*
X74190600Y58200219D01*
X73879781Y57889400D01*
X73440219Y57889400D01*
G37*
G36*
X-42364888Y56235600D02*
X-42700969Y56374809D01*
X-42958191Y56632031D01*
X-43097400Y56968113D01*
X-43097400Y57331888D01*
X-42958191Y57667969D01*
X-42700969Y57925191D01*
X-42364888Y58064400D01*
X-42001113Y58064400D01*
X-41665031Y57925191D01*
X-41407809Y57667969D01*
X-41268600Y57331888D01*
X-41268600Y56968113D01*
X-41407809Y56632031D01*
X-41665031Y56374809D01*
X-42001113Y56235600D01*
X-42364888Y56235600D01*
G37*
G36*
X4860819Y54079400D02*
X4550000Y54390219D01*
X4550000Y54829781D01*
X4860819Y55140600D01*
X5151378Y55140600D01*
X5181100Y55146634D01*
X5205259Y55162919D01*
X7067081Y57024741D01*
X7083831Y57050025D01*
X7089400Y57078622D01*
X7089400Y57369781D01*
X7400219Y57680600D01*
X7839781Y57680600D01*
X8150600Y57369781D01*
X8150600Y56930219D01*
X7839781Y56619400D01*
X7548622Y56619400D01*
X7518900Y56613366D01*
X7494741Y56597081D01*
X5633519Y54735859D01*
X5616769Y54710575D01*
X5611200Y54681978D01*
X5611200Y54390219D01*
X5300381Y54079400D01*
X4860819Y54079400D01*
G37*
G36*
X1050219Y47729400D02*
X739400Y48040219D01*
X739400Y48479781D01*
X1050219Y48790600D01*
X1489781Y48790600D01*
X1695663Y48584719D01*
X1720947Y48567969D01*
X1749544Y48562400D01*
X10003178Y48562400D01*
X10032900Y48568434D01*
X10057059Y48584719D01*
X18497081Y57024741D01*
X18513831Y57050025D01*
X18519400Y57078622D01*
X18519400Y57369781D01*
X18830219Y57680600D01*
X19269781Y57680600D01*
X19580600Y57369781D01*
X19580600Y56930219D01*
X19269781Y56619400D01*
X18978622Y56619400D01*
X18948900Y56613366D01*
X18924741Y56597081D01*
X10285259Y47957600D01*
X1749544Y47957600D01*
X1719822Y47951566D01*
X1695663Y47935281D01*
X1489781Y47729400D01*
X1050219Y47729400D01*
G37*
G36*
X100640828Y54977600D02*
X100198894Y55160656D01*
X99860656Y55498894D01*
X99677600Y55940828D01*
X99677600Y56419172D01*
X99860656Y56861106D01*
X100198894Y57199344D01*
X100640828Y57382400D01*
X101119172Y57382400D01*
X101561106Y57199344D01*
X101899344Y56861106D01*
X102082400Y56419172D01*
X102082400Y55940828D01*
X101899344Y55498894D01*
X101561106Y55160656D01*
X101119172Y54977600D01*
X100640828Y54977600D01*
G37*
G36*
X-42364888Y53695600D02*
X-42700969Y53834809D01*
X-42958191Y54092031D01*
X-43097400Y54428113D01*
X-43097400Y54791888D01*
X-42958191Y55127969D01*
X-42700969Y55385191D01*
X-42364888Y55524400D01*
X-42001113Y55524400D01*
X-41665031Y55385191D01*
X-41407809Y55127969D01*
X-41268600Y54791888D01*
X-41268600Y54428113D01*
X-41407809Y54092031D01*
X-41665031Y53834809D01*
X-42001113Y53695600D01*
X-42364888Y53695600D01*
G37*
G36*
X100640828Y50777600D02*
X100198894Y50960656D01*
X99860656Y51298894D01*
X99677600Y51740828D01*
X99677600Y52219172D01*
X99860656Y52661106D01*
X100198894Y52999344D01*
X100640828Y53182400D01*
X101119172Y53182400D01*
X101561106Y52999344D01*
X101899344Y52661106D01*
X102082400Y52219172D01*
X102082400Y51740828D01*
X101899344Y51298894D01*
X101561106Y50960656D01*
X101119172Y50777600D01*
X100640828Y50777600D01*
G37*
G36*
X-42364888Y51155600D02*
X-42700969Y51294809D01*
X-42958191Y51552031D01*
X-43097400Y51888113D01*
X-43097400Y52251888D01*
X-42958191Y52587969D01*
X-42700969Y52845191D01*
X-42364888Y52984400D01*
X-42001113Y52984400D01*
X-41665031Y52845191D01*
X-41407809Y52587969D01*
X-41268600Y52251888D01*
X-41268600Y51888113D01*
X-41407809Y51552031D01*
X-41665031Y51294809D01*
X-42001113Y51155600D01*
X-42364888Y51155600D01*
G37*
G36*
X71112322Y45080650D02*
X71023050Y45169922D01*
X71023050Y45812528D01*
X71017016Y45842250D01*
X71000731Y45866409D01*
X66637716Y50229425D01*
X66612431Y50246175D01*
X66582619Y50251734D01*
X66553000Y50245225D01*
X66529953Y50229425D01*
X66423128Y50122600D01*
X65656872Y50122600D01*
X65567600Y50211872D01*
X65567600Y52178128D01*
X65656872Y52267400D01*
X66423128Y52267400D01*
X66512400Y52178128D01*
X66512400Y51241622D01*
X66518434Y51211900D01*
X66534719Y51187741D01*
X71340791Y46381669D01*
X71366075Y46364919D01*
X71394672Y46359350D01*
X72037278Y46359350D01*
X72126550Y46270078D01*
X72126550Y45169922D01*
X72037278Y45080650D01*
X71112322Y45080650D01*
G37*
G36*
X53332322Y46350650D02*
X53243050Y46439922D01*
X53243050Y47540078D01*
X53332322Y47629350D01*
X53974928Y47629350D01*
X54004650Y47635384D01*
X54028809Y47651669D01*
X56655281Y50278141D01*
X56672031Y50303425D01*
X56677600Y50332022D01*
X56677600Y52178128D01*
X56766872Y52267400D01*
X57533128Y52267400D01*
X57622400Y52178128D01*
X57622400Y50211872D01*
X57533128Y50122600D01*
X57386622Y50122600D01*
X57356900Y50116566D01*
X57332741Y50100281D01*
X54991891Y47759431D01*
X54975141Y47734147D01*
X54969581Y47704334D01*
X54976091Y47674716D01*
X54993634Y47649978D01*
X55019441Y47634044D01*
X55045772Y47629350D01*
X55887678Y47629350D01*
X55976950Y47540078D01*
X55976950Y47368600D01*
X55982984Y47338878D01*
X56000134Y47313866D01*
X56025681Y47297522D01*
X56053150Y47292400D01*
X58246850Y47292400D01*
X58276572Y47298434D01*
X58301584Y47315584D01*
X58317928Y47341131D01*
X58323050Y47368600D01*
X58323050Y47540078D01*
X58412322Y47629350D01*
X59337278Y47629350D01*
X59426550Y47540078D01*
X59426550Y46439922D01*
X59337278Y46350650D01*
X58412322Y46350650D01*
X58323050Y46439922D01*
X58323050Y46611400D01*
X58317016Y46641122D01*
X58299866Y46666134D01*
X58274319Y46682478D01*
X58246850Y46687600D01*
X56053150Y46687600D01*
X56023428Y46681566D01*
X55998416Y46664416D01*
X55982072Y46638869D01*
X55976950Y46611400D01*
X55976950Y46439922D01*
X55887678Y46350650D01*
X54962722Y46350650D01*
X54873450Y46439922D01*
X54873450Y47457028D01*
X54867416Y47486750D01*
X54850266Y47511763D01*
X54824719Y47528106D01*
X54794822Y47533191D01*
X54765306Y47526209D01*
X54743369Y47510909D01*
X54368869Y47136409D01*
X54352119Y47111125D01*
X54346550Y47082528D01*
X54346550Y46439922D01*
X54257278Y46350650D01*
X53332322Y46350650D01*
G37*
G36*
X-42364888Y48615600D02*
X-42700969Y48754809D01*
X-42958191Y49012031D01*
X-43097400Y49348113D01*
X-43097400Y49711888D01*
X-42958191Y50047969D01*
X-42700969Y50305191D01*
X-42364888Y50444400D01*
X-42001113Y50444400D01*
X-41665031Y50305191D01*
X-41407809Y50047969D01*
X-41268600Y49711888D01*
X-41268600Y49348113D01*
X-41407809Y49012031D01*
X-41665031Y48754809D01*
X-42001113Y48615600D01*
X-42364888Y48615600D01*
G37*
G36*
X-42364888Y46075600D02*
X-42700969Y46214809D01*
X-42958191Y46472031D01*
X-43097400Y46808113D01*
X-43097400Y47171888D01*
X-42958191Y47507969D01*
X-42700969Y47765191D01*
X-42364888Y47904400D01*
X-42001113Y47904400D01*
X-41665031Y47765191D01*
X-41407809Y47507969D01*
X-41268600Y47171888D01*
X-41268600Y46808113D01*
X-41407809Y46472031D01*
X-41665031Y46214809D01*
X-42001113Y46075600D01*
X-42364888Y46075600D01*
G37*
G36*
X60042722Y46350650D02*
X59953450Y46439922D01*
X59953450Y47540078D01*
X60042722Y47629350D01*
X60967678Y47629350D01*
X61056950Y47540078D01*
X61056950Y47368600D01*
X61062984Y47338878D01*
X61080134Y47313866D01*
X61105681Y47297522D01*
X61133150Y47292400D01*
X63326850Y47292400D01*
X63356572Y47298434D01*
X63381584Y47315584D01*
X63397928Y47341131D01*
X63403050Y47368600D01*
X63403050Y47540078D01*
X63492322Y47629350D01*
X64417278Y47629350D01*
X64506550Y47540078D01*
X64506550Y46439922D01*
X64417278Y46350650D01*
X63492322Y46350650D01*
X63403050Y46439922D01*
X63403050Y46611400D01*
X63397016Y46641122D01*
X63379866Y46666134D01*
X63354319Y46682478D01*
X63326850Y46687600D01*
X61133150Y46687600D01*
X61103428Y46681566D01*
X61078416Y46664416D01*
X61062072Y46638869D01*
X61056950Y46611400D01*
X61056950Y46439922D01*
X60967678Y46350650D01*
X60042722Y46350650D01*
G37*
G36*
X79092722Y45080650D02*
X79003450Y45169922D01*
X79003450Y46270078D01*
X79092722Y46359350D01*
X80017678Y46359350D01*
X80106950Y46270078D01*
X80106950Y46098600D01*
X80112984Y46068878D01*
X80130134Y46043866D01*
X80155681Y46027522D01*
X80183150Y46022400D01*
X83646850Y46022400D01*
X83676572Y46028434D01*
X83701584Y46045584D01*
X83717928Y46071131D01*
X83723050Y46098600D01*
X83723050Y46270078D01*
X83812322Y46359350D01*
X84737278Y46359350D01*
X84826550Y46270078D01*
X84826550Y45169922D01*
X84737278Y45080650D01*
X83812322Y45080650D01*
X83723050Y45169922D01*
X83723050Y45341400D01*
X83717016Y45371122D01*
X83699866Y45396134D01*
X83674319Y45412478D01*
X83646850Y45417600D01*
X80183150Y45417600D01*
X80153428Y45411566D01*
X80128416Y45394416D01*
X80112072Y45368869D01*
X80106950Y45341400D01*
X80106950Y45169922D01*
X80017678Y45080650D01*
X79092722Y45080650D01*
G37*
G36*
X72742722Y45080650D02*
X72653450Y45169922D01*
X72653450Y46270078D01*
X72742722Y46359350D01*
X73667678Y46359350D01*
X73756950Y46270078D01*
X73756950Y46098600D01*
X73762984Y46068878D01*
X73780134Y46043866D01*
X73805681Y46027522D01*
X73833150Y46022400D01*
X77296850Y46022400D01*
X77326572Y46028434D01*
X77351584Y46045584D01*
X77367928Y46071131D01*
X77373050Y46098600D01*
X77373050Y46270078D01*
X77462322Y46359350D01*
X78387278Y46359350D01*
X78476550Y46270078D01*
X78476550Y45169922D01*
X78387278Y45080650D01*
X77462322Y45080650D01*
X77373050Y45169922D01*
X77373050Y45341400D01*
X77367016Y45371122D01*
X77349866Y45396134D01*
X77324319Y45412478D01*
X77296850Y45417600D01*
X73833150Y45417600D01*
X73803428Y45411566D01*
X73778416Y45394416D01*
X73762072Y45368869D01*
X73756950Y45341400D01*
X73756950Y45169922D01*
X73667678Y45080650D01*
X72742722Y45080650D01*
G37*
G36*
X-42364888Y43535600D02*
X-42700969Y43674809D01*
X-42958191Y43932031D01*
X-43097400Y44268113D01*
X-43097400Y44631888D01*
X-42958191Y44967969D01*
X-42700969Y45225191D01*
X-42364888Y45364400D01*
X-42001113Y45364400D01*
X-41665031Y45225191D01*
X-41407809Y44967969D01*
X-41268600Y44631888D01*
X-41268600Y44268113D01*
X-41407809Y43932031D01*
X-41665031Y43674809D01*
X-42001113Y43535600D01*
X-42364888Y43535600D01*
G37*
G36*
X49310219Y26139400D02*
X49104338Y26345281D01*
X49079053Y26362031D01*
X49050456Y26367600D01*
X7494741Y26367600D01*
X3507600Y30354741D01*
X3507600Y36350456D01*
X3501566Y36380178D01*
X3485281Y36404338D01*
X3279400Y36610219D01*
X3279400Y37049781D01*
X3590219Y37360600D01*
X4029781Y37360600D01*
X4340600Y37049781D01*
X4340600Y36610219D01*
X4134719Y36404338D01*
X4117969Y36379053D01*
X4112400Y36350456D01*
X4112400Y30636822D01*
X4118434Y30607100D01*
X4134719Y30582941D01*
X7722941Y26994719D01*
X7748225Y26977969D01*
X7776822Y26972400D01*
X49050456Y26972400D01*
X49080178Y26978434D01*
X49104338Y26994719D01*
X49205281Y27095663D01*
X49222031Y27120947D01*
X49227600Y27149544D01*
X49227600Y42035259D01*
X51517081Y44324741D01*
X51533831Y44350025D01*
X51539400Y44378622D01*
X51539400Y44669781D01*
X51850219Y44980600D01*
X52289781Y44980600D01*
X52600600Y44669781D01*
X52600600Y44230219D01*
X52289781Y43919400D01*
X51998622Y43919400D01*
X51968900Y43913366D01*
X51944741Y43897081D01*
X49854719Y41807059D01*
X49837969Y41781775D01*
X49832400Y41753178D01*
X49832400Y27149544D01*
X49838434Y27119822D01*
X49854719Y27095663D01*
X50060600Y26889781D01*
X50060600Y26450219D01*
X49749781Y26139400D01*
X49310219Y26139400D01*
G37*
G36*
X94266872Y42377600D02*
X94177600Y42466872D01*
X94177600Y44693128D01*
X94266872Y44782400D01*
X96493128Y44782400D01*
X96582400Y44693128D01*
X96582400Y42466872D01*
X96493128Y42377600D01*
X94266872Y42377600D01*
G37*
G36*
X37880219Y39659200D02*
X37569400Y39970019D01*
X37569400Y40261178D01*
X37563366Y40290900D01*
X37547081Y40315059D01*
X37124294Y40737847D01*
X37099009Y40754597D01*
X37070413Y40760166D01*
X1289744Y40760166D01*
X1260022Y40754131D01*
X1235863Y40737847D01*
X1029981Y40531966D01*
X590419Y40531966D01*
X279600Y40842784D01*
X279600Y41282347D01*
X590419Y41593166D01*
X1029981Y41593166D01*
X1235863Y41387284D01*
X1261147Y41370534D01*
X1289744Y41364966D01*
X13580691Y41364966D01*
X13610413Y41371000D01*
X13635425Y41388150D01*
X13651769Y41413697D01*
X13656853Y41443594D01*
X13649872Y41473109D01*
X13634572Y41495047D01*
X13439400Y41690219D01*
X13439400Y42129781D01*
X13750219Y42440600D01*
X14189781Y42440600D01*
X14395663Y42234719D01*
X14420947Y42217969D01*
X14449544Y42212400D01*
X16353178Y42212400D01*
X16382900Y42218434D01*
X16407059Y42234719D01*
X17227081Y43054741D01*
X17243831Y43080025D01*
X17249400Y43108622D01*
X17249400Y43399781D01*
X17560219Y43710600D01*
X17999781Y43710600D01*
X18310600Y43399781D01*
X18310600Y42960219D01*
X17999781Y42649400D01*
X17708622Y42649400D01*
X17678900Y42643366D01*
X17654741Y42627081D01*
X16635259Y41607600D01*
X14449544Y41607600D01*
X14419822Y41601566D01*
X14395663Y41585281D01*
X14305428Y41495047D01*
X14288678Y41469763D01*
X14283119Y41439950D01*
X14289628Y41410331D01*
X14307172Y41385594D01*
X14332978Y41369659D01*
X14359309Y41364966D01*
X37352494Y41364966D01*
X37974741Y40742719D01*
X38000025Y40725969D01*
X38028622Y40720400D01*
X38319781Y40720400D01*
X38630600Y40409581D01*
X38630600Y39970019D01*
X38319781Y39659200D01*
X37880219Y39659200D01*
G37*
G36*
X-43201981Y38709600D02*
X-43911484Y39003488D01*
X-44454513Y39546516D01*
X-44748400Y40256019D01*
X-44748400Y41023981D01*
X-44454513Y41733484D01*
X-43911484Y42276513D01*
X-43201981Y42570400D01*
X-42434019Y42570400D01*
X-41724516Y42276513D01*
X-41181488Y41733484D01*
X-40887600Y41023981D01*
X-40887600Y40256019D01*
X-41181488Y39546516D01*
X-41724516Y39003488D01*
X-42434019Y38709600D01*
X-43201981Y38709600D01*
G37*
G36*
X-78761981Y38709600D02*
X-79471484Y39003488D01*
X-80014513Y39546516D01*
X-80308400Y40256019D01*
X-80308400Y41023981D01*
X-80014513Y41733484D01*
X-79471484Y42276513D01*
X-78761981Y42570400D01*
X-77994019Y42570400D01*
X-77284516Y42276513D01*
X-76741488Y41733484D01*
X-76447600Y41023981D01*
X-76447600Y40256019D01*
X-76741488Y39546516D01*
X-77284516Y39003488D01*
X-77994019Y38709600D01*
X-78761981Y38709600D01*
G37*
G36*
X102650219Y36299400D02*
X102339400Y36610219D01*
X102339400Y37049781D01*
X102545281Y37255663D01*
X102562031Y37280947D01*
X102567600Y37309544D01*
X102567600Y38890456D01*
X102561566Y38920178D01*
X102545281Y38944338D01*
X102339400Y39150219D01*
X102339400Y39589781D01*
X102650219Y39900600D01*
X103089781Y39900600D01*
X103400600Y39589781D01*
X103400600Y39150219D01*
X103194719Y38944338D01*
X103177969Y38919053D01*
X103172400Y38890456D01*
X103172400Y37309544D01*
X103178434Y37279822D01*
X103194719Y37255663D01*
X103400600Y37049781D01*
X103400600Y36610219D01*
X103089781Y36299400D01*
X102650219Y36299400D01*
G37*
G36*
X1050219Y37569400D02*
X739400Y37880219D01*
X739400Y38319781D01*
X1050219Y38630600D01*
X1489781Y38630600D01*
X1695663Y38424719D01*
X1720947Y38407969D01*
X1749544Y38402400D01*
X34133178Y38402400D01*
X34162900Y38408434D01*
X34187059Y38424719D01*
X35007081Y39244741D01*
X35023831Y39270025D01*
X35029400Y39298622D01*
X35029400Y39589781D01*
X35340219Y39900600D01*
X35779781Y39900600D01*
X36090600Y39589781D01*
X36090600Y39150219D01*
X35779781Y38839400D01*
X35488622Y38839400D01*
X35458900Y38833366D01*
X35434741Y38817081D01*
X34415259Y37797600D01*
X1749544Y37797600D01*
X1719822Y37791566D01*
X1695663Y37775281D01*
X1489781Y37569400D01*
X1050219Y37569400D01*
G37*
G36*
X11954156Y30475463D02*
X11643338Y30786281D01*
X11643338Y31225844D01*
X11954156Y31536663D01*
X12245316Y31536663D01*
X12275038Y31542697D01*
X12299197Y31558981D01*
X16602616Y35862400D01*
X21433178Y35862400D01*
X21462900Y35868434D01*
X21487059Y35884719D01*
X21771659Y36169319D01*
X21788409Y36194603D01*
X21793969Y36224416D01*
X21787459Y36254034D01*
X21769916Y36278772D01*
X21744109Y36294706D01*
X21717778Y36299400D01*
X21370219Y36299400D01*
X21164338Y36505281D01*
X21139053Y36522031D01*
X21110456Y36527600D01*
X19529544Y36527600D01*
X19499822Y36521566D01*
X19475663Y36505281D01*
X19269781Y36299400D01*
X18830219Y36299400D01*
X18519400Y36610219D01*
X18519400Y37049781D01*
X18830219Y37360600D01*
X19269781Y37360600D01*
X19475663Y37154719D01*
X19500947Y37137969D01*
X19529544Y37132400D01*
X21110456Y37132400D01*
X21140178Y37138434D01*
X21164338Y37154719D01*
X21370219Y37360600D01*
X21809781Y37360600D01*
X22120600Y37049781D01*
X22120600Y36702222D01*
X22126634Y36672500D01*
X22143784Y36647488D01*
X22169331Y36631144D01*
X22199228Y36626059D01*
X22228744Y36633041D01*
X22250681Y36648341D01*
X22734741Y37132400D01*
X44357372Y37132400D01*
X46022400Y35467372D01*
X46022400Y34769544D01*
X46028434Y34739822D01*
X46044719Y34715663D01*
X46250600Y34509781D01*
X46250600Y34070219D01*
X45939781Y33759400D01*
X45500219Y33759400D01*
X45189400Y34070219D01*
X45189400Y34509781D01*
X45395281Y34715663D01*
X45412031Y34740947D01*
X45417600Y34769544D01*
X45417600Y35185291D01*
X45411566Y35215013D01*
X45395281Y35239172D01*
X44129172Y36505281D01*
X44103888Y36522031D01*
X44075291Y36527600D01*
X23016822Y36527600D01*
X22987100Y36521566D01*
X22962941Y36505281D01*
X21715259Y35257600D01*
X16884697Y35257600D01*
X16854975Y35251566D01*
X16830816Y35235281D01*
X12726856Y31131322D01*
X12710106Y31106038D01*
X12704538Y31077441D01*
X12704538Y30786281D01*
X12393719Y30475463D01*
X11954156Y30475463D01*
G37*
G36*
X12852188Y29577431D02*
X12541369Y29888250D01*
X12541369Y30327813D01*
X12852188Y30638631D01*
X13143347Y30638631D01*
X13173069Y30644666D01*
X13197228Y30660950D01*
X17128678Y34592400D01*
X21433178Y34592400D01*
X21462900Y34598434D01*
X21487059Y34614719D01*
X22734741Y35862400D01*
X43831316Y35862400D01*
X44752400Y34941316D01*
X44752400Y34769544D01*
X44758434Y34739822D01*
X44774719Y34715663D01*
X44980600Y34509781D01*
X44980600Y34070219D01*
X44669781Y33759400D01*
X44230219Y33759400D01*
X43919400Y34070219D01*
X43919400Y34509781D01*
X44070128Y34660509D01*
X44086878Y34685794D01*
X44092438Y34715606D01*
X44085928Y34745225D01*
X44070128Y34768272D01*
X43603116Y35235281D01*
X43577831Y35252031D01*
X43549234Y35257600D01*
X23016822Y35257600D01*
X22987100Y35251566D01*
X22962941Y35235281D01*
X21715259Y33987600D01*
X17410759Y33987600D01*
X17381038Y33981566D01*
X17356878Y33965281D01*
X13624888Y30233291D01*
X13608138Y30208006D01*
X13602569Y30179409D01*
X13602569Y29888250D01*
X13291750Y29577431D01*
X12852188Y29577431D01*
G37*
G36*
X102400488Y30659600D02*
X101532941Y31018950D01*
X100868950Y31682941D01*
X100509600Y32550488D01*
X100509600Y33489513D01*
X100868950Y34357059D01*
X101532941Y35021050D01*
X102400488Y35380400D01*
X103339513Y35380400D01*
X104207059Y35021050D01*
X104871050Y34357059D01*
X105230400Y33489513D01*
X105230400Y32550488D01*
X104871050Y31682941D01*
X104207059Y31018950D01*
X103339513Y30659600D01*
X102400488Y30659600D01*
G37*
G36*
X57950488Y30659600D02*
X57082941Y31018950D01*
X56418950Y31682941D01*
X56059600Y32550488D01*
X56059600Y33489513D01*
X56418950Y34357059D01*
X57082941Y35021050D01*
X57950488Y35380400D01*
X58889513Y35380400D01*
X59757059Y35021050D01*
X60421050Y34357059D01*
X60780400Y33489513D01*
X60780400Y32550488D01*
X60421050Y31682941D01*
X59757059Y31018950D01*
X58889513Y30659600D01*
X57950488Y30659600D01*
G37*
G36*
X7150488Y30659600D02*
X6282941Y31018950D01*
X5618950Y31682941D01*
X5259600Y32550488D01*
X5259600Y33489513D01*
X5618950Y34357059D01*
X6282941Y35021050D01*
X7150488Y35380400D01*
X8089513Y35380400D01*
X8957059Y35021050D01*
X9621050Y34357059D01*
X9980400Y33489513D01*
X9980400Y32550488D01*
X9621050Y31682941D01*
X8957059Y31018950D01*
X8089513Y30659600D01*
X7150488Y30659600D01*
G37*
G36*
X-79209513Y30659600D02*
X-80077059Y31018950D01*
X-80741050Y31682941D01*
X-81100400Y32550488D01*
X-81100400Y33489513D01*
X-80741050Y34357059D01*
X-80077059Y35021050D01*
X-79209513Y35380400D01*
X-78270488Y35380400D01*
X-77402941Y35021050D01*
X-76738950Y34357059D01*
X-76379600Y33489513D01*
X-76379600Y32550488D01*
X-76738950Y31682941D01*
X-77402941Y31018950D01*
X-78270488Y30659600D01*
X-79209513Y30659600D01*
G37*
G36*
X13750219Y28679400D02*
X13439400Y28990219D01*
X13439400Y29429781D01*
X13750219Y29740600D01*
X14041378Y29740600D01*
X14071100Y29746634D01*
X14095259Y29762919D01*
X17654741Y33322400D01*
X21433178Y33322400D01*
X21462900Y33328434D01*
X21487059Y33344719D01*
X22734741Y34592400D01*
X42700456Y34592400D01*
X42730178Y34598434D01*
X42754338Y34614719D01*
X42960219Y34820600D01*
X43399781Y34820600D01*
X43710600Y34509781D01*
X43710600Y34070219D01*
X43399781Y33759400D01*
X42960219Y33759400D01*
X42754338Y33965281D01*
X42729053Y33982031D01*
X42700456Y33987600D01*
X23016822Y33987600D01*
X22987100Y33981566D01*
X22962941Y33965281D01*
X21715259Y32717600D01*
X17936822Y32717600D01*
X17907100Y32711566D01*
X17882941Y32695281D01*
X14522919Y29335259D01*
X14506169Y29309975D01*
X14500600Y29281378D01*
X14500600Y28990219D01*
X14189781Y28679400D01*
X13750219Y28679400D01*
G37*
G36*
X41084872Y30835600D02*
X40995600Y30924872D01*
X40995600Y32575128D01*
X41084872Y32664400D01*
X42735128Y32664400D01*
X42824400Y32575128D01*
X42824400Y30924872D01*
X42735128Y30835600D01*
X41084872Y30835600D01*
G37*
G36*
X38544872Y30835600D02*
X38455600Y30924872D01*
X38455600Y32575128D01*
X38544872Y32664400D01*
X40195128Y32664400D01*
X40284400Y32575128D01*
X40284400Y30924872D01*
X40195128Y30835600D01*
X38544872Y30835600D01*
G37*
G36*
X36004872Y30835600D02*
X35915600Y30924872D01*
X35915600Y32575128D01*
X36004872Y32664400D01*
X37655128Y32664400D01*
X37744400Y32575128D01*
X37744400Y30924872D01*
X37655128Y30835600D01*
X36004872Y30835600D01*
G37*
G36*
X33464872Y30835600D02*
X33375600Y30924872D01*
X33375600Y32575128D01*
X33464872Y32664400D01*
X35115128Y32664400D01*
X35204400Y32575128D01*
X35204400Y30924872D01*
X35115128Y30835600D01*
X33464872Y30835600D01*
G37*
G36*
X30924872Y30835600D02*
X30835600Y30924872D01*
X30835600Y32575128D01*
X30924872Y32664400D01*
X32575128Y32664400D01*
X32664400Y32575128D01*
X32664400Y30924872D01*
X32575128Y30835600D01*
X30924872Y30835600D01*
G37*
G36*
X28384872Y30835600D02*
X28295600Y30924872D01*
X28295600Y32575128D01*
X28384872Y32664400D01*
X30035128Y32664400D01*
X30124400Y32575128D01*
X30124400Y30924872D01*
X30035128Y30835600D01*
X28384872Y30835600D01*
G37*
G36*
X25844872Y30835600D02*
X25755600Y30924872D01*
X25755600Y32575128D01*
X25844872Y32664400D01*
X27495128Y32664400D01*
X27584400Y32575128D01*
X27584400Y30924872D01*
X27495128Y30835600D01*
X25844872Y30835600D01*
G37*
G36*
X23304872Y30835600D02*
X23215600Y30924872D01*
X23215600Y32575128D01*
X23304872Y32664400D01*
X24955128Y32664400D01*
X25044400Y32575128D01*
X25044400Y30924872D01*
X24955128Y30835600D01*
X23304872Y30835600D01*
G37*
G36*
X57950488Y5259600D02*
X57082941Y5618950D01*
X56418950Y6282941D01*
X56059600Y7150488D01*
X56059600Y8089513D01*
X56418950Y8957059D01*
X57082941Y9621050D01*
X57950488Y9980400D01*
X58889513Y9980400D01*
X59757059Y9621050D01*
X60421050Y8957059D01*
X60780400Y8089513D01*
X60780400Y7150488D01*
X60421050Y6282941D01*
X59757059Y5618950D01*
X58889513Y5259600D01*
X57950488Y5259600D01*
G37*
G36*
X7150488Y5259600D02*
X6282941Y5618950D01*
X5618950Y6282941D01*
X5259600Y7150488D01*
X5259600Y8089513D01*
X5618950Y8957059D01*
X6282941Y9621050D01*
X7150488Y9980400D01*
X8089513Y9980400D01*
X8957059Y9621050D01*
X9621050Y8957059D01*
X9980400Y8089513D01*
X9980400Y7150488D01*
X9621050Y6282941D01*
X8957059Y5618950D01*
X8089513Y5259600D01*
X7150488Y5259600D01*
G37*
G36*
X38544872Y7975600D02*
X38455600Y8064872D01*
X38455600Y9715128D01*
X38544872Y9804400D01*
X40195128Y9804400D01*
X40284400Y9715128D01*
X40284400Y8064872D01*
X40195128Y7975600D01*
X38544872Y7975600D01*
G37*
G36*
X36004872Y7975600D02*
X35915600Y8064872D01*
X35915600Y9715128D01*
X36004872Y9804400D01*
X37655128Y9804400D01*
X37744400Y9715128D01*
X37744400Y8064872D01*
X37655128Y7975600D01*
X36004872Y7975600D01*
G37*
G36*
X33464872Y7975600D02*
X33375600Y8064872D01*
X33375600Y9715128D01*
X33464872Y9804400D01*
X35115128Y9804400D01*
X35204400Y9715128D01*
X35204400Y8064872D01*
X35115128Y7975600D01*
X33464872Y7975600D01*
G37*
G36*
X28384872Y7975600D02*
X28295600Y8064872D01*
X28295600Y9715128D01*
X28384872Y9804400D01*
X30035128Y9804400D01*
X30124400Y9715128D01*
X30124400Y8064872D01*
X30035128Y7975600D01*
X28384872Y7975600D01*
G37*
G36*
X25844872Y7975600D02*
X25755600Y8064872D01*
X25755600Y9715128D01*
X25844872Y9804400D01*
X27495128Y9804400D01*
X27584400Y9715128D01*
X27584400Y8064872D01*
X27495128Y7975600D01*
X25844872Y7975600D01*
G37*
G36*
X23304872Y7975600D02*
X23215600Y8064872D01*
X23215600Y9715128D01*
X23304872Y9804400D01*
X24955128Y9804400D01*
X25044400Y9715128D01*
X25044400Y8064872D01*
X24955128Y7975600D01*
X23304872Y7975600D01*
G37*
%LPD*%
D10*
X95380000Y43580000D03*
D11*
X95380000Y47780000D03*
X95380000Y51980000D03*
X95380000Y56180000D03*
X95380000Y60380000D03*
X95380000Y64580000D03*
X100880000Y43580000D03*
X100880000Y47780000D03*
X100880000Y51980000D03*
X100880000Y56180000D03*
X100880000Y60380000D03*
X100880000Y64580000D03*
D10*
X95130000Y102390000D03*
D11*
X95130000Y106590000D03*
X95130000Y110790000D03*
X100630000Y102390000D03*
X100630000Y106590000D03*
X100630000Y110790000D03*
D10*
X97504800Y148895000D03*
D11*
X97504800Y144695000D03*
X97504800Y140495000D03*
D12*
X93654800Y140495000D03*
X103054800Y146795000D03*
D10*
X95632400Y74380000D03*
D11*
X101132400Y74380000D03*
D10*
X95380000Y84110000D03*
D11*
X95380000Y88310000D03*
X95380000Y92510000D03*
X100880000Y84110000D03*
X100880000Y88310000D03*
X100880000Y92510000D03*
D13*
X-44216356Y103760000D03*
X-41676356Y103760000D03*
X-39136356Y103760000D03*
X-36596356Y103760000D03*
X-34056356Y103760000D03*
X-31516356Y103760000D03*
X-28976356Y103760000D03*
X-26436356Y103760000D03*
X-21356356Y103760000D03*
X-18816356Y103760000D03*
X-16276356Y103760000D03*
X-13736356Y103760000D03*
X-11196356Y103760000D03*
X-8656356Y103760000D03*
X-6116356Y103760000D03*
X-3576356Y103760000D03*
X1503644Y103760000D03*
X4043644Y103760000D03*
X6583644Y103760000D03*
X9123644Y103760000D03*
X11663644Y103760000D03*
X14203644Y103760000D03*
X16743644Y103760000D03*
X19283644Y103760000D03*
X-48280356Y152020000D03*
X-45740356Y152020000D03*
X-43200356Y152020000D03*
X-40660356Y152020000D03*
X-38120356Y152020000D03*
X-35580356Y152020000D03*
X-33040356Y152020000D03*
X-30500356Y152020000D03*
X-26436356Y152020000D03*
X-23896356Y152020000D03*
X-21356356Y152020000D03*
X-18816356Y152020000D03*
X-16276356Y152020000D03*
X-13736356Y152020000D03*
X-11196356Y152020000D03*
X-8656356Y152020000D03*
X-3576356Y152020000D03*
X-1036356Y152020000D03*
X1503644Y152020000D03*
X4043644Y152020000D03*
X6583644Y152020000D03*
X9123644Y152020000D03*
X11663644Y152020000D03*
X14203644Y152020000D03*
X-53360356Y152020000D03*
X-50820356Y152020000D03*
X21823644Y134240000D03*
X21823644Y136780000D03*
X21823644Y139320000D03*
X21823644Y141860000D03*
X21823644Y144400000D03*
X21823644Y146940000D03*
X21823644Y149480000D03*
X21823644Y152020000D03*
X21823644Y113920000D03*
X21823644Y116460000D03*
X21823644Y119000000D03*
X21823644Y121540000D03*
X21823644Y124080000D03*
X21823644Y126620000D03*
X21823644Y129160000D03*
X21823644Y131700000D03*
X24363644Y134240000D03*
X24363644Y136780000D03*
X24363644Y139320000D03*
X24363644Y141860000D03*
X24363644Y144400000D03*
X24363644Y146940000D03*
X24363644Y149480000D03*
X24363644Y152020000D03*
X24363644Y113920000D03*
X24363644Y116460000D03*
X24363644Y119000000D03*
X24363644Y121540000D03*
X24363644Y124080000D03*
X24363644Y126620000D03*
X24363644Y129160000D03*
X24363644Y131700000D03*
X21823644Y108840000D03*
X21823644Y111380000D03*
X24363644Y108840000D03*
X24363644Y111380000D03*
D14*
X-42818000Y83820000D03*
X-42818000Y40640000D03*
X-78378000Y40640000D03*
X-78378000Y83820000D03*
D15*
X-42183000Y80010000D03*
X-42183000Y77470000D03*
X-42183000Y74930000D03*
X-42183000Y72390000D03*
X-42183000Y69850000D03*
X-42183000Y67310000D03*
X-42183000Y64770000D03*
X-42183000Y62230000D03*
X-42183000Y59690000D03*
X-42183000Y57150000D03*
X-42183000Y54610000D03*
X-42183000Y49530000D03*
X-42183000Y46990000D03*
X-42183000Y44450000D03*
X-42183000Y52070000D03*
D16*
X80940000Y151270000D03*
D12*
X80940000Y157270000D03*
X76240000Y154270000D03*
D17*
X67310000Y149860000D03*
D18*
X62310000Y149860000D03*
X57310000Y149860000D03*
X52310000Y149860000D03*
X47310000Y149860000D03*
X42310000Y149860000D03*
X37310000Y149860000D03*
X53340000Y120650000D03*
X53340000Y132850000D03*
X59340000Y118650000D03*
X65340000Y120650000D03*
X65340000Y132850000D03*
D19*
X7620000Y33020000D03*
D13*
X24130000Y31750000D03*
X26670000Y31750000D03*
X29210000Y31750000D03*
X31750000Y31750000D03*
X34290000Y31750000D03*
X36830000Y31750000D03*
X39370000Y31750000D03*
X41910000Y31750000D03*
X41910000Y8890000D03*
X39370000Y8890000D03*
X36830000Y8890000D03*
X34290000Y8890000D03*
X31750000Y8890000D03*
X29210000Y8890000D03*
X26670000Y8890000D03*
X24130000Y8890000D03*
D19*
X7620000Y7620000D03*
X58420000Y33020000D03*
X58420000Y7620000D03*
D20*
X59690000Y51195000D03*
X57150000Y51195000D03*
X59690000Y60565000D03*
X57150000Y60565000D03*
D21*
X59690000Y63954800D03*
X59690000Y65585200D03*
D20*
X68580000Y51195000D03*
X66040000Y51195000D03*
X68580000Y60565000D03*
X66040000Y60565000D03*
D22*
X55425200Y46990000D03*
X53794800Y46990000D03*
X60505200Y46990000D03*
X58874800Y46990000D03*
X65585200Y46990000D03*
X63954800Y46990000D03*
X73205200Y45720000D03*
X71574800Y45720000D03*
X79555200Y45720000D03*
X77924800Y45720000D03*
X85905200Y45720000D03*
X84274800Y45720000D03*
D21*
X68580000Y63954800D03*
X68580000Y65585200D03*
D10*
X95250000Y123190000D03*
D11*
X95250000Y127390000D03*
X100750000Y123190000D03*
X100750000Y127390000D03*
D12*
X100290000Y118490000D03*
X100290000Y132090000D03*
D23*
X0Y53340000D03*
X8890000Y53340000D03*
X2540000Y60960000D03*
X-7620000Y80010000D03*
X16510000Y71120000D03*
X22860000Y69850000D03*
X35560000Y71120000D03*
X-2540000Y72390000D03*
X50800000Y109855000D03*
X49530000Y109855000D03*
X48260000Y109855000D03*
X50800000Y111125000D03*
X49530000Y111125000D03*
X48260000Y96012000D03*
X49530000Y96012000D03*
X50800000Y96012000D03*
X50800000Y94742000D03*
X49530000Y94742000D03*
X48260000Y94742000D03*
X48260000Y111125000D03*
X3810000Y77470000D03*
X13970000Y54610000D03*
X16510000Y78968200D03*
X21590000Y78968200D03*
X38100000Y80010000D03*
X38100000Y137160000D03*
X43942000Y71060106D03*
X52070000Y69536106D03*
X53340000Y113030000D03*
X38100000Y111760000D03*
D24*
X52559400Y113810600D02*
X53340000Y113030000D01*
X52559400Y113810600D02*
X46666663Y113810600D01*
X44616063Y111760000D02*
X38100000Y111760000D01*
X44616063Y111760000D02*
X46666663Y113810600D01*
D23*
X22860000Y91440000D03*
D25*
X22860000Y105410000D01*
D23*
X-22860000Y139700000D03*
D25*
X-25400000Y142240000D01*
X-31750000Y142240000D01*
X-38100000Y142240000D02*
X-43200356Y147340356D01*
X-43200356Y152020000D01*
D23*
X22860000Y105410000D03*
D25*
X-31750000Y142240000D02*
X-38100000Y142240000D01*
D23*
X-27940000Y106680000D03*
D25*
X-26084400Y104824400D01*
X-25549100Y104824400D01*
X-24130000Y103405300D01*
X-24130000Y97790000D01*
X-21590000Y95250000D01*
X-13970000Y95250000D01*
X-10160000Y91440000D01*
X-10160000Y90170000D01*
D23*
X-10160000Y90170000D03*
X0Y86360000D03*
D25*
X3810000Y90170000D01*
X3810000Y91440000D01*
D23*
X3810000Y91440000D03*
X11430000Y93980000D03*
X-1270000Y105410000D03*
D25*
X0Y105410000D01*
X2390900Y104824400D02*
X2568044Y104647256D01*
X585600Y104824400D02*
X0Y105410000D01*
X585600Y104824400D02*
X2390900Y104824400D01*
X2568044Y102841956D02*
X11430000Y93980000D01*
X2568044Y102841956D02*
X2568044Y104647256D01*
D23*
X-11430000Y137160000D03*
D25*
X-19050000Y144780000D01*
X-20320000Y144780000D01*
D23*
X-20320000Y144780000D03*
X-26670000Y107950000D03*
X-22860000Y99060000D03*
X-15240000Y96520000D03*
D25*
X-12700000Y96520000D01*
X-10160000Y93980000D01*
D23*
X-10160000Y93980000D03*
D25*
X-22860000Y102230206D02*
X-23312400Y102682606D01*
X-22860000Y102230206D02*
X-22860000Y99060000D01*
X-23312400Y104592400D02*
X-26670000Y107950000D01*
X-23312400Y104592400D02*
X-23312400Y102682606D01*
X-9479400Y95839400D02*
X-9479400Y85679400D01*
X-9479400Y95839400D02*
X-15240000Y101600000D01*
X-8209400Y84409400D02*
X5453119Y84409400D01*
X-8209400Y84409400D02*
X-9479400Y85679400D01*
D23*
X12700000Y72390000D03*
D25*
X12700000Y77162519D01*
X5453119Y84409400D01*
X-16656356Y101600000D02*
X-18816356Y103760000D01*
X-16656356Y101600000D02*
X-15240000Y101600000D01*
D23*
X0Y71120000D03*
D25*
X-2540000Y73660000D01*
D23*
X-7792600Y73660000D03*
D25*
X-2540000Y73660000D01*
D23*
X-5080000Y72390000D03*
D25*
X-7112000Y72390000D01*
D23*
X-7112000Y72390000D03*
X-8890000Y83820000D03*
D25*
X-12700000Y87630000D01*
X-12700000Y91440000D01*
D23*
X-12700000Y91440000D03*
X-15240000Y97790000D03*
X-16510000Y100919400D03*
D25*
X-15240000Y99649400D02*
X-15240000Y97790000D01*
X-15240000Y99649400D02*
X-16510000Y100919400D01*
X16070931Y51239072D02*
X12610000Y47778141D01*
X12610000Y47125616D01*
X76330000Y88310000D02*
X95380000Y88310000D01*
X76330000Y88310000D02*
X58236706Y70216706D01*
D23*
X12610000Y47125616D03*
D25*
X56704744Y53687400D02*
X57595256Y53687400D01*
X59690000Y51592656D02*
X59690000Y51195000D01*
X59690000Y51592656D02*
X57595256Y53687400D01*
X56704744Y53687400D02*
X54256416Y51239072D01*
X17340931Y51239072D01*
X16070931Y51239072D01*
X17340931Y51239072D02*
X36318566Y70216706D01*
X58236706Y70216706D01*
D23*
X1270000Y48260000D03*
D25*
X10160000Y48260000D01*
X19050000Y57150000D01*
D23*
X19050000Y57150000D03*
X48260000Y73660000D03*
D25*
X57150000Y73660000D01*
D23*
X57150000Y73660000D03*
X95250000Y78740000D03*
D25*
X95250000Y81020000D02*
X98340000Y84110000D01*
X95250000Y81020000D02*
X95250000Y78740000D01*
X98340000Y84110000D02*
X100880000Y84110000D01*
D23*
X25400000Y57150000D03*
D25*
X27940000Y59690000D01*
X35560000Y59690000D01*
D23*
X35560000Y59690000D03*
X810200Y41062566D03*
D25*
X100880000Y88310000D02*
X102870000Y88310000D01*
D23*
X59889644Y40173566D03*
D25*
X101133566Y40173566D01*
X104140000Y43180000D01*
D23*
X102870000Y78740000D03*
D25*
X102870000Y88310000D01*
D23*
X104183000Y62230000D03*
D25*
X104140000Y62187000D01*
X104140000Y43180000D01*
D23*
X38100000Y40189800D03*
D25*
X37227234Y41062566D02*
X810200Y41062566D01*
X37227234Y41062566D02*
X38100000Y40189800D01*
D23*
X24130000Y99060000D03*
D25*
X26670000Y99060000D01*
X27940000Y97790000D01*
D23*
X27940000Y97790000D03*
X39370000Y97790000D03*
D25*
X46990000Y97790000D01*
D23*
X46990000Y97790000D03*
X80010000Y97790000D03*
D25*
X85090000Y97790000D01*
D23*
X85090000Y97790000D03*
X12700000Y57150000D03*
D25*
X11430000Y58420000D01*
D23*
X-3810000Y81280000D03*
D25*
X-5080000Y82550000D01*
X-6350000Y82550000D01*
D23*
X-6350000Y82550000D03*
X0Y62955019D03*
D25*
X1577481Y58420000D02*
X11430000Y58420000D01*
X1577481Y58420000D02*
X0Y59997481D01*
X0Y62955019D01*
D23*
X44450000Y73660000D03*
D25*
X44450000Y74930000D01*
D23*
X66040000Y82550000D03*
D25*
X52070000Y82550000D02*
X44450000Y74930000D01*
X52070000Y82550000D02*
X66040000Y82550000D01*
D23*
X105410000Y110490000D03*
D25*
X105410000Y122857000D01*
X100877000Y127390000D01*
X100750000Y127390000D01*
D23*
X91440000Y45720000D03*
D25*
X87630000Y49530000D01*
X87630000Y67310000D01*
D23*
X87630000Y67310000D03*
X53340000Y71120000D03*
D25*
X45720000Y71120000D01*
X43180000Y73660000D01*
X43180000Y78740000D01*
X40640000Y81280000D01*
X40640000Y83820000D02*
X39370000Y85090000D01*
X40640000Y83820000D02*
X40640000Y81280000D01*
D23*
X39370000Y85090000D03*
D25*
X52070000Y74930000D02*
X60960000Y74930000D01*
D23*
X60960000Y74930000D03*
D25*
X90170000Y74930000D02*
X97790000Y67310000D01*
X90170000Y74930000D02*
X88900000Y74930000D01*
D23*
X88900000Y74930000D03*
X48260000Y77378800D03*
D25*
X49621200Y77378800D01*
X52070000Y74930000D01*
X95380000Y50067413D02*
X95380000Y47780000D01*
X95380000Y50067413D02*
X94027600Y51419813D01*
X94027600Y52915013D01*
X97790000Y56677413D01*
X97790000Y67310000D01*
D23*
X52912438Y80222231D03*
D25*
X54397769Y80222231D01*
X57150000Y77470000D01*
D23*
X57150000Y77470000D03*
X30480000Y92710000D03*
D25*
X27940000Y95250000D01*
X27940000Y96520000D01*
D23*
X27940000Y96520000D03*
X1270000Y59690000D03*
D25*
X21590000Y59690000D01*
X22860000Y58420000D01*
D23*
X22860000Y58420000D03*
X30480000Y58420000D03*
X73660000Y58420000D03*
X88900000Y60960000D03*
D25*
X91760000Y60960000D02*
X95380000Y64580000D01*
X91760000Y60960000D02*
X88900000Y60960000D01*
X39370000Y58420000D02*
X30480000Y58420000D01*
D23*
X39370000Y58420000D03*
X48260000Y58420000D03*
D25*
X52070000Y58420000D01*
D23*
X52070000Y58420000D03*
X35560000Y39370000D03*
D25*
X34290000Y38100000D01*
X1270000Y38100000D01*
D23*
X1270000Y38100000D03*
X-11430000Y77470000D03*
D25*
X-3810000Y77470000D01*
X1270000Y82550000D01*
D23*
X1270000Y82550000D03*
X1270000Y85090000D03*
D25*
X3810000Y87630000D01*
X6350000Y87630000D01*
D23*
X6350000Y87630000D03*
X19050000Y36830000D03*
D25*
X21590000Y36830000D01*
D23*
X21590000Y36830000D03*
X7620000Y57150000D03*
X5080600Y54610000D03*
D25*
X5080600Y54610600D02*
X7620000Y57150000D01*
X5080600Y54610600D02*
X5080600Y54610000D01*
D23*
X49530000Y26670000D03*
X102870000Y36830000D03*
D25*
X102870000Y39370000D01*
D23*
X102870000Y39370000D03*
D25*
X52070000Y44450000D02*
X49530000Y41910000D01*
D23*
X52070000Y44450000D03*
X90170000Y101600000D03*
D25*
X71120000Y101600000D01*
X57150000Y115570000D01*
D23*
X57150000Y115570000D03*
D25*
X49530000Y26670000D02*
X7620000Y26670000D01*
X3810000Y30480000D01*
X3810000Y36830000D01*
D23*
X3810000Y36830000D03*
D25*
X49530000Y41910000D02*
X49530000Y26670000D01*
X100880000Y60380000D02*
X100880000Y61397413D01*
X104140000Y64657413D01*
X104140000Y112399794D01*
X101650394Y114889400D01*
X63100600Y114889400D01*
X59340000Y118650000D01*
D23*
X21590000Y93980000D03*
X31750000Y99060000D03*
D25*
X31750000Y101600000D01*
D23*
X31750000Y101600000D03*
X21590000Y95904200D03*
D25*
X21590000Y93980000D01*
D23*
X69850000Y115570000D03*
X46990000Y113030000D03*
D25*
X41910000Y107950000D01*
X39370000Y107950000D01*
D23*
X39370000Y107950000D03*
X19050000Y100330000D03*
D25*
X19050000Y93980000D01*
D23*
X19050000Y93980000D03*
D25*
X69850000Y115570000D02*
X91194600Y136914600D01*
X93924400Y136914600D01*
X97504800Y140495000D01*
X59488016Y68715616D02*
X35780000Y68715616D01*
X30700000Y63635616D01*
X59488016Y68715616D02*
X68962400Y78190000D01*
D23*
X30700000Y63635616D03*
D25*
X91822400Y78190000D02*
X95632400Y74380000D01*
X91822400Y78190000D02*
X68962400Y78190000D01*
D23*
X26670000Y72390000D03*
D25*
X27940000Y73660000D01*
X34290000Y73660000D01*
X34290000Y74930000D01*
D23*
X34290000Y74930000D03*
X19050000Y72390000D03*
D25*
X11430000Y80010000D01*
D23*
X11430000Y80010000D03*
X-2529400Y93980000D03*
D25*
X-6339400Y97790000D01*
X-6350000Y97790000D01*
D23*
X-6350000Y97790000D03*
D25*
X26523644Y71120000D02*
X27940000Y71120000D01*
X26523644Y71120000D02*
X-6116356Y103760000D01*
D23*
X27940000Y71120000D03*
X91440000Y109220000D03*
D25*
X48260000Y83820000D02*
X44450000Y80010000D01*
D23*
X44450000Y80010000D03*
X26670000Y80010000D03*
D25*
X26670000Y77470000D01*
X25400000Y76200000D01*
D23*
X80010000Y99151200D03*
D25*
X64678800Y83820000D01*
X48260000Y83820000D01*
D23*
X31750000Y80010000D03*
D25*
X34290000Y80010000D01*
X35560000Y78740000D01*
X40640000Y78740000D01*
D23*
X40640000Y78740000D03*
D25*
X91440000Y106080000D02*
X91440000Y109220000D01*
X91440000Y106080000D02*
X95130000Y102390000D01*
D23*
X22860000Y76200000D03*
D25*
X25400000Y76200000D01*
D23*
X27940000Y69850000D03*
D25*
X29210000Y68580000D01*
X29210000Y67310000D01*
D23*
X29210000Y67310000D03*
X46990000Y73660000D03*
D25*
X46990000Y74930000D01*
X48260000Y76200000D01*
D23*
X48260000Y76200000D03*
X54610000Y81280000D03*
D25*
X67310000Y81280000D01*
D23*
X67310000Y81280000D03*
D25*
X8890000Y74930000D02*
X8890000Y71120000D01*
X8890000Y74930000D02*
X10160000Y76200000D01*
D23*
X10160000Y76200000D03*
X29210000Y77470000D03*
X43180000Y81280000D03*
D25*
X54610000Y92710000D01*
D23*
X54610000Y98470600D03*
D25*
X54610000Y92710000D01*
D23*
X8840838Y71070838D03*
D25*
X8890000Y71120000D01*
X29210000Y77470000D02*
X29210000Y80010000D01*
X30726950Y81526950D01*
D23*
X30726950Y81526950D03*
X92548638Y110651363D03*
D25*
X94857275Y112960000D01*
X98460000Y112960000D01*
X100630000Y110790000D01*
X39540000Y76750366D02*
X39540000Y71735616D01*
X39540000Y76750366D02*
X39114800Y77175566D01*
D23*
X39540000Y71735616D03*
X39114800Y77175566D03*
X53340000Y76200000D03*
X50633844Y78906156D03*
D25*
X53340000Y76200000D01*
D23*
X-5080000Y57150000D03*
D25*
X-5080000Y58420000D01*
X-6350000Y59690000D01*
D23*
X-6350000Y59690000D03*
X-1270000Y85090000D03*
D25*
X-1270000Y96520000D01*
D23*
X-1270000Y96520000D03*
D25*
X-52070000Y97790000D02*
X-52070000Y115570000D01*
X-50712800Y116927200D01*
X9234306Y116927200D02*
X12241506Y113920000D01*
X21823644Y113920000D01*
X9234306Y116927200D02*
X-50712800Y116927200D01*
X-52070000Y97790000D02*
X-52070000Y82550000D01*
X-52070000Y68580000D01*
X-50800000Y67310000D01*
D23*
X-50800000Y67310000D03*
D25*
X23855644Y113920000D02*
X24363644Y113920000D01*
X23855644Y113920000D02*
X22791234Y112855591D01*
X-48625200Y116474800D02*
X-49530000Y115570000D01*
X12666122Y112855591D02*
X22791234Y112855591D01*
X12666122Y112855591D02*
X9046913Y116474800D01*
X-48625200Y116474800D01*
X-49530000Y115570000D02*
X-49530000Y97293719D01*
X-49530000Y78740000D01*
X-49530000Y66040000D01*
X-48260000Y64770000D01*
D23*
X-48260000Y64770000D03*
D25*
X24363644Y111380000D02*
X30860000Y111380000D01*
X33020000Y109220000D01*
D23*
X33020000Y109220000D03*
D25*
X-33905613Y116022400D02*
X-46990000Y102938013D01*
X-33905613Y116022400D02*
X8859519Y116022400D01*
X14566319Y110315600D02*
X23299244Y110315600D01*
X14566319Y110315600D02*
X8859519Y116022400D01*
X23299244Y110315600D02*
X24363644Y111380000D01*
X-46990000Y102938013D02*
X-46990000Y95393513D01*
X-46990000Y67037000D01*
X-42183000Y62230000D01*
X21823644Y111380000D02*
X22331644Y111380000D01*
X23430900Y112479256D01*
X24874578Y112479256D01*
X25428053Y113032731D01*
X25428053Y114807269D01*
X25045322Y115190000D01*
X-54610000Y115570000D02*
X-54610000Y99367481D01*
X-54610000Y115570000D02*
X-52800400Y117379600D01*
X11611300Y115190000D02*
X25045322Y115190000D01*
X11611300Y115190000D02*
X9421700Y117379600D01*
X-52800400Y117379600D01*
X-54610000Y99367481D02*
X-54610000Y82550000D01*
X-54610000Y82277000D01*
X-54610000Y71120000D01*
X-53340000Y69850000D01*
D23*
X-53340000Y69850000D03*
X-25400000Y144780000D03*
D25*
X-20700000Y149480000D01*
X21823644Y149480000D01*
X-26670000Y93980000D02*
X-26670000Y69850000D01*
X-26670000Y93980000D02*
X-25400000Y95250000D01*
D23*
X-25400000Y95250000D03*
D25*
X-26670000Y69850000D02*
X-36830000Y59690000D01*
X-42183000Y59690000D01*
D23*
X-24130000Y107950000D03*
D25*
X-22860000Y109220000D01*
D23*
X-22860000Y109220000D03*
D25*
X-29210000Y90170000D02*
X-29210000Y69850000D01*
X-29210000Y90170000D02*
X-27940000Y91440000D01*
D23*
X-27940000Y91440000D03*
X-21590000Y138430000D03*
D25*
X-21590000Y146050000D01*
X-19050000Y148590000D01*
X20936388Y148415600D02*
X22710900Y148415600D01*
X23775300Y149480000D02*
X24363644Y149480000D01*
X23775300Y149480000D02*
X22710900Y148415600D01*
X20761988Y148590000D02*
X-19050000Y148590000D01*
X20761988Y148590000D02*
X20936388Y148415600D01*
D23*
X-29210000Y69850000D03*
D25*
X59690000Y67310000D02*
X59690000Y65585200D01*
X59690000Y67310000D02*
X69850000Y77470000D01*
X71120000Y77470000D01*
D23*
X71120000Y77470000D03*
D25*
X68580000Y65585200D02*
X59690000Y65585200D01*
D23*
X21590000Y99060000D03*
D25*
X19283644Y101366356D01*
X19283644Y103760000D01*
D23*
X10160000Y62230000D03*
D25*
X17780000Y62230000D01*
D23*
X17780000Y62230000D03*
X-1270000Y57150000D03*
D25*
X-1270000Y59690000D01*
D23*
X-1270000Y59690000D03*
X44450000Y60960000D03*
D25*
X44450000Y58420000D01*
X43180000Y57150000D01*
D23*
X43180000Y57150000D03*
X17780000Y43180000D03*
D25*
X16510000Y41910000D01*
X13970000Y41910000D01*
D23*
X13970000Y41910000D03*
D25*
X10160000Y63635616D02*
X9922019Y63635616D01*
X10160000Y63635616D02*
X24210000Y63635616D01*
D23*
X24210000Y63635616D03*
X-10160000Y62230000D03*
D25*
X-8754384Y63635616D01*
X9922019Y63635616D01*
D23*
X36830000Y80010000D03*
D25*
X34290000Y82550000D01*
X34290000Y83820000D01*
D23*
X34290000Y83820000D03*
X-31750000Y109220000D03*
D24*
X-29210000Y111760000D01*
X-8890000Y111760000D01*
D23*
X-8890000Y111760000D03*
X30480000Y102870000D03*
D24*
X40640000Y102870000D01*
D23*
X40640000Y102870000D03*
X6350000Y80010000D03*
D25*
X6350000Y82550000D01*
D23*
X6350000Y82550000D03*
X33020000Y158750000D03*
D25*
X-33930356Y158750000D02*
X-40660356Y152020000D01*
X-33930356Y158750000D02*
X33020000Y158750000D01*
D23*
X40640000Y120650000D03*
D25*
X53340000Y120650000D01*
D23*
X-34056356Y95016356D03*
D25*
X-34056356Y88136644D01*
X-42183000Y80010000D01*
D19*
X-78740000Y33020000D03*
X-52070000Y158750000D03*
X102870000Y33020000D03*
X102870000Y158750000D03*
D25*
X65585200Y46990000D02*
X70665200Y41910000D01*
D23*
X102870000Y62230000D03*
D25*
X103502400Y61597600D01*
D23*
X102870000Y72390000D03*
D25*
X103502400Y61597600D02*
X103502400Y44289813D01*
X101122588Y41910000D01*
X70665200Y41910000D01*
X102870000Y72390000D02*
X102870000Y76200000D01*
X97790000Y81280000D01*
D23*
X97790000Y81280000D03*
D25*
X59690000Y63954800D02*
X59690000Y60565000D01*
X61835000Y58420000D01*
X63500000Y58420000D01*
X63500000Y49530000D01*
D23*
X63500000Y49530000D03*
X57150000Y45720000D03*
D25*
X55353944Y45720000D01*
X52070000Y42436056D01*
X52070000Y26670000D01*
X50800000Y25400000D01*
X5754031Y25400000D01*
X-15940606Y47094638D01*
X-21590000Y47094638D01*
X-22860000Y48364638D01*
X-22860000Y91440000D01*
X-21590000Y92710000D01*
D23*
X-21590000Y92710000D03*
X-18945363Y96520000D03*
D25*
X-18945363Y101937350D01*
X-19880756Y102872744D02*
X-19880756Y104647256D01*
X-16578013Y107950000D01*
X-19880756Y102872744D02*
X-18945363Y101937350D01*
X-16578013Y107950000D02*
X2393644Y107950000D01*
X6583644Y103760000D01*
X85090000Y77470000D02*
X85905200Y76654800D01*
X85905200Y45720000D01*
D23*
X85090000Y77470000D03*
X91440000Y96520000D03*
D25*
X102870000Y96520000D01*
D23*
X102870000Y96520000D03*
X102870000Y109220000D03*
D25*
X97760000Y109220000D01*
X95130000Y106590000D01*
X80010000Y62625000D02*
X68580000Y51195000D01*
X80010000Y62625000D02*
X80010000Y77470000D01*
D23*
X80010000Y77470000D03*
X88900000Y96520000D03*
D25*
X90170000Y97790000D01*
X96030000Y97790000D02*
X100630000Y102390000D01*
X96030000Y97790000D02*
X90170000Y97790000D01*
D23*
X36830000Y96520000D03*
D25*
X36830000Y101600000D01*
D23*
X36830000Y101600000D03*
X40640000Y116840000D03*
D25*
X60577600Y113412400D02*
X102487600Y113412400D01*
X103687600Y106590000D02*
X100630000Y106590000D01*
X103687600Y106590000D02*
X103687600Y112212400D01*
X102487600Y113412400D01*
X60577600Y113412400D02*
X57150000Y116840000D01*
X40640000Y116840000D01*
X57150000Y51195000D02*
X57150000Y50345200D01*
X53794800Y46990000D01*
X55425200Y46990000D02*
X58874800Y46990000D01*
X60505200Y46990000D02*
X63954800Y46990000D01*
X66099800Y51195000D02*
X71574800Y45720000D01*
X66099800Y51195000D02*
X66040000Y51195000D01*
X73205200Y45720000D02*
X77924800Y45720000D01*
X79555200Y45720000D02*
X84274800Y45720000D01*
X68580000Y60565000D02*
X68580000Y63954800D01*
X68580000Y60565000D02*
X66435000Y58420000D01*
X64770000Y58420000D01*
X64770000Y49530000D01*
D23*
X64770000Y49530000D03*
X57150000Y44450000D03*
D25*
X55880000Y44450000D01*
X53340000Y41910000D01*
X53340000Y26143944D01*
X51326056Y24130000D01*
X5080000Y24130000D01*
X-16510000Y45720000D01*
X-22159394Y45720000D01*
X-24234638Y47795244D01*
D23*
X-20320000Y96520000D03*
D25*
X-22420756Y104647256D02*
X-22243613Y104824400D01*
X-20905600Y104824400D01*
X-15875000Y109855000D01*
X6985000Y109855000D01*
X9123644Y107716356D01*
X9123644Y103760000D01*
X-22420756Y102872744D02*
X-22420756Y104647256D01*
X-22270600Y97508081D02*
X-21871919Y97109400D01*
X-22270600Y97508081D02*
X-22270600Y98071919D01*
X-22179400Y98163119D01*
X-22179400Y102631388D01*
X-22420756Y102872744D01*
X-20909400Y97109400D02*
X-20320000Y96520000D01*
X-20909400Y97109400D02*
X-21871919Y97109400D01*
D23*
X-22378738Y93498738D03*
D25*
X-24234638Y91642838D02*
X-24234638Y47795244D01*
X-24234638Y91642838D02*
X-22378738Y93498738D01*
X100627413Y64580000D02*
X100880000Y64580000D01*
X99060000Y49600000D02*
X100880000Y47780000D01*
X99060000Y49600000D02*
X99060000Y63012588D01*
X100627413Y64580000D01*
D23*
X43180000Y34290000D03*
D25*
X22860000Y34290000D01*
X21590000Y33020000D01*
D23*
X-35560000Y111760000D03*
D25*
X-31750000Y115570000D01*
X7656125Y115570000D01*
X13861063Y109365063D01*
D23*
X13861063Y109365063D03*
D25*
X17780000Y33020000D02*
X21590000Y33020000D01*
X17780000Y33020000D02*
X13970000Y29210000D01*
D23*
X13970000Y29210000D03*
X44450000Y34290000D03*
D25*
X44450000Y34816056D01*
X43706056Y35560000D01*
X22860000Y35560000D01*
X21590000Y34290000D01*
D23*
X-34661969Y110861969D03*
D25*
X-31223938Y114300000D01*
X7638063Y114300000D01*
X13979031Y107959031D01*
D23*
X13979031Y107959031D03*
D25*
X17253938Y34290000D02*
X21590000Y34290000D01*
X17253938Y34290000D02*
X13071969Y30108031D01*
D23*
X13071969Y30108031D03*
X45720000Y34290000D03*
D25*
X45720000Y35342113D01*
X44232113Y36830000D01*
X22860000Y36830000D01*
X21590000Y35560000D01*
D23*
X-33763938Y109963938D03*
D25*
X-30697875Y113030000D01*
X7620000Y113030000D01*
X16743644Y103906356D01*
X16743644Y103760000D01*
X16727875Y35560000D02*
X21590000Y35560000D01*
X16727875Y35560000D02*
X12173938Y31006063D01*
D23*
X12173938Y31006063D03*
D25*
X-21356356Y98023644D02*
X-21356356Y103760000D01*
X-21356356Y98023644D02*
X-21590000Y97790000D01*
D23*
X-21590000Y97790000D03*
X-25400000Y90170000D03*
D25*
X-25400000Y45720000D01*
X-24130000Y44450000D01*
X-16510000Y44450000D01*
X5080000Y22860000D01*
X29210000Y22860000D01*
X31750000Y20320000D01*
X31750000Y8890000D01*
D19*
X-78740000Y92710000D03*
D25*
X-16276356Y152020000D02*
X-16276356Y156443644D01*
X-15240000Y157480000D01*
X44450000Y157480000D01*
X52070000Y149860000D02*
X52310000Y149860000D01*
X52070000Y149860000D02*
X44450000Y157480000D01*
X-13736356Y155173644D02*
X-13736356Y152020000D01*
X-13736356Y155173644D02*
X-12700000Y156210000D01*
X40960000Y156210000D01*
X47310000Y149860000D01*
X-8276356Y154940000D02*
X-11196356Y152020000D01*
X-8276356Y154940000D02*
X37230000Y154940000D01*
X42310000Y149860000D01*
X-7006356Y153670000D02*
X-8656356Y152020000D01*
X-7006356Y153670000D02*
X34290000Y153670000D01*
X37310000Y150650000D01*
X37310000Y149860000D01*
M02*
