G04 EAGLE Gerber X2 export*
%TF.Part,Single*%
%TF.FileFunction,Legend,Bot,1*%
%TF.FilePolarity,Positive*%
%TF.GenerationSoftware,Autodesk,EAGLE,9.7.0*%
%TF.CreationDate,2022-06-29T19:00:45Z*%
G75*
%MOMM*%
%FSLAX26Y26*%
%LPD*%
%INbottom silkscreen*%
%AMOC8*
5,1,8,0,0,1.08239X$1,22.5*%
G01*
G04 Define Apertures*
%ADD10C,0.152400*%
%ADD11C,0.203200*%
%ADD12C,0.200000*%
%ADD13C,0.127000*%
%ADD14C,0.300000*%
%ADD15C,0.101600*%
D10*
X-78994000Y55956200D02*
X-78994000Y55118000D01*
X-79502000Y54610000D01*
X-80441800Y54610000D01*
X-80441800Y55905400D01*
X-80441800Y77978000D01*
X-79527400Y77978000D01*
X-79019400Y77470000D01*
X-79019400Y76631800D01*
X-80010000Y76200000D02*
X-80391000Y76581000D01*
X-80010000Y76200000D02*
X-80010000Y56337200D01*
X-80441800Y55905400D01*
D11*
X-55981600Y66141600D02*
X-55981600Y68478400D01*
X-56630709Y68478400D01*
X-56630709Y68478401D02*
X-56646516Y68478209D01*
X-56662313Y68477631D01*
X-56678091Y68476669D01*
X-56693842Y68475324D01*
X-56709554Y68473595D01*
X-56725221Y68471484D01*
X-56740831Y68468992D01*
X-56756375Y68466120D01*
X-56771846Y68462872D01*
X-56787232Y68459247D01*
X-56802526Y68455249D01*
X-56817718Y68450879D01*
X-56832799Y68446141D01*
X-56847760Y68441037D01*
X-56862592Y68435570D01*
X-56877287Y68429744D01*
X-56891836Y68423561D01*
X-56906229Y68417026D01*
X-56920460Y68410143D01*
X-56934518Y68402915D01*
X-56948396Y68395347D01*
X-56962086Y68387443D01*
X-56975580Y68379208D01*
X-56988869Y68370647D01*
X-57001945Y68361765D01*
X-57014801Y68352567D01*
X-57027430Y68343059D01*
X-57039823Y68333246D01*
X-57051974Y68323134D01*
X-57063874Y68312729D01*
X-57075518Y68302038D01*
X-57086898Y68291066D01*
X-57098008Y68279821D01*
X-57108840Y68268308D01*
X-57119389Y68256535D01*
X-57129648Y68244508D01*
X-57139611Y68232235D01*
X-57149272Y68219724D01*
X-57158626Y68206980D01*
X-57167667Y68194013D01*
X-57176389Y68180829D01*
X-57184787Y68167437D01*
X-57192857Y68153845D01*
X-57200594Y68140059D01*
X-57207993Y68126090D01*
X-57215049Y68111944D01*
X-57221758Y68097631D01*
X-57228118Y68083159D01*
X-57234123Y68068536D01*
X-57239770Y68053772D01*
X-57245055Y68038874D01*
X-57249977Y68023852D01*
X-57254531Y68008714D01*
X-57258715Y67993470D01*
X-57262527Y67978129D01*
X-57265964Y67962700D01*
X-57269024Y67947191D01*
X-57271706Y67931612D01*
X-57274008Y67915973D01*
X-57275928Y67900282D01*
X-57277465Y67884549D01*
X-57278619Y67868784D01*
X-57279389Y67852995D01*
X-57279774Y67837192D01*
X-57279774Y67821384D01*
X-57279389Y67805581D01*
X-57278619Y67789792D01*
X-57277465Y67774027D01*
X-57275928Y67758294D01*
X-57274008Y67742603D01*
X-57271706Y67726964D01*
X-57269024Y67711385D01*
X-57265964Y67695876D01*
X-57262527Y67680447D01*
X-57258715Y67665106D01*
X-57254531Y67649862D01*
X-57249977Y67634724D01*
X-57245055Y67619702D01*
X-57239770Y67604804D01*
X-57234123Y67590040D01*
X-57228118Y67575417D01*
X-57221758Y67560945D01*
X-57215049Y67546632D01*
X-57207993Y67532486D01*
X-57200594Y67518517D01*
X-57192857Y67504732D01*
X-57184787Y67491139D01*
X-57176389Y67477747D01*
X-57167667Y67464563D01*
X-57158626Y67451596D01*
X-57149272Y67438852D01*
X-57139611Y67426341D01*
X-57129648Y67414068D01*
X-57119389Y67402041D01*
X-57108840Y67390268D01*
X-57098008Y67378755D01*
X-57086898Y67367510D01*
X-57075518Y67356538D01*
X-57063874Y67345847D01*
X-57051974Y67335442D01*
X-57039823Y67325330D01*
X-57027430Y67315517D01*
X-57014801Y67306009D01*
X-57001945Y67296811D01*
X-56988869Y67287929D01*
X-56975580Y67279368D01*
X-56962086Y67271133D01*
X-56948396Y67263229D01*
X-56934518Y67255661D01*
X-56920460Y67248433D01*
X-56906229Y67241550D01*
X-56891836Y67235015D01*
X-56877287Y67228832D01*
X-56862592Y67223006D01*
X-56847760Y67217539D01*
X-56832799Y67212435D01*
X-56817718Y67207697D01*
X-56802526Y67203327D01*
X-56787232Y67199329D01*
X-56771846Y67195704D01*
X-56756375Y67192456D01*
X-56740831Y67189584D01*
X-56725221Y67187092D01*
X-56709554Y67184981D01*
X-56693842Y67183252D01*
X-56678091Y67181907D01*
X-56662313Y67180945D01*
X-56646516Y67180367D01*
X-56630709Y67180175D01*
X-55981600Y67180175D01*
X-56760531Y67180175D02*
X-57279822Y66141600D01*
X-57933281Y66141600D02*
X-58712213Y68478400D01*
X-59491147Y66141600D01*
X-59296413Y66725800D02*
X-58128013Y66725800D01*
X-60150982Y66790709D02*
X-60151174Y66806515D01*
X-60151752Y66822313D01*
X-60152714Y66838091D01*
X-60154059Y66853841D01*
X-60155788Y66869554D01*
X-60157899Y66885220D01*
X-60160391Y66900830D01*
X-60163262Y66916375D01*
X-60166511Y66931845D01*
X-60170136Y66947231D01*
X-60174134Y66962525D01*
X-60178504Y66977717D01*
X-60183242Y66992798D01*
X-60188346Y67007759D01*
X-60193813Y67022591D01*
X-60199639Y67037286D01*
X-60205822Y67051834D01*
X-60212356Y67066228D01*
X-60219240Y67080458D01*
X-60226468Y67094516D01*
X-60234036Y67108395D01*
X-60241940Y67122084D01*
X-60250175Y67135578D01*
X-60258736Y67148866D01*
X-60267618Y67161943D01*
X-60276815Y67174799D01*
X-60286324Y67187427D01*
X-60296136Y67199820D01*
X-60306248Y67211971D01*
X-60316653Y67223872D01*
X-60327344Y67235515D01*
X-60338316Y67246895D01*
X-60349561Y67258005D01*
X-60361074Y67268837D01*
X-60372847Y67279386D01*
X-60384873Y67289645D01*
X-60397146Y67299608D01*
X-60409658Y67309269D01*
X-60422401Y67318623D01*
X-60435368Y67327663D01*
X-60448552Y67336385D01*
X-60461944Y67344784D01*
X-60475537Y67352854D01*
X-60489322Y67360590D01*
X-60503291Y67367989D01*
X-60517436Y67375045D01*
X-60531749Y67381755D01*
X-60546221Y67388114D01*
X-60560844Y67394119D01*
X-60575609Y67399766D01*
X-60590506Y67405052D01*
X-60605528Y67409973D01*
X-60620666Y67414527D01*
X-60635910Y67418711D01*
X-60651251Y67422523D01*
X-60666680Y67425960D01*
X-60682189Y67429021D01*
X-60697767Y67431702D01*
X-60713407Y67434004D01*
X-60729097Y67435924D01*
X-60744830Y67437461D01*
X-60760595Y67438615D01*
X-60776384Y67439385D01*
X-60792187Y67439770D01*
X-60807995Y67439770D01*
X-60823798Y67439385D01*
X-60839587Y67438615D01*
X-60855352Y67437461D01*
X-60871085Y67435924D01*
X-60886775Y67434004D01*
X-60902415Y67431702D01*
X-60917993Y67429021D01*
X-60933502Y67425960D01*
X-60948931Y67422523D01*
X-60964272Y67418711D01*
X-60979516Y67414527D01*
X-60994654Y67409973D01*
X-61009676Y67405052D01*
X-61024573Y67399766D01*
X-61039338Y67394119D01*
X-61053961Y67388114D01*
X-61068433Y67381755D01*
X-61082746Y67375045D01*
X-61096891Y67367989D01*
X-61110860Y67360590D01*
X-61124646Y67352854D01*
X-61138238Y67344784D01*
X-61151630Y67336385D01*
X-61164814Y67327663D01*
X-61177781Y67318623D01*
X-61190524Y67309269D01*
X-61203036Y67299608D01*
X-61215309Y67289645D01*
X-61227335Y67279386D01*
X-61239108Y67268837D01*
X-61250621Y67258005D01*
X-61261866Y67246895D01*
X-61272838Y67235515D01*
X-61283529Y67223872D01*
X-61293934Y67211971D01*
X-61304046Y67199820D01*
X-61313858Y67187427D01*
X-61323367Y67174799D01*
X-61332564Y67161943D01*
X-61341446Y67148866D01*
X-61350007Y67135578D01*
X-61358242Y67122084D01*
X-61366146Y67108395D01*
X-61373714Y67094516D01*
X-61380942Y67080458D01*
X-61387826Y67066228D01*
X-61394360Y67051834D01*
X-61400543Y67037286D01*
X-61406369Y67022591D01*
X-61411836Y67007759D01*
X-61416940Y66992798D01*
X-61421678Y66977717D01*
X-61426048Y66962525D01*
X-61430046Y66947231D01*
X-61433671Y66931845D01*
X-61436920Y66916375D01*
X-61439791Y66900830D01*
X-61442283Y66885220D01*
X-61444394Y66869554D01*
X-61446123Y66853841D01*
X-61447468Y66838091D01*
X-61448430Y66822313D01*
X-61449008Y66806515D01*
X-61449200Y66790709D01*
X-61449204Y66790709D02*
X-61449012Y66774902D01*
X-61448434Y66759105D01*
X-61447472Y66743327D01*
X-61446127Y66727576D01*
X-61444398Y66711864D01*
X-61442287Y66696197D01*
X-61439795Y66680587D01*
X-61436923Y66665043D01*
X-61433675Y66649572D01*
X-61430050Y66634186D01*
X-61426052Y66618892D01*
X-61421682Y66603700D01*
X-61416944Y66588619D01*
X-61411840Y66573658D01*
X-61406373Y66558826D01*
X-61400547Y66544131D01*
X-61394364Y66529582D01*
X-61387829Y66515189D01*
X-61380946Y66500958D01*
X-61373718Y66486900D01*
X-61366150Y66473022D01*
X-61358246Y66459332D01*
X-61350011Y66445838D01*
X-61341450Y66432549D01*
X-61332568Y66419473D01*
X-61323370Y66406617D01*
X-61313862Y66393988D01*
X-61304049Y66381595D01*
X-61293937Y66369444D01*
X-61283532Y66357544D01*
X-61272841Y66345900D01*
X-61261869Y66334520D01*
X-61250624Y66323410D01*
X-61239111Y66312578D01*
X-61227338Y66302029D01*
X-61215311Y66291770D01*
X-61203038Y66281807D01*
X-61190527Y66272146D01*
X-61177783Y66262792D01*
X-61164816Y66253751D01*
X-61151632Y66245029D01*
X-61138240Y66236631D01*
X-61124648Y66228561D01*
X-61110862Y66220824D01*
X-61096893Y66213425D01*
X-61082747Y66206369D01*
X-61068434Y66199660D01*
X-61053962Y66193300D01*
X-61039339Y66187295D01*
X-61024575Y66181648D01*
X-61009677Y66176363D01*
X-60994655Y66171441D01*
X-60979517Y66166887D01*
X-60964273Y66162703D01*
X-60948932Y66158891D01*
X-60933503Y66155454D01*
X-60917994Y66152394D01*
X-60902415Y66149712D01*
X-60886776Y66147410D01*
X-60871085Y66145490D01*
X-60855352Y66143953D01*
X-60839587Y66142799D01*
X-60823798Y66142029D01*
X-60807995Y66141644D01*
X-60792187Y66141644D01*
X-60776384Y66142029D01*
X-60760595Y66142799D01*
X-60744830Y66143953D01*
X-60729097Y66145490D01*
X-60713406Y66147410D01*
X-60697767Y66149712D01*
X-60682188Y66152394D01*
X-60666679Y66155454D01*
X-60651250Y66158891D01*
X-60635909Y66162703D01*
X-60620665Y66166887D01*
X-60605527Y66171441D01*
X-60590505Y66176363D01*
X-60575607Y66181648D01*
X-60560843Y66187295D01*
X-60546220Y66193300D01*
X-60531748Y66199660D01*
X-60517435Y66206369D01*
X-60503289Y66213425D01*
X-60489320Y66220824D01*
X-60475534Y66228561D01*
X-60461942Y66236631D01*
X-60448550Y66245029D01*
X-60435366Y66253751D01*
X-60422399Y66262792D01*
X-60409655Y66272146D01*
X-60397144Y66281807D01*
X-60384871Y66291770D01*
X-60372844Y66302029D01*
X-60361071Y66312578D01*
X-60349558Y66323410D01*
X-60338313Y66334520D01*
X-60327341Y66345900D01*
X-60316650Y66357544D01*
X-60306245Y66369444D01*
X-60296133Y66381595D01*
X-60286320Y66393988D01*
X-60276812Y66406617D01*
X-60267614Y66419473D01*
X-60258732Y66432549D01*
X-60250171Y66445838D01*
X-60241936Y66459332D01*
X-60234032Y66473022D01*
X-60226464Y66486900D01*
X-60219236Y66500958D01*
X-60212353Y66515189D01*
X-60205818Y66529582D01*
X-60199635Y66544131D01*
X-60193809Y66558826D01*
X-60188342Y66573658D01*
X-60183238Y66588619D01*
X-60178500Y66603700D01*
X-60174130Y66618892D01*
X-60170132Y66634186D01*
X-60166507Y66649572D01*
X-60163259Y66665043D01*
X-60160387Y66680587D01*
X-60157895Y66696197D01*
X-60155784Y66711864D01*
X-60154055Y66727576D01*
X-60152710Y66743327D01*
X-60151748Y66759105D01*
X-60151170Y66774902D01*
X-60150978Y66790709D01*
X-60280803Y67959109D02*
X-60280957Y67971754D01*
X-60281419Y67984392D01*
X-60282188Y67997015D01*
X-60283265Y68009615D01*
X-60284648Y68022185D01*
X-60286337Y68034718D01*
X-60288330Y68047206D01*
X-60290627Y68059642D01*
X-60293227Y68072018D01*
X-60296126Y68084327D01*
X-60299325Y68096562D01*
X-60302820Y68108715D01*
X-60306611Y68120780D01*
X-60310694Y68132749D01*
X-60315068Y68144615D01*
X-60319729Y68156371D01*
X-60324675Y68168009D01*
X-60329903Y68179524D01*
X-60335409Y68190908D01*
X-60341192Y68202155D01*
X-60347246Y68213258D01*
X-60353569Y68224210D01*
X-60360157Y68235004D01*
X-60367006Y68245635D01*
X-60374112Y68256096D01*
X-60381470Y68266381D01*
X-60389076Y68276484D01*
X-60396927Y68286399D01*
X-60405016Y68296119D01*
X-60413340Y68305640D01*
X-60421893Y68314955D01*
X-60430670Y68324059D01*
X-60439667Y68332946D01*
X-60448877Y68341612D01*
X-60458295Y68350051D01*
X-60467916Y68358258D01*
X-60477735Y68366229D01*
X-60487744Y68373958D01*
X-60497939Y68381441D01*
X-60508312Y68388673D01*
X-60518859Y68395651D01*
X-60529573Y68402370D01*
X-60540447Y68408826D01*
X-60551475Y68415015D01*
X-60562651Y68420934D01*
X-60573967Y68426579D01*
X-60585417Y68431946D01*
X-60596995Y68437034D01*
X-60608693Y68441838D01*
X-60620505Y68446355D01*
X-60632423Y68450584D01*
X-60644441Y68454521D01*
X-60656551Y68458164D01*
X-60668746Y68461512D01*
X-60681019Y68464561D01*
X-60693362Y68467311D01*
X-60705769Y68469759D01*
X-60718232Y68471904D01*
X-60730743Y68473746D01*
X-60743296Y68475282D01*
X-60755882Y68476512D01*
X-60768494Y68477435D01*
X-60781126Y68478051D01*
X-60793768Y68478359D01*
X-60806414Y68478359D01*
X-60819056Y68478051D01*
X-60831688Y68477435D01*
X-60844300Y68476512D01*
X-60856886Y68475282D01*
X-60869439Y68473746D01*
X-60881950Y68471904D01*
X-60894413Y68469759D01*
X-60906820Y68467311D01*
X-60919163Y68464561D01*
X-60931436Y68461512D01*
X-60943631Y68458164D01*
X-60955741Y68454521D01*
X-60967759Y68450584D01*
X-60979677Y68446355D01*
X-60991489Y68441838D01*
X-61003187Y68437034D01*
X-61014765Y68431946D01*
X-61026215Y68426579D01*
X-61037531Y68420934D01*
X-61048707Y68415015D01*
X-61059735Y68408826D01*
X-61070609Y68402370D01*
X-61081323Y68395651D01*
X-61091870Y68388673D01*
X-61102243Y68381441D01*
X-61112438Y68373958D01*
X-61122447Y68366229D01*
X-61132266Y68358258D01*
X-61141887Y68350051D01*
X-61151305Y68341612D01*
X-61160515Y68332946D01*
X-61169512Y68324059D01*
X-61178289Y68314955D01*
X-61186842Y68305640D01*
X-61195166Y68296119D01*
X-61203255Y68286399D01*
X-61211106Y68276484D01*
X-61218712Y68266381D01*
X-61226070Y68256096D01*
X-61233176Y68245635D01*
X-61240025Y68235004D01*
X-61246613Y68224210D01*
X-61252936Y68213258D01*
X-61258990Y68202155D01*
X-61264773Y68190908D01*
X-61270279Y68179524D01*
X-61275507Y68168009D01*
X-61280453Y68156371D01*
X-61285114Y68144615D01*
X-61289488Y68132749D01*
X-61293571Y68120780D01*
X-61297362Y68108715D01*
X-61300857Y68096562D01*
X-61304056Y68084327D01*
X-61306955Y68072018D01*
X-61309555Y68059642D01*
X-61311852Y68047206D01*
X-61313845Y68034718D01*
X-61315534Y68022185D01*
X-61316917Y68009615D01*
X-61317994Y67997015D01*
X-61318763Y67984392D01*
X-61319225Y67971754D01*
X-61319379Y67959109D01*
X-61319382Y67959109D02*
X-61319228Y67946464D01*
X-61318766Y67933826D01*
X-61317997Y67921203D01*
X-61316920Y67908603D01*
X-61315537Y67896033D01*
X-61313848Y67883500D01*
X-61311855Y67871012D01*
X-61309558Y67858576D01*
X-61306958Y67846199D01*
X-61304059Y67833890D01*
X-61300860Y67821655D01*
X-61297364Y67809502D01*
X-61293574Y67797437D01*
X-61289491Y67785468D01*
X-61285117Y67773602D01*
X-61280456Y67761846D01*
X-61275510Y67750207D01*
X-61270282Y67738692D01*
X-61264775Y67727308D01*
X-61258993Y67716061D01*
X-61252938Y67704959D01*
X-61246615Y67694007D01*
X-61240027Y67683212D01*
X-61233179Y67672581D01*
X-61226073Y67662120D01*
X-61218715Y67651835D01*
X-61211108Y67641732D01*
X-61203258Y67631817D01*
X-61195168Y67622097D01*
X-61186844Y67612576D01*
X-61178291Y67603261D01*
X-61169514Y67594157D01*
X-61160517Y67585270D01*
X-61151307Y67576604D01*
X-61141889Y67568165D01*
X-61132267Y67559957D01*
X-61122449Y67551987D01*
X-61112440Y67544258D01*
X-61102245Y67536775D01*
X-61091871Y67529542D01*
X-61081324Y67522565D01*
X-61070611Y67515846D01*
X-61059737Y67509390D01*
X-61048708Y67503201D01*
X-61037533Y67497282D01*
X-61026216Y67491637D01*
X-61014766Y67486269D01*
X-61003188Y67481182D01*
X-60991490Y67476378D01*
X-60979678Y67471860D01*
X-60967760Y67467631D01*
X-60955742Y67463694D01*
X-60943632Y67460051D01*
X-60931437Y67456703D01*
X-60919164Y67453654D01*
X-60906820Y67450904D01*
X-60894413Y67448456D01*
X-60881950Y67446311D01*
X-60869439Y67444469D01*
X-60856886Y67442933D01*
X-60844300Y67441703D01*
X-60831688Y67440780D01*
X-60819057Y67440164D01*
X-60806414Y67439856D01*
X-60793768Y67439856D01*
X-60781125Y67440164D01*
X-60768494Y67440780D01*
X-60755882Y67441703D01*
X-60743296Y67442933D01*
X-60730743Y67444469D01*
X-60718232Y67446311D01*
X-60705769Y67448456D01*
X-60693362Y67450904D01*
X-60681018Y67453654D01*
X-60668745Y67456703D01*
X-60656550Y67460051D01*
X-60644440Y67463694D01*
X-60632422Y67467631D01*
X-60620504Y67471860D01*
X-60608692Y67476378D01*
X-60596994Y67481182D01*
X-60585416Y67486269D01*
X-60573966Y67491637D01*
X-60562649Y67497282D01*
X-60551474Y67503201D01*
X-60540445Y67509390D01*
X-60529571Y67515846D01*
X-60518858Y67522565D01*
X-60508311Y67529542D01*
X-60497937Y67536775D01*
X-60487742Y67544258D01*
X-60477733Y67551987D01*
X-60467915Y67559957D01*
X-60458293Y67568165D01*
X-60448875Y67576604D01*
X-60439665Y67585270D01*
X-60430668Y67594157D01*
X-60421891Y67603261D01*
X-60413338Y67612576D01*
X-60405014Y67622097D01*
X-60396924Y67631817D01*
X-60389074Y67641732D01*
X-60381467Y67651835D01*
X-60374109Y67662120D01*
X-60367003Y67672581D01*
X-60360155Y67683212D01*
X-60353567Y67694007D01*
X-60347244Y67704959D01*
X-60341189Y67716061D01*
X-60335407Y67727308D01*
X-60329900Y67738692D01*
X-60324672Y67750207D01*
X-60319726Y67761846D01*
X-60315065Y67773602D01*
X-60310691Y67785468D01*
X-60306608Y67797437D01*
X-60302818Y67809502D01*
X-60299322Y67821655D01*
X-60296123Y67833890D01*
X-60293224Y67846199D01*
X-60290624Y67858576D01*
X-60288327Y67871012D01*
X-60286334Y67883500D01*
X-60284645Y67896033D01*
X-60283262Y67908603D01*
X-60282185Y67921203D01*
X-60281416Y67933826D01*
X-60280954Y67946464D01*
X-60280800Y67959109D01*
X-62238860Y66790709D02*
X-62239052Y66806515D01*
X-62239630Y66822313D01*
X-62240592Y66838091D01*
X-62241937Y66853841D01*
X-62243666Y66869554D01*
X-62245777Y66885220D01*
X-62248269Y66900830D01*
X-62251140Y66916375D01*
X-62254389Y66931845D01*
X-62258014Y66947231D01*
X-62262012Y66962525D01*
X-62266382Y66977717D01*
X-62271120Y66992798D01*
X-62276224Y67007759D01*
X-62281691Y67022591D01*
X-62287517Y67037286D01*
X-62293700Y67051834D01*
X-62300234Y67066228D01*
X-62307118Y67080458D01*
X-62314346Y67094516D01*
X-62321914Y67108395D01*
X-62329818Y67122084D01*
X-62338053Y67135578D01*
X-62346614Y67148866D01*
X-62355496Y67161943D01*
X-62364693Y67174799D01*
X-62374202Y67187427D01*
X-62384014Y67199820D01*
X-62394126Y67211971D01*
X-62404531Y67223872D01*
X-62415222Y67235515D01*
X-62426194Y67246895D01*
X-62437439Y67258005D01*
X-62448952Y67268837D01*
X-62460725Y67279386D01*
X-62472751Y67289645D01*
X-62485024Y67299608D01*
X-62497536Y67309269D01*
X-62510279Y67318623D01*
X-62523246Y67327663D01*
X-62536430Y67336385D01*
X-62549822Y67344784D01*
X-62563415Y67352854D01*
X-62577200Y67360590D01*
X-62591169Y67367989D01*
X-62605314Y67375045D01*
X-62619627Y67381755D01*
X-62634099Y67388114D01*
X-62648722Y67394119D01*
X-62663487Y67399766D01*
X-62678384Y67405052D01*
X-62693406Y67409973D01*
X-62708544Y67414527D01*
X-62723788Y67418711D01*
X-62739129Y67422523D01*
X-62754558Y67425960D01*
X-62770067Y67429021D01*
X-62785645Y67431702D01*
X-62801285Y67434004D01*
X-62816975Y67435924D01*
X-62832708Y67437461D01*
X-62848473Y67438615D01*
X-62864262Y67439385D01*
X-62880065Y67439770D01*
X-62895873Y67439770D01*
X-62911676Y67439385D01*
X-62927465Y67438615D01*
X-62943230Y67437461D01*
X-62958963Y67435924D01*
X-62974653Y67434004D01*
X-62990293Y67431702D01*
X-63005871Y67429021D01*
X-63021380Y67425960D01*
X-63036809Y67422523D01*
X-63052150Y67418711D01*
X-63067394Y67414527D01*
X-63082532Y67409973D01*
X-63097554Y67405052D01*
X-63112451Y67399766D01*
X-63127216Y67394119D01*
X-63141839Y67388114D01*
X-63156311Y67381755D01*
X-63170624Y67375045D01*
X-63184769Y67367989D01*
X-63198738Y67360590D01*
X-63212524Y67352854D01*
X-63226116Y67344784D01*
X-63239508Y67336385D01*
X-63252692Y67327663D01*
X-63265659Y67318623D01*
X-63278402Y67309269D01*
X-63290914Y67299608D01*
X-63303187Y67289645D01*
X-63315213Y67279386D01*
X-63326986Y67268837D01*
X-63338499Y67258005D01*
X-63349744Y67246895D01*
X-63360716Y67235515D01*
X-63371407Y67223872D01*
X-63381812Y67211971D01*
X-63391924Y67199820D01*
X-63401736Y67187427D01*
X-63411245Y67174799D01*
X-63420442Y67161943D01*
X-63429324Y67148866D01*
X-63437885Y67135578D01*
X-63446120Y67122084D01*
X-63454024Y67108395D01*
X-63461592Y67094516D01*
X-63468820Y67080458D01*
X-63475704Y67066228D01*
X-63482238Y67051834D01*
X-63488421Y67037286D01*
X-63494247Y67022591D01*
X-63499714Y67007759D01*
X-63504818Y66992798D01*
X-63509556Y66977717D01*
X-63513926Y66962525D01*
X-63517924Y66947231D01*
X-63521549Y66931845D01*
X-63524798Y66916375D01*
X-63527669Y66900830D01*
X-63530161Y66885220D01*
X-63532272Y66869554D01*
X-63534001Y66853841D01*
X-63535346Y66838091D01*
X-63536308Y66822313D01*
X-63536886Y66806515D01*
X-63537078Y66790709D01*
X-63537082Y66790709D02*
X-63536890Y66774902D01*
X-63536312Y66759105D01*
X-63535350Y66743327D01*
X-63534005Y66727576D01*
X-63532276Y66711864D01*
X-63530165Y66696197D01*
X-63527673Y66680587D01*
X-63524801Y66665043D01*
X-63521553Y66649572D01*
X-63517928Y66634186D01*
X-63513930Y66618892D01*
X-63509560Y66603700D01*
X-63504822Y66588619D01*
X-63499718Y66573658D01*
X-63494251Y66558826D01*
X-63488425Y66544131D01*
X-63482242Y66529582D01*
X-63475707Y66515189D01*
X-63468824Y66500958D01*
X-63461596Y66486900D01*
X-63454028Y66473022D01*
X-63446124Y66459332D01*
X-63437889Y66445838D01*
X-63429328Y66432549D01*
X-63420446Y66419473D01*
X-63411248Y66406617D01*
X-63401740Y66393988D01*
X-63391927Y66381595D01*
X-63381815Y66369444D01*
X-63371410Y66357544D01*
X-63360719Y66345900D01*
X-63349747Y66334520D01*
X-63338502Y66323410D01*
X-63326989Y66312578D01*
X-63315216Y66302029D01*
X-63303189Y66291770D01*
X-63290916Y66281807D01*
X-63278405Y66272146D01*
X-63265661Y66262792D01*
X-63252694Y66253751D01*
X-63239510Y66245029D01*
X-63226118Y66236631D01*
X-63212526Y66228561D01*
X-63198740Y66220824D01*
X-63184771Y66213425D01*
X-63170625Y66206369D01*
X-63156312Y66199660D01*
X-63141840Y66193300D01*
X-63127217Y66187295D01*
X-63112453Y66181648D01*
X-63097555Y66176363D01*
X-63082533Y66171441D01*
X-63067395Y66166887D01*
X-63052151Y66162703D01*
X-63036810Y66158891D01*
X-63021381Y66155454D01*
X-63005872Y66152394D01*
X-62990293Y66149712D01*
X-62974654Y66147410D01*
X-62958963Y66145490D01*
X-62943230Y66143953D01*
X-62927465Y66142799D01*
X-62911676Y66142029D01*
X-62895873Y66141644D01*
X-62880065Y66141644D01*
X-62864262Y66142029D01*
X-62848473Y66142799D01*
X-62832708Y66143953D01*
X-62816975Y66145490D01*
X-62801284Y66147410D01*
X-62785645Y66149712D01*
X-62770066Y66152394D01*
X-62754557Y66155454D01*
X-62739128Y66158891D01*
X-62723787Y66162703D01*
X-62708543Y66166887D01*
X-62693405Y66171441D01*
X-62678383Y66176363D01*
X-62663485Y66181648D01*
X-62648721Y66187295D01*
X-62634098Y66193300D01*
X-62619626Y66199660D01*
X-62605313Y66206369D01*
X-62591167Y66213425D01*
X-62577198Y66220824D01*
X-62563412Y66228561D01*
X-62549820Y66236631D01*
X-62536428Y66245029D01*
X-62523244Y66253751D01*
X-62510277Y66262792D01*
X-62497533Y66272146D01*
X-62485022Y66281807D01*
X-62472749Y66291770D01*
X-62460722Y66302029D01*
X-62448949Y66312578D01*
X-62437436Y66323410D01*
X-62426191Y66334520D01*
X-62415219Y66345900D01*
X-62404528Y66357544D01*
X-62394123Y66369444D01*
X-62384011Y66381595D01*
X-62374198Y66393988D01*
X-62364690Y66406617D01*
X-62355492Y66419473D01*
X-62346610Y66432549D01*
X-62338049Y66445838D01*
X-62329814Y66459332D01*
X-62321910Y66473022D01*
X-62314342Y66486900D01*
X-62307114Y66500958D01*
X-62300231Y66515189D01*
X-62293696Y66529582D01*
X-62287513Y66544131D01*
X-62281687Y66558826D01*
X-62276220Y66573658D01*
X-62271116Y66588619D01*
X-62266378Y66603700D01*
X-62262008Y66618892D01*
X-62258010Y66634186D01*
X-62254385Y66649572D01*
X-62251137Y66665043D01*
X-62248265Y66680587D01*
X-62245773Y66696197D01*
X-62243662Y66711864D01*
X-62241933Y66727576D01*
X-62240588Y66743327D01*
X-62239626Y66759105D01*
X-62239048Y66774902D01*
X-62238856Y66790709D01*
X-62368681Y67959109D02*
X-62368835Y67971754D01*
X-62369297Y67984392D01*
X-62370066Y67997015D01*
X-62371143Y68009615D01*
X-62372526Y68022185D01*
X-62374215Y68034718D01*
X-62376208Y68047206D01*
X-62378505Y68059642D01*
X-62381105Y68072018D01*
X-62384004Y68084327D01*
X-62387203Y68096562D01*
X-62390698Y68108715D01*
X-62394489Y68120780D01*
X-62398572Y68132749D01*
X-62402946Y68144615D01*
X-62407607Y68156371D01*
X-62412553Y68168009D01*
X-62417781Y68179524D01*
X-62423287Y68190908D01*
X-62429070Y68202155D01*
X-62435124Y68213258D01*
X-62441447Y68224210D01*
X-62448035Y68235004D01*
X-62454884Y68245635D01*
X-62461990Y68256096D01*
X-62469348Y68266381D01*
X-62476954Y68276484D01*
X-62484805Y68286399D01*
X-62492894Y68296119D01*
X-62501218Y68305640D01*
X-62509771Y68314955D01*
X-62518548Y68324059D01*
X-62527545Y68332946D01*
X-62536755Y68341612D01*
X-62546173Y68350051D01*
X-62555794Y68358258D01*
X-62565613Y68366229D01*
X-62575622Y68373958D01*
X-62585817Y68381441D01*
X-62596190Y68388673D01*
X-62606737Y68395651D01*
X-62617451Y68402370D01*
X-62628325Y68408826D01*
X-62639353Y68415015D01*
X-62650529Y68420934D01*
X-62661845Y68426579D01*
X-62673295Y68431946D01*
X-62684873Y68437034D01*
X-62696571Y68441838D01*
X-62708383Y68446355D01*
X-62720301Y68450584D01*
X-62732319Y68454521D01*
X-62744429Y68458164D01*
X-62756624Y68461512D01*
X-62768897Y68464561D01*
X-62781240Y68467311D01*
X-62793647Y68469759D01*
X-62806110Y68471904D01*
X-62818621Y68473746D01*
X-62831174Y68475282D01*
X-62843760Y68476512D01*
X-62856372Y68477435D01*
X-62869004Y68478051D01*
X-62881646Y68478359D01*
X-62894292Y68478359D01*
X-62906934Y68478051D01*
X-62919566Y68477435D01*
X-62932178Y68476512D01*
X-62944764Y68475282D01*
X-62957317Y68473746D01*
X-62969828Y68471904D01*
X-62982291Y68469759D01*
X-62994698Y68467311D01*
X-63007041Y68464561D01*
X-63019314Y68461512D01*
X-63031509Y68458164D01*
X-63043619Y68454521D01*
X-63055637Y68450584D01*
X-63067555Y68446355D01*
X-63079367Y68441838D01*
X-63091065Y68437034D01*
X-63102643Y68431946D01*
X-63114093Y68426579D01*
X-63125409Y68420934D01*
X-63136585Y68415015D01*
X-63147613Y68408826D01*
X-63158487Y68402370D01*
X-63169201Y68395651D01*
X-63179748Y68388673D01*
X-63190121Y68381441D01*
X-63200316Y68373958D01*
X-63210325Y68366229D01*
X-63220144Y68358258D01*
X-63229765Y68350051D01*
X-63239183Y68341612D01*
X-63248393Y68332946D01*
X-63257390Y68324059D01*
X-63266167Y68314955D01*
X-63274720Y68305640D01*
X-63283044Y68296119D01*
X-63291133Y68286399D01*
X-63298984Y68276484D01*
X-63306590Y68266381D01*
X-63313948Y68256096D01*
X-63321054Y68245635D01*
X-63327903Y68235004D01*
X-63334491Y68224210D01*
X-63340814Y68213258D01*
X-63346868Y68202155D01*
X-63352651Y68190908D01*
X-63358157Y68179524D01*
X-63363385Y68168009D01*
X-63368331Y68156371D01*
X-63372992Y68144615D01*
X-63377366Y68132749D01*
X-63381449Y68120780D01*
X-63385240Y68108715D01*
X-63388735Y68096562D01*
X-63391934Y68084327D01*
X-63394833Y68072018D01*
X-63397433Y68059642D01*
X-63399730Y68047206D01*
X-63401723Y68034718D01*
X-63403412Y68022185D01*
X-63404795Y68009615D01*
X-63405872Y67997015D01*
X-63406641Y67984392D01*
X-63407103Y67971754D01*
X-63407257Y67959109D01*
X-63407260Y67959109D02*
X-63407106Y67946464D01*
X-63406644Y67933826D01*
X-63405875Y67921203D01*
X-63404798Y67908603D01*
X-63403415Y67896033D01*
X-63401726Y67883500D01*
X-63399733Y67871012D01*
X-63397436Y67858576D01*
X-63394836Y67846199D01*
X-63391937Y67833890D01*
X-63388738Y67821655D01*
X-63385242Y67809502D01*
X-63381452Y67797437D01*
X-63377369Y67785468D01*
X-63372995Y67773602D01*
X-63368334Y67761846D01*
X-63363388Y67750207D01*
X-63358160Y67738692D01*
X-63352653Y67727308D01*
X-63346871Y67716061D01*
X-63340816Y67704959D01*
X-63334493Y67694007D01*
X-63327905Y67683212D01*
X-63321057Y67672581D01*
X-63313951Y67662120D01*
X-63306593Y67651835D01*
X-63298986Y67641732D01*
X-63291136Y67631817D01*
X-63283046Y67622097D01*
X-63274722Y67612576D01*
X-63266169Y67603261D01*
X-63257392Y67594157D01*
X-63248395Y67585270D01*
X-63239185Y67576604D01*
X-63229767Y67568165D01*
X-63220145Y67559957D01*
X-63210327Y67551987D01*
X-63200318Y67544258D01*
X-63190123Y67536775D01*
X-63179749Y67529542D01*
X-63169202Y67522565D01*
X-63158489Y67515846D01*
X-63147615Y67509390D01*
X-63136586Y67503201D01*
X-63125411Y67497282D01*
X-63114094Y67491637D01*
X-63102644Y67486269D01*
X-63091066Y67481182D01*
X-63079368Y67476378D01*
X-63067556Y67471860D01*
X-63055638Y67467631D01*
X-63043620Y67463694D01*
X-63031510Y67460051D01*
X-63019315Y67456703D01*
X-63007042Y67453654D01*
X-62994698Y67450904D01*
X-62982291Y67448456D01*
X-62969828Y67446311D01*
X-62957317Y67444469D01*
X-62944764Y67442933D01*
X-62932178Y67441703D01*
X-62919566Y67440780D01*
X-62906935Y67440164D01*
X-62894292Y67439856D01*
X-62881646Y67439856D01*
X-62869003Y67440164D01*
X-62856372Y67440780D01*
X-62843760Y67441703D01*
X-62831174Y67442933D01*
X-62818621Y67444469D01*
X-62806110Y67446311D01*
X-62793647Y67448456D01*
X-62781240Y67450904D01*
X-62768896Y67453654D01*
X-62756623Y67456703D01*
X-62744428Y67460051D01*
X-62732318Y67463694D01*
X-62720300Y67467631D01*
X-62708382Y67471860D01*
X-62696570Y67476378D01*
X-62684872Y67481182D01*
X-62673294Y67486269D01*
X-62661844Y67491637D01*
X-62650527Y67497282D01*
X-62639352Y67503201D01*
X-62628323Y67509390D01*
X-62617449Y67515846D01*
X-62606736Y67522565D01*
X-62596189Y67529542D01*
X-62585815Y67536775D01*
X-62575620Y67544258D01*
X-62565611Y67551987D01*
X-62555793Y67559957D01*
X-62546171Y67568165D01*
X-62536753Y67576604D01*
X-62527543Y67585270D01*
X-62518546Y67594157D01*
X-62509769Y67603261D01*
X-62501216Y67612576D01*
X-62492892Y67622097D01*
X-62484802Y67631817D01*
X-62476952Y67641732D01*
X-62469345Y67651835D01*
X-62461987Y67662120D01*
X-62454881Y67672581D01*
X-62448033Y67683212D01*
X-62441445Y67694007D01*
X-62435122Y67704959D01*
X-62429067Y67716061D01*
X-62423285Y67727308D01*
X-62417778Y67738692D01*
X-62412550Y67750207D01*
X-62407604Y67761846D01*
X-62402943Y67773602D01*
X-62398569Y67785468D01*
X-62394486Y67797437D01*
X-62390696Y67809502D01*
X-62387200Y67821655D01*
X-62384001Y67833890D01*
X-62381102Y67846199D01*
X-62378502Y67858576D01*
X-62376205Y67871012D01*
X-62374212Y67883500D01*
X-62372523Y67896033D01*
X-62371140Y67908603D01*
X-62370063Y67921203D01*
X-62369294Y67933826D01*
X-62368832Y67946464D01*
X-62368678Y67959109D01*
X-64326738Y68218753D02*
X-64326738Y68478400D01*
X-65624959Y68478400D01*
X-64975847Y66141600D01*
X-66414616Y66141600D02*
X-67193547Y66141600D01*
X-67206291Y66141756D01*
X-67219027Y66142226D01*
X-67231748Y66143007D01*
X-67244446Y66144101D01*
X-67257114Y66145505D01*
X-67269743Y66147220D01*
X-67282326Y66149245D01*
X-67294855Y66151578D01*
X-67307324Y66154218D01*
X-67319724Y66157162D01*
X-67332048Y66160411D01*
X-67344289Y66163960D01*
X-67356439Y66167809D01*
X-67368490Y66171955D01*
X-67380437Y66176396D01*
X-67392270Y66181128D01*
X-67403984Y66186150D01*
X-67415572Y66191457D01*
X-67427025Y66197047D01*
X-67438338Y66202917D01*
X-67449504Y66209062D01*
X-67460515Y66215480D01*
X-67471366Y66222166D01*
X-67482049Y66229116D01*
X-67492558Y66236326D01*
X-67502887Y66243792D01*
X-67513030Y66251509D01*
X-67522981Y66259473D01*
X-67532733Y66267678D01*
X-67542280Y66276121D01*
X-67551618Y66284795D01*
X-67560740Y66293696D01*
X-67569641Y66302818D01*
X-67578315Y66312155D01*
X-67586758Y66321703D01*
X-67594963Y66331455D01*
X-67602927Y66341405D01*
X-67610644Y66351548D01*
X-67618110Y66361877D01*
X-67625321Y66372387D01*
X-67632271Y66383070D01*
X-67638957Y66393920D01*
X-67645374Y66404932D01*
X-67651520Y66416097D01*
X-67657389Y66427410D01*
X-67662980Y66438863D01*
X-67668287Y66450451D01*
X-67673308Y66462165D01*
X-67678041Y66473999D01*
X-67682482Y66485945D01*
X-67686628Y66497997D01*
X-67690477Y66510146D01*
X-67694027Y66522387D01*
X-67697275Y66534711D01*
X-67700220Y66547111D01*
X-67702859Y66559580D01*
X-67705192Y66572109D01*
X-67707217Y66584692D01*
X-67708932Y66597321D01*
X-67710337Y66609989D01*
X-67711431Y66622687D01*
X-67712212Y66635408D01*
X-67712682Y66648144D01*
X-67712838Y66660888D01*
X-67712838Y66920531D01*
X-67712686Y66933079D01*
X-67712232Y66945620D01*
X-67711474Y66958146D01*
X-67710414Y66970650D01*
X-67709052Y66983125D01*
X-67707389Y66995563D01*
X-67705426Y67007957D01*
X-67703164Y67020301D01*
X-67700604Y67032586D01*
X-67697748Y67044805D01*
X-67694598Y67056953D01*
X-67691155Y67069020D01*
X-67687422Y67081001D01*
X-67683400Y67092888D01*
X-67679093Y67104674D01*
X-67674501Y67116353D01*
X-67669629Y67127917D01*
X-67664479Y67139361D01*
X-67659053Y67150676D01*
X-67653356Y67161858D01*
X-67647391Y67172898D01*
X-67641160Y67183791D01*
X-67634668Y67194530D01*
X-67627918Y67205109D01*
X-67620915Y67215522D01*
X-67613662Y67225763D01*
X-67606164Y67235825D01*
X-67598425Y67245703D01*
X-67590449Y67255392D01*
X-67582242Y67264885D01*
X-67573808Y67274176D01*
X-67565151Y67283262D01*
X-67556278Y67292135D01*
X-67547192Y67300792D01*
X-67537901Y67309226D01*
X-67528408Y67317433D01*
X-67518719Y67325409D01*
X-67508841Y67333148D01*
X-67498779Y67340646D01*
X-67488538Y67347899D01*
X-67478125Y67354902D01*
X-67467546Y67361652D01*
X-67456807Y67368144D01*
X-67445914Y67374375D01*
X-67434874Y67380340D01*
X-67423692Y67386037D01*
X-67412377Y67391463D01*
X-67400933Y67396613D01*
X-67389369Y67401485D01*
X-67377690Y67406077D01*
X-67365904Y67410384D01*
X-67354017Y67414406D01*
X-67342036Y67418139D01*
X-67329969Y67421582D01*
X-67317821Y67424732D01*
X-67305602Y67427588D01*
X-67293317Y67430148D01*
X-67280973Y67432410D01*
X-67268579Y67434373D01*
X-67256141Y67436036D01*
X-67243666Y67437398D01*
X-67231162Y67438458D01*
X-67218636Y67439216D01*
X-67206095Y67439670D01*
X-67193547Y67439822D01*
X-66414616Y67439822D01*
X-66414616Y68478400D01*
X-67712838Y68478400D01*
X-57279822Y63629822D02*
X-56890353Y63629822D01*
X-57279822Y63629822D02*
X-57279822Y62331600D01*
X-56500888Y62331600D01*
X-56488340Y62331752D01*
X-56475799Y62332206D01*
X-56463273Y62332964D01*
X-56450769Y62334024D01*
X-56438295Y62335386D01*
X-56425857Y62337049D01*
X-56413462Y62339012D01*
X-56401119Y62341274D01*
X-56388834Y62343834D01*
X-56376614Y62346690D01*
X-56364467Y62349840D01*
X-56352400Y62353282D01*
X-56340419Y62357016D01*
X-56328532Y62361037D01*
X-56316746Y62365345D01*
X-56305067Y62369937D01*
X-56293503Y62374809D01*
X-56282059Y62379959D01*
X-56270744Y62385384D01*
X-56259563Y62391081D01*
X-56248523Y62397047D01*
X-56237630Y62403277D01*
X-56226891Y62409769D01*
X-56216312Y62416519D01*
X-56205899Y62423522D01*
X-56195658Y62430775D01*
X-56185596Y62438273D01*
X-56175718Y62446012D01*
X-56166029Y62453988D01*
X-56156536Y62462195D01*
X-56147245Y62470630D01*
X-56138159Y62479286D01*
X-56129286Y62488159D01*
X-56120630Y62497245D01*
X-56112195Y62506536D01*
X-56103988Y62516029D01*
X-56096012Y62525718D01*
X-56088273Y62535596D01*
X-56080775Y62545658D01*
X-56073522Y62555899D01*
X-56066519Y62566312D01*
X-56059769Y62576891D01*
X-56053277Y62587630D01*
X-56047047Y62598523D01*
X-56041081Y62609563D01*
X-56035384Y62620744D01*
X-56029959Y62632059D01*
X-56024809Y62643503D01*
X-56019937Y62655067D01*
X-56015345Y62666746D01*
X-56011037Y62678532D01*
X-56007016Y62690419D01*
X-56003282Y62702400D01*
X-55999840Y62714467D01*
X-55996690Y62726614D01*
X-55993834Y62738834D01*
X-55991274Y62751119D01*
X-55989012Y62763462D01*
X-55987049Y62775857D01*
X-55985386Y62788295D01*
X-55984024Y62800769D01*
X-55982964Y62813273D01*
X-55982206Y62825799D01*
X-55981752Y62838340D01*
X-55981600Y62850888D01*
X-55981600Y64149109D01*
X-55981756Y64161853D01*
X-55982226Y64174589D01*
X-55983007Y64187310D01*
X-55984101Y64200008D01*
X-55985505Y64212676D01*
X-55987220Y64225305D01*
X-55989245Y64237888D01*
X-55991578Y64250417D01*
X-55994218Y64262886D01*
X-55997162Y64275286D01*
X-56000411Y64287610D01*
X-56003960Y64299851D01*
X-56007809Y64312001D01*
X-56011955Y64324052D01*
X-56016396Y64335999D01*
X-56021128Y64347832D01*
X-56026150Y64359546D01*
X-56031457Y64371134D01*
X-56037047Y64382587D01*
X-56042917Y64393900D01*
X-56049062Y64405066D01*
X-56055480Y64416077D01*
X-56062166Y64426928D01*
X-56069116Y64437611D01*
X-56076326Y64448120D01*
X-56083792Y64458449D01*
X-56091509Y64468592D01*
X-56099473Y64478543D01*
X-56107678Y64488295D01*
X-56116121Y64497842D01*
X-56124795Y64507180D01*
X-56133696Y64516302D01*
X-56142818Y64525203D01*
X-56152155Y64533877D01*
X-56161703Y64542320D01*
X-56171455Y64550525D01*
X-56181405Y64558489D01*
X-56191548Y64566206D01*
X-56201877Y64573672D01*
X-56212387Y64580883D01*
X-56223070Y64587833D01*
X-56233920Y64594519D01*
X-56244932Y64600936D01*
X-56256097Y64607082D01*
X-56267410Y64612951D01*
X-56278863Y64618542D01*
X-56290451Y64623849D01*
X-56302165Y64628870D01*
X-56313999Y64633603D01*
X-56325945Y64638044D01*
X-56337997Y64642190D01*
X-56350146Y64646039D01*
X-56362387Y64649589D01*
X-56374711Y64652837D01*
X-56387111Y64655782D01*
X-56399580Y64658421D01*
X-56412109Y64660754D01*
X-56424692Y64662779D01*
X-56437321Y64664494D01*
X-56449989Y64665899D01*
X-56462687Y64666993D01*
X-56475408Y64667774D01*
X-56488144Y64668244D01*
X-56500888Y64668400D01*
X-57279822Y64668400D01*
X-58139072Y64019288D02*
X-58139072Y62980709D01*
X-58139072Y64019288D02*
X-58139264Y64035094D01*
X-58139842Y64050892D01*
X-58140804Y64066670D01*
X-58142149Y64082420D01*
X-58143878Y64098133D01*
X-58145989Y64113799D01*
X-58148481Y64129409D01*
X-58151352Y64144954D01*
X-58154601Y64160424D01*
X-58158226Y64175810D01*
X-58162224Y64191104D01*
X-58166594Y64206296D01*
X-58171332Y64221377D01*
X-58176436Y64236338D01*
X-58181903Y64251170D01*
X-58187729Y64265865D01*
X-58193912Y64280413D01*
X-58200446Y64294807D01*
X-58207330Y64309037D01*
X-58214558Y64323095D01*
X-58222126Y64336974D01*
X-58230030Y64350663D01*
X-58238265Y64364157D01*
X-58246826Y64377445D01*
X-58255708Y64390522D01*
X-58264905Y64403378D01*
X-58274414Y64416006D01*
X-58284226Y64428399D01*
X-58294338Y64440550D01*
X-58304743Y64452451D01*
X-58315434Y64464094D01*
X-58326406Y64475474D01*
X-58337651Y64486584D01*
X-58349164Y64497416D01*
X-58360937Y64507965D01*
X-58372963Y64518224D01*
X-58385236Y64528187D01*
X-58397748Y64537848D01*
X-58410491Y64547202D01*
X-58423458Y64556242D01*
X-58436642Y64564964D01*
X-58450034Y64573363D01*
X-58463627Y64581433D01*
X-58477412Y64589169D01*
X-58491381Y64596568D01*
X-58505526Y64603624D01*
X-58519839Y64610334D01*
X-58534311Y64616693D01*
X-58548934Y64622698D01*
X-58563699Y64628345D01*
X-58578596Y64633631D01*
X-58593618Y64638552D01*
X-58608756Y64643106D01*
X-58624000Y64647290D01*
X-58639341Y64651102D01*
X-58654770Y64654539D01*
X-58670279Y64657600D01*
X-58685857Y64660281D01*
X-58701497Y64662583D01*
X-58717187Y64664503D01*
X-58732920Y64666040D01*
X-58748685Y64667194D01*
X-58764474Y64667964D01*
X-58780277Y64668349D01*
X-58796085Y64668349D01*
X-58811888Y64667964D01*
X-58827677Y64667194D01*
X-58843442Y64666040D01*
X-58859175Y64664503D01*
X-58874865Y64662583D01*
X-58890505Y64660281D01*
X-58906083Y64657600D01*
X-58921592Y64654539D01*
X-58937021Y64651102D01*
X-58952362Y64647290D01*
X-58967606Y64643106D01*
X-58982744Y64638552D01*
X-58997766Y64633631D01*
X-59012663Y64628345D01*
X-59027428Y64622698D01*
X-59042051Y64616693D01*
X-59056523Y64610334D01*
X-59070836Y64603624D01*
X-59084981Y64596568D01*
X-59098950Y64589169D01*
X-59112736Y64581433D01*
X-59126328Y64573363D01*
X-59139720Y64564964D01*
X-59152904Y64556242D01*
X-59165871Y64547202D01*
X-59178614Y64537848D01*
X-59191126Y64528187D01*
X-59203399Y64518224D01*
X-59215425Y64507965D01*
X-59227198Y64497416D01*
X-59238711Y64486584D01*
X-59249956Y64475474D01*
X-59260928Y64464094D01*
X-59271619Y64452451D01*
X-59282024Y64440550D01*
X-59292136Y64428399D01*
X-59301948Y64416006D01*
X-59311457Y64403378D01*
X-59320654Y64390522D01*
X-59329536Y64377445D01*
X-59338097Y64364157D01*
X-59346332Y64350663D01*
X-59354236Y64336974D01*
X-59361804Y64323095D01*
X-59369032Y64309037D01*
X-59375916Y64294807D01*
X-59382450Y64280413D01*
X-59388633Y64265865D01*
X-59394459Y64251170D01*
X-59399926Y64236338D01*
X-59405030Y64221377D01*
X-59409768Y64206296D01*
X-59414138Y64191104D01*
X-59418136Y64175810D01*
X-59421761Y64160424D01*
X-59425010Y64144954D01*
X-59427881Y64129409D01*
X-59430373Y64113799D01*
X-59432484Y64098133D01*
X-59434213Y64082420D01*
X-59435558Y64066670D01*
X-59436520Y64050892D01*
X-59437098Y64035094D01*
X-59437290Y64019288D01*
X-59437294Y64019288D02*
X-59437294Y62980709D01*
X-59437102Y62964902D01*
X-59436524Y62949105D01*
X-59435562Y62933327D01*
X-59434217Y62917576D01*
X-59432488Y62901864D01*
X-59430377Y62886197D01*
X-59427885Y62870587D01*
X-59425013Y62855043D01*
X-59421765Y62839572D01*
X-59418140Y62824186D01*
X-59414142Y62808892D01*
X-59409772Y62793700D01*
X-59405034Y62778619D01*
X-59399930Y62763658D01*
X-59394463Y62748826D01*
X-59388637Y62734131D01*
X-59382454Y62719582D01*
X-59375919Y62705189D01*
X-59369036Y62690958D01*
X-59361808Y62676900D01*
X-59354240Y62663022D01*
X-59346336Y62649332D01*
X-59338101Y62635838D01*
X-59329540Y62622549D01*
X-59320658Y62609473D01*
X-59311460Y62596617D01*
X-59301952Y62583988D01*
X-59292139Y62571595D01*
X-59282027Y62559444D01*
X-59271622Y62547544D01*
X-59260931Y62535900D01*
X-59249959Y62524520D01*
X-59238714Y62513410D01*
X-59227201Y62502578D01*
X-59215428Y62492029D01*
X-59203401Y62481770D01*
X-59191128Y62471807D01*
X-59178617Y62462146D01*
X-59165873Y62452792D01*
X-59152906Y62443751D01*
X-59139722Y62435029D01*
X-59126330Y62426631D01*
X-59112738Y62418561D01*
X-59098952Y62410824D01*
X-59084983Y62403425D01*
X-59070837Y62396369D01*
X-59056524Y62389660D01*
X-59042052Y62383300D01*
X-59027429Y62377295D01*
X-59012665Y62371648D01*
X-58997767Y62366363D01*
X-58982745Y62361441D01*
X-58967607Y62356887D01*
X-58952363Y62352703D01*
X-58937022Y62348891D01*
X-58921593Y62345454D01*
X-58906084Y62342394D01*
X-58890505Y62339712D01*
X-58874866Y62337410D01*
X-58859175Y62335490D01*
X-58843442Y62333953D01*
X-58827677Y62332799D01*
X-58811888Y62332029D01*
X-58796085Y62331644D01*
X-58780277Y62331644D01*
X-58764474Y62332029D01*
X-58748685Y62332799D01*
X-58732920Y62333953D01*
X-58717187Y62335490D01*
X-58701496Y62337410D01*
X-58685857Y62339712D01*
X-58670278Y62342394D01*
X-58654769Y62345454D01*
X-58639340Y62348891D01*
X-58623999Y62352703D01*
X-58608755Y62356887D01*
X-58593617Y62361441D01*
X-58578595Y62366363D01*
X-58563697Y62371648D01*
X-58548933Y62377295D01*
X-58534310Y62383300D01*
X-58519838Y62389660D01*
X-58505525Y62396369D01*
X-58491379Y62403425D01*
X-58477410Y62410824D01*
X-58463624Y62418561D01*
X-58450032Y62426631D01*
X-58436640Y62435029D01*
X-58423456Y62443751D01*
X-58410489Y62452792D01*
X-58397745Y62462146D01*
X-58385234Y62471807D01*
X-58372961Y62481770D01*
X-58360934Y62492029D01*
X-58349161Y62502578D01*
X-58337648Y62513410D01*
X-58326403Y62524520D01*
X-58315431Y62535900D01*
X-58304740Y62547544D01*
X-58294335Y62559444D01*
X-58284223Y62571595D01*
X-58274410Y62583988D01*
X-58264902Y62596617D01*
X-58255704Y62609473D01*
X-58246822Y62622549D01*
X-58238261Y62635838D01*
X-58230026Y62649332D01*
X-58222122Y62663022D01*
X-58214554Y62676900D01*
X-58207326Y62690958D01*
X-58200443Y62705189D01*
X-58193908Y62719582D01*
X-58187725Y62734131D01*
X-58181899Y62748826D01*
X-58176432Y62763658D01*
X-58171328Y62778619D01*
X-58166590Y62793700D01*
X-58162220Y62808892D01*
X-58158222Y62824186D01*
X-58154597Y62839572D01*
X-58151349Y62855043D01*
X-58148477Y62870587D01*
X-58145985Y62886197D01*
X-58143874Y62901864D01*
X-58142145Y62917576D01*
X-58140800Y62933327D01*
X-58139838Y62949105D01*
X-58139260Y62964902D01*
X-58139068Y62980709D01*
X-60298981Y62331600D02*
X-61337556Y62331600D01*
X-60298981Y62331600D02*
X-60298981Y64668400D01*
X-61337556Y64668400D01*
X-61077913Y63629822D02*
X-60298981Y63629822D01*
X-62745778Y62331597D02*
X-62758326Y62331749D01*
X-62770867Y62332203D01*
X-62783393Y62332961D01*
X-62795897Y62334021D01*
X-62808372Y62335383D01*
X-62820810Y62337046D01*
X-62833204Y62339009D01*
X-62845548Y62341271D01*
X-62857833Y62343831D01*
X-62870052Y62346687D01*
X-62882200Y62349837D01*
X-62894267Y62353280D01*
X-62906248Y62357013D01*
X-62918135Y62361035D01*
X-62929921Y62365342D01*
X-62941600Y62369934D01*
X-62953164Y62374806D01*
X-62964608Y62379956D01*
X-62975923Y62385382D01*
X-62987105Y62391079D01*
X-62998145Y62397044D01*
X-63009038Y62403275D01*
X-63019777Y62409767D01*
X-63030356Y62416517D01*
X-63040769Y62423520D01*
X-63051010Y62430773D01*
X-63061072Y62438271D01*
X-63070950Y62446010D01*
X-63080639Y62453986D01*
X-63090132Y62462193D01*
X-63099423Y62470627D01*
X-63108509Y62479284D01*
X-63117382Y62488157D01*
X-63126039Y62497243D01*
X-63134473Y62506534D01*
X-63142680Y62516027D01*
X-63150656Y62525716D01*
X-63158395Y62535594D01*
X-63165893Y62545656D01*
X-63173146Y62555897D01*
X-63180149Y62566310D01*
X-63186899Y62576889D01*
X-63193391Y62587628D01*
X-63199622Y62598521D01*
X-63205587Y62609561D01*
X-63211284Y62620743D01*
X-63216710Y62632058D01*
X-63221860Y62643502D01*
X-63226732Y62655066D01*
X-63231324Y62666745D01*
X-63235631Y62678531D01*
X-63239653Y62690418D01*
X-63243386Y62702399D01*
X-63246829Y62714466D01*
X-63249979Y62726614D01*
X-63252835Y62738833D01*
X-63255395Y62751118D01*
X-63257657Y62763462D01*
X-63259620Y62775856D01*
X-63261283Y62788294D01*
X-63262645Y62800769D01*
X-63263705Y62813273D01*
X-63264463Y62825799D01*
X-63264917Y62838340D01*
X-63265069Y62850888D01*
X-62745778Y62331600D02*
X-62719533Y62331914D01*
X-62693303Y62332856D01*
X-62667103Y62334425D01*
X-62640948Y62336620D01*
X-62614853Y62339441D01*
X-62588834Y62342885D01*
X-62562903Y62346950D01*
X-62537078Y62351635D01*
X-62511372Y62356936D01*
X-62485800Y62362851D01*
X-62460378Y62369376D01*
X-62435118Y62376507D01*
X-62410036Y62384241D01*
X-62385147Y62392572D01*
X-62360464Y62401497D01*
X-62336001Y62411009D01*
X-62311774Y62421104D01*
X-62287794Y62431775D01*
X-62264077Y62443018D01*
X-62240635Y62454824D01*
X-62217483Y62467188D01*
X-62194633Y62480103D01*
X-62172099Y62493560D01*
X-62149893Y62507552D01*
X-62128028Y62522072D01*
X-62106517Y62537111D01*
X-62085371Y62552660D01*
X-62064604Y62568711D01*
X-62044227Y62585253D01*
X-62024251Y62602279D01*
X-62004689Y62619778D01*
X-61985550Y62637739D01*
X-61966847Y62656154D01*
X-62031756Y64149109D02*
X-62031908Y64161657D01*
X-62032362Y64174198D01*
X-62033120Y64186724D01*
X-62034180Y64199228D01*
X-62035542Y64211702D01*
X-62037205Y64224141D01*
X-62039168Y64236535D01*
X-62041430Y64248878D01*
X-62043990Y64261164D01*
X-62046846Y64273383D01*
X-62049996Y64285530D01*
X-62053439Y64297598D01*
X-62057172Y64309578D01*
X-62061194Y64321465D01*
X-62065502Y64333252D01*
X-62070093Y64344931D01*
X-62074965Y64356495D01*
X-62080115Y64367938D01*
X-62085541Y64379254D01*
X-62091238Y64390435D01*
X-62097203Y64401475D01*
X-62103434Y64412368D01*
X-62109926Y64423107D01*
X-62116676Y64433686D01*
X-62123679Y64444099D01*
X-62130932Y64454340D01*
X-62138430Y64464402D01*
X-62146169Y64474281D01*
X-62154145Y64483969D01*
X-62162352Y64493462D01*
X-62170787Y64502753D01*
X-62179443Y64511839D01*
X-62188317Y64520712D01*
X-62197402Y64529368D01*
X-62206694Y64537803D01*
X-62216186Y64546010D01*
X-62225875Y64553986D01*
X-62235753Y64561725D01*
X-62245816Y64569223D01*
X-62256056Y64576476D01*
X-62266469Y64583479D01*
X-62277048Y64590229D01*
X-62287788Y64596721D01*
X-62298680Y64602951D01*
X-62309721Y64608917D01*
X-62320902Y64614614D01*
X-62332218Y64620039D01*
X-62343661Y64625189D01*
X-62355225Y64630061D01*
X-62366904Y64634653D01*
X-62378691Y64638960D01*
X-62390578Y64642982D01*
X-62402558Y64646715D01*
X-62414626Y64650158D01*
X-62426773Y64653308D01*
X-62438992Y64656164D01*
X-62451278Y64658723D01*
X-62463621Y64660985D01*
X-62476015Y64662948D01*
X-62488454Y64664611D01*
X-62500928Y64665973D01*
X-62513432Y64667033D01*
X-62525958Y64667791D01*
X-62538499Y64668245D01*
X-62551047Y64668397D01*
X-62551047Y64668400D02*
X-62574251Y64668123D01*
X-62597441Y64667294D01*
X-62620605Y64665912D01*
X-62643730Y64663978D01*
X-62666802Y64661494D01*
X-62689808Y64658461D01*
X-62712735Y64654880D01*
X-62735570Y64650754D01*
X-62758301Y64646085D01*
X-62780914Y64640876D01*
X-62803396Y64635129D01*
X-62825735Y64628848D01*
X-62847918Y64622037D01*
X-62869933Y64614699D01*
X-62891766Y64606838D01*
X-62913406Y64598459D01*
X-62934840Y64589567D01*
X-62956056Y64580167D01*
X-62977041Y64570264D01*
X-62997785Y64559863D01*
X-63018276Y64548971D01*
X-63038500Y64537594D01*
X-63058448Y64525738D01*
X-63078108Y64513410D01*
X-63097468Y64500617D01*
X-63116518Y64487367D01*
X-63135247Y64473666D01*
X-62291400Y63694730D02*
X-62280508Y63701327D01*
X-62269778Y63708186D01*
X-62259217Y63715301D01*
X-62248830Y63722670D01*
X-62238625Y63730286D01*
X-62228606Y63738148D01*
X-62218780Y63746248D01*
X-62209153Y63754584D01*
X-62199730Y63763149D01*
X-62190516Y63771940D01*
X-62181517Y63780951D01*
X-62172738Y63790176D01*
X-62164185Y63799610D01*
X-62155862Y63809248D01*
X-62147774Y63819085D01*
X-62139926Y63829113D01*
X-62132322Y63839329D01*
X-62124967Y63849724D01*
X-62117866Y63860295D01*
X-62111021Y63871034D01*
X-62104438Y63881935D01*
X-62098120Y63892991D01*
X-62092071Y63904197D01*
X-62086294Y63915546D01*
X-62080792Y63927031D01*
X-62075570Y63938645D01*
X-62070630Y63950383D01*
X-62065974Y63962236D01*
X-62061606Y63974198D01*
X-62057528Y63986261D01*
X-62053742Y63998420D01*
X-62050252Y64010667D01*
X-62047057Y64022994D01*
X-62044162Y64035395D01*
X-62041566Y64047863D01*
X-62039273Y64060389D01*
X-62037282Y64072967D01*
X-62035596Y64085589D01*
X-62034215Y64098249D01*
X-62033140Y64110938D01*
X-62032372Y64123649D01*
X-62031911Y64136375D01*
X-62031757Y64149109D01*
X-63005422Y63305266D02*
X-63016314Y63298669D01*
X-63027045Y63291810D01*
X-63037606Y63284695D01*
X-63047992Y63277327D01*
X-63058198Y63269710D01*
X-63068217Y63261849D01*
X-63078043Y63253749D01*
X-63087670Y63245413D01*
X-63097094Y63236848D01*
X-63106307Y63228057D01*
X-63115306Y63219047D01*
X-63124085Y63209822D01*
X-63132639Y63200387D01*
X-63140962Y63190749D01*
X-63149050Y63180913D01*
X-63156898Y63170884D01*
X-63164502Y63160669D01*
X-63171857Y63150273D01*
X-63178959Y63139703D01*
X-63185804Y63128964D01*
X-63192387Y63118063D01*
X-63198705Y63107006D01*
X-63204754Y63095800D01*
X-63210531Y63084451D01*
X-63216033Y63072967D01*
X-63221255Y63061352D01*
X-63226196Y63049615D01*
X-63230851Y63037762D01*
X-63235220Y63025800D01*
X-63239298Y63013736D01*
X-63243083Y63001577D01*
X-63246574Y62989330D01*
X-63249768Y62977003D01*
X-63252664Y62964602D01*
X-63255259Y62952135D01*
X-63257553Y62939608D01*
X-63259544Y62927030D01*
X-63261230Y62914408D01*
X-63262611Y62901748D01*
X-63263686Y62889059D01*
X-63264454Y62876348D01*
X-63264915Y62863622D01*
X-63265069Y62850888D01*
X-63005422Y63305266D02*
X-62291400Y63694731D01*
X-55981600Y60858400D02*
X-55981600Y58521600D01*
X-55981600Y59819822D02*
X-57279822Y59819822D01*
X-57279822Y60858400D02*
X-57279822Y58521600D01*
X-58211103Y58521600D02*
X-59249678Y58521600D01*
X-58211103Y58521600D02*
X-58211103Y60858400D01*
X-59249678Y60858400D01*
X-58990034Y59819822D02*
X-58211103Y59819822D01*
X-60024534Y60858400D02*
X-60024534Y58521600D01*
X-60024534Y60858400D02*
X-60673644Y60858400D01*
X-60673644Y60858401D02*
X-60689451Y60858209D01*
X-60705248Y60857631D01*
X-60721026Y60856669D01*
X-60736777Y60855324D01*
X-60752489Y60853595D01*
X-60768156Y60851484D01*
X-60783766Y60848992D01*
X-60799310Y60846120D01*
X-60814781Y60842872D01*
X-60830167Y60839247D01*
X-60845461Y60835249D01*
X-60860653Y60830879D01*
X-60875734Y60826141D01*
X-60890695Y60821037D01*
X-60905527Y60815570D01*
X-60920222Y60809744D01*
X-60934771Y60803561D01*
X-60949164Y60797026D01*
X-60963395Y60790143D01*
X-60977453Y60782915D01*
X-60991331Y60775347D01*
X-61005021Y60767443D01*
X-61018515Y60759208D01*
X-61031804Y60750647D01*
X-61044880Y60741765D01*
X-61057736Y60732567D01*
X-61070365Y60723059D01*
X-61082758Y60713246D01*
X-61094909Y60703134D01*
X-61106809Y60692729D01*
X-61118453Y60682038D01*
X-61129833Y60671066D01*
X-61140943Y60659821D01*
X-61151775Y60648308D01*
X-61162324Y60636535D01*
X-61172583Y60624508D01*
X-61182546Y60612235D01*
X-61192207Y60599724D01*
X-61201561Y60586980D01*
X-61210602Y60574013D01*
X-61219324Y60560829D01*
X-61227722Y60547437D01*
X-61235792Y60533845D01*
X-61243529Y60520059D01*
X-61250928Y60506090D01*
X-61257984Y60491944D01*
X-61264693Y60477631D01*
X-61271053Y60463159D01*
X-61277058Y60448536D01*
X-61282705Y60433772D01*
X-61287990Y60418874D01*
X-61292912Y60403852D01*
X-61297466Y60388714D01*
X-61301650Y60373470D01*
X-61305462Y60358129D01*
X-61308899Y60342700D01*
X-61311959Y60327191D01*
X-61314641Y60311612D01*
X-61316943Y60295973D01*
X-61318863Y60280282D01*
X-61320400Y60264549D01*
X-61321554Y60248784D01*
X-61322324Y60232995D01*
X-61322709Y60217192D01*
X-61322709Y60201384D01*
X-61322324Y60185581D01*
X-61321554Y60169792D01*
X-61320400Y60154027D01*
X-61318863Y60138294D01*
X-61316943Y60122603D01*
X-61314641Y60106964D01*
X-61311959Y60091385D01*
X-61308899Y60075876D01*
X-61305462Y60060447D01*
X-61301650Y60045106D01*
X-61297466Y60029862D01*
X-61292912Y60014724D01*
X-61287990Y59999702D01*
X-61282705Y59984804D01*
X-61277058Y59970040D01*
X-61271053Y59955417D01*
X-61264693Y59940945D01*
X-61257984Y59926632D01*
X-61250928Y59912486D01*
X-61243529Y59898517D01*
X-61235792Y59884732D01*
X-61227722Y59871139D01*
X-61219324Y59857747D01*
X-61210602Y59844563D01*
X-61201561Y59831596D01*
X-61192207Y59818852D01*
X-61182546Y59806341D01*
X-61172583Y59794068D01*
X-61162324Y59782041D01*
X-61151775Y59770268D01*
X-61140943Y59758755D01*
X-61129833Y59747510D01*
X-61118453Y59736538D01*
X-61106809Y59725847D01*
X-61094909Y59715442D01*
X-61082758Y59705330D01*
X-61070365Y59695517D01*
X-61057736Y59686009D01*
X-61044880Y59676811D01*
X-61031804Y59667929D01*
X-61018515Y59659368D01*
X-61005021Y59651133D01*
X-60991331Y59643229D01*
X-60977453Y59635661D01*
X-60963395Y59628433D01*
X-60949164Y59621550D01*
X-60934771Y59615015D01*
X-60920222Y59608832D01*
X-60905527Y59603006D01*
X-60890695Y59597539D01*
X-60875734Y59592435D01*
X-60860653Y59587697D01*
X-60845461Y59583327D01*
X-60830167Y59579329D01*
X-60814781Y59575704D01*
X-60799310Y59572456D01*
X-60783766Y59569584D01*
X-60768156Y59567092D01*
X-60752489Y59564981D01*
X-60736777Y59563252D01*
X-60721026Y59561907D01*
X-60705248Y59560945D01*
X-60689451Y59560367D01*
X-60673644Y59560175D01*
X-60024534Y59560175D01*
X-60803466Y59560175D02*
X-61322756Y58521600D01*
X-62178069Y58521600D02*
X-63216644Y58521600D01*
X-62178069Y58521600D02*
X-62178069Y60858400D01*
X-63216644Y60858400D01*
X-62957000Y59819822D02*
X-62178069Y59819822D01*
D10*
X-40278000Y38100000D02*
X-40278000Y86360000D01*
X-40278000Y38100000D02*
X-80918000Y38100000D01*
X-80918000Y86360000D01*
X-40278000Y86360000D01*
X-80994200Y80459122D02*
X-82619800Y79917256D01*
X-82619800Y81000988D02*
X-80994200Y80459122D01*
X-82213400Y80865522D02*
X-82213400Y80052722D01*
X-82619800Y81570691D02*
X-82619800Y82022244D01*
X-82619666Y82033240D01*
X-82619264Y82044229D01*
X-82618595Y82055205D01*
X-82617659Y82066162D01*
X-82616456Y82077093D01*
X-82614988Y82087991D01*
X-82613254Y82098850D01*
X-82611257Y82109664D01*
X-82608997Y82120426D01*
X-82606475Y82131130D01*
X-82603694Y82141769D01*
X-82600654Y82152337D01*
X-82597358Y82162828D01*
X-82593808Y82173236D01*
X-82590005Y82183554D01*
X-82585951Y82193776D01*
X-82581651Y82203897D01*
X-82577105Y82213910D01*
X-82572316Y82223809D01*
X-82567288Y82233589D01*
X-82562023Y82243244D01*
X-82556525Y82252767D01*
X-82550796Y82262154D01*
X-82544841Y82271398D01*
X-82538662Y82280495D01*
X-82532263Y82289438D01*
X-82525649Y82298223D01*
X-82518823Y82306844D01*
X-82511788Y82315297D01*
X-82504550Y82323576D01*
X-82497113Y82331676D01*
X-82489480Y82339592D01*
X-82481657Y82347321D01*
X-82473648Y82354856D01*
X-82465458Y82362195D01*
X-82457092Y82369331D01*
X-82448555Y82376262D01*
X-82439851Y82382983D01*
X-82430986Y82389490D01*
X-82421965Y82395779D01*
X-82412794Y82401847D01*
X-82403478Y82407689D01*
X-82394022Y82413303D01*
X-82384432Y82418685D01*
X-82374715Y82423832D01*
X-82364874Y82428740D01*
X-82354917Y82433408D01*
X-82344850Y82437832D01*
X-82334677Y82442009D01*
X-82324406Y82445937D01*
X-82314043Y82449615D01*
X-82303592Y82453038D01*
X-82293062Y82456206D01*
X-82282458Y82459117D01*
X-82271785Y82461769D01*
X-82261052Y82464160D01*
X-82250263Y82466289D01*
X-82239426Y82468154D01*
X-82228546Y82469755D01*
X-82217631Y82471091D01*
X-82206687Y82472161D01*
X-82195719Y82472963D01*
X-82184736Y82473499D01*
X-82173742Y82473767D01*
X-82162746Y82473767D01*
X-82151752Y82473499D01*
X-82140769Y82472963D01*
X-82129801Y82472161D01*
X-82118857Y82471091D01*
X-82107942Y82469755D01*
X-82097062Y82468154D01*
X-82086225Y82466289D01*
X-82075436Y82464160D01*
X-82064703Y82461769D01*
X-82054030Y82459117D01*
X-82043426Y82456206D01*
X-82032896Y82453038D01*
X-82022445Y82449615D01*
X-82012082Y82445937D01*
X-82001811Y82442009D01*
X-81991638Y82437832D01*
X-81981571Y82433408D01*
X-81971614Y82428740D01*
X-81961773Y82423832D01*
X-81952056Y82418685D01*
X-81942466Y82413303D01*
X-81933010Y82407689D01*
X-81923694Y82401847D01*
X-81914523Y82395779D01*
X-81905502Y82389490D01*
X-81896637Y82382983D01*
X-81887933Y82376262D01*
X-81879396Y82369331D01*
X-81871030Y82362195D01*
X-81862840Y82354856D01*
X-81854831Y82347321D01*
X-81847008Y82339592D01*
X-81839375Y82331676D01*
X-81831938Y82323576D01*
X-81824700Y82315297D01*
X-81817665Y82306844D01*
X-81810839Y82298223D01*
X-81804225Y82289438D01*
X-81797826Y82280495D01*
X-81791647Y82271398D01*
X-81785692Y82262154D01*
X-81779963Y82252767D01*
X-81774465Y82243244D01*
X-81769200Y82233589D01*
X-81764172Y82223809D01*
X-81759383Y82213910D01*
X-81754837Y82203897D01*
X-81750537Y82193776D01*
X-81746483Y82183554D01*
X-81742680Y82173236D01*
X-81739130Y82162828D01*
X-81735834Y82152337D01*
X-81732794Y82141769D01*
X-81730013Y82131130D01*
X-81727491Y82120426D01*
X-81725231Y82109664D01*
X-81723234Y82098850D01*
X-81721500Y82087991D01*
X-81720032Y82077093D01*
X-81718829Y82066162D01*
X-81717893Y82055205D01*
X-81717224Y82044229D01*
X-81716822Y82033240D01*
X-81716688Y82022244D01*
X-80994200Y82112556D02*
X-80994200Y81570691D01*
X-80994200Y82112556D02*
X-80994307Y82121353D01*
X-80994628Y82130144D01*
X-80995164Y82138925D01*
X-80995913Y82147690D01*
X-80996875Y82156435D01*
X-80998050Y82165154D01*
X-80999436Y82173841D01*
X-81001034Y82182492D01*
X-81002842Y82191101D01*
X-81004860Y82199664D01*
X-81007085Y82208176D01*
X-81009517Y82216630D01*
X-81012153Y82225023D01*
X-81014994Y82233349D01*
X-81018036Y82241604D01*
X-81021279Y82249781D01*
X-81024719Y82257878D01*
X-81028356Y82265888D01*
X-81032187Y82273808D01*
X-81036210Y82281632D01*
X-81040421Y82289355D01*
X-81044820Y82296974D01*
X-81049403Y82304483D01*
X-81054167Y82311879D01*
X-81059110Y82319156D01*
X-81064229Y82326311D01*
X-81069521Y82333339D01*
X-81074982Y82340236D01*
X-81080609Y82346998D01*
X-81086400Y82353621D01*
X-81092349Y82360101D01*
X-81098455Y82366434D01*
X-81104714Y82372617D01*
X-81111121Y82378645D01*
X-81117673Y82384516D01*
X-81124366Y82390225D01*
X-81131196Y82395770D01*
X-81138159Y82401147D01*
X-81145251Y82406352D01*
X-81152468Y82411383D01*
X-81159804Y82416237D01*
X-81167257Y82420911D01*
X-81174822Y82425402D01*
X-81182494Y82429708D01*
X-81190268Y82433826D01*
X-81198140Y82437752D01*
X-81206106Y82441487D01*
X-81214160Y82445026D01*
X-81222298Y82448367D01*
X-81230514Y82451510D01*
X-81238805Y82454452D01*
X-81247165Y82457191D01*
X-81255590Y82459725D01*
X-81264073Y82462054D01*
X-81272611Y82464175D01*
X-81281198Y82466088D01*
X-81289829Y82467791D01*
X-81298499Y82469283D01*
X-81307202Y82470564D01*
X-81315934Y82471633D01*
X-81324690Y82472489D01*
X-81333464Y82473131D01*
X-81342251Y82473559D01*
X-81351045Y82473773D01*
X-81359843Y82473773D01*
X-81368637Y82473559D01*
X-81377424Y82473131D01*
X-81386198Y82472489D01*
X-81394954Y82471633D01*
X-81403686Y82470564D01*
X-81412389Y82469283D01*
X-81421059Y82467791D01*
X-81429690Y82466088D01*
X-81438277Y82464175D01*
X-81446815Y82462054D01*
X-81455298Y82459725D01*
X-81463723Y82457191D01*
X-81472083Y82454452D01*
X-81480374Y82451510D01*
X-81488590Y82448367D01*
X-81496728Y82445026D01*
X-81504782Y82441487D01*
X-81512748Y82437752D01*
X-81520620Y82433826D01*
X-81528394Y82429708D01*
X-81536066Y82425402D01*
X-81543631Y82420911D01*
X-81551084Y82416237D01*
X-81558420Y82411383D01*
X-81565637Y82406352D01*
X-81572729Y82401147D01*
X-81579692Y82395770D01*
X-81586522Y82390225D01*
X-81593215Y82384516D01*
X-81599767Y82378645D01*
X-81606174Y82372617D01*
X-81612433Y82366434D01*
X-81618539Y82360101D01*
X-81624488Y82353621D01*
X-81630279Y82346998D01*
X-81635906Y82340236D01*
X-81641367Y82333339D01*
X-81646659Y82326311D01*
X-81651778Y82319156D01*
X-81656721Y82311879D01*
X-81661485Y82304483D01*
X-81666068Y82296974D01*
X-81670467Y82289355D01*
X-81674678Y82281632D01*
X-81678701Y82273808D01*
X-81682532Y82265888D01*
X-81686169Y82257878D01*
X-81689609Y82249781D01*
X-81692852Y82241604D01*
X-81695894Y82233349D01*
X-81698735Y82225023D01*
X-81701371Y82216630D01*
X-81703803Y82208176D01*
X-81706028Y82199664D01*
X-81708046Y82191101D01*
X-81709854Y82182492D01*
X-81711452Y82173841D01*
X-81712838Y82165154D01*
X-81714013Y82156435D01*
X-81714975Y82147690D01*
X-81715724Y82138925D01*
X-81716260Y82130144D01*
X-81716581Y82121353D01*
X-81716688Y82112556D01*
X-81716691Y82112556D02*
X-81716691Y81751313D01*
D12*
X60470000Y59330000D02*
X60470000Y52430000D01*
X60470000Y59330000D02*
X56370000Y59330000D01*
X56370000Y52430000D01*
X60470000Y52430000D01*
D13*
X60263000Y51030000D02*
X60263038Y51033117D01*
X60263153Y51036232D01*
X60263344Y51039343D01*
X60263612Y51042448D01*
X60263955Y51045546D01*
X60264375Y51048635D01*
X60264870Y51051712D01*
X60265440Y51054776D01*
X60266086Y51057826D01*
X60266806Y51060858D01*
X60267600Y51063873D01*
X60268469Y51066866D01*
X60269410Y51069838D01*
X60270424Y51072785D01*
X60271510Y51075707D01*
X60272667Y51078601D01*
X60273895Y51081466D01*
X60275193Y51084299D01*
X60276561Y51087101D01*
X60277996Y51089867D01*
X60279499Y51092598D01*
X60281068Y51095291D01*
X60282704Y51097945D01*
X60284403Y51100557D01*
X60286167Y51103128D01*
X60287993Y51105654D01*
X60289880Y51108134D01*
X60291828Y51110568D01*
X60293834Y51112953D01*
X60295899Y51115288D01*
X60298021Y51117572D01*
X60300197Y51119803D01*
X60302428Y51121979D01*
X60304712Y51124101D01*
X60307047Y51126166D01*
X60309432Y51128172D01*
X60311866Y51130120D01*
X60314346Y51132007D01*
X60316872Y51133833D01*
X60319443Y51135597D01*
X60322055Y51137296D01*
X60324709Y51138932D01*
X60327402Y51140501D01*
X60330133Y51142004D01*
X60332899Y51143439D01*
X60335701Y51144807D01*
X60338534Y51146105D01*
X60341399Y51147333D01*
X60344293Y51148490D01*
X60347215Y51149576D01*
X60350162Y51150590D01*
X60353134Y51151531D01*
X60356127Y51152400D01*
X60359142Y51153194D01*
X60362174Y51153914D01*
X60365224Y51154560D01*
X60368288Y51155130D01*
X60371365Y51155625D01*
X60374454Y51156045D01*
X60377552Y51156388D01*
X60380657Y51156656D01*
X60383768Y51156847D01*
X60386883Y51156962D01*
X60390000Y51157000D01*
X60393117Y51156962D01*
X60396232Y51156847D01*
X60399343Y51156656D01*
X60402448Y51156388D01*
X60405546Y51156045D01*
X60408635Y51155625D01*
X60411712Y51155130D01*
X60414776Y51154560D01*
X60417826Y51153914D01*
X60420858Y51153194D01*
X60423873Y51152400D01*
X60426866Y51151531D01*
X60429838Y51150590D01*
X60432785Y51149576D01*
X60435707Y51148490D01*
X60438601Y51147333D01*
X60441466Y51146105D01*
X60444299Y51144807D01*
X60447101Y51143439D01*
X60449867Y51142004D01*
X60452598Y51140501D01*
X60455291Y51138932D01*
X60457945Y51137296D01*
X60460557Y51135597D01*
X60463128Y51133833D01*
X60465654Y51132007D01*
X60468134Y51130120D01*
X60470568Y51128172D01*
X60472953Y51126166D01*
X60475288Y51124101D01*
X60477572Y51121979D01*
X60479803Y51119803D01*
X60481979Y51117572D01*
X60484101Y51115288D01*
X60486166Y51112953D01*
X60488172Y51110568D01*
X60490120Y51108134D01*
X60492007Y51105654D01*
X60493833Y51103128D01*
X60495597Y51100557D01*
X60497296Y51097945D01*
X60498932Y51095291D01*
X60500501Y51092598D01*
X60502004Y51089867D01*
X60503439Y51087101D01*
X60504807Y51084299D01*
X60506105Y51081466D01*
X60507333Y51078601D01*
X60508490Y51075707D01*
X60509576Y51072785D01*
X60510590Y51069838D01*
X60511531Y51066866D01*
X60512400Y51063873D01*
X60513194Y51060858D01*
X60513914Y51057826D01*
X60514560Y51054776D01*
X60515130Y51051712D01*
X60515625Y51048635D01*
X60516045Y51045546D01*
X60516388Y51042448D01*
X60516656Y51039343D01*
X60516847Y51036232D01*
X60516962Y51033117D01*
X60517000Y51030000D01*
X60516962Y51026883D01*
X60516847Y51023768D01*
X60516656Y51020657D01*
X60516388Y51017552D01*
X60516045Y51014454D01*
X60515625Y51011365D01*
X60515130Y51008288D01*
X60514560Y51005224D01*
X60513914Y51002174D01*
X60513194Y50999142D01*
X60512400Y50996127D01*
X60511531Y50993134D01*
X60510590Y50990162D01*
X60509576Y50987215D01*
X60508490Y50984293D01*
X60507333Y50981399D01*
X60506105Y50978534D01*
X60504807Y50975701D01*
X60503439Y50972899D01*
X60502004Y50970133D01*
X60500501Y50967402D01*
X60498932Y50964709D01*
X60497296Y50962055D01*
X60495597Y50959443D01*
X60493833Y50956872D01*
X60492007Y50954346D01*
X60490120Y50951866D01*
X60488172Y50949432D01*
X60486166Y50947047D01*
X60484101Y50944712D01*
X60481979Y50942428D01*
X60479803Y50940197D01*
X60477572Y50938021D01*
X60475288Y50935899D01*
X60472953Y50933834D01*
X60470568Y50931828D01*
X60468134Y50929880D01*
X60465654Y50927993D01*
X60463128Y50926167D01*
X60460557Y50924403D01*
X60457945Y50922704D01*
X60455291Y50921068D01*
X60452598Y50919499D01*
X60449867Y50917996D01*
X60447101Y50916561D01*
X60444299Y50915193D01*
X60441466Y50913895D01*
X60438601Y50912667D01*
X60435707Y50911510D01*
X60432785Y50910424D01*
X60429838Y50909410D01*
X60426866Y50908469D01*
X60423873Y50907600D01*
X60420858Y50906806D01*
X60417826Y50906086D01*
X60414776Y50905440D01*
X60411712Y50904870D01*
X60408635Y50904375D01*
X60405546Y50903955D01*
X60402448Y50903612D01*
X60399343Y50903344D01*
X60396232Y50903153D01*
X60393117Y50903038D01*
X60390000Y50903000D01*
X60386883Y50903038D01*
X60383768Y50903153D01*
X60380657Y50903344D01*
X60377552Y50903612D01*
X60374454Y50903955D01*
X60371365Y50904375D01*
X60368288Y50904870D01*
X60365224Y50905440D01*
X60362174Y50906086D01*
X60359142Y50906806D01*
X60356127Y50907600D01*
X60353134Y50908469D01*
X60350162Y50909410D01*
X60347215Y50910424D01*
X60344293Y50911510D01*
X60341399Y50912667D01*
X60338534Y50913895D01*
X60335701Y50915193D01*
X60332899Y50916561D01*
X60330133Y50917996D01*
X60327402Y50919499D01*
X60324709Y50921068D01*
X60322055Y50922704D01*
X60319443Y50924403D01*
X60316872Y50926167D01*
X60314346Y50927993D01*
X60311866Y50929880D01*
X60309432Y50931828D01*
X60307047Y50933834D01*
X60304712Y50935899D01*
X60302428Y50938021D01*
X60300197Y50940197D01*
X60298021Y50942428D01*
X60295899Y50944712D01*
X60293834Y50947047D01*
X60291828Y50949432D01*
X60289880Y50951866D01*
X60287993Y50954346D01*
X60286167Y50956872D01*
X60284403Y50959443D01*
X60282704Y50962055D01*
X60281068Y50964709D01*
X60279499Y50967402D01*
X60277996Y50970133D01*
X60276561Y50972899D01*
X60275193Y50975701D01*
X60273895Y50978534D01*
X60272667Y50981399D01*
X60271510Y50984293D01*
X60270424Y50987215D01*
X60269410Y50990162D01*
X60268469Y50993134D01*
X60267600Y50996127D01*
X60266806Y50999142D01*
X60266086Y51002174D01*
X60265440Y51005224D01*
X60264870Y51008288D01*
X60264375Y51011365D01*
X60263955Y51014454D01*
X60263612Y51017552D01*
X60263344Y51020657D01*
X60263153Y51023768D01*
X60263038Y51026883D01*
X60263000Y51030000D01*
D14*
X59490000Y53278000D02*
X59490060Y53282908D01*
X59490241Y53287814D01*
X59490542Y53292713D01*
X59490963Y53297603D01*
X59491504Y53302482D01*
X59492165Y53307346D01*
X59492944Y53312192D01*
X59493843Y53317018D01*
X59494860Y53321820D01*
X59495994Y53326596D01*
X59497245Y53331343D01*
X59498612Y53336057D01*
X59500094Y53340736D01*
X59501691Y53345378D01*
X59503401Y53349979D01*
X59505224Y53354537D01*
X59507158Y53359048D01*
X59509202Y53363511D01*
X59511355Y53367922D01*
X59513616Y53372279D01*
X59515983Y53376580D01*
X59518454Y53380821D01*
X59521029Y53385000D01*
X59523706Y53389114D01*
X59526483Y53393162D01*
X59529358Y53397140D01*
X59532331Y53401046D01*
X59535398Y53404879D01*
X59538558Y53408635D01*
X59541810Y53412312D01*
X59545151Y53415908D01*
X59548579Y53419421D01*
X59552092Y53422849D01*
X59555688Y53426190D01*
X59559365Y53429442D01*
X59563121Y53432602D01*
X59566954Y53435669D01*
X59570860Y53438642D01*
X59574838Y53441517D01*
X59578886Y53444294D01*
X59583000Y53446971D01*
X59587179Y53449546D01*
X59591420Y53452017D01*
X59595721Y53454384D01*
X59600078Y53456645D01*
X59604489Y53458798D01*
X59608952Y53460842D01*
X59613463Y53462776D01*
X59618021Y53464599D01*
X59622622Y53466309D01*
X59627264Y53467906D01*
X59631943Y53469388D01*
X59636657Y53470755D01*
X59641404Y53472006D01*
X59646180Y53473140D01*
X59650982Y53474157D01*
X59655808Y53475056D01*
X59660654Y53475835D01*
X59665518Y53476496D01*
X59670397Y53477037D01*
X59675287Y53477458D01*
X59680186Y53477759D01*
X59685092Y53477940D01*
X59690000Y53478000D01*
X59694908Y53477940D01*
X59699814Y53477759D01*
X59704713Y53477458D01*
X59709603Y53477037D01*
X59714482Y53476496D01*
X59719346Y53475835D01*
X59724192Y53475056D01*
X59729018Y53474157D01*
X59733820Y53473140D01*
X59738596Y53472006D01*
X59743343Y53470755D01*
X59748057Y53469388D01*
X59752736Y53467906D01*
X59757378Y53466309D01*
X59761979Y53464599D01*
X59766537Y53462776D01*
X59771048Y53460842D01*
X59775511Y53458798D01*
X59779922Y53456645D01*
X59784279Y53454384D01*
X59788580Y53452017D01*
X59792821Y53449546D01*
X59797000Y53446971D01*
X59801114Y53444294D01*
X59805162Y53441517D01*
X59809140Y53438642D01*
X59813046Y53435669D01*
X59816879Y53432602D01*
X59820635Y53429442D01*
X59824312Y53426190D01*
X59827908Y53422849D01*
X59831421Y53419421D01*
X59834849Y53415908D01*
X59838190Y53412312D01*
X59841442Y53408635D01*
X59844602Y53404879D01*
X59847669Y53401046D01*
X59850642Y53397140D01*
X59853517Y53393162D01*
X59856294Y53389114D01*
X59858971Y53385000D01*
X59861546Y53380821D01*
X59864017Y53376580D01*
X59866384Y53372279D01*
X59868645Y53367922D01*
X59870798Y53363511D01*
X59872842Y53359048D01*
X59874776Y53354537D01*
X59876599Y53349979D01*
X59878309Y53345378D01*
X59879906Y53340736D01*
X59881388Y53336057D01*
X59882755Y53331343D01*
X59884006Y53326596D01*
X59885140Y53321820D01*
X59886157Y53317018D01*
X59887056Y53312192D01*
X59887835Y53307346D01*
X59888496Y53302482D01*
X59889037Y53297603D01*
X59889458Y53292713D01*
X59889759Y53287814D01*
X59889940Y53282908D01*
X59890000Y53278000D01*
X59889940Y53273092D01*
X59889759Y53268186D01*
X59889458Y53263287D01*
X59889037Y53258397D01*
X59888496Y53253518D01*
X59887835Y53248654D01*
X59887056Y53243808D01*
X59886157Y53238982D01*
X59885140Y53234180D01*
X59884006Y53229404D01*
X59882755Y53224657D01*
X59881388Y53219943D01*
X59879906Y53215264D01*
X59878309Y53210622D01*
X59876599Y53206021D01*
X59874776Y53201463D01*
X59872842Y53196952D01*
X59870798Y53192489D01*
X59868645Y53188078D01*
X59866384Y53183721D01*
X59864017Y53179420D01*
X59861546Y53175179D01*
X59858971Y53171000D01*
X59856294Y53166886D01*
X59853517Y53162838D01*
X59850642Y53158860D01*
X59847669Y53154954D01*
X59844602Y53151121D01*
X59841442Y53147365D01*
X59838190Y53143688D01*
X59834849Y53140092D01*
X59831421Y53136579D01*
X59827908Y53133151D01*
X59824312Y53129810D01*
X59820635Y53126558D01*
X59816879Y53123398D01*
X59813046Y53120331D01*
X59809140Y53117358D01*
X59805162Y53114483D01*
X59801114Y53111706D01*
X59797000Y53109029D01*
X59792821Y53106454D01*
X59788580Y53103983D01*
X59784279Y53101616D01*
X59779922Y53099355D01*
X59775511Y53097202D01*
X59771048Y53095158D01*
X59766537Y53093224D01*
X59761979Y53091401D01*
X59757378Y53089691D01*
X59752736Y53088094D01*
X59748057Y53086612D01*
X59743343Y53085245D01*
X59738596Y53083994D01*
X59733820Y53082860D01*
X59729018Y53081843D01*
X59724192Y53080944D01*
X59719346Y53080165D01*
X59714482Y53079504D01*
X59709603Y53078963D01*
X59704713Y53078542D01*
X59699814Y53078241D01*
X59694908Y53078060D01*
X59690000Y53078000D01*
X59685092Y53078060D01*
X59680186Y53078241D01*
X59675287Y53078542D01*
X59670397Y53078963D01*
X59665518Y53079504D01*
X59660654Y53080165D01*
X59655808Y53080944D01*
X59650982Y53081843D01*
X59646180Y53082860D01*
X59641404Y53083994D01*
X59636657Y53085245D01*
X59631943Y53086612D01*
X59627264Y53088094D01*
X59622622Y53089691D01*
X59618021Y53091401D01*
X59613463Y53093224D01*
X59608952Y53095158D01*
X59604489Y53097202D01*
X59600078Y53099355D01*
X59595721Y53101616D01*
X59591420Y53103983D01*
X59587179Y53106454D01*
X59583000Y53109029D01*
X59578886Y53111706D01*
X59574838Y53114483D01*
X59570860Y53117358D01*
X59566954Y53120331D01*
X59563121Y53123398D01*
X59559365Y53126558D01*
X59555688Y53129810D01*
X59552092Y53133151D01*
X59548579Y53136579D01*
X59545151Y53140092D01*
X59541810Y53143688D01*
X59538558Y53147365D01*
X59535398Y53151121D01*
X59532331Y53154954D01*
X59529358Y53158860D01*
X59526483Y53162838D01*
X59523706Y53166886D01*
X59521029Y53171000D01*
X59518454Y53175179D01*
X59515983Y53179420D01*
X59513616Y53183721D01*
X59511355Y53188078D01*
X59509202Y53192489D01*
X59507158Y53196952D01*
X59505224Y53201463D01*
X59503401Y53206021D01*
X59501691Y53210622D01*
X59500094Y53215264D01*
X59498612Y53219943D01*
X59497245Y53224657D01*
X59495994Y53229404D01*
X59494860Y53234180D01*
X59493843Y53238982D01*
X59492944Y53243808D01*
X59492165Y53248654D01*
X59491504Y53253518D01*
X59490963Y53258397D01*
X59490542Y53263287D01*
X59490241Y53268186D01*
X59490060Y53273092D01*
X59490000Y53278000D01*
D15*
X61471653Y49852181D02*
X62317100Y49852181D01*
X61471653Y49852181D02*
X61463735Y49852277D01*
X61455821Y49852567D01*
X61447917Y49853048D01*
X61440027Y49853723D01*
X61432156Y49854589D01*
X61424308Y49855646D01*
X61416488Y49856895D01*
X61408701Y49858333D01*
X61400951Y49859960D01*
X61393243Y49861776D01*
X61385582Y49863779D01*
X61377971Y49865968D01*
X61370416Y49868342D01*
X61362922Y49870899D01*
X61355492Y49873637D01*
X61348130Y49876556D01*
X61340842Y49879653D01*
X61333632Y49882927D01*
X61326503Y49886375D01*
X61319460Y49889996D01*
X61312508Y49893787D01*
X61305650Y49897746D01*
X61298891Y49901872D01*
X61292234Y49906160D01*
X61285683Y49910610D01*
X61279243Y49915217D01*
X61272916Y49919981D01*
X61266708Y49924896D01*
X61260621Y49929962D01*
X61254660Y49935174D01*
X61248827Y49940530D01*
X61243126Y49946026D01*
X61237561Y49951660D01*
X61232134Y49957427D01*
X61226850Y49963325D01*
X61221710Y49969349D01*
X61216719Y49975497D01*
X61211880Y49981765D01*
X61207194Y49988149D01*
X61202665Y49994645D01*
X61198296Y50001249D01*
X61194088Y50007958D01*
X61190046Y50014767D01*
X61186170Y50021673D01*
X61182464Y50028671D01*
X61178929Y50035757D01*
X61175568Y50042927D01*
X61172382Y50050177D01*
X61169374Y50057502D01*
X61166545Y50064898D01*
X61163897Y50072361D01*
X61161432Y50079887D01*
X61159150Y50087470D01*
X61157054Y50095106D01*
X61155145Y50102791D01*
X61153423Y50110521D01*
X61151890Y50118290D01*
X61150547Y50126094D01*
X61149394Y50133928D01*
X61148432Y50141789D01*
X61147662Y50149670D01*
X61147083Y50157568D01*
X61146698Y50165477D01*
X61146505Y50173394D01*
X61146505Y50181312D01*
X61146698Y50189229D01*
X61147083Y50197138D01*
X61147662Y50205036D01*
X61148432Y50212917D01*
X61149394Y50220778D01*
X61150547Y50228612D01*
X61151890Y50236416D01*
X61153423Y50244185D01*
X61155145Y50251915D01*
X61157054Y50259600D01*
X61159150Y50267236D01*
X61161432Y50274819D01*
X61163897Y50282345D01*
X61166545Y50289808D01*
X61169374Y50297204D01*
X61172382Y50304529D01*
X61175568Y50311779D01*
X61178929Y50318949D01*
X61182464Y50326035D01*
X61186170Y50333033D01*
X61190046Y50339939D01*
X61194088Y50346748D01*
X61198296Y50353457D01*
X61202665Y50360061D01*
X61207194Y50366557D01*
X61211880Y50372941D01*
X61216719Y50379209D01*
X61221710Y50385357D01*
X61226850Y50391381D01*
X61232134Y50397279D01*
X61237561Y50403046D01*
X61243126Y50408680D01*
X61248827Y50414176D01*
X61254660Y50419532D01*
X61260621Y50424744D01*
X61266708Y50429810D01*
X61272916Y50434725D01*
X61279243Y50439489D01*
X61285683Y50444096D01*
X61292234Y50448546D01*
X61298891Y50452834D01*
X61305650Y50456960D01*
X61312508Y50460919D01*
X61319460Y50464710D01*
X61326503Y50468331D01*
X61333632Y50471779D01*
X61340842Y50475053D01*
X61348130Y50478150D01*
X61355492Y50481069D01*
X61362922Y50483807D01*
X61370416Y50486364D01*
X61377971Y50488738D01*
X61385582Y50490927D01*
X61393243Y50492930D01*
X61400951Y50494746D01*
X61408701Y50496373D01*
X61416488Y50497811D01*
X61424308Y50499060D01*
X61432156Y50500117D01*
X61440027Y50500983D01*
X61447917Y50501658D01*
X61455821Y50502139D01*
X61463735Y50502429D01*
X61471653Y50502525D01*
X62317100Y50502525D01*
X62056963Y51035341D02*
X62317100Y51360513D01*
X61146481Y51360513D01*
X61146481Y51685684D02*
X61146481Y51035341D01*
X61666756Y52440472D02*
X61666756Y52830678D01*
X61666756Y52440472D02*
X61666832Y52434186D01*
X61667060Y52427904D01*
X61667439Y52421629D01*
X61667970Y52415365D01*
X61668653Y52409116D01*
X61669486Y52402885D01*
X61670469Y52396676D01*
X61671602Y52390493D01*
X61672885Y52384338D01*
X61674315Y52378217D01*
X61675893Y52372132D01*
X61677618Y52366087D01*
X61679488Y52360085D01*
X61681503Y52354130D01*
X61683661Y52348226D01*
X61685961Y52342375D01*
X61688402Y52336582D01*
X61690982Y52330850D01*
X61693699Y52325181D01*
X61696553Y52319580D01*
X61699542Y52314049D01*
X61702663Y52308592D01*
X61705915Y52303213D01*
X61709296Y52297913D01*
X61712805Y52292697D01*
X61716438Y52287567D01*
X61720194Y52282526D01*
X61724071Y52277577D01*
X61728066Y52272724D01*
X61732178Y52267969D01*
X61736403Y52263314D01*
X61740740Y52258763D01*
X61745185Y52254318D01*
X61749736Y52249981D01*
X61754391Y52245756D01*
X61759146Y52241644D01*
X61763999Y52237649D01*
X61768948Y52233772D01*
X61773989Y52230016D01*
X61779119Y52226383D01*
X61784335Y52222874D01*
X61789635Y52219493D01*
X61795014Y52216241D01*
X61800471Y52213120D01*
X61806002Y52210131D01*
X61811603Y52207277D01*
X61817272Y52204560D01*
X61823004Y52201980D01*
X61828797Y52199539D01*
X61834648Y52197239D01*
X61840552Y52195081D01*
X61846507Y52193066D01*
X61852509Y52191196D01*
X61858554Y52189471D01*
X61864639Y52187893D01*
X61870760Y52186463D01*
X61876915Y52185180D01*
X61883098Y52184047D01*
X61889307Y52183064D01*
X61895538Y52182231D01*
X61901787Y52181548D01*
X61908051Y52181017D01*
X61914326Y52180638D01*
X61920608Y52180410D01*
X61926894Y52180334D01*
X61991928Y52180334D01*
X61999846Y52180430D01*
X62007760Y52180720D01*
X62015664Y52181201D01*
X62023554Y52181876D01*
X62031425Y52182742D01*
X62039273Y52183799D01*
X62047093Y52185048D01*
X62054880Y52186486D01*
X62062630Y52188113D01*
X62070338Y52189929D01*
X62077999Y52191932D01*
X62085610Y52194121D01*
X62093165Y52196495D01*
X62100659Y52199052D01*
X62108089Y52201790D01*
X62115451Y52204709D01*
X62122739Y52207806D01*
X62129949Y52211080D01*
X62137078Y52214528D01*
X62144121Y52218149D01*
X62151073Y52221940D01*
X62157931Y52225899D01*
X62164690Y52230025D01*
X62171347Y52234313D01*
X62177898Y52238763D01*
X62184338Y52243370D01*
X62190665Y52248134D01*
X62196873Y52253049D01*
X62202960Y52258115D01*
X62208921Y52263327D01*
X62214754Y52268683D01*
X62220455Y52274179D01*
X62226020Y52279813D01*
X62231447Y52285580D01*
X62236731Y52291478D01*
X62241871Y52297502D01*
X62246862Y52303650D01*
X62251701Y52309918D01*
X62256387Y52316302D01*
X62260916Y52322798D01*
X62265285Y52329402D01*
X62269493Y52336111D01*
X62273535Y52342920D01*
X62277411Y52349826D01*
X62281117Y52356824D01*
X62284652Y52363910D01*
X62288013Y52371080D01*
X62291199Y52378330D01*
X62294207Y52385655D01*
X62297036Y52393051D01*
X62299684Y52400514D01*
X62302149Y52408040D01*
X62304431Y52415623D01*
X62306527Y52423259D01*
X62308436Y52430944D01*
X62310158Y52438674D01*
X62311691Y52446443D01*
X62313034Y52454247D01*
X62314187Y52462081D01*
X62315149Y52469942D01*
X62315919Y52477823D01*
X62316498Y52485721D01*
X62316883Y52493630D01*
X62317076Y52501547D01*
X62317076Y52509465D01*
X62316883Y52517382D01*
X62316498Y52525291D01*
X62315919Y52533189D01*
X62315149Y52541070D01*
X62314187Y52548931D01*
X62313034Y52556765D01*
X62311691Y52564569D01*
X62310158Y52572338D01*
X62308436Y52580068D01*
X62306527Y52587753D01*
X62304431Y52595389D01*
X62302149Y52602972D01*
X62299684Y52610498D01*
X62297036Y52617961D01*
X62294207Y52625357D01*
X62291199Y52632682D01*
X62288013Y52639932D01*
X62284652Y52647102D01*
X62281117Y52654188D01*
X62277411Y52661186D01*
X62273535Y52668092D01*
X62269493Y52674901D01*
X62265285Y52681610D01*
X62260916Y52688214D01*
X62256387Y52694710D01*
X62251701Y52701094D01*
X62246862Y52707362D01*
X62241871Y52713510D01*
X62236731Y52719534D01*
X62231447Y52725432D01*
X62226020Y52731199D01*
X62220455Y52736833D01*
X62214754Y52742329D01*
X62208921Y52747685D01*
X62202960Y52752897D01*
X62196873Y52757963D01*
X62190665Y52762878D01*
X62184338Y52767642D01*
X62177898Y52772249D01*
X62171347Y52776699D01*
X62164690Y52780987D01*
X62157931Y52785113D01*
X62151073Y52789072D01*
X62144121Y52792863D01*
X62137078Y52796484D01*
X62129949Y52799932D01*
X62122739Y52803206D01*
X62115451Y52806303D01*
X62108089Y52809222D01*
X62100659Y52811960D01*
X62093165Y52814517D01*
X62085610Y52816891D01*
X62077999Y52819080D01*
X62070338Y52821083D01*
X62062630Y52822899D01*
X62054880Y52824526D01*
X62047093Y52825964D01*
X62039273Y52827213D01*
X62031425Y52828270D01*
X62023554Y52829136D01*
X62015664Y52829811D01*
X62007760Y52830292D01*
X61999846Y52830582D01*
X61991928Y52830678D01*
X61666756Y52830678D01*
X61654184Y52830526D01*
X61641620Y52830070D01*
X61629070Y52829311D01*
X61616542Y52828249D01*
X61604044Y52826885D01*
X61591582Y52825218D01*
X61579164Y52823252D01*
X61566797Y52820985D01*
X61554489Y52818421D01*
X61542246Y52815560D01*
X61530076Y52812404D01*
X61517986Y52808954D01*
X61505982Y52805214D01*
X61494073Y52801185D01*
X61482264Y52796869D01*
X61470563Y52792269D01*
X61458977Y52787387D01*
X61447512Y52782227D01*
X61436175Y52776792D01*
X61424972Y52771084D01*
X61413911Y52765107D01*
X61402997Y52758864D01*
X61392238Y52752360D01*
X61381639Y52745598D01*
X61371206Y52738581D01*
X61360946Y52731314D01*
X61350865Y52723802D01*
X61340967Y52716048D01*
X61331261Y52708057D01*
X61321750Y52699834D01*
X61312440Y52691384D01*
X61303338Y52682711D01*
X61294448Y52673821D01*
X61285775Y52664719D01*
X61277325Y52655409D01*
X61269102Y52645898D01*
X61261111Y52636192D01*
X61253357Y52626294D01*
X61245845Y52616213D01*
X61238578Y52605953D01*
X61231561Y52595520D01*
X61224799Y52584921D01*
X61218295Y52574162D01*
X61212052Y52563248D01*
X61206075Y52552187D01*
X61200367Y52540984D01*
X61194932Y52529647D01*
X61189772Y52518182D01*
X61184890Y52506596D01*
X61180290Y52494895D01*
X61175974Y52483086D01*
X61171945Y52471177D01*
X61168205Y52459173D01*
X61164755Y52447083D01*
X61161599Y52434913D01*
X61158738Y52422670D01*
X61156174Y52410362D01*
X61153907Y52397995D01*
X61151941Y52385577D01*
X61150274Y52373115D01*
X61148910Y52360617D01*
X61147848Y52348089D01*
X61147089Y52335539D01*
X61146633Y52322975D01*
X61146481Y52310403D01*
D13*
X60490900Y63920000D02*
X60490900Y65620000D01*
X58889100Y65620000D02*
X58889100Y63920000D01*
D15*
X61176700Y63306131D02*
X62345100Y63306131D01*
X62345100Y63630684D01*
X62345004Y63638587D01*
X62344715Y63646486D01*
X62344234Y63654375D01*
X62343561Y63662250D01*
X62342697Y63670107D01*
X62341641Y63677940D01*
X62340395Y63685745D01*
X62338960Y63693517D01*
X62337335Y63701252D01*
X62335523Y63708946D01*
X62333524Y63716592D01*
X62331339Y63724188D01*
X62328970Y63731729D01*
X62326418Y63739209D01*
X62323685Y63746625D01*
X62320771Y63753973D01*
X62317680Y63761247D01*
X62314413Y63768444D01*
X62310971Y63775559D01*
X62307357Y63782588D01*
X62303573Y63789527D01*
X62299621Y63796372D01*
X62295504Y63803119D01*
X62291223Y63809764D01*
X62286782Y63816302D01*
X62282183Y63822730D01*
X62277429Y63829044D01*
X62272522Y63835241D01*
X62267467Y63841316D01*
X62262264Y63847266D01*
X62256919Y63853088D01*
X62251433Y63858778D01*
X62245810Y63864333D01*
X62240054Y63869749D01*
X62234167Y63875024D01*
X62228154Y63880153D01*
X62222017Y63885135D01*
X62215761Y63889965D01*
X62209390Y63894642D01*
X62202906Y63899162D01*
X62196314Y63903523D01*
X62189618Y63907723D01*
X62182822Y63911758D01*
X62175929Y63915626D01*
X62168945Y63919325D01*
X62161872Y63922853D01*
X62154715Y63926208D01*
X62147479Y63929388D01*
X62140168Y63932390D01*
X62132786Y63935214D01*
X62125337Y63937857D01*
X62117826Y63940317D01*
X62110257Y63942595D01*
X62102635Y63944687D01*
X62094964Y63946593D01*
X62087250Y63948311D01*
X62079495Y63949841D01*
X62071706Y63951182D01*
X62063886Y63952333D01*
X62056041Y63953293D01*
X62048175Y63954062D01*
X62040292Y63954639D01*
X62032397Y63955023D01*
X62024496Y63955216D01*
X62016592Y63955216D01*
X62008691Y63955023D01*
X62000796Y63954639D01*
X61992913Y63954062D01*
X61985047Y63953293D01*
X61977202Y63952333D01*
X61969382Y63951182D01*
X61961593Y63949841D01*
X61953838Y63948311D01*
X61946124Y63946593D01*
X61938453Y63944687D01*
X61930831Y63942595D01*
X61923262Y63940317D01*
X61915751Y63937857D01*
X61908302Y63935214D01*
X61900920Y63932390D01*
X61893609Y63929388D01*
X61886373Y63926208D01*
X61879216Y63922853D01*
X61872143Y63919325D01*
X61865159Y63915626D01*
X61858266Y63911758D01*
X61851470Y63907723D01*
X61844774Y63903523D01*
X61838182Y63899162D01*
X61831698Y63894642D01*
X61825327Y63889965D01*
X61819071Y63885135D01*
X61812934Y63880153D01*
X61806921Y63875024D01*
X61801034Y63869749D01*
X61795278Y63864333D01*
X61789655Y63858778D01*
X61784169Y63853088D01*
X61778824Y63847266D01*
X61773621Y63841316D01*
X61768566Y63835241D01*
X61763659Y63829044D01*
X61758905Y63822730D01*
X61754306Y63816302D01*
X61749865Y63809764D01*
X61745584Y63803119D01*
X61741467Y63796372D01*
X61737515Y63789527D01*
X61733731Y63782588D01*
X61730117Y63775559D01*
X61726675Y63768444D01*
X61723408Y63761247D01*
X61720317Y63753973D01*
X61717403Y63746625D01*
X61714670Y63739209D01*
X61712118Y63731729D01*
X61709749Y63724188D01*
X61707564Y63716592D01*
X61705565Y63708946D01*
X61703753Y63701252D01*
X61702128Y63693517D01*
X61700693Y63685745D01*
X61699447Y63677940D01*
X61698391Y63670107D01*
X61697527Y63662250D01*
X61696854Y63654375D01*
X61696373Y63646486D01*
X61696084Y63638587D01*
X61695988Y63630684D01*
X61695988Y63306131D01*
X61695988Y63695597D02*
X61176700Y63955241D01*
X61436344Y64441766D02*
X62345100Y64701409D01*
X61436344Y64441766D02*
X61436344Y65090875D01*
X61695988Y64896141D02*
X61176700Y64896141D01*
X61436344Y65584763D02*
X62345100Y65844406D01*
X61436344Y65584763D02*
X61436344Y66233872D01*
X61695988Y66039138D02*
X61176700Y66039138D01*
D12*
X69360000Y59330000D02*
X69360000Y52430000D01*
X69360000Y59330000D02*
X65260000Y59330000D01*
X65260000Y52430000D01*
X69360000Y52430000D01*
D13*
X69153000Y51030000D02*
X69153038Y51033117D01*
X69153153Y51036232D01*
X69153344Y51039343D01*
X69153612Y51042448D01*
X69153955Y51045546D01*
X69154375Y51048635D01*
X69154870Y51051712D01*
X69155440Y51054776D01*
X69156086Y51057826D01*
X69156806Y51060858D01*
X69157600Y51063873D01*
X69158469Y51066866D01*
X69159410Y51069838D01*
X69160424Y51072785D01*
X69161510Y51075707D01*
X69162667Y51078601D01*
X69163895Y51081466D01*
X69165193Y51084299D01*
X69166561Y51087101D01*
X69167996Y51089867D01*
X69169499Y51092598D01*
X69171068Y51095291D01*
X69172704Y51097945D01*
X69174403Y51100557D01*
X69176167Y51103128D01*
X69177993Y51105654D01*
X69179880Y51108134D01*
X69181828Y51110568D01*
X69183834Y51112953D01*
X69185899Y51115288D01*
X69188021Y51117572D01*
X69190197Y51119803D01*
X69192428Y51121979D01*
X69194712Y51124101D01*
X69197047Y51126166D01*
X69199432Y51128172D01*
X69201866Y51130120D01*
X69204346Y51132007D01*
X69206872Y51133833D01*
X69209443Y51135597D01*
X69212055Y51137296D01*
X69214709Y51138932D01*
X69217402Y51140501D01*
X69220133Y51142004D01*
X69222899Y51143439D01*
X69225701Y51144807D01*
X69228534Y51146105D01*
X69231399Y51147333D01*
X69234293Y51148490D01*
X69237215Y51149576D01*
X69240162Y51150590D01*
X69243134Y51151531D01*
X69246127Y51152400D01*
X69249142Y51153194D01*
X69252174Y51153914D01*
X69255224Y51154560D01*
X69258288Y51155130D01*
X69261365Y51155625D01*
X69264454Y51156045D01*
X69267552Y51156388D01*
X69270657Y51156656D01*
X69273768Y51156847D01*
X69276883Y51156962D01*
X69280000Y51157000D01*
X69283117Y51156962D01*
X69286232Y51156847D01*
X69289343Y51156656D01*
X69292448Y51156388D01*
X69295546Y51156045D01*
X69298635Y51155625D01*
X69301712Y51155130D01*
X69304776Y51154560D01*
X69307826Y51153914D01*
X69310858Y51153194D01*
X69313873Y51152400D01*
X69316866Y51151531D01*
X69319838Y51150590D01*
X69322785Y51149576D01*
X69325707Y51148490D01*
X69328601Y51147333D01*
X69331466Y51146105D01*
X69334299Y51144807D01*
X69337101Y51143439D01*
X69339867Y51142004D01*
X69342598Y51140501D01*
X69345291Y51138932D01*
X69347945Y51137296D01*
X69350557Y51135597D01*
X69353128Y51133833D01*
X69355654Y51132007D01*
X69358134Y51130120D01*
X69360568Y51128172D01*
X69362953Y51126166D01*
X69365288Y51124101D01*
X69367572Y51121979D01*
X69369803Y51119803D01*
X69371979Y51117572D01*
X69374101Y51115288D01*
X69376166Y51112953D01*
X69378172Y51110568D01*
X69380120Y51108134D01*
X69382007Y51105654D01*
X69383833Y51103128D01*
X69385597Y51100557D01*
X69387296Y51097945D01*
X69388932Y51095291D01*
X69390501Y51092598D01*
X69392004Y51089867D01*
X69393439Y51087101D01*
X69394807Y51084299D01*
X69396105Y51081466D01*
X69397333Y51078601D01*
X69398490Y51075707D01*
X69399576Y51072785D01*
X69400590Y51069838D01*
X69401531Y51066866D01*
X69402400Y51063873D01*
X69403194Y51060858D01*
X69403914Y51057826D01*
X69404560Y51054776D01*
X69405130Y51051712D01*
X69405625Y51048635D01*
X69406045Y51045546D01*
X69406388Y51042448D01*
X69406656Y51039343D01*
X69406847Y51036232D01*
X69406962Y51033117D01*
X69407000Y51030000D01*
X69406962Y51026883D01*
X69406847Y51023768D01*
X69406656Y51020657D01*
X69406388Y51017552D01*
X69406045Y51014454D01*
X69405625Y51011365D01*
X69405130Y51008288D01*
X69404560Y51005224D01*
X69403914Y51002174D01*
X69403194Y50999142D01*
X69402400Y50996127D01*
X69401531Y50993134D01*
X69400590Y50990162D01*
X69399576Y50987215D01*
X69398490Y50984293D01*
X69397333Y50981399D01*
X69396105Y50978534D01*
X69394807Y50975701D01*
X69393439Y50972899D01*
X69392004Y50970133D01*
X69390501Y50967402D01*
X69388932Y50964709D01*
X69387296Y50962055D01*
X69385597Y50959443D01*
X69383833Y50956872D01*
X69382007Y50954346D01*
X69380120Y50951866D01*
X69378172Y50949432D01*
X69376166Y50947047D01*
X69374101Y50944712D01*
X69371979Y50942428D01*
X69369803Y50940197D01*
X69367572Y50938021D01*
X69365288Y50935899D01*
X69362953Y50933834D01*
X69360568Y50931828D01*
X69358134Y50929880D01*
X69355654Y50927993D01*
X69353128Y50926167D01*
X69350557Y50924403D01*
X69347945Y50922704D01*
X69345291Y50921068D01*
X69342598Y50919499D01*
X69339867Y50917996D01*
X69337101Y50916561D01*
X69334299Y50915193D01*
X69331466Y50913895D01*
X69328601Y50912667D01*
X69325707Y50911510D01*
X69322785Y50910424D01*
X69319838Y50909410D01*
X69316866Y50908469D01*
X69313873Y50907600D01*
X69310858Y50906806D01*
X69307826Y50906086D01*
X69304776Y50905440D01*
X69301712Y50904870D01*
X69298635Y50904375D01*
X69295546Y50903955D01*
X69292448Y50903612D01*
X69289343Y50903344D01*
X69286232Y50903153D01*
X69283117Y50903038D01*
X69280000Y50903000D01*
X69276883Y50903038D01*
X69273768Y50903153D01*
X69270657Y50903344D01*
X69267552Y50903612D01*
X69264454Y50903955D01*
X69261365Y50904375D01*
X69258288Y50904870D01*
X69255224Y50905440D01*
X69252174Y50906086D01*
X69249142Y50906806D01*
X69246127Y50907600D01*
X69243134Y50908469D01*
X69240162Y50909410D01*
X69237215Y50910424D01*
X69234293Y50911510D01*
X69231399Y50912667D01*
X69228534Y50913895D01*
X69225701Y50915193D01*
X69222899Y50916561D01*
X69220133Y50917996D01*
X69217402Y50919499D01*
X69214709Y50921068D01*
X69212055Y50922704D01*
X69209443Y50924403D01*
X69206872Y50926167D01*
X69204346Y50927993D01*
X69201866Y50929880D01*
X69199432Y50931828D01*
X69197047Y50933834D01*
X69194712Y50935899D01*
X69192428Y50938021D01*
X69190197Y50940197D01*
X69188021Y50942428D01*
X69185899Y50944712D01*
X69183834Y50947047D01*
X69181828Y50949432D01*
X69179880Y50951866D01*
X69177993Y50954346D01*
X69176167Y50956872D01*
X69174403Y50959443D01*
X69172704Y50962055D01*
X69171068Y50964709D01*
X69169499Y50967402D01*
X69167996Y50970133D01*
X69166561Y50972899D01*
X69165193Y50975701D01*
X69163895Y50978534D01*
X69162667Y50981399D01*
X69161510Y50984293D01*
X69160424Y50987215D01*
X69159410Y50990162D01*
X69158469Y50993134D01*
X69157600Y50996127D01*
X69156806Y50999142D01*
X69156086Y51002174D01*
X69155440Y51005224D01*
X69154870Y51008288D01*
X69154375Y51011365D01*
X69153955Y51014454D01*
X69153612Y51017552D01*
X69153344Y51020657D01*
X69153153Y51023768D01*
X69153038Y51026883D01*
X69153000Y51030000D01*
D14*
X68380000Y53278000D02*
X68380060Y53282908D01*
X68380241Y53287814D01*
X68380542Y53292713D01*
X68380963Y53297603D01*
X68381504Y53302482D01*
X68382165Y53307346D01*
X68382944Y53312192D01*
X68383843Y53317018D01*
X68384860Y53321820D01*
X68385994Y53326596D01*
X68387245Y53331343D01*
X68388612Y53336057D01*
X68390094Y53340736D01*
X68391691Y53345378D01*
X68393401Y53349979D01*
X68395224Y53354537D01*
X68397158Y53359048D01*
X68399202Y53363511D01*
X68401355Y53367922D01*
X68403616Y53372279D01*
X68405983Y53376580D01*
X68408454Y53380821D01*
X68411029Y53385000D01*
X68413706Y53389114D01*
X68416483Y53393162D01*
X68419358Y53397140D01*
X68422331Y53401046D01*
X68425398Y53404879D01*
X68428558Y53408635D01*
X68431810Y53412312D01*
X68435151Y53415908D01*
X68438579Y53419421D01*
X68442092Y53422849D01*
X68445688Y53426190D01*
X68449365Y53429442D01*
X68453121Y53432602D01*
X68456954Y53435669D01*
X68460860Y53438642D01*
X68464838Y53441517D01*
X68468886Y53444294D01*
X68473000Y53446971D01*
X68477179Y53449546D01*
X68481420Y53452017D01*
X68485721Y53454384D01*
X68490078Y53456645D01*
X68494489Y53458798D01*
X68498952Y53460842D01*
X68503463Y53462776D01*
X68508021Y53464599D01*
X68512622Y53466309D01*
X68517264Y53467906D01*
X68521943Y53469388D01*
X68526657Y53470755D01*
X68531404Y53472006D01*
X68536180Y53473140D01*
X68540982Y53474157D01*
X68545808Y53475056D01*
X68550654Y53475835D01*
X68555518Y53476496D01*
X68560397Y53477037D01*
X68565287Y53477458D01*
X68570186Y53477759D01*
X68575092Y53477940D01*
X68580000Y53478000D01*
X68584908Y53477940D01*
X68589814Y53477759D01*
X68594713Y53477458D01*
X68599603Y53477037D01*
X68604482Y53476496D01*
X68609346Y53475835D01*
X68614192Y53475056D01*
X68619018Y53474157D01*
X68623820Y53473140D01*
X68628596Y53472006D01*
X68633343Y53470755D01*
X68638057Y53469388D01*
X68642736Y53467906D01*
X68647378Y53466309D01*
X68651979Y53464599D01*
X68656537Y53462776D01*
X68661048Y53460842D01*
X68665511Y53458798D01*
X68669922Y53456645D01*
X68674279Y53454384D01*
X68678580Y53452017D01*
X68682821Y53449546D01*
X68687000Y53446971D01*
X68691114Y53444294D01*
X68695162Y53441517D01*
X68699140Y53438642D01*
X68703046Y53435669D01*
X68706879Y53432602D01*
X68710635Y53429442D01*
X68714312Y53426190D01*
X68717908Y53422849D01*
X68721421Y53419421D01*
X68724849Y53415908D01*
X68728190Y53412312D01*
X68731442Y53408635D01*
X68734602Y53404879D01*
X68737669Y53401046D01*
X68740642Y53397140D01*
X68743517Y53393162D01*
X68746294Y53389114D01*
X68748971Y53385000D01*
X68751546Y53380821D01*
X68754017Y53376580D01*
X68756384Y53372279D01*
X68758645Y53367922D01*
X68760798Y53363511D01*
X68762842Y53359048D01*
X68764776Y53354537D01*
X68766599Y53349979D01*
X68768309Y53345378D01*
X68769906Y53340736D01*
X68771388Y53336057D01*
X68772755Y53331343D01*
X68774006Y53326596D01*
X68775140Y53321820D01*
X68776157Y53317018D01*
X68777056Y53312192D01*
X68777835Y53307346D01*
X68778496Y53302482D01*
X68779037Y53297603D01*
X68779458Y53292713D01*
X68779759Y53287814D01*
X68779940Y53282908D01*
X68780000Y53278000D01*
X68779940Y53273092D01*
X68779759Y53268186D01*
X68779458Y53263287D01*
X68779037Y53258397D01*
X68778496Y53253518D01*
X68777835Y53248654D01*
X68777056Y53243808D01*
X68776157Y53238982D01*
X68775140Y53234180D01*
X68774006Y53229404D01*
X68772755Y53224657D01*
X68771388Y53219943D01*
X68769906Y53215264D01*
X68768309Y53210622D01*
X68766599Y53206021D01*
X68764776Y53201463D01*
X68762842Y53196952D01*
X68760798Y53192489D01*
X68758645Y53188078D01*
X68756384Y53183721D01*
X68754017Y53179420D01*
X68751546Y53175179D01*
X68748971Y53171000D01*
X68746294Y53166886D01*
X68743517Y53162838D01*
X68740642Y53158860D01*
X68737669Y53154954D01*
X68734602Y53151121D01*
X68731442Y53147365D01*
X68728190Y53143688D01*
X68724849Y53140092D01*
X68721421Y53136579D01*
X68717908Y53133151D01*
X68714312Y53129810D01*
X68710635Y53126558D01*
X68706879Y53123398D01*
X68703046Y53120331D01*
X68699140Y53117358D01*
X68695162Y53114483D01*
X68691114Y53111706D01*
X68687000Y53109029D01*
X68682821Y53106454D01*
X68678580Y53103983D01*
X68674279Y53101616D01*
X68669922Y53099355D01*
X68665511Y53097202D01*
X68661048Y53095158D01*
X68656537Y53093224D01*
X68651979Y53091401D01*
X68647378Y53089691D01*
X68642736Y53088094D01*
X68638057Y53086612D01*
X68633343Y53085245D01*
X68628596Y53083994D01*
X68623820Y53082860D01*
X68619018Y53081843D01*
X68614192Y53080944D01*
X68609346Y53080165D01*
X68604482Y53079504D01*
X68599603Y53078963D01*
X68594713Y53078542D01*
X68589814Y53078241D01*
X68584908Y53078060D01*
X68580000Y53078000D01*
X68575092Y53078060D01*
X68570186Y53078241D01*
X68565287Y53078542D01*
X68560397Y53078963D01*
X68555518Y53079504D01*
X68550654Y53080165D01*
X68545808Y53080944D01*
X68540982Y53081843D01*
X68536180Y53082860D01*
X68531404Y53083994D01*
X68526657Y53085245D01*
X68521943Y53086612D01*
X68517264Y53088094D01*
X68512622Y53089691D01*
X68508021Y53091401D01*
X68503463Y53093224D01*
X68498952Y53095158D01*
X68494489Y53097202D01*
X68490078Y53099355D01*
X68485721Y53101616D01*
X68481420Y53103983D01*
X68477179Y53106454D01*
X68473000Y53109029D01*
X68468886Y53111706D01*
X68464838Y53114483D01*
X68460860Y53117358D01*
X68456954Y53120331D01*
X68453121Y53123398D01*
X68449365Y53126558D01*
X68445688Y53129810D01*
X68442092Y53133151D01*
X68438579Y53136579D01*
X68435151Y53140092D01*
X68431810Y53143688D01*
X68428558Y53147365D01*
X68425398Y53151121D01*
X68422331Y53154954D01*
X68419358Y53158860D01*
X68416483Y53162838D01*
X68413706Y53166886D01*
X68411029Y53171000D01*
X68408454Y53175179D01*
X68405983Y53179420D01*
X68403616Y53183721D01*
X68401355Y53188078D01*
X68399202Y53192489D01*
X68397158Y53196952D01*
X68395224Y53201463D01*
X68393401Y53206021D01*
X68391691Y53210622D01*
X68390094Y53215264D01*
X68388612Y53219943D01*
X68387245Y53224657D01*
X68385994Y53229404D01*
X68384860Y53234180D01*
X68383843Y53238982D01*
X68382944Y53243808D01*
X68382165Y53248654D01*
X68381504Y53253518D01*
X68380963Y53258397D01*
X68380542Y53263287D01*
X68380241Y53268186D01*
X68380060Y53273092D01*
X68380000Y53278000D01*
D15*
X70361653Y49852181D02*
X71207100Y49852181D01*
X70361653Y49852181D02*
X70353735Y49852277D01*
X70345821Y49852567D01*
X70337917Y49853048D01*
X70330027Y49853723D01*
X70322156Y49854589D01*
X70314308Y49855646D01*
X70306488Y49856895D01*
X70298701Y49858333D01*
X70290951Y49859960D01*
X70283243Y49861776D01*
X70275582Y49863779D01*
X70267971Y49865968D01*
X70260416Y49868342D01*
X70252922Y49870899D01*
X70245492Y49873637D01*
X70238130Y49876556D01*
X70230842Y49879653D01*
X70223632Y49882927D01*
X70216503Y49886375D01*
X70209460Y49889996D01*
X70202508Y49893787D01*
X70195650Y49897746D01*
X70188891Y49901872D01*
X70182234Y49906160D01*
X70175683Y49910610D01*
X70169243Y49915217D01*
X70162916Y49919981D01*
X70156708Y49924896D01*
X70150621Y49929962D01*
X70144660Y49935174D01*
X70138827Y49940530D01*
X70133126Y49946026D01*
X70127561Y49951660D01*
X70122134Y49957427D01*
X70116850Y49963325D01*
X70111710Y49969349D01*
X70106719Y49975497D01*
X70101880Y49981765D01*
X70097194Y49988149D01*
X70092665Y49994645D01*
X70088296Y50001249D01*
X70084088Y50007958D01*
X70080046Y50014767D01*
X70076170Y50021673D01*
X70072464Y50028671D01*
X70068929Y50035757D01*
X70065568Y50042927D01*
X70062382Y50050177D01*
X70059374Y50057502D01*
X70056545Y50064898D01*
X70053897Y50072361D01*
X70051432Y50079887D01*
X70049150Y50087470D01*
X70047054Y50095106D01*
X70045145Y50102791D01*
X70043423Y50110521D01*
X70041890Y50118290D01*
X70040547Y50126094D01*
X70039394Y50133928D01*
X70038432Y50141789D01*
X70037662Y50149670D01*
X70037083Y50157568D01*
X70036698Y50165477D01*
X70036505Y50173394D01*
X70036505Y50181312D01*
X70036698Y50189229D01*
X70037083Y50197138D01*
X70037662Y50205036D01*
X70038432Y50212917D01*
X70039394Y50220778D01*
X70040547Y50228612D01*
X70041890Y50236416D01*
X70043423Y50244185D01*
X70045145Y50251915D01*
X70047054Y50259600D01*
X70049150Y50267236D01*
X70051432Y50274819D01*
X70053897Y50282345D01*
X70056545Y50289808D01*
X70059374Y50297204D01*
X70062382Y50304529D01*
X70065568Y50311779D01*
X70068929Y50318949D01*
X70072464Y50326035D01*
X70076170Y50333033D01*
X70080046Y50339939D01*
X70084088Y50346748D01*
X70088296Y50353457D01*
X70092665Y50360061D01*
X70097194Y50366557D01*
X70101880Y50372941D01*
X70106719Y50379209D01*
X70111710Y50385357D01*
X70116850Y50391381D01*
X70122134Y50397279D01*
X70127561Y50403046D01*
X70133126Y50408680D01*
X70138827Y50414176D01*
X70144660Y50419532D01*
X70150621Y50424744D01*
X70156708Y50429810D01*
X70162916Y50434725D01*
X70169243Y50439489D01*
X70175683Y50444096D01*
X70182234Y50448546D01*
X70188891Y50452834D01*
X70195650Y50456960D01*
X70202508Y50460919D01*
X70209460Y50464710D01*
X70216503Y50468331D01*
X70223632Y50471779D01*
X70230842Y50475053D01*
X70238130Y50478150D01*
X70245492Y50481069D01*
X70252922Y50483807D01*
X70260416Y50486364D01*
X70267971Y50488738D01*
X70275582Y50490927D01*
X70283243Y50492930D01*
X70290951Y50494746D01*
X70298701Y50496373D01*
X70306488Y50497811D01*
X70314308Y50499060D01*
X70322156Y50500117D01*
X70330027Y50500983D01*
X70337917Y50501658D01*
X70345821Y50502139D01*
X70353735Y50502429D01*
X70361653Y50502525D01*
X71207100Y50502525D01*
X71207100Y51393028D02*
X71207015Y51400100D01*
X71206758Y51407167D01*
X71206331Y51414226D01*
X71205734Y51421273D01*
X71204966Y51428304D01*
X71204029Y51435314D01*
X71202923Y51442299D01*
X71201648Y51449255D01*
X71200205Y51456179D01*
X71198596Y51463065D01*
X71196821Y51469911D01*
X71194880Y51476712D01*
X71192776Y51483464D01*
X71190510Y51490163D01*
X71188082Y51496805D01*
X71185495Y51503387D01*
X71182749Y51509904D01*
X71179846Y51516354D01*
X71176789Y51522731D01*
X71173578Y51529032D01*
X71170216Y51535254D01*
X71166705Y51541393D01*
X71163046Y51547445D01*
X71159242Y51553407D01*
X71155295Y51559276D01*
X71151208Y51565047D01*
X71146982Y51570718D01*
X71142620Y51576285D01*
X71138126Y51581745D01*
X71133500Y51587095D01*
X71128747Y51592331D01*
X71123868Y51597452D01*
X71118868Y51602452D01*
X71113747Y51607331D01*
X71108511Y51612084D01*
X71103161Y51616710D01*
X71097701Y51621204D01*
X71092134Y51625566D01*
X71086463Y51629792D01*
X71080692Y51633879D01*
X71074823Y51637826D01*
X71068861Y51641630D01*
X71062809Y51645289D01*
X71056670Y51648800D01*
X71050448Y51652162D01*
X71044147Y51655373D01*
X71037770Y51658430D01*
X71031320Y51661333D01*
X71024803Y51664079D01*
X71018221Y51666666D01*
X71011579Y51669094D01*
X71004880Y51671360D01*
X70998128Y51673464D01*
X70991327Y51675405D01*
X70984481Y51677180D01*
X70977595Y51678789D01*
X70970671Y51680232D01*
X70963715Y51681507D01*
X70956730Y51682613D01*
X70949720Y51683550D01*
X70942689Y51684318D01*
X70935642Y51684915D01*
X70928583Y51685342D01*
X70921516Y51685599D01*
X70914444Y51685684D01*
X71207100Y51393028D02*
X71206990Y51383936D01*
X71206660Y51374849D01*
X71206111Y51365773D01*
X71205342Y51356713D01*
X71204355Y51347674D01*
X71203149Y51338662D01*
X71201725Y51329682D01*
X71200085Y51320738D01*
X71198229Y51311837D01*
X71196158Y51302983D01*
X71193874Y51294182D01*
X71191378Y51285439D01*
X71188670Y51276759D01*
X71185754Y51268146D01*
X71182631Y51259607D01*
X71179301Y51251146D01*
X71175769Y51242768D01*
X71172034Y51234477D01*
X71168100Y51226280D01*
X71163970Y51218180D01*
X71159644Y51210182D01*
X71155126Y51202291D01*
X71150419Y51194511D01*
X71145525Y51186848D01*
X71140447Y51179306D01*
X71135189Y51171888D01*
X71129752Y51164600D01*
X71124141Y51157445D01*
X71118358Y51150428D01*
X71112408Y51143553D01*
X71106292Y51136824D01*
X71100016Y51130244D01*
X71093583Y51123819D01*
X71086996Y51117551D01*
X71080260Y51111444D01*
X71073378Y51105501D01*
X71066354Y51099727D01*
X71059192Y51094124D01*
X71051898Y51088697D01*
X71044474Y51083447D01*
X71036925Y51078378D01*
X71029256Y51073493D01*
X71021471Y51068795D01*
X71013574Y51064287D01*
X71005571Y51059971D01*
X70997466Y51055850D01*
X70989264Y51051926D01*
X70980969Y51048202D01*
X70972587Y51044679D01*
X70964121Y51041360D01*
X70955578Y51038246D01*
X70946963Y51035340D01*
X70686825Y51588131D02*
X70692212Y51593651D01*
X70697734Y51599037D01*
X70703385Y51604286D01*
X70709164Y51609395D01*
X70715067Y51614360D01*
X70721089Y51619179D01*
X70727228Y51623848D01*
X70733480Y51628366D01*
X70739841Y51632729D01*
X70746307Y51636934D01*
X70752874Y51640980D01*
X70759538Y51644863D01*
X70766296Y51648582D01*
X70773142Y51652133D01*
X70780074Y51655516D01*
X70787087Y51658727D01*
X70794177Y51661766D01*
X70801339Y51664629D01*
X70808569Y51667316D01*
X70815862Y51669825D01*
X70823216Y51672154D01*
X70830624Y51674302D01*
X70838082Y51676267D01*
X70845587Y51678049D01*
X70853133Y51679646D01*
X70860716Y51681058D01*
X70868331Y51682283D01*
X70875974Y51683321D01*
X70883640Y51684171D01*
X70891325Y51684833D01*
X70899023Y51685306D01*
X70906731Y51685589D01*
X70914444Y51685684D01*
X70686825Y51588131D02*
X70036481Y51035341D01*
X70036481Y51685684D01*
X70621791Y52180335D02*
X70644819Y52180610D01*
X70667834Y52181434D01*
X70690822Y52182808D01*
X70713772Y52184730D01*
X70736669Y52187199D01*
X70759500Y52190215D01*
X70782253Y52193774D01*
X70804914Y52197875D01*
X70827471Y52202517D01*
X70849911Y52207695D01*
X70872221Y52213408D01*
X70894388Y52219651D01*
X70916400Y52226422D01*
X70938244Y52233717D01*
X70959907Y52241530D01*
X70981378Y52249859D01*
X71002644Y52258698D01*
X71023693Y52268042D01*
X71044513Y52277885D01*
X71044513Y52277883D02*
X71050026Y52279848D01*
X71055490Y52281947D01*
X71060901Y52284178D01*
X71066255Y52286540D01*
X71071551Y52289032D01*
X71076785Y52291652D01*
X71081954Y52294398D01*
X71087054Y52297269D01*
X71092083Y52300264D01*
X71097037Y52303379D01*
X71101915Y52306615D01*
X71106712Y52309968D01*
X71111426Y52313436D01*
X71116054Y52317019D01*
X71120594Y52320712D01*
X71125043Y52324516D01*
X71129398Y52328426D01*
X71133657Y52332441D01*
X71137816Y52336558D01*
X71141875Y52340775D01*
X71145829Y52345090D01*
X71149677Y52349500D01*
X71153418Y52354002D01*
X71157047Y52358593D01*
X71160564Y52363272D01*
X71163965Y52368034D01*
X71167251Y52372878D01*
X71170417Y52377801D01*
X71173462Y52382799D01*
X71176385Y52387869D01*
X71179184Y52393010D01*
X71181857Y52398216D01*
X71184403Y52403487D01*
X71186820Y52408817D01*
X71189106Y52414205D01*
X71191261Y52419647D01*
X71193283Y52425139D01*
X71195170Y52430679D01*
X71196922Y52436264D01*
X71198538Y52441889D01*
X71200017Y52447552D01*
X71201357Y52453249D01*
X71202559Y52458977D01*
X71203621Y52464733D01*
X71204542Y52470513D01*
X71205323Y52476313D01*
X71205962Y52482131D01*
X71206460Y52487963D01*
X71206815Y52493805D01*
X71207029Y52499654D01*
X71207100Y52505506D01*
X71207029Y52511358D01*
X71206815Y52517207D01*
X71206460Y52523049D01*
X71205962Y52528881D01*
X71205323Y52534698D01*
X71204542Y52540499D01*
X71203620Y52546279D01*
X71202559Y52552034D01*
X71201357Y52557762D01*
X71200017Y52563460D01*
X71198538Y52569123D01*
X71196922Y52574748D01*
X71195170Y52580332D01*
X71193283Y52585872D01*
X71191261Y52591365D01*
X71189106Y52596806D01*
X71186820Y52602194D01*
X71184403Y52607525D01*
X71181857Y52612795D01*
X71179184Y52618001D01*
X71176385Y52623141D01*
X71173462Y52628212D01*
X71170416Y52633210D01*
X71167250Y52638132D01*
X71163965Y52642976D01*
X71160563Y52647739D01*
X71157047Y52652417D01*
X71153417Y52657009D01*
X71149677Y52661510D01*
X71145829Y52665920D01*
X71141874Y52670235D01*
X71137816Y52674452D01*
X71133656Y52678569D01*
X71129398Y52682584D01*
X71125043Y52686494D01*
X71120594Y52690297D01*
X71116054Y52693991D01*
X71111425Y52697573D01*
X71106711Y52701042D01*
X71101914Y52704395D01*
X71097037Y52707630D01*
X71092082Y52710745D01*
X71087053Y52713740D01*
X71081953Y52716611D01*
X71076785Y52719357D01*
X71071551Y52721976D01*
X71066255Y52724468D01*
X71060900Y52726830D01*
X71055489Y52729061D01*
X71050026Y52731160D01*
X71044513Y52733125D01*
X71044513Y52733124D02*
X71023693Y52742968D01*
X71002644Y52752313D01*
X70981378Y52761152D01*
X70959908Y52769481D01*
X70938244Y52777295D01*
X70916400Y52784589D01*
X70894388Y52791360D01*
X70872221Y52797604D01*
X70849912Y52803317D01*
X70827472Y52808496D01*
X70804915Y52813137D01*
X70782253Y52817239D01*
X70759500Y52820798D01*
X70736669Y52823813D01*
X70713772Y52826283D01*
X70690823Y52828205D01*
X70667834Y52829579D01*
X70644819Y52830403D01*
X70621791Y52830678D01*
X70621791Y52180334D02*
X70598763Y52180609D01*
X70575748Y52181433D01*
X70552759Y52182807D01*
X70529810Y52184729D01*
X70506913Y52187198D01*
X70484081Y52190214D01*
X70461328Y52193773D01*
X70438666Y52197874D01*
X70416109Y52202516D01*
X70393669Y52207694D01*
X70371359Y52213407D01*
X70349192Y52219650D01*
X70327180Y52226421D01*
X70305336Y52233715D01*
X70283672Y52241529D01*
X70262201Y52249858D01*
X70240935Y52258696D01*
X70219886Y52268040D01*
X70199066Y52277884D01*
X70193553Y52279849D01*
X70188090Y52281948D01*
X70182679Y52284179D01*
X70177324Y52286542D01*
X70172028Y52289033D01*
X70166794Y52291653D01*
X70161626Y52294399D01*
X70156526Y52297270D01*
X70151497Y52300265D01*
X70146543Y52303381D01*
X70141666Y52306616D01*
X70136868Y52309969D01*
X70132154Y52313438D01*
X70127526Y52317020D01*
X70122986Y52320714D01*
X70118537Y52324517D01*
X70114183Y52328427D01*
X70109924Y52332442D01*
X70105764Y52336559D01*
X70101706Y52340777D01*
X70097752Y52345091D01*
X70093903Y52349501D01*
X70090163Y52354003D01*
X70086534Y52358595D01*
X70083017Y52363273D01*
X70079616Y52368036D01*
X70076331Y52372880D01*
X70073165Y52377802D01*
X70070119Y52382800D01*
X70067196Y52387871D01*
X70064397Y52393011D01*
X70061724Y52398217D01*
X70059178Y52403487D01*
X70056762Y52408818D01*
X70054475Y52414206D01*
X70052321Y52419647D01*
X70050299Y52425140D01*
X70048412Y52430680D01*
X70046659Y52436264D01*
X70045044Y52441890D01*
X70043565Y52447552D01*
X70042225Y52453250D01*
X70041023Y52458978D01*
X70039961Y52464733D01*
X70039040Y52470513D01*
X70038259Y52476314D01*
X70037620Y52482131D01*
X70037122Y52487963D01*
X70036767Y52493805D01*
X70036553Y52499654D01*
X70036482Y52505506D01*
X70199066Y52733125D02*
X70219886Y52742969D01*
X70240935Y52752313D01*
X70262201Y52761152D01*
X70283672Y52769481D01*
X70305335Y52777295D01*
X70327179Y52784590D01*
X70349191Y52791361D01*
X70371359Y52797604D01*
X70393669Y52803317D01*
X70416109Y52808496D01*
X70438666Y52813137D01*
X70461328Y52817239D01*
X70484081Y52820798D01*
X70506912Y52823813D01*
X70529809Y52826283D01*
X70552759Y52828205D01*
X70575748Y52829579D01*
X70598763Y52830403D01*
X70621791Y52830678D01*
X70199066Y52733124D02*
X70193553Y52731159D01*
X70188089Y52729060D01*
X70182679Y52726829D01*
X70177324Y52724467D01*
X70172028Y52721975D01*
X70166794Y52719356D01*
X70161626Y52716609D01*
X70156526Y52713738D01*
X70151497Y52710744D01*
X70146542Y52707629D01*
X70141665Y52704393D01*
X70136868Y52701040D01*
X70132154Y52697572D01*
X70127525Y52693990D01*
X70122986Y52690296D01*
X70118537Y52686493D01*
X70114182Y52682583D01*
X70109923Y52678568D01*
X70105764Y52674451D01*
X70101706Y52670233D01*
X70097751Y52665919D01*
X70093903Y52661509D01*
X70090163Y52657007D01*
X70086533Y52652416D01*
X70083017Y52647737D01*
X70079615Y52642975D01*
X70076330Y52638131D01*
X70073164Y52633209D01*
X70070118Y52628211D01*
X70067195Y52623140D01*
X70064396Y52618000D01*
X70061723Y52612794D01*
X70059178Y52607524D01*
X70056761Y52602193D01*
X70054474Y52596805D01*
X70052320Y52591364D01*
X70050298Y52585871D01*
X70048411Y52580331D01*
X70046658Y52574747D01*
X70045043Y52569122D01*
X70043564Y52563459D01*
X70042224Y52557762D01*
X70041022Y52552034D01*
X70039960Y52546278D01*
X70039039Y52540499D01*
X70038258Y52534698D01*
X70037619Y52528880D01*
X70037121Y52523049D01*
X70036766Y52517207D01*
X70036552Y52511358D01*
X70036481Y52505506D01*
X70296619Y52245369D02*
X70946963Y52765644D01*
D13*
X55460000Y47790900D02*
X53760000Y47790900D01*
X53760000Y46189100D02*
X55460000Y46189100D01*
D15*
X56073869Y48476700D02*
X56073869Y49645100D01*
X55749316Y49645100D01*
X55741413Y49645004D01*
X55733514Y49644715D01*
X55725625Y49644234D01*
X55717750Y49643561D01*
X55709893Y49642697D01*
X55702060Y49641641D01*
X55694255Y49640395D01*
X55686483Y49638960D01*
X55678748Y49637335D01*
X55671054Y49635523D01*
X55663408Y49633524D01*
X55655812Y49631339D01*
X55648271Y49628970D01*
X55640791Y49626418D01*
X55633375Y49623685D01*
X55626027Y49620771D01*
X55618753Y49617680D01*
X55611556Y49614413D01*
X55604441Y49610971D01*
X55597412Y49607357D01*
X55590473Y49603573D01*
X55583628Y49599621D01*
X55576881Y49595504D01*
X55570236Y49591223D01*
X55563698Y49586782D01*
X55557270Y49582183D01*
X55550956Y49577429D01*
X55544759Y49572522D01*
X55538684Y49567467D01*
X55532734Y49562264D01*
X55526912Y49556919D01*
X55521222Y49551433D01*
X55515667Y49545810D01*
X55510251Y49540054D01*
X55504976Y49534167D01*
X55499847Y49528154D01*
X55494865Y49522017D01*
X55490035Y49515761D01*
X55485358Y49509390D01*
X55480838Y49502906D01*
X55476477Y49496314D01*
X55472277Y49489618D01*
X55468242Y49482822D01*
X55464374Y49475929D01*
X55460675Y49468945D01*
X55457147Y49461872D01*
X55453792Y49454715D01*
X55450612Y49447479D01*
X55447610Y49440168D01*
X55444786Y49432786D01*
X55442143Y49425337D01*
X55439683Y49417826D01*
X55437405Y49410257D01*
X55435313Y49402635D01*
X55433407Y49394964D01*
X55431689Y49387250D01*
X55430159Y49379495D01*
X55428818Y49371706D01*
X55427667Y49363886D01*
X55426707Y49356041D01*
X55425938Y49348175D01*
X55425361Y49340292D01*
X55424977Y49332397D01*
X55424784Y49324496D01*
X55424784Y49316592D01*
X55424977Y49308691D01*
X55425361Y49300796D01*
X55425938Y49292913D01*
X55426707Y49285047D01*
X55427667Y49277202D01*
X55428818Y49269382D01*
X55430159Y49261593D01*
X55431689Y49253838D01*
X55433407Y49246124D01*
X55435313Y49238453D01*
X55437405Y49230831D01*
X55439683Y49223262D01*
X55442143Y49215751D01*
X55444786Y49208302D01*
X55447610Y49200920D01*
X55450612Y49193609D01*
X55453792Y49186373D01*
X55457147Y49179216D01*
X55460675Y49172143D01*
X55464374Y49165159D01*
X55468242Y49158266D01*
X55472277Y49151470D01*
X55476477Y49144774D01*
X55480838Y49138182D01*
X55485358Y49131698D01*
X55490035Y49125327D01*
X55494865Y49119071D01*
X55499847Y49112934D01*
X55504976Y49106921D01*
X55510251Y49101034D01*
X55515667Y49095278D01*
X55521222Y49089655D01*
X55526912Y49084169D01*
X55532734Y49078824D01*
X55538684Y49073621D01*
X55544759Y49068566D01*
X55550956Y49063659D01*
X55557270Y49058905D01*
X55563698Y49054306D01*
X55570236Y49049865D01*
X55576881Y49045584D01*
X55583628Y49041467D01*
X55590473Y49037515D01*
X55597412Y49033731D01*
X55604441Y49030117D01*
X55611556Y49026675D01*
X55618753Y49023408D01*
X55626027Y49020317D01*
X55633375Y49017403D01*
X55640791Y49014670D01*
X55648271Y49012118D01*
X55655812Y49009749D01*
X55663408Y49007564D01*
X55671054Y49005565D01*
X55678748Y49003753D01*
X55686483Y49002128D01*
X55694255Y49000693D01*
X55702060Y48999447D01*
X55709893Y48998391D01*
X55717750Y48997527D01*
X55725625Y48996854D01*
X55733514Y48996373D01*
X55741413Y48996084D01*
X55749316Y48995988D01*
X56073869Y48995988D01*
X55684403Y48995988D02*
X55424759Y48476700D01*
X54938234Y48736344D02*
X54678591Y49645100D01*
X54938234Y48736344D02*
X54289125Y48736344D01*
X54483859Y48995988D02*
X54483859Y48476700D01*
X53438228Y49645100D02*
X53431170Y49645015D01*
X53424116Y49644759D01*
X53417070Y49644333D01*
X53410036Y49643736D01*
X53403019Y49642970D01*
X53396023Y49642035D01*
X53389051Y49640931D01*
X53382108Y49639658D01*
X53375197Y49638218D01*
X53368324Y49636612D01*
X53361491Y49634840D01*
X53354703Y49632904D01*
X53347964Y49630804D01*
X53341278Y49628541D01*
X53334648Y49626118D01*
X53328079Y49623536D01*
X53321574Y49620795D01*
X53315137Y49617898D01*
X53308772Y49614846D01*
X53302482Y49611642D01*
X53296272Y49608286D01*
X53290145Y49604781D01*
X53284104Y49601130D01*
X53278154Y49597333D01*
X53272296Y49593394D01*
X53266536Y49589314D01*
X53260876Y49585096D01*
X53255319Y49580743D01*
X53249870Y49576257D01*
X53244530Y49571640D01*
X53239303Y49566896D01*
X53234193Y49562026D01*
X53229202Y49557035D01*
X53224332Y49551925D01*
X53219588Y49546698D01*
X53214971Y49541358D01*
X53210485Y49535909D01*
X53206132Y49530352D01*
X53201914Y49524692D01*
X53197834Y49518932D01*
X53193895Y49513074D01*
X53190098Y49507124D01*
X53186447Y49501083D01*
X53182942Y49494956D01*
X53179586Y49488746D01*
X53176382Y49482456D01*
X53173330Y49476091D01*
X53170433Y49469654D01*
X53167692Y49463149D01*
X53165110Y49456580D01*
X53162687Y49449950D01*
X53160424Y49443264D01*
X53158324Y49436525D01*
X53156388Y49429737D01*
X53154616Y49422904D01*
X53153010Y49416031D01*
X53151570Y49409120D01*
X53150297Y49402177D01*
X53149193Y49395205D01*
X53148258Y49388209D01*
X53147492Y49381192D01*
X53146895Y49374158D01*
X53146469Y49367112D01*
X53146213Y49360058D01*
X53146128Y49353000D01*
X53438228Y49645101D02*
X53447303Y49644991D01*
X53456372Y49644662D01*
X53465431Y49644114D01*
X53474474Y49643346D01*
X53483496Y49642361D01*
X53492491Y49641157D01*
X53501455Y49639736D01*
X53510381Y49638099D01*
X53519266Y49636247D01*
X53528102Y49634180D01*
X53536887Y49631900D01*
X53545614Y49629408D01*
X53554277Y49626706D01*
X53562873Y49623795D01*
X53571397Y49620678D01*
X53579842Y49617355D01*
X53588204Y49613829D01*
X53596479Y49610101D01*
X53604661Y49606175D01*
X53612746Y49602052D01*
X53620728Y49597734D01*
X53628604Y49593225D01*
X53636369Y49588527D01*
X53644018Y49583642D01*
X53651546Y49578574D01*
X53658950Y49573325D01*
X53666224Y49567899D01*
X53673365Y49562298D01*
X53680369Y49556526D01*
X53687231Y49550587D01*
X53693947Y49544483D01*
X53700514Y49538219D01*
X53706928Y49531798D01*
X53713184Y49525223D01*
X53719279Y49518499D01*
X53725210Y49511630D01*
X53730973Y49504620D01*
X53736565Y49497472D01*
X53741983Y49490191D01*
X53747223Y49482781D01*
X53752282Y49475246D01*
X53757157Y49467591D01*
X53761846Y49459821D01*
X53766346Y49451940D01*
X53770654Y49443952D01*
X53774767Y49435862D01*
X53778683Y49427675D01*
X53782401Y49419396D01*
X53785917Y49411029D01*
X53789229Y49402580D01*
X53792337Y49394053D01*
X53795237Y49385453D01*
X53243493Y49125809D02*
X53237984Y49131186D01*
X53232608Y49136697D01*
X53227369Y49142338D01*
X53222271Y49148106D01*
X53217315Y49153998D01*
X53212505Y49160009D01*
X53207845Y49166137D01*
X53203336Y49172377D01*
X53198981Y49178726D01*
X53194784Y49185179D01*
X53190746Y49191734D01*
X53186870Y49198386D01*
X53183159Y49205131D01*
X53179614Y49211965D01*
X53176238Y49218884D01*
X53173033Y49225883D01*
X53170000Y49232959D01*
X53167142Y49240108D01*
X53164460Y49247324D01*
X53161956Y49254604D01*
X53159632Y49261944D01*
X53157488Y49269338D01*
X53155526Y49276782D01*
X53153748Y49284273D01*
X53152154Y49291804D01*
X53150745Y49299373D01*
X53149522Y49306974D01*
X53148486Y49314602D01*
X53147638Y49322254D01*
X53146978Y49329924D01*
X53146506Y49337609D01*
X53146222Y49345302D01*
X53146128Y49353000D01*
X53243494Y49125809D02*
X53795238Y48476700D01*
X53146128Y48476700D01*
D13*
X58840000Y47790900D02*
X60540000Y47790900D01*
X60540000Y46189100D02*
X58840000Y46189100D01*
D15*
X61153869Y48476700D02*
X61153869Y49645100D01*
X60829316Y49645100D01*
X60821413Y49645004D01*
X60813514Y49644715D01*
X60805625Y49644234D01*
X60797750Y49643561D01*
X60789893Y49642697D01*
X60782060Y49641641D01*
X60774255Y49640395D01*
X60766483Y49638960D01*
X60758748Y49637335D01*
X60751054Y49635523D01*
X60743408Y49633524D01*
X60735812Y49631339D01*
X60728271Y49628970D01*
X60720791Y49626418D01*
X60713375Y49623685D01*
X60706027Y49620771D01*
X60698753Y49617680D01*
X60691556Y49614413D01*
X60684441Y49610971D01*
X60677412Y49607357D01*
X60670473Y49603573D01*
X60663628Y49599621D01*
X60656881Y49595504D01*
X60650236Y49591223D01*
X60643698Y49586782D01*
X60637270Y49582183D01*
X60630956Y49577429D01*
X60624759Y49572522D01*
X60618684Y49567467D01*
X60612734Y49562264D01*
X60606912Y49556919D01*
X60601222Y49551433D01*
X60595667Y49545810D01*
X60590251Y49540054D01*
X60584976Y49534167D01*
X60579847Y49528154D01*
X60574865Y49522017D01*
X60570035Y49515761D01*
X60565358Y49509390D01*
X60560838Y49502906D01*
X60556477Y49496314D01*
X60552277Y49489618D01*
X60548242Y49482822D01*
X60544374Y49475929D01*
X60540675Y49468945D01*
X60537147Y49461872D01*
X60533792Y49454715D01*
X60530612Y49447479D01*
X60527610Y49440168D01*
X60524786Y49432786D01*
X60522143Y49425337D01*
X60519683Y49417826D01*
X60517405Y49410257D01*
X60515313Y49402635D01*
X60513407Y49394964D01*
X60511689Y49387250D01*
X60510159Y49379495D01*
X60508818Y49371706D01*
X60507667Y49363886D01*
X60506707Y49356041D01*
X60505938Y49348175D01*
X60505361Y49340292D01*
X60504977Y49332397D01*
X60504784Y49324496D01*
X60504784Y49316592D01*
X60504977Y49308691D01*
X60505361Y49300796D01*
X60505938Y49292913D01*
X60506707Y49285047D01*
X60507667Y49277202D01*
X60508818Y49269382D01*
X60510159Y49261593D01*
X60511689Y49253838D01*
X60513407Y49246124D01*
X60515313Y49238453D01*
X60517405Y49230831D01*
X60519683Y49223262D01*
X60522143Y49215751D01*
X60524786Y49208302D01*
X60527610Y49200920D01*
X60530612Y49193609D01*
X60533792Y49186373D01*
X60537147Y49179216D01*
X60540675Y49172143D01*
X60544374Y49165159D01*
X60548242Y49158266D01*
X60552277Y49151470D01*
X60556477Y49144774D01*
X60560838Y49138182D01*
X60565358Y49131698D01*
X60570035Y49125327D01*
X60574865Y49119071D01*
X60579847Y49112934D01*
X60584976Y49106921D01*
X60590251Y49101034D01*
X60595667Y49095278D01*
X60601222Y49089655D01*
X60606912Y49084169D01*
X60612734Y49078824D01*
X60618684Y49073621D01*
X60624759Y49068566D01*
X60630956Y49063659D01*
X60637270Y49058905D01*
X60643698Y49054306D01*
X60650236Y49049865D01*
X60656881Y49045584D01*
X60663628Y49041467D01*
X60670473Y49037515D01*
X60677412Y49033731D01*
X60684441Y49030117D01*
X60691556Y49026675D01*
X60698753Y49023408D01*
X60706027Y49020317D01*
X60713375Y49017403D01*
X60720791Y49014670D01*
X60728271Y49012118D01*
X60735812Y49009749D01*
X60743408Y49007564D01*
X60751054Y49005565D01*
X60758748Y49003753D01*
X60766483Y49002128D01*
X60774255Y49000693D01*
X60782060Y48999447D01*
X60789893Y48998391D01*
X60797750Y48997527D01*
X60805625Y48996854D01*
X60813514Y48996373D01*
X60821413Y48996084D01*
X60829316Y48995988D01*
X61153869Y48995988D01*
X60764403Y48995988D02*
X60504759Y48476700D01*
X60018234Y48736344D02*
X59758591Y49645100D01*
X60018234Y48736344D02*
X59369125Y48736344D01*
X59563859Y48995988D02*
X59563859Y48476700D01*
X58875238Y49060900D02*
X58874964Y49083884D01*
X58874141Y49106856D01*
X58872770Y49129801D01*
X58870851Y49152707D01*
X58868387Y49175560D01*
X58865377Y49198348D01*
X58861824Y49221058D01*
X58857731Y49243677D01*
X58853098Y49266191D01*
X58847930Y49288588D01*
X58842228Y49310856D01*
X58835996Y49332981D01*
X58829238Y49354951D01*
X58821957Y49376754D01*
X58814158Y49398376D01*
X58805845Y49419807D01*
X58797023Y49441032D01*
X58787697Y49462041D01*
X58777872Y49482822D01*
X58777873Y49482822D02*
X58775912Y49488325D01*
X58773817Y49493778D01*
X58771590Y49499179D01*
X58769232Y49504523D01*
X58766745Y49509809D01*
X58764131Y49515033D01*
X58761390Y49520192D01*
X58758524Y49525282D01*
X58755535Y49530301D01*
X58752426Y49535247D01*
X58749196Y49540115D01*
X58745850Y49544903D01*
X58742388Y49549608D01*
X58738812Y49554227D01*
X58735126Y49558759D01*
X58731330Y49563199D01*
X58727427Y49567546D01*
X58723420Y49571796D01*
X58719310Y49575948D01*
X58715101Y49579999D01*
X58710794Y49583946D01*
X58706393Y49587787D01*
X58701900Y49591520D01*
X58697317Y49595142D01*
X58692647Y49598652D01*
X58687894Y49602047D01*
X58683059Y49605326D01*
X58678146Y49608486D01*
X58673157Y49611526D01*
X58668097Y49614444D01*
X58662966Y49617237D01*
X58657769Y49619905D01*
X58652509Y49622446D01*
X58647189Y49624858D01*
X58641811Y49627141D01*
X58636380Y49629291D01*
X58630898Y49631309D01*
X58625368Y49633193D01*
X58619795Y49634942D01*
X58614180Y49636555D01*
X58608528Y49638030D01*
X58602841Y49639368D01*
X58597124Y49640567D01*
X58591379Y49641627D01*
X58585611Y49642547D01*
X58579821Y49643326D01*
X58574014Y49643964D01*
X58568194Y49644461D01*
X58562363Y49644816D01*
X58556525Y49645029D01*
X58550684Y49645100D01*
X58544843Y49645029D01*
X58539005Y49644816D01*
X58533174Y49644461D01*
X58527353Y49643964D01*
X58521547Y49643326D01*
X58515757Y49642547D01*
X58509988Y49641627D01*
X58504243Y49640567D01*
X58498526Y49639368D01*
X58492840Y49638030D01*
X58487187Y49636555D01*
X58481573Y49634942D01*
X58475999Y49633193D01*
X58470469Y49631309D01*
X58464987Y49629291D01*
X58459556Y49627141D01*
X58454178Y49624859D01*
X58448858Y49622446D01*
X58443598Y49619906D01*
X58438401Y49617238D01*
X58433270Y49614444D01*
X58428209Y49611527D01*
X58423221Y49608487D01*
X58418308Y49605327D01*
X58413473Y49602048D01*
X58408719Y49598652D01*
X58404050Y49595142D01*
X58399467Y49591520D01*
X58394973Y49587787D01*
X58390572Y49583946D01*
X58386265Y49579999D01*
X58382056Y49575948D01*
X58377946Y49571797D01*
X58373939Y49567546D01*
X58370036Y49563200D01*
X58366240Y49558759D01*
X58362553Y49554228D01*
X58358978Y49549608D01*
X58355515Y49544903D01*
X58352169Y49540115D01*
X58348940Y49535247D01*
X58345830Y49530302D01*
X58342841Y49525283D01*
X58339975Y49520192D01*
X58337234Y49515034D01*
X58334619Y49509810D01*
X58332132Y49504524D01*
X58329774Y49499179D01*
X58327547Y49493779D01*
X58325452Y49488325D01*
X58323490Y49482823D01*
X58323494Y49482822D02*
X58313669Y49462041D01*
X58304343Y49441032D01*
X58295521Y49419807D01*
X58287208Y49398376D01*
X58279409Y49376754D01*
X58272128Y49354951D01*
X58265370Y49332981D01*
X58259138Y49310856D01*
X58253436Y49288588D01*
X58248268Y49266191D01*
X58243635Y49243677D01*
X58239542Y49221058D01*
X58235989Y49198348D01*
X58232979Y49175560D01*
X58230515Y49152707D01*
X58228596Y49129801D01*
X58227225Y49106856D01*
X58226402Y49083884D01*
X58226128Y49060900D01*
X58875238Y49060900D02*
X58874964Y49037915D01*
X58874141Y49014944D01*
X58872770Y48991999D01*
X58870851Y48969093D01*
X58868387Y48946239D01*
X58865377Y48923451D01*
X58861825Y48900741D01*
X58857731Y48878122D01*
X58853098Y48855607D01*
X58847930Y48833210D01*
X58842228Y48810942D01*
X58835996Y48788817D01*
X58829238Y48766846D01*
X58821958Y48745044D01*
X58814159Y48723421D01*
X58805846Y48701990D01*
X58797024Y48680765D01*
X58787698Y48659755D01*
X58777873Y48638975D01*
X58777872Y48638975D02*
X58775911Y48633472D01*
X58773816Y48628019D01*
X58771589Y48622619D01*
X58769231Y48617274D01*
X58766744Y48611988D01*
X58764129Y48606765D01*
X58761388Y48601606D01*
X58758523Y48596516D01*
X58755534Y48591497D01*
X58752424Y48586551D01*
X58749195Y48581684D01*
X58745849Y48576896D01*
X58742386Y48572190D01*
X58738811Y48567571D01*
X58735124Y48563040D01*
X58731328Y48558599D01*
X58727426Y48554253D01*
X58723418Y48550002D01*
X58719309Y48545851D01*
X58715100Y48541800D01*
X58710793Y48537853D01*
X58706392Y48534012D01*
X58701898Y48530279D01*
X58697316Y48526657D01*
X58692646Y48523147D01*
X58687893Y48519752D01*
X58683058Y48516473D01*
X58678145Y48513313D01*
X58673156Y48510273D01*
X58668095Y48507356D01*
X58662965Y48504562D01*
X58657768Y48501894D01*
X58652508Y48499353D01*
X58647188Y48496941D01*
X58641810Y48494659D01*
X58636379Y48492509D01*
X58630897Y48490491D01*
X58625368Y48488607D01*
X58619794Y48486858D01*
X58614179Y48485245D01*
X58608527Y48483770D01*
X58602841Y48482432D01*
X58597124Y48481233D01*
X58591379Y48480173D01*
X58585610Y48479253D01*
X58579821Y48478474D01*
X58574014Y48477836D01*
X58568194Y48477339D01*
X58562363Y48476984D01*
X58556525Y48476771D01*
X58550684Y48476700D01*
X58323494Y48638975D02*
X58313669Y48659756D01*
X58304342Y48680765D01*
X58295520Y48701991D01*
X58287207Y48723421D01*
X58279408Y48745044D01*
X58272128Y48766846D01*
X58265370Y48788817D01*
X58259138Y48810942D01*
X58253436Y48833210D01*
X58248268Y48855607D01*
X58243635Y48878122D01*
X58239542Y48900741D01*
X58235989Y48923451D01*
X58232979Y48946239D01*
X58230515Y48969093D01*
X58228596Y48991999D01*
X58227225Y49014944D01*
X58226402Y49037915D01*
X58226128Y49060900D01*
X58323491Y48638974D02*
X58325453Y48633472D01*
X58327548Y48628019D01*
X58329775Y48622618D01*
X58332133Y48617274D01*
X58334620Y48611988D01*
X58337235Y48606764D01*
X58339976Y48601606D01*
X58342842Y48596515D01*
X58345831Y48591496D01*
X58348941Y48586551D01*
X58352170Y48581683D01*
X58355517Y48576895D01*
X58358979Y48572190D01*
X58362555Y48567570D01*
X58366241Y48563039D01*
X58370037Y48558599D01*
X58373940Y48554252D01*
X58377948Y48550002D01*
X58382057Y48545850D01*
X58386267Y48541800D01*
X58390573Y48537853D01*
X58394974Y48534012D01*
X58399468Y48530279D01*
X58404051Y48526657D01*
X58408720Y48523147D01*
X58413474Y48519751D01*
X58418309Y48516473D01*
X58423222Y48513313D01*
X58428210Y48510273D01*
X58433271Y48507355D01*
X58438402Y48504562D01*
X58443599Y48501894D01*
X58448859Y48499353D01*
X58454179Y48496941D01*
X58459557Y48494659D01*
X58464988Y48492508D01*
X58470470Y48490491D01*
X58476000Y48488607D01*
X58481573Y48486858D01*
X58487188Y48485245D01*
X58492840Y48483769D01*
X58498527Y48482432D01*
X58504244Y48481233D01*
X58509989Y48480173D01*
X58515757Y48479253D01*
X58521547Y48478474D01*
X58527354Y48477836D01*
X58533174Y48477339D01*
X58539005Y48476984D01*
X58544843Y48476771D01*
X58550684Y48476700D01*
X58810328Y48736344D02*
X58291038Y49385453D01*
D13*
X63920000Y47790900D02*
X65620000Y47790900D01*
X65620000Y46189100D02*
X63920000Y46189100D01*
D15*
X66233869Y48476700D02*
X66233869Y49645100D01*
X65909316Y49645100D01*
X65901413Y49645004D01*
X65893514Y49644715D01*
X65885625Y49644234D01*
X65877750Y49643561D01*
X65869893Y49642697D01*
X65862060Y49641641D01*
X65854255Y49640395D01*
X65846483Y49638960D01*
X65838748Y49637335D01*
X65831054Y49635523D01*
X65823408Y49633524D01*
X65815812Y49631339D01*
X65808271Y49628970D01*
X65800791Y49626418D01*
X65793375Y49623685D01*
X65786027Y49620771D01*
X65778753Y49617680D01*
X65771556Y49614413D01*
X65764441Y49610971D01*
X65757412Y49607357D01*
X65750473Y49603573D01*
X65743628Y49599621D01*
X65736881Y49595504D01*
X65730236Y49591223D01*
X65723698Y49586782D01*
X65717270Y49582183D01*
X65710956Y49577429D01*
X65704759Y49572522D01*
X65698684Y49567467D01*
X65692734Y49562264D01*
X65686912Y49556919D01*
X65681222Y49551433D01*
X65675667Y49545810D01*
X65670251Y49540054D01*
X65664976Y49534167D01*
X65659847Y49528154D01*
X65654865Y49522017D01*
X65650035Y49515761D01*
X65645358Y49509390D01*
X65640838Y49502906D01*
X65636477Y49496314D01*
X65632277Y49489618D01*
X65628242Y49482822D01*
X65624374Y49475929D01*
X65620675Y49468945D01*
X65617147Y49461872D01*
X65613792Y49454715D01*
X65610612Y49447479D01*
X65607610Y49440168D01*
X65604786Y49432786D01*
X65602143Y49425337D01*
X65599683Y49417826D01*
X65597405Y49410257D01*
X65595313Y49402635D01*
X65593407Y49394964D01*
X65591689Y49387250D01*
X65590159Y49379495D01*
X65588818Y49371706D01*
X65587667Y49363886D01*
X65586707Y49356041D01*
X65585938Y49348175D01*
X65585361Y49340292D01*
X65584977Y49332397D01*
X65584784Y49324496D01*
X65584784Y49316592D01*
X65584977Y49308691D01*
X65585361Y49300796D01*
X65585938Y49292913D01*
X65586707Y49285047D01*
X65587667Y49277202D01*
X65588818Y49269382D01*
X65590159Y49261593D01*
X65591689Y49253838D01*
X65593407Y49246124D01*
X65595313Y49238453D01*
X65597405Y49230831D01*
X65599683Y49223262D01*
X65602143Y49215751D01*
X65604786Y49208302D01*
X65607610Y49200920D01*
X65610612Y49193609D01*
X65613792Y49186373D01*
X65617147Y49179216D01*
X65620675Y49172143D01*
X65624374Y49165159D01*
X65628242Y49158266D01*
X65632277Y49151470D01*
X65636477Y49144774D01*
X65640838Y49138182D01*
X65645358Y49131698D01*
X65650035Y49125327D01*
X65654865Y49119071D01*
X65659847Y49112934D01*
X65664976Y49106921D01*
X65670251Y49101034D01*
X65675667Y49095278D01*
X65681222Y49089655D01*
X65686912Y49084169D01*
X65692734Y49078824D01*
X65698684Y49073621D01*
X65704759Y49068566D01*
X65710956Y49063659D01*
X65717270Y49058905D01*
X65723698Y49054306D01*
X65730236Y49049865D01*
X65736881Y49045584D01*
X65743628Y49041467D01*
X65750473Y49037515D01*
X65757412Y49033731D01*
X65764441Y49030117D01*
X65771556Y49026675D01*
X65778753Y49023408D01*
X65786027Y49020317D01*
X65793375Y49017403D01*
X65800791Y49014670D01*
X65808271Y49012118D01*
X65815812Y49009749D01*
X65823408Y49007564D01*
X65831054Y49005565D01*
X65838748Y49003753D01*
X65846483Y49002128D01*
X65854255Y49000693D01*
X65862060Y48999447D01*
X65869893Y48998391D01*
X65877750Y48997527D01*
X65885625Y48996854D01*
X65893514Y48996373D01*
X65901413Y48996084D01*
X65909316Y48995988D01*
X66233869Y48995988D01*
X65844403Y48995988D02*
X65584759Y48476700D01*
X65098234Y48476700D02*
X64773681Y48476700D01*
X64765778Y48476796D01*
X64757879Y48477085D01*
X64749990Y48477566D01*
X64742115Y48478239D01*
X64734259Y48479103D01*
X64726426Y48480159D01*
X64718621Y48481405D01*
X64710848Y48482840D01*
X64703113Y48484465D01*
X64695420Y48486277D01*
X64687773Y48488276D01*
X64680178Y48490461D01*
X64672637Y48492830D01*
X64665157Y48495382D01*
X64657741Y48498115D01*
X64650393Y48501028D01*
X64643119Y48504120D01*
X64635922Y48507387D01*
X64628807Y48510829D01*
X64621778Y48514443D01*
X64614839Y48518227D01*
X64607994Y48522179D01*
X64601247Y48526296D01*
X64594603Y48530577D01*
X64588065Y48535017D01*
X64581637Y48539616D01*
X64575323Y48544370D01*
X64569126Y48549277D01*
X64563051Y48554333D01*
X64557101Y48559535D01*
X64551279Y48564881D01*
X64545589Y48570366D01*
X64540034Y48575989D01*
X64534618Y48581745D01*
X64529344Y48587632D01*
X64524214Y48593645D01*
X64519233Y48599782D01*
X64514402Y48606037D01*
X64509725Y48612409D01*
X64505205Y48618893D01*
X64500844Y48625484D01*
X64496645Y48632180D01*
X64492610Y48638977D01*
X64488742Y48645869D01*
X64485042Y48652854D01*
X64481514Y48659926D01*
X64478159Y48667083D01*
X64474980Y48674319D01*
X64471977Y48681630D01*
X64469154Y48689012D01*
X64466511Y48696461D01*
X64464050Y48703972D01*
X64461773Y48711541D01*
X64459681Y48719163D01*
X64457775Y48726833D01*
X64456057Y48734548D01*
X64454527Y48742302D01*
X64453186Y48750091D01*
X64452035Y48757911D01*
X64451075Y48765756D01*
X64450306Y48773623D01*
X64449729Y48781505D01*
X64449345Y48789400D01*
X64449152Y48797301D01*
X64449152Y48805205D01*
X64449345Y48813106D01*
X64449729Y48821001D01*
X64450306Y48828883D01*
X64451075Y48836750D01*
X64452035Y48844595D01*
X64453186Y48852415D01*
X64454527Y48860204D01*
X64456057Y48867958D01*
X64457775Y48875673D01*
X64459681Y48883343D01*
X64461773Y48890965D01*
X64464050Y48898534D01*
X64466511Y48906045D01*
X64469154Y48913494D01*
X64471977Y48920876D01*
X64474980Y48928187D01*
X64478159Y48935423D01*
X64481514Y48942580D01*
X64485042Y48949652D01*
X64488742Y48956637D01*
X64492610Y48963530D01*
X64496645Y48970326D01*
X64500844Y48977022D01*
X64505205Y48983613D01*
X64509725Y48990097D01*
X64514402Y48996469D01*
X64519233Y49002724D01*
X64524214Y49008861D01*
X64529344Y49014874D01*
X64534618Y49020761D01*
X64540034Y49026517D01*
X64545589Y49032140D01*
X64551279Y49037625D01*
X64557101Y49042971D01*
X64563051Y49048173D01*
X64569126Y49053229D01*
X64575323Y49058136D01*
X64581637Y49062890D01*
X64588065Y49067489D01*
X64594603Y49071929D01*
X64601247Y49076210D01*
X64607994Y49080327D01*
X64614839Y49084279D01*
X64621778Y49088063D01*
X64628807Y49091677D01*
X64635922Y49095119D01*
X64643119Y49098386D01*
X64650393Y49101478D01*
X64657741Y49104391D01*
X64665157Y49107124D01*
X64672637Y49109676D01*
X64680178Y49112045D01*
X64687773Y49114230D01*
X64695420Y49116229D01*
X64703113Y49118041D01*
X64710848Y49119666D01*
X64718621Y49121101D01*
X64726426Y49122347D01*
X64734259Y49123403D01*
X64742115Y49124267D01*
X64749990Y49124940D01*
X64757879Y49125421D01*
X64765778Y49125710D01*
X64773681Y49125806D01*
X64708769Y49645100D02*
X65098234Y49645100D01*
X64708769Y49645100D02*
X64702446Y49645023D01*
X64696127Y49644792D01*
X64689816Y49644407D01*
X64683516Y49643869D01*
X64677231Y49643177D01*
X64670964Y49642333D01*
X64664720Y49641336D01*
X64658502Y49640188D01*
X64652314Y49638888D01*
X64646159Y49637438D01*
X64640042Y49635839D01*
X64633965Y49634091D01*
X64627933Y49632196D01*
X64621948Y49630154D01*
X64616015Y49627967D01*
X64610137Y49625637D01*
X64604318Y49623164D01*
X64598560Y49620550D01*
X64592868Y49617797D01*
X64587244Y49614905D01*
X64581693Y49611878D01*
X64576217Y49608716D01*
X64570820Y49605422D01*
X64565504Y49601998D01*
X64560274Y49598445D01*
X64555131Y49594766D01*
X64550080Y49590963D01*
X64545122Y49587037D01*
X64540262Y49582993D01*
X64535502Y49578831D01*
X64530844Y49574554D01*
X64526292Y49570166D01*
X64521848Y49565667D01*
X64517515Y49561062D01*
X64513296Y49556353D01*
X64509192Y49551542D01*
X64505207Y49546633D01*
X64501342Y49541628D01*
X64497601Y49536531D01*
X64493984Y49531344D01*
X64490496Y49526070D01*
X64487136Y49520714D01*
X64483908Y49515277D01*
X64480813Y49509762D01*
X64477854Y49504175D01*
X64475031Y49498516D01*
X64472348Y49492791D01*
X64469804Y49487002D01*
X64467402Y49481153D01*
X64465143Y49475247D01*
X64463029Y49469288D01*
X64461060Y49463279D01*
X64459238Y49457224D01*
X64457565Y49451126D01*
X64456040Y49444990D01*
X64454665Y49438818D01*
X64453441Y49432614D01*
X64452368Y49426383D01*
X64451448Y49420127D01*
X64450680Y49413851D01*
X64450065Y49407558D01*
X64449603Y49401251D01*
X64449295Y49394936D01*
X64449141Y49388615D01*
X64449141Y49382291D01*
X64449295Y49375970D01*
X64449603Y49369655D01*
X64450065Y49363348D01*
X64450680Y49357055D01*
X64451448Y49350779D01*
X64452368Y49344523D01*
X64453441Y49338292D01*
X64454665Y49332088D01*
X64456040Y49325916D01*
X64457565Y49319780D01*
X64459238Y49313682D01*
X64461060Y49307627D01*
X64463029Y49301618D01*
X64465143Y49295659D01*
X64467402Y49289753D01*
X64469804Y49283904D01*
X64472348Y49278115D01*
X64475031Y49272390D01*
X64477854Y49266731D01*
X64480813Y49261144D01*
X64483908Y49255630D01*
X64487136Y49250192D01*
X64490496Y49244836D01*
X64493984Y49239562D01*
X64497601Y49234375D01*
X64501342Y49229278D01*
X64505207Y49224273D01*
X64509192Y49219364D01*
X64513296Y49214553D01*
X64517515Y49209844D01*
X64521848Y49205239D01*
X64526292Y49200740D01*
X64530844Y49196352D01*
X64535502Y49192075D01*
X64540262Y49187913D01*
X64545122Y49183869D01*
X64550080Y49179943D01*
X64555131Y49176140D01*
X64560274Y49172461D01*
X64565504Y49168908D01*
X64570820Y49165484D01*
X64576217Y49162190D01*
X64581693Y49159028D01*
X64587244Y49156001D01*
X64592868Y49153109D01*
X64598560Y49150356D01*
X64604318Y49147742D01*
X64610137Y49145269D01*
X64616015Y49142939D01*
X64621948Y49140752D01*
X64627933Y49138710D01*
X64633965Y49136815D01*
X64640042Y49135067D01*
X64646159Y49133468D01*
X64652314Y49132018D01*
X64658502Y49130718D01*
X64664720Y49129570D01*
X64670964Y49128573D01*
X64677231Y49127729D01*
X64683516Y49127037D01*
X64689816Y49126499D01*
X64696127Y49126114D01*
X64702446Y49125883D01*
X64708769Y49125806D01*
X64708769Y49125809D02*
X64968413Y49125809D01*
X63955237Y48801253D02*
X63955141Y48809156D01*
X63954852Y48817055D01*
X63954371Y48824944D01*
X63953698Y48832819D01*
X63952834Y48840676D01*
X63951778Y48848509D01*
X63950532Y48856314D01*
X63949097Y48864086D01*
X63947472Y48871821D01*
X63945660Y48879515D01*
X63943661Y48887161D01*
X63941476Y48894757D01*
X63939107Y48902298D01*
X63936555Y48909778D01*
X63933822Y48917194D01*
X63930908Y48924542D01*
X63927817Y48931816D01*
X63924550Y48939013D01*
X63921108Y48946128D01*
X63917494Y48953157D01*
X63913710Y48960096D01*
X63909758Y48966941D01*
X63905641Y48973688D01*
X63901360Y48980333D01*
X63896919Y48986871D01*
X63892320Y48993299D01*
X63887566Y48999613D01*
X63882659Y49005810D01*
X63877604Y49011885D01*
X63872401Y49017835D01*
X63867056Y49023657D01*
X63861570Y49029347D01*
X63855947Y49034902D01*
X63850191Y49040318D01*
X63844304Y49045593D01*
X63838291Y49050722D01*
X63832154Y49055704D01*
X63825898Y49060534D01*
X63819527Y49065211D01*
X63813043Y49069731D01*
X63806451Y49074092D01*
X63799755Y49078292D01*
X63792959Y49082327D01*
X63786066Y49086195D01*
X63779082Y49089894D01*
X63772009Y49093422D01*
X63764852Y49096777D01*
X63757616Y49099957D01*
X63750305Y49102959D01*
X63742923Y49105783D01*
X63735474Y49108426D01*
X63727963Y49110886D01*
X63720394Y49113164D01*
X63712772Y49115256D01*
X63705101Y49117162D01*
X63697387Y49118880D01*
X63689632Y49120410D01*
X63681843Y49121751D01*
X63674023Y49122902D01*
X63666178Y49123862D01*
X63658312Y49124631D01*
X63650429Y49125208D01*
X63642534Y49125592D01*
X63634633Y49125785D01*
X63626729Y49125785D01*
X63618828Y49125592D01*
X63610933Y49125208D01*
X63603050Y49124631D01*
X63595184Y49123862D01*
X63587339Y49122902D01*
X63579519Y49121751D01*
X63571730Y49120410D01*
X63563975Y49118880D01*
X63556261Y49117162D01*
X63548590Y49115256D01*
X63540968Y49113164D01*
X63533399Y49110886D01*
X63525888Y49108426D01*
X63518439Y49105783D01*
X63511057Y49102959D01*
X63503746Y49099957D01*
X63496510Y49096777D01*
X63489353Y49093422D01*
X63482280Y49089894D01*
X63475296Y49086195D01*
X63468403Y49082327D01*
X63461607Y49078292D01*
X63454911Y49074092D01*
X63448319Y49069731D01*
X63441835Y49065211D01*
X63435464Y49060534D01*
X63429208Y49055704D01*
X63423071Y49050722D01*
X63417058Y49045593D01*
X63411171Y49040318D01*
X63405415Y49034902D01*
X63399792Y49029347D01*
X63394306Y49023657D01*
X63388961Y49017835D01*
X63383758Y49011885D01*
X63378703Y49005810D01*
X63373796Y48999613D01*
X63369042Y48993299D01*
X63364443Y48986871D01*
X63360002Y48980333D01*
X63355721Y48973688D01*
X63351604Y48966941D01*
X63347652Y48960096D01*
X63343868Y48953157D01*
X63340254Y48946128D01*
X63336812Y48939013D01*
X63333545Y48931816D01*
X63330454Y48924542D01*
X63327540Y48917194D01*
X63324807Y48909778D01*
X63322255Y48902298D01*
X63319886Y48894757D01*
X63317701Y48887161D01*
X63315702Y48879515D01*
X63313890Y48871821D01*
X63312265Y48864086D01*
X63310830Y48856314D01*
X63309584Y48848509D01*
X63308528Y48840676D01*
X63307664Y48832819D01*
X63306991Y48824944D01*
X63306510Y48817055D01*
X63306221Y48809156D01*
X63306125Y48801253D01*
X63306128Y48801253D02*
X63306224Y48793350D01*
X63306513Y48785451D01*
X63306994Y48777562D01*
X63307667Y48769687D01*
X63308531Y48761831D01*
X63309587Y48753998D01*
X63310833Y48746193D01*
X63312268Y48738420D01*
X63313893Y48730685D01*
X63315705Y48722992D01*
X63317704Y48715345D01*
X63319889Y48707750D01*
X63322258Y48700209D01*
X63324810Y48692729D01*
X63327543Y48685313D01*
X63330456Y48677965D01*
X63333548Y48670691D01*
X63336815Y48663494D01*
X63340257Y48656379D01*
X63343871Y48649350D01*
X63347655Y48642411D01*
X63351607Y48635566D01*
X63355724Y48628819D01*
X63360005Y48622175D01*
X63364445Y48615637D01*
X63369044Y48609209D01*
X63373798Y48602895D01*
X63378705Y48596698D01*
X63383761Y48590623D01*
X63388963Y48584673D01*
X63394309Y48578851D01*
X63399794Y48573161D01*
X63405417Y48567606D01*
X63411173Y48562190D01*
X63417060Y48556916D01*
X63423073Y48551786D01*
X63429210Y48546805D01*
X63435465Y48541974D01*
X63441837Y48537297D01*
X63448321Y48532777D01*
X63454912Y48528416D01*
X63461608Y48524217D01*
X63468405Y48520182D01*
X63475297Y48516314D01*
X63482282Y48512614D01*
X63489354Y48509086D01*
X63496511Y48505731D01*
X63503747Y48502552D01*
X63511058Y48499549D01*
X63518440Y48496726D01*
X63525889Y48494083D01*
X63533400Y48491622D01*
X63540969Y48489345D01*
X63548591Y48487253D01*
X63556261Y48485347D01*
X63563976Y48483629D01*
X63571730Y48482099D01*
X63579519Y48480758D01*
X63587339Y48479607D01*
X63595184Y48478647D01*
X63603051Y48477878D01*
X63610933Y48477301D01*
X63618828Y48476917D01*
X63626729Y48476724D01*
X63634633Y48476724D01*
X63642534Y48476917D01*
X63650429Y48477301D01*
X63658311Y48477878D01*
X63666178Y48478647D01*
X63674023Y48479607D01*
X63681843Y48480758D01*
X63689632Y48482099D01*
X63697386Y48483629D01*
X63705101Y48485347D01*
X63712771Y48487253D01*
X63720393Y48489345D01*
X63727962Y48491622D01*
X63735473Y48494083D01*
X63742922Y48496726D01*
X63750304Y48499549D01*
X63757615Y48502552D01*
X63764851Y48505731D01*
X63772008Y48509086D01*
X63779080Y48512614D01*
X63786065Y48516314D01*
X63792958Y48520182D01*
X63799754Y48524217D01*
X63806450Y48528416D01*
X63813041Y48532777D01*
X63819525Y48537297D01*
X63825897Y48541974D01*
X63832152Y48546805D01*
X63838289Y48551786D01*
X63844302Y48556916D01*
X63850189Y48562190D01*
X63855945Y48567606D01*
X63861568Y48573161D01*
X63867053Y48578851D01*
X63872399Y48584673D01*
X63877601Y48590623D01*
X63882657Y48596698D01*
X63887564Y48602895D01*
X63892318Y48609209D01*
X63896917Y48615637D01*
X63901357Y48622175D01*
X63905638Y48628819D01*
X63909755Y48635566D01*
X63913707Y48642411D01*
X63917491Y48649350D01*
X63921105Y48656379D01*
X63924547Y48663494D01*
X63927814Y48670691D01*
X63930906Y48677965D01*
X63933819Y48685313D01*
X63936552Y48692729D01*
X63939104Y48700209D01*
X63941473Y48707750D01*
X63943658Y48715345D01*
X63945657Y48722992D01*
X63947469Y48730685D01*
X63949094Y48738420D01*
X63950529Y48746193D01*
X63951775Y48753998D01*
X63952831Y48761831D01*
X63953695Y48769687D01*
X63954368Y48777562D01*
X63954849Y48785451D01*
X63955138Y48793350D01*
X63955234Y48801253D01*
X63890328Y49385453D02*
X63890251Y49391776D01*
X63890020Y49398095D01*
X63889635Y49404406D01*
X63889097Y49410706D01*
X63888405Y49416991D01*
X63887561Y49423258D01*
X63886564Y49429502D01*
X63885416Y49435720D01*
X63884116Y49441908D01*
X63882666Y49448063D01*
X63881067Y49454180D01*
X63879319Y49460257D01*
X63877424Y49466289D01*
X63875382Y49472274D01*
X63873195Y49478207D01*
X63870865Y49484085D01*
X63868392Y49489904D01*
X63865778Y49495662D01*
X63863025Y49501354D01*
X63860133Y49506978D01*
X63857106Y49512529D01*
X63853944Y49518005D01*
X63850650Y49523402D01*
X63847226Y49528718D01*
X63843673Y49533948D01*
X63839994Y49539091D01*
X63836191Y49544142D01*
X63832265Y49549100D01*
X63828221Y49553960D01*
X63824059Y49558720D01*
X63819782Y49563378D01*
X63815394Y49567930D01*
X63810895Y49572374D01*
X63806290Y49576707D01*
X63801581Y49580926D01*
X63796770Y49585030D01*
X63791861Y49589015D01*
X63786856Y49592880D01*
X63781759Y49596621D01*
X63776572Y49600238D01*
X63771298Y49603726D01*
X63765942Y49607086D01*
X63760505Y49610314D01*
X63754990Y49613409D01*
X63749403Y49616368D01*
X63743744Y49619191D01*
X63738019Y49621874D01*
X63732230Y49624418D01*
X63726381Y49626820D01*
X63720475Y49629079D01*
X63714516Y49631193D01*
X63708507Y49633162D01*
X63702452Y49634984D01*
X63696354Y49636657D01*
X63690218Y49638182D01*
X63684046Y49639557D01*
X63677842Y49640781D01*
X63671611Y49641854D01*
X63665355Y49642774D01*
X63659079Y49643542D01*
X63652786Y49644157D01*
X63646479Y49644619D01*
X63640164Y49644927D01*
X63633843Y49645081D01*
X63627519Y49645081D01*
X63621198Y49644927D01*
X63614883Y49644619D01*
X63608576Y49644157D01*
X63602283Y49643542D01*
X63596007Y49642774D01*
X63589751Y49641854D01*
X63583520Y49640781D01*
X63577316Y49639557D01*
X63571144Y49638182D01*
X63565008Y49636657D01*
X63558910Y49634984D01*
X63552855Y49633162D01*
X63546846Y49631193D01*
X63540887Y49629079D01*
X63534981Y49626820D01*
X63529132Y49624418D01*
X63523343Y49621874D01*
X63517618Y49619191D01*
X63511959Y49616368D01*
X63506372Y49613409D01*
X63500858Y49610314D01*
X63495420Y49607086D01*
X63490064Y49603726D01*
X63484790Y49600238D01*
X63479603Y49596621D01*
X63474506Y49592880D01*
X63469501Y49589015D01*
X63464592Y49585030D01*
X63459781Y49580926D01*
X63455072Y49576707D01*
X63450467Y49572374D01*
X63445968Y49567930D01*
X63441580Y49563378D01*
X63437303Y49558720D01*
X63433141Y49553960D01*
X63429097Y49549100D01*
X63425171Y49544142D01*
X63421368Y49539091D01*
X63417689Y49533948D01*
X63414136Y49528718D01*
X63410712Y49523402D01*
X63407418Y49518005D01*
X63404256Y49512529D01*
X63401229Y49506978D01*
X63398337Y49501354D01*
X63395584Y49495662D01*
X63392970Y49489904D01*
X63390497Y49484085D01*
X63388167Y49478207D01*
X63385980Y49472274D01*
X63383938Y49466289D01*
X63382043Y49460257D01*
X63380295Y49454180D01*
X63378696Y49448063D01*
X63377246Y49441908D01*
X63375946Y49435720D01*
X63374798Y49429502D01*
X63373801Y49423258D01*
X63372957Y49416991D01*
X63372265Y49410706D01*
X63371727Y49404406D01*
X63371342Y49398095D01*
X63371111Y49391776D01*
X63371034Y49385453D01*
X63371037Y49385453D02*
X63371114Y49379130D01*
X63371345Y49372812D01*
X63371730Y49366500D01*
X63372268Y49360200D01*
X63372960Y49353915D01*
X63373804Y49347649D01*
X63374801Y49341405D01*
X63375949Y49335187D01*
X63377249Y49328999D01*
X63378699Y49322844D01*
X63380298Y49316727D01*
X63382046Y49310650D01*
X63383941Y49304617D01*
X63385983Y49298633D01*
X63388169Y49292700D01*
X63390500Y49286822D01*
X63392973Y49281003D01*
X63395587Y49275245D01*
X63398340Y49269553D01*
X63401231Y49263930D01*
X63404259Y49258379D01*
X63407420Y49252903D01*
X63410714Y49247505D01*
X63414138Y49242190D01*
X63417691Y49236959D01*
X63421370Y49231817D01*
X63425174Y49226765D01*
X63429099Y49221808D01*
X63433144Y49216948D01*
X63437305Y49212188D01*
X63441582Y49207530D01*
X63445971Y49202978D01*
X63450469Y49198534D01*
X63455074Y49194201D01*
X63459783Y49189982D01*
X63464594Y49185878D01*
X63469503Y49181893D01*
X63474508Y49178029D01*
X63479605Y49174287D01*
X63484792Y49170671D01*
X63490065Y49167182D01*
X63495422Y49163823D01*
X63500859Y49160595D01*
X63506373Y49157500D01*
X63511961Y49154541D01*
X63517619Y49151718D01*
X63523344Y49149034D01*
X63529133Y49146491D01*
X63534982Y49144089D01*
X63540888Y49141830D01*
X63546847Y49139716D01*
X63552856Y49137747D01*
X63558911Y49135925D01*
X63565008Y49134252D01*
X63571145Y49132727D01*
X63577317Y49131352D01*
X63583520Y49130128D01*
X63589751Y49129055D01*
X63596007Y49128135D01*
X63602283Y49127367D01*
X63608577Y49126752D01*
X63614883Y49126290D01*
X63621198Y49125982D01*
X63627519Y49125828D01*
X63633843Y49125828D01*
X63640164Y49125982D01*
X63646479Y49126290D01*
X63652785Y49126752D01*
X63659079Y49127367D01*
X63665355Y49128135D01*
X63671611Y49129055D01*
X63677842Y49130128D01*
X63684045Y49131352D01*
X63690217Y49132727D01*
X63696354Y49134252D01*
X63702451Y49135925D01*
X63708506Y49137747D01*
X63714515Y49139716D01*
X63720474Y49141830D01*
X63726380Y49144089D01*
X63732229Y49146491D01*
X63738018Y49149034D01*
X63743743Y49151718D01*
X63749401Y49154541D01*
X63754989Y49157500D01*
X63760503Y49160595D01*
X63765940Y49163823D01*
X63771297Y49167182D01*
X63776570Y49170671D01*
X63781757Y49174287D01*
X63786854Y49178029D01*
X63791859Y49181893D01*
X63796768Y49185878D01*
X63801579Y49189982D01*
X63806288Y49194201D01*
X63810893Y49198534D01*
X63815391Y49202978D01*
X63819780Y49207530D01*
X63824057Y49212188D01*
X63828218Y49216948D01*
X63832263Y49221808D01*
X63836188Y49226765D01*
X63839992Y49231817D01*
X63843671Y49236959D01*
X63847224Y49242190D01*
X63850648Y49247505D01*
X63853942Y49252903D01*
X63857103Y49258379D01*
X63860131Y49263930D01*
X63863022Y49269553D01*
X63865775Y49275245D01*
X63868389Y49281003D01*
X63870862Y49286822D01*
X63873193Y49292700D01*
X63875379Y49298633D01*
X63877421Y49304617D01*
X63879316Y49310650D01*
X63881064Y49316727D01*
X63882663Y49322844D01*
X63884113Y49328999D01*
X63885413Y49335187D01*
X63886561Y49341405D01*
X63887558Y49347649D01*
X63888402Y49353915D01*
X63889094Y49360200D01*
X63889632Y49366500D01*
X63890017Y49372812D01*
X63890248Y49379130D01*
X63890325Y49385453D01*
D13*
X71540000Y46520900D02*
X73240000Y46520900D01*
X73240000Y44919100D02*
X71540000Y44919100D01*
D15*
X73853869Y47206700D02*
X73853869Y48375100D01*
X73529316Y48375100D01*
X73521413Y48375004D01*
X73513514Y48374715D01*
X73505625Y48374234D01*
X73497750Y48373561D01*
X73489893Y48372697D01*
X73482060Y48371641D01*
X73474255Y48370395D01*
X73466483Y48368960D01*
X73458748Y48367335D01*
X73451054Y48365523D01*
X73443408Y48363524D01*
X73435812Y48361339D01*
X73428271Y48358970D01*
X73420791Y48356418D01*
X73413375Y48353685D01*
X73406027Y48350771D01*
X73398753Y48347680D01*
X73391556Y48344413D01*
X73384441Y48340971D01*
X73377412Y48337357D01*
X73370473Y48333573D01*
X73363628Y48329621D01*
X73356881Y48325504D01*
X73350236Y48321223D01*
X73343698Y48316782D01*
X73337270Y48312183D01*
X73330956Y48307429D01*
X73324759Y48302522D01*
X73318684Y48297467D01*
X73312734Y48292264D01*
X73306912Y48286919D01*
X73301222Y48281433D01*
X73295667Y48275810D01*
X73290251Y48270054D01*
X73284976Y48264167D01*
X73279847Y48258154D01*
X73274865Y48252017D01*
X73270035Y48245761D01*
X73265358Y48239390D01*
X73260838Y48232906D01*
X73256477Y48226314D01*
X73252277Y48219618D01*
X73248242Y48212822D01*
X73244374Y48205929D01*
X73240675Y48198945D01*
X73237147Y48191872D01*
X73233792Y48184715D01*
X73230612Y48177479D01*
X73227610Y48170168D01*
X73224786Y48162786D01*
X73222143Y48155337D01*
X73219683Y48147826D01*
X73217405Y48140257D01*
X73215313Y48132635D01*
X73213407Y48124964D01*
X73211689Y48117250D01*
X73210159Y48109495D01*
X73208818Y48101706D01*
X73207667Y48093886D01*
X73206707Y48086041D01*
X73205938Y48078175D01*
X73205361Y48070292D01*
X73204977Y48062397D01*
X73204784Y48054496D01*
X73204784Y48046592D01*
X73204977Y48038691D01*
X73205361Y48030796D01*
X73205938Y48022913D01*
X73206707Y48015047D01*
X73207667Y48007202D01*
X73208818Y47999382D01*
X73210159Y47991593D01*
X73211689Y47983838D01*
X73213407Y47976124D01*
X73215313Y47968453D01*
X73217405Y47960831D01*
X73219683Y47953262D01*
X73222143Y47945751D01*
X73224786Y47938302D01*
X73227610Y47930920D01*
X73230612Y47923609D01*
X73233792Y47916373D01*
X73237147Y47909216D01*
X73240675Y47902143D01*
X73244374Y47895159D01*
X73248242Y47888266D01*
X73252277Y47881470D01*
X73256477Y47874774D01*
X73260838Y47868182D01*
X73265358Y47861698D01*
X73270035Y47855327D01*
X73274865Y47849071D01*
X73279847Y47842934D01*
X73284976Y47836921D01*
X73290251Y47831034D01*
X73295667Y47825278D01*
X73301222Y47819655D01*
X73306912Y47814169D01*
X73312734Y47808824D01*
X73318684Y47803621D01*
X73324759Y47798566D01*
X73330956Y47793659D01*
X73337270Y47788905D01*
X73343698Y47784306D01*
X73350236Y47779865D01*
X73356881Y47775584D01*
X73363628Y47771467D01*
X73370473Y47767515D01*
X73377412Y47763731D01*
X73384441Y47760117D01*
X73391556Y47756675D01*
X73398753Y47753408D01*
X73406027Y47750317D01*
X73413375Y47747403D01*
X73420791Y47744670D01*
X73428271Y47742118D01*
X73435812Y47739749D01*
X73443408Y47737564D01*
X73451054Y47735565D01*
X73458748Y47733753D01*
X73466483Y47732128D01*
X73474255Y47730693D01*
X73482060Y47729447D01*
X73489893Y47728391D01*
X73497750Y47727527D01*
X73505625Y47726854D01*
X73513514Y47726373D01*
X73521413Y47726084D01*
X73529316Y47725988D01*
X73853869Y47725988D01*
X73464403Y47725988D02*
X73204759Y47206700D01*
X72718234Y47466344D02*
X72458591Y48375100D01*
X72718234Y47466344D02*
X72069125Y47466344D01*
X72263859Y47725988D02*
X72263859Y47206700D01*
X71575238Y47206700D02*
X71250684Y47206700D01*
X71242781Y47206796D01*
X71234882Y47207085D01*
X71226993Y47207566D01*
X71219118Y47208239D01*
X71211262Y47209103D01*
X71203429Y47210159D01*
X71195624Y47211405D01*
X71187851Y47212840D01*
X71180116Y47214465D01*
X71172423Y47216277D01*
X71164776Y47218276D01*
X71157181Y47220461D01*
X71149640Y47222830D01*
X71142160Y47225382D01*
X71134744Y47228115D01*
X71127396Y47231028D01*
X71120122Y47234120D01*
X71112925Y47237387D01*
X71105810Y47240829D01*
X71098781Y47244443D01*
X71091842Y47248227D01*
X71084997Y47252179D01*
X71078250Y47256296D01*
X71071606Y47260577D01*
X71065068Y47265017D01*
X71058640Y47269616D01*
X71052326Y47274370D01*
X71046129Y47279277D01*
X71040054Y47284333D01*
X71034104Y47289535D01*
X71028282Y47294881D01*
X71022592Y47300366D01*
X71017037Y47305989D01*
X71011621Y47311745D01*
X71006347Y47317632D01*
X71001217Y47323645D01*
X70996236Y47329782D01*
X70991405Y47336037D01*
X70986728Y47342409D01*
X70982208Y47348893D01*
X70977847Y47355484D01*
X70973648Y47362180D01*
X70969613Y47368977D01*
X70965745Y47375869D01*
X70962045Y47382854D01*
X70958517Y47389926D01*
X70955162Y47397083D01*
X70951983Y47404319D01*
X70948980Y47411630D01*
X70946157Y47419012D01*
X70943514Y47426461D01*
X70941053Y47433972D01*
X70938776Y47441541D01*
X70936684Y47449163D01*
X70934778Y47456833D01*
X70933060Y47464548D01*
X70931530Y47472302D01*
X70930189Y47480091D01*
X70929038Y47487911D01*
X70928078Y47495756D01*
X70927309Y47503623D01*
X70926732Y47511505D01*
X70926348Y47519400D01*
X70926155Y47527301D01*
X70926155Y47535205D01*
X70926348Y47543106D01*
X70926732Y47551001D01*
X70927309Y47558883D01*
X70928078Y47566750D01*
X70929038Y47574595D01*
X70930189Y47582415D01*
X70931530Y47590204D01*
X70933060Y47597958D01*
X70934778Y47605673D01*
X70936684Y47613343D01*
X70938776Y47620965D01*
X70941053Y47628534D01*
X70943514Y47636045D01*
X70946157Y47643494D01*
X70948980Y47650876D01*
X70951983Y47658187D01*
X70955162Y47665423D01*
X70958517Y47672580D01*
X70962045Y47679652D01*
X70965745Y47686637D01*
X70969613Y47693530D01*
X70973648Y47700326D01*
X70977847Y47707022D01*
X70982208Y47713613D01*
X70986728Y47720097D01*
X70991405Y47726469D01*
X70996236Y47732724D01*
X71001217Y47738861D01*
X71006347Y47744874D01*
X71011621Y47750761D01*
X71017037Y47756517D01*
X71022592Y47762140D01*
X71028282Y47767625D01*
X71034104Y47772971D01*
X71040054Y47778173D01*
X71046129Y47783229D01*
X71052326Y47788136D01*
X71058640Y47792890D01*
X71065068Y47797489D01*
X71071606Y47801929D01*
X71078250Y47806210D01*
X71084997Y47810327D01*
X71091842Y47814279D01*
X71098781Y47818063D01*
X71105810Y47821677D01*
X71112925Y47825119D01*
X71120122Y47828386D01*
X71127396Y47831478D01*
X71134744Y47834391D01*
X71142160Y47837124D01*
X71149640Y47839676D01*
X71157181Y47842045D01*
X71164776Y47844230D01*
X71172423Y47846229D01*
X71180116Y47848041D01*
X71187851Y47849666D01*
X71195624Y47851101D01*
X71203429Y47852347D01*
X71211262Y47853403D01*
X71219118Y47854267D01*
X71226993Y47854940D01*
X71234882Y47855421D01*
X71242781Y47855710D01*
X71250684Y47855806D01*
X71185772Y48375100D02*
X71575238Y48375100D01*
X71185772Y48375100D02*
X71179449Y48375023D01*
X71173130Y48374792D01*
X71166819Y48374407D01*
X71160519Y48373869D01*
X71154234Y48373177D01*
X71147967Y48372333D01*
X71141723Y48371336D01*
X71135505Y48370188D01*
X71129317Y48368888D01*
X71123162Y48367438D01*
X71117045Y48365839D01*
X71110968Y48364091D01*
X71104936Y48362196D01*
X71098951Y48360154D01*
X71093018Y48357967D01*
X71087140Y48355637D01*
X71081321Y48353164D01*
X71075563Y48350550D01*
X71069871Y48347797D01*
X71064247Y48344905D01*
X71058696Y48341878D01*
X71053220Y48338716D01*
X71047823Y48335422D01*
X71042507Y48331998D01*
X71037277Y48328445D01*
X71032134Y48324766D01*
X71027083Y48320963D01*
X71022125Y48317037D01*
X71017265Y48312993D01*
X71012505Y48308831D01*
X71007847Y48304554D01*
X71003295Y48300166D01*
X70998851Y48295667D01*
X70994518Y48291062D01*
X70990299Y48286353D01*
X70986195Y48281542D01*
X70982210Y48276633D01*
X70978345Y48271628D01*
X70974604Y48266531D01*
X70970987Y48261344D01*
X70967499Y48256070D01*
X70964139Y48250714D01*
X70960911Y48245277D01*
X70957816Y48239762D01*
X70954857Y48234175D01*
X70952034Y48228516D01*
X70949351Y48222791D01*
X70946807Y48217002D01*
X70944405Y48211153D01*
X70942146Y48205247D01*
X70940032Y48199288D01*
X70938063Y48193279D01*
X70936241Y48187224D01*
X70934568Y48181126D01*
X70933043Y48174990D01*
X70931668Y48168818D01*
X70930444Y48162614D01*
X70929371Y48156383D01*
X70928451Y48150127D01*
X70927683Y48143851D01*
X70927068Y48137558D01*
X70926606Y48131251D01*
X70926298Y48124936D01*
X70926144Y48118615D01*
X70926144Y48112291D01*
X70926298Y48105970D01*
X70926606Y48099655D01*
X70927068Y48093348D01*
X70927683Y48087055D01*
X70928451Y48080779D01*
X70929371Y48074523D01*
X70930444Y48068292D01*
X70931668Y48062088D01*
X70933043Y48055916D01*
X70934568Y48049780D01*
X70936241Y48043682D01*
X70938063Y48037627D01*
X70940032Y48031618D01*
X70942146Y48025659D01*
X70944405Y48019753D01*
X70946807Y48013904D01*
X70949351Y48008115D01*
X70952034Y48002390D01*
X70954857Y47996731D01*
X70957816Y47991144D01*
X70960911Y47985630D01*
X70964139Y47980192D01*
X70967499Y47974836D01*
X70970987Y47969562D01*
X70974604Y47964375D01*
X70978345Y47959278D01*
X70982210Y47954273D01*
X70986195Y47949364D01*
X70990299Y47944553D01*
X70994518Y47939844D01*
X70998851Y47935239D01*
X71003295Y47930740D01*
X71007847Y47926352D01*
X71012505Y47922075D01*
X71017265Y47917913D01*
X71022125Y47913869D01*
X71027083Y47909943D01*
X71032134Y47906140D01*
X71037277Y47902461D01*
X71042507Y47898908D01*
X71047823Y47895484D01*
X71053220Y47892190D01*
X71058696Y47889028D01*
X71064247Y47886001D01*
X71069871Y47883109D01*
X71075563Y47880356D01*
X71081321Y47877742D01*
X71087140Y47875269D01*
X71093018Y47872939D01*
X71098951Y47870752D01*
X71104936Y47868710D01*
X71110968Y47866815D01*
X71117045Y47865067D01*
X71123162Y47863468D01*
X71129317Y47862018D01*
X71135505Y47860718D01*
X71141723Y47859570D01*
X71147967Y47858573D01*
X71154234Y47857729D01*
X71160519Y47857037D01*
X71166819Y47856499D01*
X71173130Y47856114D01*
X71179449Y47855883D01*
X71185772Y47855806D01*
X71185772Y47855809D02*
X71445416Y47855809D01*
D13*
X77890000Y46520900D02*
X79590000Y46520900D01*
X79590000Y44919100D02*
X77890000Y44919100D01*
D15*
X80203869Y47206700D02*
X80203869Y48375100D01*
X79879316Y48375100D01*
X79871413Y48375004D01*
X79863514Y48374715D01*
X79855625Y48374234D01*
X79847750Y48373561D01*
X79839893Y48372697D01*
X79832060Y48371641D01*
X79824255Y48370395D01*
X79816483Y48368960D01*
X79808748Y48367335D01*
X79801054Y48365523D01*
X79793408Y48363524D01*
X79785812Y48361339D01*
X79778271Y48358970D01*
X79770791Y48356418D01*
X79763375Y48353685D01*
X79756027Y48350771D01*
X79748753Y48347680D01*
X79741556Y48344413D01*
X79734441Y48340971D01*
X79727412Y48337357D01*
X79720473Y48333573D01*
X79713628Y48329621D01*
X79706881Y48325504D01*
X79700236Y48321223D01*
X79693698Y48316782D01*
X79687270Y48312183D01*
X79680956Y48307429D01*
X79674759Y48302522D01*
X79668684Y48297467D01*
X79662734Y48292264D01*
X79656912Y48286919D01*
X79651222Y48281433D01*
X79645667Y48275810D01*
X79640251Y48270054D01*
X79634976Y48264167D01*
X79629847Y48258154D01*
X79624865Y48252017D01*
X79620035Y48245761D01*
X79615358Y48239390D01*
X79610838Y48232906D01*
X79606477Y48226314D01*
X79602277Y48219618D01*
X79598242Y48212822D01*
X79594374Y48205929D01*
X79590675Y48198945D01*
X79587147Y48191872D01*
X79583792Y48184715D01*
X79580612Y48177479D01*
X79577610Y48170168D01*
X79574786Y48162786D01*
X79572143Y48155337D01*
X79569683Y48147826D01*
X79567405Y48140257D01*
X79565313Y48132635D01*
X79563407Y48124964D01*
X79561689Y48117250D01*
X79560159Y48109495D01*
X79558818Y48101706D01*
X79557667Y48093886D01*
X79556707Y48086041D01*
X79555938Y48078175D01*
X79555361Y48070292D01*
X79554977Y48062397D01*
X79554784Y48054496D01*
X79554784Y48046592D01*
X79554977Y48038691D01*
X79555361Y48030796D01*
X79555938Y48022913D01*
X79556707Y48015047D01*
X79557667Y48007202D01*
X79558818Y47999382D01*
X79560159Y47991593D01*
X79561689Y47983838D01*
X79563407Y47976124D01*
X79565313Y47968453D01*
X79567405Y47960831D01*
X79569683Y47953262D01*
X79572143Y47945751D01*
X79574786Y47938302D01*
X79577610Y47930920D01*
X79580612Y47923609D01*
X79583792Y47916373D01*
X79587147Y47909216D01*
X79590675Y47902143D01*
X79594374Y47895159D01*
X79598242Y47888266D01*
X79602277Y47881470D01*
X79606477Y47874774D01*
X79610838Y47868182D01*
X79615358Y47861698D01*
X79620035Y47855327D01*
X79624865Y47849071D01*
X79629847Y47842934D01*
X79634976Y47836921D01*
X79640251Y47831034D01*
X79645667Y47825278D01*
X79651222Y47819655D01*
X79656912Y47814169D01*
X79662734Y47808824D01*
X79668684Y47803621D01*
X79674759Y47798566D01*
X79680956Y47793659D01*
X79687270Y47788905D01*
X79693698Y47784306D01*
X79700236Y47779865D01*
X79706881Y47775584D01*
X79713628Y47771467D01*
X79720473Y47767515D01*
X79727412Y47763731D01*
X79734441Y47760117D01*
X79741556Y47756675D01*
X79748753Y47753408D01*
X79756027Y47750317D01*
X79763375Y47747403D01*
X79770791Y47744670D01*
X79778271Y47742118D01*
X79785812Y47739749D01*
X79793408Y47737564D01*
X79801054Y47735565D01*
X79808748Y47733753D01*
X79816483Y47732128D01*
X79824255Y47730693D01*
X79832060Y47729447D01*
X79839893Y47728391D01*
X79847750Y47727527D01*
X79855625Y47726854D01*
X79863514Y47726373D01*
X79871413Y47726084D01*
X79879316Y47725988D01*
X80203869Y47725988D01*
X79814403Y47725988D02*
X79554759Y47206700D01*
X79068234Y47466344D02*
X78808591Y48375100D01*
X79068234Y47466344D02*
X78419125Y47466344D01*
X78613859Y47725988D02*
X78613859Y47206700D01*
X77925238Y48115453D02*
X77600684Y48375100D01*
X77600684Y47206700D01*
X77925238Y47206700D02*
X77276128Y47206700D01*
D13*
X84240000Y46520900D02*
X85940000Y46520900D01*
X85940000Y44919100D02*
X84240000Y44919100D01*
D15*
X86553869Y47206700D02*
X86553869Y48375100D01*
X86229316Y48375100D01*
X86221413Y48375004D01*
X86213514Y48374715D01*
X86205625Y48374234D01*
X86197750Y48373561D01*
X86189893Y48372697D01*
X86182060Y48371641D01*
X86174255Y48370395D01*
X86166483Y48368960D01*
X86158748Y48367335D01*
X86151054Y48365523D01*
X86143408Y48363524D01*
X86135812Y48361339D01*
X86128271Y48358970D01*
X86120791Y48356418D01*
X86113375Y48353685D01*
X86106027Y48350771D01*
X86098753Y48347680D01*
X86091556Y48344413D01*
X86084441Y48340971D01*
X86077412Y48337357D01*
X86070473Y48333573D01*
X86063628Y48329621D01*
X86056881Y48325504D01*
X86050236Y48321223D01*
X86043698Y48316782D01*
X86037270Y48312183D01*
X86030956Y48307429D01*
X86024759Y48302522D01*
X86018684Y48297467D01*
X86012734Y48292264D01*
X86006912Y48286919D01*
X86001222Y48281433D01*
X85995667Y48275810D01*
X85990251Y48270054D01*
X85984976Y48264167D01*
X85979847Y48258154D01*
X85974865Y48252017D01*
X85970035Y48245761D01*
X85965358Y48239390D01*
X85960838Y48232906D01*
X85956477Y48226314D01*
X85952277Y48219618D01*
X85948242Y48212822D01*
X85944374Y48205929D01*
X85940675Y48198945D01*
X85937147Y48191872D01*
X85933792Y48184715D01*
X85930612Y48177479D01*
X85927610Y48170168D01*
X85924786Y48162786D01*
X85922143Y48155337D01*
X85919683Y48147826D01*
X85917405Y48140257D01*
X85915313Y48132635D01*
X85913407Y48124964D01*
X85911689Y48117250D01*
X85910159Y48109495D01*
X85908818Y48101706D01*
X85907667Y48093886D01*
X85906707Y48086041D01*
X85905938Y48078175D01*
X85905361Y48070292D01*
X85904977Y48062397D01*
X85904784Y48054496D01*
X85904784Y48046592D01*
X85904977Y48038691D01*
X85905361Y48030796D01*
X85905938Y48022913D01*
X85906707Y48015047D01*
X85907667Y48007202D01*
X85908818Y47999382D01*
X85910159Y47991593D01*
X85911689Y47983838D01*
X85913407Y47976124D01*
X85915313Y47968453D01*
X85917405Y47960831D01*
X85919683Y47953262D01*
X85922143Y47945751D01*
X85924786Y47938302D01*
X85927610Y47930920D01*
X85930612Y47923609D01*
X85933792Y47916373D01*
X85937147Y47909216D01*
X85940675Y47902143D01*
X85944374Y47895159D01*
X85948242Y47888266D01*
X85952277Y47881470D01*
X85956477Y47874774D01*
X85960838Y47868182D01*
X85965358Y47861698D01*
X85970035Y47855327D01*
X85974865Y47849071D01*
X85979847Y47842934D01*
X85984976Y47836921D01*
X85990251Y47831034D01*
X85995667Y47825278D01*
X86001222Y47819655D01*
X86006912Y47814169D01*
X86012734Y47808824D01*
X86018684Y47803621D01*
X86024759Y47798566D01*
X86030956Y47793659D01*
X86037270Y47788905D01*
X86043698Y47784306D01*
X86050236Y47779865D01*
X86056881Y47775584D01*
X86063628Y47771467D01*
X86070473Y47767515D01*
X86077412Y47763731D01*
X86084441Y47760117D01*
X86091556Y47756675D01*
X86098753Y47753408D01*
X86106027Y47750317D01*
X86113375Y47747403D01*
X86120791Y47744670D01*
X86128271Y47742118D01*
X86135812Y47739749D01*
X86143408Y47737564D01*
X86151054Y47735565D01*
X86158748Y47733753D01*
X86166483Y47732128D01*
X86174255Y47730693D01*
X86182060Y47729447D01*
X86189893Y47728391D01*
X86197750Y47727527D01*
X86205625Y47726854D01*
X86213514Y47726373D01*
X86221413Y47726084D01*
X86229316Y47725988D01*
X86553869Y47725988D01*
X86164403Y47725988D02*
X85904759Y47206700D01*
X85418234Y47206700D02*
X85093681Y47206700D01*
X85085778Y47206796D01*
X85077879Y47207085D01*
X85069990Y47207566D01*
X85062115Y47208239D01*
X85054259Y47209103D01*
X85046426Y47210159D01*
X85038621Y47211405D01*
X85030848Y47212840D01*
X85023113Y47214465D01*
X85015420Y47216277D01*
X85007773Y47218276D01*
X85000178Y47220461D01*
X84992637Y47222830D01*
X84985157Y47225382D01*
X84977741Y47228115D01*
X84970393Y47231028D01*
X84963119Y47234120D01*
X84955922Y47237387D01*
X84948807Y47240829D01*
X84941778Y47244443D01*
X84934839Y47248227D01*
X84927994Y47252179D01*
X84921247Y47256296D01*
X84914603Y47260577D01*
X84908065Y47265017D01*
X84901637Y47269616D01*
X84895323Y47274370D01*
X84889126Y47279277D01*
X84883051Y47284333D01*
X84877101Y47289535D01*
X84871279Y47294881D01*
X84865589Y47300366D01*
X84860034Y47305989D01*
X84854618Y47311745D01*
X84849344Y47317632D01*
X84844214Y47323645D01*
X84839233Y47329782D01*
X84834402Y47336037D01*
X84829725Y47342409D01*
X84825205Y47348893D01*
X84820844Y47355484D01*
X84816645Y47362180D01*
X84812610Y47368977D01*
X84808742Y47375869D01*
X84805042Y47382854D01*
X84801514Y47389926D01*
X84798159Y47397083D01*
X84794980Y47404319D01*
X84791977Y47411630D01*
X84789154Y47419012D01*
X84786511Y47426461D01*
X84784050Y47433972D01*
X84781773Y47441541D01*
X84779681Y47449163D01*
X84777775Y47456833D01*
X84776057Y47464548D01*
X84774527Y47472302D01*
X84773186Y47480091D01*
X84772035Y47487911D01*
X84771075Y47495756D01*
X84770306Y47503623D01*
X84769729Y47511505D01*
X84769345Y47519400D01*
X84769152Y47527301D01*
X84769152Y47535205D01*
X84769345Y47543106D01*
X84769729Y47551001D01*
X84770306Y47558883D01*
X84771075Y47566750D01*
X84772035Y47574595D01*
X84773186Y47582415D01*
X84774527Y47590204D01*
X84776057Y47597958D01*
X84777775Y47605673D01*
X84779681Y47613343D01*
X84781773Y47620965D01*
X84784050Y47628534D01*
X84786511Y47636045D01*
X84789154Y47643494D01*
X84791977Y47650876D01*
X84794980Y47658187D01*
X84798159Y47665423D01*
X84801514Y47672580D01*
X84805042Y47679652D01*
X84808742Y47686637D01*
X84812610Y47693530D01*
X84816645Y47700326D01*
X84820844Y47707022D01*
X84825205Y47713613D01*
X84829725Y47720097D01*
X84834402Y47726469D01*
X84839233Y47732724D01*
X84844214Y47738861D01*
X84849344Y47744874D01*
X84854618Y47750761D01*
X84860034Y47756517D01*
X84865589Y47762140D01*
X84871279Y47767625D01*
X84877101Y47772971D01*
X84883051Y47778173D01*
X84889126Y47783229D01*
X84895323Y47788136D01*
X84901637Y47792890D01*
X84908065Y47797489D01*
X84914603Y47801929D01*
X84921247Y47806210D01*
X84927994Y47810327D01*
X84934839Y47814279D01*
X84941778Y47818063D01*
X84948807Y47821677D01*
X84955922Y47825119D01*
X84963119Y47828386D01*
X84970393Y47831478D01*
X84977741Y47834391D01*
X84985157Y47837124D01*
X84992637Y47839676D01*
X85000178Y47842045D01*
X85007773Y47844230D01*
X85015420Y47846229D01*
X85023113Y47848041D01*
X85030848Y47849666D01*
X85038621Y47851101D01*
X85046426Y47852347D01*
X85054259Y47853403D01*
X85062115Y47854267D01*
X85069990Y47854940D01*
X85077879Y47855421D01*
X85085778Y47855710D01*
X85093681Y47855806D01*
X85028769Y48375100D02*
X85418234Y48375100D01*
X85028769Y48375100D02*
X85022446Y48375023D01*
X85016127Y48374792D01*
X85009816Y48374407D01*
X85003516Y48373869D01*
X84997231Y48373177D01*
X84990964Y48372333D01*
X84984720Y48371336D01*
X84978502Y48370188D01*
X84972314Y48368888D01*
X84966159Y48367438D01*
X84960042Y48365839D01*
X84953965Y48364091D01*
X84947933Y48362196D01*
X84941948Y48360154D01*
X84936015Y48357967D01*
X84930137Y48355637D01*
X84924318Y48353164D01*
X84918560Y48350550D01*
X84912868Y48347797D01*
X84907244Y48344905D01*
X84901693Y48341878D01*
X84896217Y48338716D01*
X84890820Y48335422D01*
X84885504Y48331998D01*
X84880274Y48328445D01*
X84875131Y48324766D01*
X84870080Y48320963D01*
X84865122Y48317037D01*
X84860262Y48312993D01*
X84855502Y48308831D01*
X84850844Y48304554D01*
X84846292Y48300166D01*
X84841848Y48295667D01*
X84837515Y48291062D01*
X84833296Y48286353D01*
X84829192Y48281542D01*
X84825207Y48276633D01*
X84821342Y48271628D01*
X84817601Y48266531D01*
X84813984Y48261344D01*
X84810496Y48256070D01*
X84807136Y48250714D01*
X84803908Y48245277D01*
X84800813Y48239762D01*
X84797854Y48234175D01*
X84795031Y48228516D01*
X84792348Y48222791D01*
X84789804Y48217002D01*
X84787402Y48211153D01*
X84785143Y48205247D01*
X84783029Y48199288D01*
X84781060Y48193279D01*
X84779238Y48187224D01*
X84777565Y48181126D01*
X84776040Y48174990D01*
X84774665Y48168818D01*
X84773441Y48162614D01*
X84772368Y48156383D01*
X84771448Y48150127D01*
X84770680Y48143851D01*
X84770065Y48137558D01*
X84769603Y48131251D01*
X84769295Y48124936D01*
X84769141Y48118615D01*
X84769141Y48112291D01*
X84769295Y48105970D01*
X84769603Y48099655D01*
X84770065Y48093348D01*
X84770680Y48087055D01*
X84771448Y48080779D01*
X84772368Y48074523D01*
X84773441Y48068292D01*
X84774665Y48062088D01*
X84776040Y48055916D01*
X84777565Y48049780D01*
X84779238Y48043682D01*
X84781060Y48037627D01*
X84783029Y48031618D01*
X84785143Y48025659D01*
X84787402Y48019753D01*
X84789804Y48013904D01*
X84792348Y48008115D01*
X84795031Y48002390D01*
X84797854Y47996731D01*
X84800813Y47991144D01*
X84803908Y47985630D01*
X84807136Y47980192D01*
X84810496Y47974836D01*
X84813984Y47969562D01*
X84817601Y47964375D01*
X84821342Y47959278D01*
X84825207Y47954273D01*
X84829192Y47949364D01*
X84833296Y47944553D01*
X84837515Y47939844D01*
X84841848Y47935239D01*
X84846292Y47930740D01*
X84850844Y47926352D01*
X84855502Y47922075D01*
X84860262Y47917913D01*
X84865122Y47913869D01*
X84870080Y47909943D01*
X84875131Y47906140D01*
X84880274Y47902461D01*
X84885504Y47898908D01*
X84890820Y47895484D01*
X84896217Y47892190D01*
X84901693Y47889028D01*
X84907244Y47886001D01*
X84912868Y47883109D01*
X84918560Y47880356D01*
X84924318Y47877742D01*
X84930137Y47875269D01*
X84936015Y47872939D01*
X84941948Y47870752D01*
X84947933Y47868710D01*
X84953965Y47866815D01*
X84960042Y47865067D01*
X84966159Y47863468D01*
X84972314Y47862018D01*
X84978502Y47860718D01*
X84984720Y47859570D01*
X84990964Y47858573D01*
X84997231Y47857729D01*
X85003516Y47857037D01*
X85009816Y47856499D01*
X85016127Y47856114D01*
X85022446Y47855883D01*
X85028769Y47855806D01*
X85028769Y47855809D02*
X85288413Y47855809D01*
X84015594Y47725988D02*
X83626128Y47725988D01*
X84015594Y47725987D02*
X84021868Y47726063D01*
X84028138Y47726290D01*
X84034401Y47726669D01*
X84040653Y47727199D01*
X84046891Y47727880D01*
X84053110Y47728712D01*
X84059307Y47729693D01*
X84065479Y47730824D01*
X84071621Y47732104D01*
X84077731Y47733532D01*
X84083804Y47735107D01*
X84089838Y47736828D01*
X84095828Y47738695D01*
X84101772Y47740706D01*
X84107665Y47742860D01*
X84113504Y47745155D01*
X84119287Y47747591D01*
X84125008Y47750167D01*
X84130666Y47752879D01*
X84136257Y47755728D01*
X84141777Y47758710D01*
X84147223Y47761826D01*
X84152593Y47765072D01*
X84157882Y47768447D01*
X84163089Y47771948D01*
X84168209Y47775575D01*
X84173240Y47779324D01*
X84178179Y47783193D01*
X84183023Y47787181D01*
X84187770Y47791285D01*
X84192416Y47795502D01*
X84196958Y47799830D01*
X84201395Y47804267D01*
X84205723Y47808809D01*
X84209940Y47813455D01*
X84214044Y47818202D01*
X84218032Y47823046D01*
X84221901Y47827985D01*
X84225650Y47833016D01*
X84229277Y47838136D01*
X84232778Y47843343D01*
X84236153Y47848632D01*
X84239399Y47854002D01*
X84242515Y47859448D01*
X84245497Y47864968D01*
X84248346Y47870559D01*
X84251058Y47876217D01*
X84253634Y47881938D01*
X84256070Y47887721D01*
X84258365Y47893560D01*
X84260519Y47899453D01*
X84262530Y47905397D01*
X84264397Y47911387D01*
X84266118Y47917421D01*
X84267693Y47923494D01*
X84269121Y47929604D01*
X84270401Y47935746D01*
X84271532Y47941918D01*
X84272513Y47948115D01*
X84273345Y47954334D01*
X84274026Y47960572D01*
X84274556Y47966824D01*
X84274935Y47973087D01*
X84275162Y47979357D01*
X84275238Y47985631D01*
X84275238Y48050544D01*
X84275237Y48050544D02*
X84275141Y48058447D01*
X84274852Y48066346D01*
X84274371Y48074235D01*
X84273698Y48082110D01*
X84272834Y48089967D01*
X84271778Y48097800D01*
X84270532Y48105605D01*
X84269097Y48113377D01*
X84267472Y48121112D01*
X84265660Y48128806D01*
X84263661Y48136452D01*
X84261476Y48144048D01*
X84259107Y48151589D01*
X84256555Y48159069D01*
X84253822Y48166485D01*
X84250908Y48173833D01*
X84247817Y48181107D01*
X84244550Y48188304D01*
X84241108Y48195419D01*
X84237494Y48202448D01*
X84233710Y48209387D01*
X84229758Y48216232D01*
X84225641Y48222979D01*
X84221360Y48229624D01*
X84216919Y48236162D01*
X84212320Y48242590D01*
X84207566Y48248904D01*
X84202659Y48255101D01*
X84197604Y48261176D01*
X84192401Y48267126D01*
X84187056Y48272948D01*
X84181570Y48278638D01*
X84175947Y48284193D01*
X84170191Y48289609D01*
X84164304Y48294884D01*
X84158291Y48300013D01*
X84152154Y48304995D01*
X84145898Y48309825D01*
X84139527Y48314502D01*
X84133043Y48319022D01*
X84126451Y48323383D01*
X84119755Y48327583D01*
X84112959Y48331618D01*
X84106066Y48335486D01*
X84099082Y48339185D01*
X84092009Y48342713D01*
X84084852Y48346068D01*
X84077616Y48349248D01*
X84070305Y48352250D01*
X84062923Y48355074D01*
X84055474Y48357717D01*
X84047963Y48360177D01*
X84040394Y48362455D01*
X84032772Y48364547D01*
X84025101Y48366453D01*
X84017387Y48368171D01*
X84009632Y48369701D01*
X84001843Y48371042D01*
X83994023Y48372193D01*
X83986178Y48373153D01*
X83978312Y48373922D01*
X83970429Y48374499D01*
X83962534Y48374883D01*
X83954633Y48375076D01*
X83946729Y48375076D01*
X83938828Y48374883D01*
X83930933Y48374499D01*
X83923050Y48373922D01*
X83915184Y48373153D01*
X83907339Y48372193D01*
X83899519Y48371042D01*
X83891730Y48369701D01*
X83883975Y48368171D01*
X83876261Y48366453D01*
X83868590Y48364547D01*
X83860968Y48362455D01*
X83853399Y48360177D01*
X83845888Y48357717D01*
X83838439Y48355074D01*
X83831057Y48352250D01*
X83823746Y48349248D01*
X83816510Y48346068D01*
X83809353Y48342713D01*
X83802280Y48339185D01*
X83795296Y48335486D01*
X83788403Y48331618D01*
X83781607Y48327583D01*
X83774911Y48323383D01*
X83768319Y48319022D01*
X83761835Y48314502D01*
X83755464Y48309825D01*
X83749208Y48304995D01*
X83743071Y48300013D01*
X83737058Y48294884D01*
X83731171Y48289609D01*
X83725415Y48284193D01*
X83719792Y48278638D01*
X83714306Y48272948D01*
X83708961Y48267126D01*
X83703758Y48261176D01*
X83698703Y48255101D01*
X83693796Y48248904D01*
X83689042Y48242590D01*
X83684443Y48236162D01*
X83680002Y48229624D01*
X83675721Y48222979D01*
X83671604Y48216232D01*
X83667652Y48209387D01*
X83663868Y48202448D01*
X83660254Y48195419D01*
X83656812Y48188304D01*
X83653545Y48181107D01*
X83650454Y48173833D01*
X83647540Y48166485D01*
X83644807Y48159069D01*
X83642255Y48151589D01*
X83639886Y48144048D01*
X83637701Y48136452D01*
X83635702Y48128806D01*
X83633890Y48121112D01*
X83632265Y48113377D01*
X83630830Y48105605D01*
X83629584Y48097800D01*
X83628528Y48089967D01*
X83627664Y48082110D01*
X83626991Y48074235D01*
X83626510Y48066346D01*
X83626221Y48058447D01*
X83626125Y48050544D01*
X83626128Y48050544D02*
X83626128Y47725988D01*
X83626280Y47713440D01*
X83626734Y47700899D01*
X83627492Y47688373D01*
X83628552Y47675869D01*
X83629914Y47663395D01*
X83631577Y47650957D01*
X83633540Y47638562D01*
X83635802Y47626219D01*
X83638362Y47613934D01*
X83641218Y47601714D01*
X83644368Y47589567D01*
X83647810Y47577500D01*
X83651544Y47565519D01*
X83655565Y47553632D01*
X83659873Y47541846D01*
X83664465Y47530167D01*
X83669337Y47518603D01*
X83674487Y47507159D01*
X83679912Y47495844D01*
X83685609Y47484663D01*
X83691575Y47473623D01*
X83697805Y47462730D01*
X83704297Y47451991D01*
X83711047Y47441412D01*
X83718050Y47430999D01*
X83725303Y47420758D01*
X83732801Y47410696D01*
X83740540Y47400818D01*
X83748516Y47391129D01*
X83756723Y47381636D01*
X83765158Y47372345D01*
X83773814Y47363259D01*
X83782687Y47354386D01*
X83791773Y47345730D01*
X83801064Y47337295D01*
X83810557Y47329088D01*
X83820246Y47321112D01*
X83830124Y47313373D01*
X83840186Y47305875D01*
X83850427Y47298622D01*
X83860840Y47291619D01*
X83871419Y47284869D01*
X83882158Y47278377D01*
X83893051Y47272147D01*
X83904091Y47266181D01*
X83915272Y47260484D01*
X83926587Y47255059D01*
X83938031Y47249909D01*
X83949595Y47245037D01*
X83961274Y47240445D01*
X83973060Y47236137D01*
X83984947Y47232116D01*
X83996928Y47228382D01*
X84008995Y47224940D01*
X84021142Y47221790D01*
X84033362Y47218934D01*
X84045647Y47216374D01*
X84057990Y47214112D01*
X84070385Y47212149D01*
X84082823Y47210486D01*
X84095297Y47209124D01*
X84107801Y47208064D01*
X84120327Y47207306D01*
X84132868Y47206852D01*
X84145416Y47206700D01*
D13*
X69380900Y63920000D02*
X69380900Y65620000D01*
X67779100Y65620000D02*
X67779100Y63920000D01*
D15*
X70066700Y63306131D02*
X71235100Y63306131D01*
X71235100Y63630684D01*
X71235004Y63638587D01*
X71234715Y63646486D01*
X71234234Y63654375D01*
X71233561Y63662250D01*
X71232697Y63670107D01*
X71231641Y63677940D01*
X71230395Y63685745D01*
X71228960Y63693517D01*
X71227335Y63701252D01*
X71225523Y63708946D01*
X71223524Y63716592D01*
X71221339Y63724188D01*
X71218970Y63731729D01*
X71216418Y63739209D01*
X71213685Y63746625D01*
X71210771Y63753973D01*
X71207680Y63761247D01*
X71204413Y63768444D01*
X71200971Y63775559D01*
X71197357Y63782588D01*
X71193573Y63789527D01*
X71189621Y63796372D01*
X71185504Y63803119D01*
X71181223Y63809764D01*
X71176782Y63816302D01*
X71172183Y63822730D01*
X71167429Y63829044D01*
X71162522Y63835241D01*
X71157467Y63841316D01*
X71152264Y63847266D01*
X71146919Y63853088D01*
X71141433Y63858778D01*
X71135810Y63864333D01*
X71130054Y63869749D01*
X71124167Y63875024D01*
X71118154Y63880153D01*
X71112017Y63885135D01*
X71105761Y63889965D01*
X71099390Y63894642D01*
X71092906Y63899162D01*
X71086314Y63903523D01*
X71079618Y63907723D01*
X71072822Y63911758D01*
X71065929Y63915626D01*
X71058945Y63919325D01*
X71051872Y63922853D01*
X71044715Y63926208D01*
X71037479Y63929388D01*
X71030168Y63932390D01*
X71022786Y63935214D01*
X71015337Y63937857D01*
X71007826Y63940317D01*
X71000257Y63942595D01*
X70992635Y63944687D01*
X70984964Y63946593D01*
X70977250Y63948311D01*
X70969495Y63949841D01*
X70961706Y63951182D01*
X70953886Y63952333D01*
X70946041Y63953293D01*
X70938175Y63954062D01*
X70930292Y63954639D01*
X70922397Y63955023D01*
X70914496Y63955216D01*
X70906592Y63955216D01*
X70898691Y63955023D01*
X70890796Y63954639D01*
X70882913Y63954062D01*
X70875047Y63953293D01*
X70867202Y63952333D01*
X70859382Y63951182D01*
X70851593Y63949841D01*
X70843838Y63948311D01*
X70836124Y63946593D01*
X70828453Y63944687D01*
X70820831Y63942595D01*
X70813262Y63940317D01*
X70805751Y63937857D01*
X70798302Y63935214D01*
X70790920Y63932390D01*
X70783609Y63929388D01*
X70776373Y63926208D01*
X70769216Y63922853D01*
X70762143Y63919325D01*
X70755159Y63915626D01*
X70748266Y63911758D01*
X70741470Y63907723D01*
X70734774Y63903523D01*
X70728182Y63899162D01*
X70721698Y63894642D01*
X70715327Y63889965D01*
X70709071Y63885135D01*
X70702934Y63880153D01*
X70696921Y63875024D01*
X70691034Y63869749D01*
X70685278Y63864333D01*
X70679655Y63858778D01*
X70674169Y63853088D01*
X70668824Y63847266D01*
X70663621Y63841316D01*
X70658566Y63835241D01*
X70653659Y63829044D01*
X70648905Y63822730D01*
X70644306Y63816302D01*
X70639865Y63809764D01*
X70635584Y63803119D01*
X70631467Y63796372D01*
X70627515Y63789527D01*
X70623731Y63782588D01*
X70620117Y63775559D01*
X70616675Y63768444D01*
X70613408Y63761247D01*
X70610317Y63753973D01*
X70607403Y63746625D01*
X70604670Y63739209D01*
X70602118Y63731729D01*
X70599749Y63724188D01*
X70597564Y63716592D01*
X70595565Y63708946D01*
X70593753Y63701252D01*
X70592128Y63693517D01*
X70590693Y63685745D01*
X70589447Y63677940D01*
X70588391Y63670107D01*
X70587527Y63662250D01*
X70586854Y63654375D01*
X70586373Y63646486D01*
X70586084Y63638587D01*
X70585988Y63630684D01*
X70585988Y63306131D01*
X70585988Y63695597D02*
X70066700Y63955241D01*
X70326344Y64441766D02*
X71235100Y64701409D01*
X70326344Y64441766D02*
X70326344Y65090875D01*
X70585988Y64896141D02*
X70066700Y64896141D01*
X70066700Y65584763D02*
X70066700Y65974228D01*
X70066776Y65980502D01*
X70067003Y65986772D01*
X70067382Y65993035D01*
X70067912Y65999287D01*
X70068593Y66005525D01*
X70069425Y66011744D01*
X70070406Y66017941D01*
X70071537Y66024113D01*
X70072817Y66030255D01*
X70074245Y66036365D01*
X70075820Y66042438D01*
X70077541Y66048472D01*
X70079408Y66054462D01*
X70081419Y66060406D01*
X70083573Y66066299D01*
X70085868Y66072138D01*
X70088304Y66077921D01*
X70090880Y66083642D01*
X70093592Y66089300D01*
X70096441Y66094891D01*
X70099423Y66100411D01*
X70102539Y66105857D01*
X70105785Y66111227D01*
X70109160Y66116516D01*
X70112661Y66121723D01*
X70116288Y66126843D01*
X70120037Y66131874D01*
X70123906Y66136813D01*
X70127894Y66141657D01*
X70131998Y66146404D01*
X70136215Y66151050D01*
X70140543Y66155592D01*
X70144980Y66160029D01*
X70149522Y66164357D01*
X70154168Y66168574D01*
X70158915Y66172678D01*
X70163759Y66176666D01*
X70168698Y66180535D01*
X70173729Y66184284D01*
X70178849Y66187911D01*
X70184056Y66191412D01*
X70189345Y66194787D01*
X70194715Y66198033D01*
X70200161Y66201149D01*
X70205681Y66204131D01*
X70211272Y66206980D01*
X70216930Y66209692D01*
X70222651Y66212268D01*
X70228434Y66214704D01*
X70234273Y66216999D01*
X70240166Y66219153D01*
X70246110Y66221164D01*
X70252100Y66223031D01*
X70258134Y66224752D01*
X70264207Y66226327D01*
X70270317Y66227755D01*
X70276459Y66229035D01*
X70282631Y66230166D01*
X70288828Y66231147D01*
X70295047Y66231979D01*
X70301285Y66232660D01*
X70307537Y66233190D01*
X70313800Y66233569D01*
X70320070Y66233796D01*
X70326344Y66233872D01*
X70456166Y66233872D01*
X70462440Y66233796D01*
X70468710Y66233569D01*
X70474973Y66233190D01*
X70481225Y66232660D01*
X70487463Y66231979D01*
X70493682Y66231147D01*
X70499879Y66230166D01*
X70506051Y66229035D01*
X70512193Y66227755D01*
X70518303Y66226327D01*
X70524376Y66224752D01*
X70530410Y66223031D01*
X70536400Y66221164D01*
X70542344Y66219153D01*
X70548237Y66216999D01*
X70554076Y66214704D01*
X70559859Y66212268D01*
X70565580Y66209692D01*
X70571238Y66206980D01*
X70576829Y66204131D01*
X70582349Y66201149D01*
X70587795Y66198033D01*
X70593165Y66194787D01*
X70598454Y66191412D01*
X70603661Y66187911D01*
X70608781Y66184284D01*
X70613812Y66180535D01*
X70618751Y66176666D01*
X70623595Y66172678D01*
X70628342Y66168574D01*
X70632988Y66164357D01*
X70637530Y66160029D01*
X70641967Y66155592D01*
X70646295Y66151050D01*
X70650512Y66146404D01*
X70654616Y66141657D01*
X70658604Y66136813D01*
X70662473Y66131874D01*
X70666222Y66126843D01*
X70669849Y66121723D01*
X70673350Y66116516D01*
X70676725Y66111227D01*
X70679971Y66105857D01*
X70683087Y66100411D01*
X70686069Y66094891D01*
X70688918Y66089300D01*
X70691630Y66083642D01*
X70694206Y66077921D01*
X70696642Y66072138D01*
X70698937Y66066299D01*
X70701091Y66060406D01*
X70703102Y66054462D01*
X70704969Y66048472D01*
X70706690Y66042438D01*
X70708265Y66036365D01*
X70709693Y66030255D01*
X70710973Y66024113D01*
X70712104Y66017941D01*
X70713085Y66011744D01*
X70713917Y66005525D01*
X70714598Y65999287D01*
X70715128Y65993035D01*
X70715507Y65986772D01*
X70715734Y65980502D01*
X70715810Y65974228D01*
X70715809Y65974228D02*
X70715809Y65584763D01*
X71235100Y65584763D01*
X71235100Y66233872D01*
M02*
