M48
;GenerationSoftware,Autodesk,EAGLE,9.7.0*%
;CreationDate,2022-07-20T16:53:52Z*%
FMAT,2
ICI,OFF
METRIC,TZ,000.000
T5C0.600
T4C1.000
T3C1.016
T2C1.270
T1C1.300
%
G90
M71
T1
X41910Y120650
X36910Y120650
X31910Y120650
X26910Y120650
X21910Y120650
X16910Y120650
X11910Y120650
T2
X26670Y6350
X31750Y6350
T3
X29210Y1270
X26670Y1270
X24130Y1270
X21590Y1270
X21590Y3810
X21590Y6350
X21590Y8890
X24130Y11430
X26670Y11430
X29210Y11430
X31750Y11430
X21590Y11430
X36830Y11430
X36830Y6350
X36830Y8890
X36830Y3810
X36830Y1270
X34290Y1270
X31750Y1270
T4
X50800Y36830
X50800Y29210
X50800Y24130
X50800Y19050
X43180Y36830
X43180Y29210
X43180Y24130
X43180Y19050
T5
X53340Y114300
X22860Y106680
X54610Y102870
X44450Y100330
M30