G04 EAGLE Gerber X2 export*
%TF.Part,Single*%
%TF.FileFunction,Soldermask,Top*%
%TF.FilePolarity,Positive*%
%TF.GenerationSoftware,Autodesk,EAGLE,9.7.0*%
%TF.CreationDate,2022-06-29T19:00:45Z*%
G75*
%MOMM*%
%FSLAX26Y26*%
%LPD*%
%INtop soldermask*%
%AMOC8*
5,1,8,0,0,1.08239X$1,22.5*%
G01*
G04 Define Apertures*
%ADD10R,2.303200X2.303200*%
%ADD11C,2.303200*%
%ADD12C,4.219200*%
%ADD13R,1.727200X1.727200*%
%ADD14C,3.759200*%
%ADD15C,1.727200*%
%ADD16R,1.177100X1.001900*%
%ADD17C,4.719200*%
%ADD18R,0.843200X2.043200*%
%ADD19R,1.001900X1.177100*%
%ADD20R,1.703200X2.103200*%
%ADD21R,2.153200X2.153200*%
%ADD22C,2.153200*%
%ADD23R,4.203200X1.253200*%
%ADD24R,7.103200X10.703200*%
%ADD25C,4.619200*%
%ADD26C,0.959600*%
D10*
X95380000Y43580000D03*
D11*
X95380000Y47780000D03*
X95380000Y51980000D03*
X95380000Y56180000D03*
X95380000Y60380000D03*
X95380000Y64580000D03*
X100880000Y43580000D03*
X100880000Y47780000D03*
X100880000Y51980000D03*
X100880000Y56180000D03*
X100880000Y60380000D03*
X100880000Y64580000D03*
D10*
X95130000Y102390000D03*
D11*
X95130000Y106590000D03*
X95130000Y110790000D03*
X100630000Y102390000D03*
X100630000Y106590000D03*
X100630000Y110790000D03*
D10*
X97504800Y148895000D03*
D11*
X97504800Y144695000D03*
X97504800Y140495000D03*
D12*
X93654800Y140495000D03*
X103054800Y146795000D03*
D10*
X95632400Y74380000D03*
D11*
X101132400Y74380000D03*
D10*
X95380000Y84110000D03*
D11*
X95380000Y88310000D03*
X95380000Y92510000D03*
X100880000Y84110000D03*
X100880000Y88310000D03*
X100880000Y92510000D03*
D13*
X-44216356Y103760000D03*
X-41676356Y103760000D03*
X-39136356Y103760000D03*
X-36596356Y103760000D03*
X-34056356Y103760000D03*
X-31516356Y103760000D03*
X-28976356Y103760000D03*
X-26436356Y103760000D03*
X-21356356Y103760000D03*
X-18816356Y103760000D03*
X-16276356Y103760000D03*
X-13736356Y103760000D03*
X-11196356Y103760000D03*
X-8656356Y103760000D03*
X-6116356Y103760000D03*
X-3576356Y103760000D03*
X1503644Y103760000D03*
X4043644Y103760000D03*
X6583644Y103760000D03*
X9123644Y103760000D03*
X11663644Y103760000D03*
X14203644Y103760000D03*
X16743644Y103760000D03*
X19283644Y103760000D03*
X-48280356Y152020000D03*
X-45740356Y152020000D03*
X-43200356Y152020000D03*
X-40660356Y152020000D03*
X-38120356Y152020000D03*
X-35580356Y152020000D03*
X-33040356Y152020000D03*
X-30500356Y152020000D03*
X-26436356Y152020000D03*
X-23896356Y152020000D03*
X-21356356Y152020000D03*
X-18816356Y152020000D03*
X-16276356Y152020000D03*
X-13736356Y152020000D03*
X-11196356Y152020000D03*
X-8656356Y152020000D03*
X-3576356Y152020000D03*
X-1036356Y152020000D03*
X1503644Y152020000D03*
X4043644Y152020000D03*
X6583644Y152020000D03*
X9123644Y152020000D03*
X11663644Y152020000D03*
X14203644Y152020000D03*
X-53360356Y152020000D03*
X-50820356Y152020000D03*
X21823644Y134240000D03*
X21823644Y136780000D03*
X21823644Y139320000D03*
X21823644Y141860000D03*
X21823644Y144400000D03*
X21823644Y146940000D03*
X21823644Y149480000D03*
X21823644Y152020000D03*
X21823644Y113920000D03*
X21823644Y116460000D03*
X21823644Y119000000D03*
X21823644Y121540000D03*
X21823644Y124080000D03*
X21823644Y126620000D03*
X21823644Y129160000D03*
X21823644Y131700000D03*
X24363644Y134240000D03*
X24363644Y136780000D03*
X24363644Y139320000D03*
X24363644Y141860000D03*
X24363644Y144400000D03*
X24363644Y146940000D03*
X24363644Y149480000D03*
X24363644Y152020000D03*
X24363644Y113920000D03*
X24363644Y116460000D03*
X24363644Y119000000D03*
X24363644Y121540000D03*
X24363644Y124080000D03*
X24363644Y126620000D03*
X24363644Y129160000D03*
X24363644Y131700000D03*
X21823644Y108840000D03*
X21823644Y111380000D03*
X24363644Y108840000D03*
X24363644Y111380000D03*
D14*
X-42818000Y83820000D03*
X-42818000Y40640000D03*
X-78378000Y40640000D03*
X-78378000Y83820000D03*
D15*
X-42183000Y80010000D03*
X-42183000Y77470000D03*
X-42183000Y74930000D03*
X-42183000Y72390000D03*
X-42183000Y69850000D03*
X-42183000Y67310000D03*
X-42183000Y64770000D03*
X-42183000Y62230000D03*
X-42183000Y59690000D03*
X-42183000Y57150000D03*
X-42183000Y54610000D03*
X-42183000Y49530000D03*
X-42183000Y46990000D03*
X-42183000Y44450000D03*
X-42183000Y52070000D03*
D16*
X19990000Y96584800D03*
X19990000Y98215200D03*
D17*
X80940000Y151270000D03*
D12*
X80940000Y157270000D03*
X76240000Y154270000D03*
D18*
X12450000Y60915000D03*
X14990000Y60915000D03*
X12450000Y70285000D03*
X14990000Y70285000D03*
D19*
X6856800Y73657000D03*
X8487200Y73657000D03*
X14907200Y73678000D03*
X13276800Y73678000D03*
D18*
X6206000Y70403000D03*
X3666000Y70403000D03*
X6206000Y61033000D03*
X3666000Y61033000D03*
D19*
X3303200Y73676000D03*
X1672800Y73676000D03*
X9349800Y57119000D03*
X10980200Y57119000D03*
D18*
X-5050000Y60915000D03*
X-2510000Y60915000D03*
X-5050000Y70285000D03*
X-2510000Y70285000D03*
D19*
X2033200Y57179000D03*
X402800Y57179000D03*
X-10384200Y50795000D03*
X-8753800Y50795000D03*
D18*
X39540000Y60915000D03*
X42080000Y60915000D03*
X39540000Y70285000D03*
X42080000Y70285000D03*
D16*
X42460000Y53164800D03*
X42460000Y54795200D03*
D19*
X39114800Y74888000D03*
X40745200Y74888000D03*
D18*
X-4150000Y44405000D03*
X-1610000Y44405000D03*
X-4150000Y53775000D03*
X-1610000Y53775000D03*
D19*
X-459800Y40045000D03*
X-2090200Y40045000D03*
X-6729800Y57190000D03*
X-8360200Y57190000D03*
D18*
X4230000Y44405000D03*
X6770000Y44405000D03*
X4230000Y53775000D03*
X6770000Y53775000D03*
D19*
X4269800Y39967000D03*
X5900200Y39967000D03*
X4697800Y57112000D03*
X6328200Y57112000D03*
D18*
X12610000Y44405000D03*
X15150000Y44405000D03*
X12610000Y53775000D03*
X15150000Y53775000D03*
D19*
X14349800Y57114000D03*
X15980200Y57114000D03*
D16*
X22403000Y53783800D03*
X22403000Y55414200D03*
X22418000Y48830800D03*
X22418000Y50461200D03*
X22306000Y43623800D03*
X22306000Y45254200D03*
D18*
X21670000Y60915000D03*
X24210000Y60915000D03*
X21670000Y70285000D03*
X24210000Y70285000D03*
D19*
X32560200Y74924950D03*
X30929800Y74924950D03*
D16*
X-11382000Y62993200D03*
X-11382000Y61362800D03*
X-11382000Y69423200D03*
X-11382000Y67792800D03*
X-11397000Y75740200D03*
X-11397000Y74109800D03*
D18*
X30700000Y60915000D03*
X33240000Y60915000D03*
X30700000Y70285000D03*
X33240000Y70285000D03*
D19*
X27480200Y74895000D03*
X25849800Y74895000D03*
D16*
X32420000Y53869800D03*
X32420000Y55500200D03*
X32420000Y48742800D03*
X32420000Y50373200D03*
X32365000Y43639800D03*
X32365000Y45270200D03*
D18*
X47350000Y60915000D03*
X49890000Y60915000D03*
X47350000Y70285000D03*
X49890000Y70285000D03*
D19*
X51610200Y74908000D03*
X49979800Y74908000D03*
D16*
X49508000Y53846800D03*
X49508000Y55477200D03*
X49508000Y48686800D03*
X49508000Y50317200D03*
X49396000Y43766800D03*
X49396000Y45397200D03*
X34290000Y79194800D03*
X34290000Y80825200D03*
X24130000Y79194800D03*
X24130000Y80825200D03*
X-6350000Y79194800D03*
X-6350000Y80825200D03*
X-1270000Y79194800D03*
X-1270000Y80825200D03*
X3810000Y79194800D03*
X3810000Y80825200D03*
X13970000Y79194800D03*
X13970000Y80825200D03*
D20*
X34290000Y94152000D03*
X36830000Y94152000D03*
X34290000Y85852000D03*
X36830000Y85852000D03*
X24130000Y94152000D03*
X26670000Y94152000D03*
X24130000Y85852000D03*
X26670000Y85852000D03*
X13970000Y94152000D03*
X16510000Y94152000D03*
X13970000Y85852000D03*
X16510000Y85852000D03*
X3810000Y94152000D03*
X6350000Y94152000D03*
X3810000Y85852000D03*
X6350000Y85852000D03*
X-6350000Y94152000D03*
X-3810000Y94152000D03*
X-6350000Y85852000D03*
X-3810000Y85852000D03*
D21*
X67310000Y149860000D03*
D22*
X62310000Y149860000D03*
X57310000Y149860000D03*
X52310000Y149860000D03*
X47310000Y149860000D03*
X42310000Y149860000D03*
X37310000Y149860000D03*
D19*
X33347800Y111379000D03*
X34978200Y111379000D03*
D22*
X53340000Y120650000D03*
X53340000Y132850000D03*
X59340000Y118650000D03*
X65340000Y120650000D03*
X65340000Y132850000D03*
D16*
X38100000Y133804800D03*
X38100000Y135435200D03*
D20*
X38100000Y120478000D03*
X35560000Y120478000D03*
X38100000Y128778000D03*
X35560000Y128778000D03*
D23*
X49530000Y107950000D03*
X49530000Y105410000D03*
X49530000Y102870000D03*
D24*
X60180000Y105410000D03*
D23*
X49530000Y92710000D03*
X49530000Y90170000D03*
X49530000Y87630000D03*
D24*
X60180000Y90170000D03*
D25*
X7620000Y33020000D03*
D13*
X24130000Y31750000D03*
X26670000Y31750000D03*
X29210000Y31750000D03*
X31750000Y31750000D03*
X34290000Y31750000D03*
X36830000Y31750000D03*
X39370000Y31750000D03*
X41910000Y31750000D03*
X41910000Y8890000D03*
X39370000Y8890000D03*
X36830000Y8890000D03*
X34290000Y8890000D03*
X31750000Y8890000D03*
X29210000Y8890000D03*
X26670000Y8890000D03*
X24130000Y8890000D03*
D25*
X7620000Y7620000D03*
X58420000Y33020000D03*
X58420000Y7620000D03*
D10*
X95250000Y123190000D03*
D11*
X95250000Y127390000D03*
X100750000Y123190000D03*
X100750000Y127390000D03*
D12*
X100290000Y118490000D03*
X100290000Y132090000D03*
D26*
X0Y53340000D03*
X8890000Y53340000D03*
X2540000Y60960000D03*
X-7620000Y80010000D03*
X16510000Y71120000D03*
X22860000Y69850000D03*
X35560000Y71120000D03*
X-2540000Y72390000D03*
X50800000Y109855000D03*
X49530000Y109855000D03*
X48260000Y109855000D03*
X50800000Y111125000D03*
X49530000Y111125000D03*
X48260000Y96012000D03*
X49530000Y96012000D03*
X50800000Y96012000D03*
X50800000Y94742000D03*
X49530000Y94742000D03*
X48260000Y94742000D03*
X48260000Y111125000D03*
X3810000Y77470000D03*
X13970000Y54610000D03*
X16510000Y78968200D03*
X21590000Y78968200D03*
X38100000Y80010000D03*
X38100000Y137160000D03*
X43942000Y71060106D03*
X52070000Y69536106D03*
X53340000Y113030000D03*
X38100000Y111760000D03*
X22860000Y91440000D03*
X-22860000Y139700000D03*
X22860000Y105410000D03*
X-27940000Y106680000D03*
X-10160000Y90170000D03*
X0Y86360000D03*
X3810000Y91440000D03*
X11430000Y93980000D03*
X-1270000Y105410000D03*
X-11430000Y137160000D03*
X-20320000Y144780000D03*
X-26670000Y107950000D03*
X-22860000Y99060000D03*
X-15240000Y96520000D03*
X-10160000Y93980000D03*
X12700000Y72390000D03*
X0Y71120000D03*
X-7792600Y73660000D03*
X-5080000Y72390000D03*
X-7112000Y72390000D03*
X-8890000Y83820000D03*
X-12700000Y91440000D03*
X-15240000Y97790000D03*
X-16510000Y100919400D03*
X12610000Y47125616D03*
X1270000Y48260000D03*
X19050000Y57150000D03*
X48260000Y73660000D03*
X57150000Y73660000D03*
X95250000Y78740000D03*
X25400000Y57150000D03*
X35560000Y59690000D03*
X810200Y41062566D03*
X59889644Y40173566D03*
X102870000Y78740000D03*
X104183000Y62230000D03*
X38100000Y40189800D03*
X24130000Y99060000D03*
X27940000Y97790000D03*
X39370000Y97790000D03*
X46990000Y97790000D03*
X80010000Y97790000D03*
X85090000Y97790000D03*
X12700000Y57150000D03*
X-3810000Y81280000D03*
X-6350000Y82550000D03*
X0Y62955019D03*
X44450000Y73660000D03*
X66040000Y82550000D03*
X105410000Y110490000D03*
X91440000Y45720000D03*
X87630000Y67310000D03*
X53340000Y71120000D03*
X39370000Y85090000D03*
X60960000Y74930000D03*
X88900000Y74930000D03*
X48260000Y77378800D03*
X52912438Y80222231D03*
X57150000Y77470000D03*
X30480000Y92710000D03*
X27940000Y96520000D03*
X1270000Y59690000D03*
X22860000Y58420000D03*
X30480000Y58420000D03*
X73660000Y58420000D03*
X88900000Y60960000D03*
X39370000Y58420000D03*
X48260000Y58420000D03*
X52070000Y58420000D03*
X35560000Y39370000D03*
X1270000Y38100000D03*
X-11430000Y77470000D03*
X1270000Y82550000D03*
X1270000Y85090000D03*
X6350000Y87630000D03*
X19050000Y36830000D03*
X21590000Y36830000D03*
X7620000Y57150000D03*
X5080600Y54610000D03*
X49530000Y26670000D03*
X102870000Y36830000D03*
X102870000Y39370000D03*
X52070000Y44450000D03*
X90170000Y101600000D03*
X57150000Y115570000D03*
X3810000Y36830000D03*
X21590000Y93980000D03*
X31750000Y99060000D03*
X31750000Y101600000D03*
X21590000Y95904200D03*
X69850000Y115570000D03*
X46990000Y113030000D03*
X39370000Y107950000D03*
X19050000Y100330000D03*
X19050000Y93980000D03*
X30700000Y63635616D03*
X26670000Y72390000D03*
X34290000Y74930000D03*
X19050000Y72390000D03*
X11430000Y80010000D03*
X-2529400Y93980000D03*
X-6350000Y97790000D03*
X27940000Y71120000D03*
X91440000Y109220000D03*
X44450000Y80010000D03*
X26670000Y80010000D03*
X80010000Y99151200D03*
X31750000Y80010000D03*
X40640000Y78740000D03*
X22860000Y76200000D03*
X27940000Y69850000D03*
X29210000Y67310000D03*
X46990000Y73660000D03*
X48260000Y76200000D03*
X54610000Y81280000D03*
X67310000Y81280000D03*
X10160000Y76200000D03*
X29210000Y77470000D03*
X43180000Y81280000D03*
X54610000Y98470600D03*
X8840838Y71070838D03*
X30726950Y81526950D03*
X92548638Y110651363D03*
X39540000Y71735616D03*
X39114800Y77175566D03*
X53340000Y76200000D03*
X50633844Y78906156D03*
X-5080000Y57150000D03*
X-6350000Y59690000D03*
X-1270000Y85090000D03*
X-1270000Y96520000D03*
X-50800000Y67310000D03*
X-48260000Y64770000D03*
X33020000Y109220000D03*
X-53340000Y69850000D03*
X-25400000Y144780000D03*
X-25400000Y95250000D03*
X-24130000Y107950000D03*
X-22860000Y109220000D03*
X-27940000Y91440000D03*
X-21590000Y138430000D03*
X-29210000Y69850000D03*
X71120000Y77470000D03*
X21590000Y99060000D03*
X10160000Y62230000D03*
X17780000Y62230000D03*
X-1270000Y57150000D03*
X-1270000Y59690000D03*
X44450000Y60960000D03*
X43180000Y57150000D03*
X17780000Y43180000D03*
X13970000Y41910000D03*
X24210000Y63635616D03*
X-10160000Y62230000D03*
X36830000Y80010000D03*
X34290000Y83820000D03*
X-31750000Y109220000D03*
X-8890000Y111760000D03*
X30480000Y102870000D03*
X40640000Y102870000D03*
X6350000Y80010000D03*
X6350000Y82550000D03*
X33020000Y158750000D03*
X40640000Y120650000D03*
X-34056356Y95016356D03*
D25*
X-78740000Y33020000D03*
X-52070000Y158750000D03*
X102870000Y33020000D03*
X102870000Y158750000D03*
D26*
X102870000Y62230000D03*
X102870000Y72390000D03*
X97790000Y81280000D03*
X63500000Y49530000D03*
X57150000Y45720000D03*
X-21590000Y92710000D03*
X-18945363Y96520000D03*
X85090000Y77470000D03*
X91440000Y96520000D03*
X102870000Y96520000D03*
X102870000Y109220000D03*
X80010000Y77470000D03*
X88900000Y96520000D03*
X36830000Y96520000D03*
X36830000Y101600000D03*
X40640000Y116840000D03*
X64770000Y49530000D03*
X57150000Y44450000D03*
X-20320000Y96520000D03*
X-22378738Y93498738D03*
X43180000Y34290000D03*
X-35560000Y111760000D03*
X13861063Y109365063D03*
X13970000Y29210000D03*
X44450000Y34290000D03*
X-34661969Y110861969D03*
X13979031Y107959031D03*
X13071969Y30108031D03*
X45720000Y34290000D03*
X-33763938Y109963938D03*
X12173938Y31006063D03*
X-21590000Y97790000D03*
X-25400000Y90170000D03*
D25*
X-78740000Y92710000D03*
M02*
